<svg width="60" height="60" viewBox="0 0 60 60" fill="none" xmlns="http://www.w3.org/2000/svg">
<path d="M13.2541 34.2779C18.793 35.1495 24.3933 35.5718 30.0002 35.5407C35.6072 35.5718 41.2075 35.1495 46.7463 34.2779C46.8571 34.2577 46.9624 34.215 47.0559 34.1523C47.1494 34.0896 47.229 34.0084 47.2897 33.9136C47.3503 33.8188 47.3909 33.7125 47.4087 33.6014C47.4265 33.4903 47.4212 33.3767 47.3932 33.2677L44.862 23.3846C44.8199 23.2203 44.728 23.0731 44.5989 22.9632C44.4698 22.8532 44.3099 22.7859 44.141 22.7705C41.4368 22.5263 36.003 22.1143 29.9988 22.1143C23.9946 22.1143 18.5613 22.5239 15.8566 22.7705C15.6878 22.7859 15.5278 22.8532 15.3987 22.9632C15.2697 23.0731 15.1778 23.2203 15.1357 23.3846L12.6096 33.2677C12.5816 33.3767 12.5763 33.4903 12.5941 33.6014C12.6119 33.7125 12.6525 33.8188 12.7132 33.9136C12.7738 34.0084 12.8534 34.0896 12.9469 34.1523C13.0404 34.215 13.1458 34.2577 13.2565 34.2779H13.2541ZM16.5823 24.3539C19.4088 24.1097 24.4596 23.7572 29.9998 23.7572C35.5399 23.7572 40.5907 24.1097 43.4173 24.3539L45.5815 32.8046C40.4212 33.5475 35.2137 33.9136 30.0002 33.9C24.7868 33.9136 19.5793 33.5475 14.419 32.8046L16.5823 24.3539ZM36.2787 38.956H23.7218C23.4369 38.956 23.1559 39.0229 22.9014 39.1511C22.647 39.2794 22.4261 39.4655 22.2566 39.6945C22.0871 39.9235 21.9735 40.1891 21.9252 40.4699C21.8768 40.7507 21.8949 41.0389 21.978 41.3114L23.4419 46.1068C23.5855 46.5842 23.8795 47.0024 24.2802 47.2991C24.6808 47.5958 25.1667 47.755 25.6652 47.753H34.3371C34.8357 47.755 35.3215 47.5958 35.7222 47.2991C36.1228 47.0024 36.4169 46.5842 36.5604 46.1068L38.0243 41.3114C38.1074 41.0389 38.1255 40.7507 38.0772 40.4699C38.0288 40.1891 37.9153 39.9235 37.7457 39.6945C37.5762 39.4655 37.3554 39.2794 37.1009 39.1511C36.8465 39.0229 36.5655 38.956 36.2805 38.956H36.2787ZM28.9254 46.1124L28.3629 40.5966H31.6357L31.0732 46.1124H28.9254ZM25.0113 45.6282L23.5474 40.8324C23.5394 40.8052 23.5379 40.7765 23.5428 40.7487C23.5478 40.7208 23.5592 40.6944 23.5761 40.6717C23.593 40.649 23.615 40.6305 23.6403 40.6177C23.6656 40.6049 23.6935 40.5982 23.7218 40.598H26.7148L27.2773 46.1138H25.6652C25.5184 46.1143 25.3754 46.0673 25.2575 45.9798C25.1396 45.8922 25.0532 45.7689 25.0113 45.6282ZM36.453 40.8324L34.9891 45.6282C34.947 45.7686 34.8605 45.8917 34.7426 45.9789C34.6248 46.0662 34.4819 46.113 34.3352 46.1124H32.7246L33.2871 40.5966H36.2801C36.3084 40.5968 36.3363 40.6035 36.3616 40.6163C36.3869 40.6291 36.4088 40.6476 36.4257 40.6703C36.4426 40.693 36.454 40.7194 36.459 40.7472C36.464 40.7751 36.4624 40.8038 36.4544 40.831L36.453 40.8324ZM18.5398 38.4221L11.6599 36.7679C11.3811 36.7008 11.0904 36.7004 10.8114 36.7668C10.5323 36.8331 10.2729 36.9644 10.0542 37.1498C9.83542 37.3353 9.6635 37.5697 9.55237 37.8341C9.44124 38.0985 9.39404 38.3854 9.41461 38.6714L9.6382 41.7713C9.67233 42.2307 9.87863 42.6602 10.2158 42.9741C10.553 43.2879 10.9963 43.4628 11.457 43.4639H18.1132C18.5964 43.4627 19.0595 43.2702 19.4012 42.9285C19.7429 42.5868 19.9354 42.1237 19.9366 41.6405V40.1944C19.9378 39.7848 19.8004 39.3867 19.5468 39.065C19.2932 38.7433 18.9383 38.5167 18.5398 38.4221ZM18.2965 41.6405C18.2964 41.689 18.2771 41.7354 18.2428 41.7696C18.2085 41.8039 18.1621 41.8232 18.1137 41.8233H11.4574C11.4112 41.8232 11.3667 41.8056 11.3328 41.774C11.299 41.7425 11.2784 41.6993 11.2751 41.6532L11.052 38.5533C11.0502 38.5285 11.0536 38.5037 11.0617 38.4802C11.0699 38.4567 11.0827 38.4352 11.0995 38.4168C11.1162 38.3985 11.1365 38.3837 11.1591 38.3734C11.1817 38.3631 11.2062 38.3575 11.231 38.3569C11.2468 38.357 11.2625 38.3589 11.2779 38.3625L18.1587 40.0172C18.1987 40.0265 18.2344 40.049 18.26 40.0812C18.2855 40.1134 18.2994 40.1533 18.2993 40.1944L18.2965 41.6405ZM16.8185 44.9255H12.5285C12.311 44.9255 12.1023 45.0119 11.9485 45.1658C11.7946 45.3196 11.7082 45.5283 11.7082 45.7458C11.7082 45.9634 11.7946 46.172 11.9485 46.3259C12.1023 46.4797 12.311 46.5661 12.5285 46.5661H16.8185C17.0361 46.5661 17.2447 46.4797 17.3986 46.3259C17.5524 46.172 17.6388 45.9634 17.6388 45.7458C17.6388 45.5283 17.5524 45.3196 17.3986 45.1658C17.2447 45.0119 17.0361 44.9255 16.8185 44.9255Z" fill="#0073E6"/>
<path d="M57.0907 26.8638C56.8925 26.6358 56.6407 26.4607 56.358 26.3543C56.0752 26.2479 55.7705 26.2136 55.4711 26.2545L53.2554 26.553C52.2815 26.6851 51.3872 27.1619 50.7349 27.897L49.4852 29.3065L47.6904 22.2949C47.5196 21.631 47.1483 21.0359 46.6271 20.5906C46.1058 20.1454 45.46 19.8717 44.7775 19.8068C41.9829 19.5462 36.3466 19.1074 30.0002 19.1074C23.6538 19.1074 18.0175 19.5452 15.2229 19.8063C14.5404 19.8712 13.8946 20.1449 13.3733 20.5902C12.8521 21.0354 12.4808 21.6305 12.31 22.2945L10.5152 29.306L9.26551 27.8965C8.61318 27.1614 7.71891 26.6846 6.74504 26.5526L4.52926 26.254C4.23006 26.2136 3.92551 26.2481 3.64296 26.3545C3.36041 26.4609 3.10871 26.6358 2.91046 26.8636C2.71221 27.0913 2.57363 27.3646 2.50715 27.6592C2.44067 27.9537 2.44837 28.2601 2.52957 28.5509L2.9341 29.9951C3.11259 30.638 3.46537 31.2191 3.95344 31.6741C4.44151 32.129 5.04587 32.4402 5.69973 32.5732L8.94864 33.243L7.82364 34.5405C6.90169 35.6021 6.394 36.9609 6.39395 38.367V47.1326C6.39463 47.8564 6.57683 48.5684 6.92389 49.2036C7.27095 49.8387 7.77177 50.3767 8.38051 50.7682V55.4609C8.38014 56.0112 8.59825 56.5391 8.98693 56.9286C9.3756 57.3182 9.90303 57.5375 10.4533 57.5384H15.3504C15.9003 57.5377 16.4275 57.319 16.8164 56.9301C17.2052 56.5413 17.424 56.0141 17.4246 55.4641V51.468H42.5758V55.466C42.5764 56.0159 42.7952 56.5432 43.184 56.932C43.5729 57.3209 44.1001 57.5396 44.65 57.5402H49.5471C50.097 57.5396 50.6241 57.3209 51.0129 56.932C51.4017 56.5431 51.6203 56.0159 51.6208 55.466V50.7715C52.2296 50.38 52.7304 49.842 53.0774 49.2069C53.4245 48.5717 53.6067 47.8596 53.6074 47.1359V38.3702C53.6073 36.9642 53.0996 35.6054 52.1777 34.5438L51.0504 33.2463L54.2993 32.5765C54.9531 32.4435 55.5575 32.1323 56.0456 31.6773C56.5336 31.2224 56.8864 30.6413 57.0649 29.9984L57.4694 28.5541C57.5519 28.2631 57.5604 27.9561 57.4943 27.661C57.4281 27.3658 57.2894 27.0918 57.0907 26.8638ZM4.51379 29.5545L4.10926 28.1102C4.10052 28.0811 4.09942 28.0501 4.10607 28.0204C4.11272 27.9907 4.12689 27.9632 4.14723 27.9405C4.16647 27.9168 4.19168 27.8987 4.22028 27.888C4.24887 27.8773 4.2798 27.8744 4.30989 27.8796L6.5252 28.1787C7.10958 28.2576 7.6462 28.5437 8.03739 28.9849L10.0239 31.2251L9.88614 31.7632L6.0302 30.9663C5.6719 30.8935 5.34067 30.7232 5.07308 30.474C4.80549 30.2249 4.61194 29.9067 4.51379 29.5545ZM15.7839 55.4641C15.7838 55.5791 15.7381 55.6893 15.6568 55.7706C15.5755 55.8519 15.4653 55.8976 15.3504 55.8977H10.4533C10.3384 55.8975 10.2284 55.8517 10.1472 55.7704C10.066 55.6892 10.0203 55.579 10.0202 55.4641V51.4038C10.2525 51.4436 10.4876 51.4645 10.7233 51.4662H15.7858L15.7839 55.4641ZM49.9821 55.4641C49.9819 55.579 49.9363 55.6892 49.8551 55.7704C49.7739 55.8517 49.6638 55.8975 49.549 55.8977H44.65C44.5351 55.8976 44.4249 55.8519 44.3436 55.7706C44.2623 55.6893 44.2166 55.5791 44.2164 55.4641V51.468H49.2789C49.5146 51.4664 49.7498 51.4455 49.9821 51.4057V55.4641ZM51.9686 47.1359C51.9678 47.849 51.684 48.5327 51.1797 49.037C50.6754 49.5412 49.9916 49.8248 49.2785 49.8255H10.7219C10.0088 49.8248 9.325 49.5412 8.82068 49.037C8.31635 48.5327 8.03263 47.849 8.03176 47.1359V38.3702C8.03183 37.3595 8.39687 36.3827 9.05973 35.6196L11.1063 33.2637C11.1899 33.1672 11.2499 33.0526 11.2816 32.929L13.8996 22.7009C13.9858 22.3643 14.1737 22.0625 14.4378 21.8367C14.7019 21.611 15.0293 21.4722 15.3752 21.4395C18.1408 21.1816 23.7189 20.748 30.0002 20.748C36.2814 20.748 41.8596 21.1816 44.6252 21.4395C44.9711 21.4722 45.2985 21.611 45.5626 21.8367C45.8267 22.0625 46.0146 22.3643 46.1008 22.7009L48.7188 32.9276C48.7503 33.0513 48.8104 33.1659 48.8941 33.2623L50.9407 35.6182C51.6035 36.3813 51.9686 37.3581 51.9686 38.3688V47.1359ZM55.8911 28.1102L55.4866 29.5545C55.3888 29.907 55.1953 30.2256 54.9277 30.4751C54.6601 30.7246 54.3287 30.8953 53.9702 30.9682L50.1143 31.7651L49.9764 31.227L51.9625 28.9868C52.3539 28.5457 52.8904 28.2596 53.4747 28.1805L55.691 27.8815C55.721 27.8766 55.7517 27.8797 55.7802 27.8904C55.8086 27.9011 55.8338 27.919 55.8532 27.9424C55.8732 27.9649 55.8872 27.9921 55.8938 28.0214C55.9005 28.0508 55.8995 28.0813 55.8911 28.1102Z" fill="#0073E6"/>
<path d="M48.3406 36.7679L41.4612 38.4217C41.0624 38.5163 40.7074 38.7429 40.4536 39.0647C40.1999 39.3865 40.0623 39.7847 40.0634 40.1945V41.6406C40.0646 42.1238 40.2571 42.5869 40.5988 42.9286C40.9405 43.2703 41.4036 43.4628 41.8868 43.464H48.5431C49.0037 43.4629 49.447 43.288 49.7842 42.9741C50.1214 42.6603 50.3277 42.2308 50.3618 41.7714L50.5849 38.6715C50.6057 38.3855 50.5586 38.0985 50.4476 37.8341C50.3366 37.5697 50.1647 37.3352 49.9459 37.1497C49.7272 36.9642 49.4677 36.8329 49.1887 36.7666C48.9097 36.7003 48.6194 36.7007 48.3406 36.7679ZM48.7259 41.6532C48.7226 41.6994 48.7019 41.7426 48.6681 41.7741C48.6343 41.8057 48.5898 41.8233 48.5435 41.8234H41.8873C41.8388 41.8233 41.7924 41.804 41.7581 41.7697C41.7239 41.7355 41.7046 41.689 41.7045 41.6406V40.1945C41.7044 40.1534 41.7183 40.1134 41.7438 40.0812C41.7694 40.0489 41.805 40.0262 41.8451 40.0168L48.7254 38.3626C48.7407 38.3589 48.7565 38.357 48.7723 38.357C48.7971 38.3575 48.8217 38.3631 48.8443 38.3733C48.867 38.3836 48.8873 38.3984 48.9041 38.4167C48.9209 38.4351 48.9338 38.4567 48.942 38.4802C48.9502 38.5037 48.9535 38.5286 48.9518 38.5534L48.7259 41.6532ZM47.472 44.9256H43.182C42.9644 44.9256 42.7557 45.012 42.6019 45.1659C42.4481 45.3197 42.3616 45.5283 42.3616 45.7459C42.3616 45.9635 42.4481 46.1721 42.6019 46.326C42.7557 46.4798 42.9644 46.5662 43.182 46.5662H47.472C47.6895 46.5662 47.8982 46.4798 48.052 46.326C48.2058 46.1721 48.2923 45.9635 48.2923 45.7459C48.2923 45.5283 48.2058 45.3197 48.052 45.1659C47.8982 45.012 47.6895 44.9256 47.472 44.9256ZM16.969 12.4576C17.0767 12.4577 17.1834 12.4365 17.283 12.3953C17.3825 12.3541 17.473 12.2937 17.5492 12.2175C17.6254 12.1413 17.6858 12.0509 17.727 11.9513C17.7682 11.8518 17.7894 11.7451 17.7893 11.6373V8.5834L21.5627 9.79372V14.9472C21.5628 15.0834 21.5968 15.2175 21.6616 15.3374C21.7264 15.4573 21.82 15.5592 21.934 15.6339C22.0348 15.6995 24.4695 17.2511 29.9965 17.2511C35.5235 17.2511 37.9606 15.6995 38.059 15.6339C38.1744 15.56 38.2694 15.4585 38.3356 15.3386C38.4017 15.2187 38.4368 15.0841 38.4377 14.9472V9.79372L43.2818 8.24028C43.4474 8.18737 43.5918 8.08321 43.6943 7.94284C43.7968 7.80247 43.8521 7.63316 43.8521 7.45934C43.8521 7.28553 43.7968 7.11621 43.6943 6.97584C43.5918 6.83547 43.4474 6.73131 43.2818 6.6784L30.2506 2.49997C30.0877 2.44793 29.9127 2.44793 29.7499 2.49997L16.7187 6.6784C16.5531 6.73124 16.4086 6.83538 16.3061 6.97578C16.2037 7.11617 16.1485 7.28553 16.1487 7.45934V11.6373C16.1487 11.8549 16.2351 12.0635 16.3889 12.2174C16.5428 12.3712 16.7514 12.4576 16.969 12.4576ZM36.7971 14.4503C35.9824 14.8253 33.8149 15.6104 30.0002 15.6104C26.1856 15.6104 24.0152 14.8225 23.2034 14.4507V10.3197L29.7485 12.4182C29.9113 12.4708 30.0864 12.4708 30.2491 12.4182L36.7971 10.3197V14.4503ZM30.0002 4.14247L40.3446 7.45934L30.0002 10.7757L22.2143 8.27965H30.0002C30.2178 8.27965 30.4265 8.19323 30.5803 8.03939C30.7341 7.88555 30.8206 7.6769 30.8206 7.45934C30.8206 7.24178 30.7341 7.03313 30.5803 6.87929C30.4265 6.72546 30.2178 6.63903 30.0002 6.63903H22.2138L30.0002 4.14247Z" fill="#0073E6"/>
</svg>
