<svg width="60" height="60" viewBox="0 0 60 60" fill="none" xmlns="http://www.w3.org/2000/svg">
<path d="M23.7562 52.5941C15.853 50.4191 9.59053 44.1566 7.41553 36.2441C7.1624 35.3535 6.98428 34.4441 6.85303 33.5348C8.3249 33.0285 9.38428 31.641 9.38428 30.0098C9.38428 27.9379 7.70615 26.2598 5.63428 26.2598C3.5624 26.2598 1.88428 27.9379 1.88428 30.0098C1.88428 31.8566 3.2249 33.3848 4.97803 33.6941C5.12803 34.7254 5.3249 35.7566 5.60615 36.7598C7.95928 45.3004 14.7187 52.0598 23.2593 54.4129C23.3437 54.4316 23.428 54.4504 23.5124 54.4504C23.9249 54.4504 24.2999 54.1785 24.4124 53.766C24.553 53.2691 24.253 52.7535 23.7562 52.6129V52.5941ZM3.7499 30.0004C3.7499 28.9691 4.59365 28.1254 5.6249 28.1254C6.65615 28.1254 7.4999 28.9691 7.4999 30.0004C7.4999 31.0316 6.65615 31.8754 5.6249 31.8754C4.59365 31.8754 3.7499 31.0316 3.7499 30.0004ZM6.25303 24.4035C6.3374 24.4223 6.42178 24.441 6.50615 24.441C6.91865 24.441 7.29365 24.1691 7.40615 23.7566C9.58115 15.8535 15.8437 9.59102 23.7562 7.41602C24.6468 7.16289 25.5562 6.98477 26.4655 6.85352C26.9718 8.32539 28.3593 9.38477 29.9905 9.38477C32.0624 9.38477 33.7405 7.70664 33.7405 5.63477C33.7405 3.56289 32.0624 1.88477 29.9905 1.88477C28.1437 1.88477 26.6155 3.22539 26.3062 4.97852C25.2749 5.12852 24.2437 5.32539 23.2405 5.60664C14.7187 7.95039 7.9499 14.7191 5.60615 23.2504C5.46553 23.7473 5.76553 24.2629 6.2624 24.4035H6.25303ZM29.9999 3.75039C31.0312 3.75039 31.8749 4.59414 31.8749 5.62539C31.8749 6.65664 31.0312 7.50039 29.9999 7.50039C28.9687 7.50039 28.1249 6.65664 28.1249 5.62539C28.1249 4.59414 28.9687 3.75039 29.9999 3.75039ZM53.7468 35.5973C53.2499 35.4566 52.7343 35.7566 52.5937 36.2535C50.4187 44.1566 44.1562 50.4191 36.2437 52.5941C35.353 52.8473 34.4437 53.0254 33.5343 53.1566C33.028 51.6848 31.6405 50.6254 30.0093 50.6254C27.9374 50.6254 26.2593 52.3035 26.2593 54.3754C26.2593 56.4473 27.9374 58.1254 30.0093 58.1254C31.8561 58.1254 33.3843 56.7848 33.6937 55.0316C34.7249 54.8816 35.7562 54.6848 36.7593 54.4035C45.2999 52.0504 52.0593 45.291 54.4124 36.7504C54.553 36.2535 54.253 35.7379 53.7562 35.5973H53.7468ZM29.9999 56.2504C28.9687 56.2504 28.1249 55.4066 28.1249 54.3754C28.1249 53.3441 28.9687 52.5004 29.9999 52.5004C31.0312 52.5004 31.8749 53.3441 31.8749 54.3754C31.8749 55.4066 31.0312 56.2504 29.9999 56.2504ZM55.0312 26.316C54.8812 25.2848 54.6843 24.2535 54.403 23.2504C52.0499 14.7098 45.2905 7.95039 36.7499 5.59727C36.253 5.45664 35.7374 5.75664 35.5968 6.25352C35.4562 6.75039 35.7562 7.26602 36.253 7.40664C44.1562 9.58164 50.4187 15.8441 52.5937 23.7566C52.8468 24.6473 53.0249 25.5566 53.1562 26.466C51.6843 26.9723 50.6249 28.3598 50.6249 29.991C50.6249 32.0629 52.303 33.741 54.3749 33.741C56.4468 33.741 58.1249 32.0629 58.1249 29.991C58.1249 28.1441 56.7843 26.616 55.0312 26.3066V26.316ZM54.3749 31.8754C53.3437 31.8754 52.4999 31.0316 52.4999 30.0004C52.4999 28.9691 53.3437 28.1254 54.3749 28.1254C55.4062 28.1254 56.2499 28.9691 56.2499 30.0004C56.2499 31.0316 55.4062 31.8754 54.3749 31.8754Z" fill="#0073E6"/>
<path d="M33.8345 48.75C33.9001 48.75 33.9657 48.75 34.0314 48.7313C41.3907 47.1844 47.1657 41.475 48.7314 34.2C48.7876 33.9187 48.7314 33.6375 48.5439 33.4125C48.4561 33.3032 48.3447 33.2152 48.218 33.1552C48.0914 33.0951 47.9528 33.0645 47.8126 33.0656H43.2376C42.5658 33.0646 41.9013 33.2052 41.2875 33.4782C40.6737 33.7512 40.1243 34.1505 39.6751 34.65L34.1064 40.8375C33.3282 41.7094 32.897 42.825 32.897 43.9781V47.8219C32.897 48.1031 33.0282 48.375 33.2439 48.5531C33.4126 48.6938 33.6189 48.7594 33.8345 48.7594V48.75ZM34.772 43.9688C34.772 43.275 35.0345 42.6 35.5032 42.075L41.0626 35.8969C41.6157 35.2875 42.4032 34.9312 43.2376 34.9312H46.6126C44.9814 40.575 40.4907 45.0094 34.7814 46.6125V43.9688H34.772ZM27.1032 47.8125V43.9688C27.1032 42.8156 26.672 41.7 25.8939 40.8188L20.3251 34.6312C19.8741 34.1347 19.3241 33.738 18.7105 33.4667C18.097 33.1955 17.4334 33.0556 16.7626 33.0562H12.1876C11.9064 33.0562 11.6345 33.1875 11.4564 33.4031C11.2782 33.6188 11.2126 33.9094 11.2689 34.1906C12.8345 41.475 18.6095 47.175 25.9689 48.7219C26.0345 48.7313 26.1001 48.7406 26.1657 48.7406C26.3814 48.7406 26.5876 48.6656 26.7564 48.5344C26.972 48.3563 27.1032 48.0938 27.1032 47.8031V47.8125ZM25.2282 46.6219C19.5095 45.0094 15.0282 40.5844 13.397 34.9406H16.772C17.597 34.9406 18.3939 35.2875 18.947 35.8969L24.5064 42.075C24.9751 42.6094 25.2376 43.2844 25.2376 43.9781V46.6219H25.2282ZM30.0001 11.25C21.0189 11.25 13.1439 17.5406 11.2689 26.2125C11.2126 26.4844 11.2689 26.775 11.4564 27C11.6345 27.225 11.9064 27.3469 12.1876 27.3469H18.4876C18.7314 27.3469 18.9751 27.2531 19.1439 27.075L21.2907 24.9469C22.2015 24.0467 23.4321 23.5444 24.7126 23.55H35.2876C36.5814 23.55 37.7907 24.0469 38.7095 24.9469L39.1689 25.4062C40.4284 26.6536 42.1306 27.3514 43.9032 27.3469H47.8126C48.0939 27.3469 48.3657 27.2156 48.5439 27C48.722 26.775 48.7876 26.4937 48.7314 26.2125C46.8564 17.5406 38.9814 11.25 30.0001 11.25ZM43.9032 25.4719C42.6095 25.4719 41.4001 24.975 40.4907 24.075L40.0314 23.6156C38.7719 22.3683 37.0696 21.6705 35.297 21.675H24.722C22.9314 21.675 21.2532 22.3688 19.9876 23.6156L18.1126 25.4719H13.397C15.497 18.2531 22.3032 13.125 30.0095 13.125C37.7157 13.125 44.522 18.2531 46.622 25.4719H43.9126H43.9032Z" fill="#0073E6"/>
<path d="M35.625 31.875C35.625 28.7719 33.1031 26.25 30 26.25C26.8969 26.25 24.375 28.7719 24.375 31.875C24.375 34.9781 26.8969 37.5 30 37.5C33.1031 37.5 35.625 34.9781 35.625 31.875ZM30 35.625C27.9281 35.625 26.25 33.9469 26.25 31.875C26.25 29.8031 27.9281 28.125 30 28.125C32.0719 28.125 33.75 29.8031 33.75 31.875C33.75 33.9469 32.0719 35.625 30 35.625Z" fill="#0073E6"/>
</svg>
