<svg width="42" height="43" viewBox="0 0 42 43" fill="none" xmlns="http://www.w3.org/2000/svg">
<path d="M8.85117 1.47988C7.05469 2.77575 6.00469 5.36749 6.3 7.78722C6.41484 8.69318 6.69375 9.65648 7.03008 10.2643L7.24336 10.6542L7.01367 11.5946C6.88242 12.0991 6.76758 12.5464 6.75937 12.5693C6.74297 12.5923 6.5625 12.3514 6.35742 12.0303C5.88984 11.3079 5.33203 10.8033 4.57734 10.4248C3.46992 9.87437 1.46016 10.0808 1.10742 10.7689C0.836719 11.3079 1.03359 13.2115 1.50117 14.5877C1.87852 15.6771 2.34609 16.4684 2.95312 17.0418C3.69141 17.7299 4.41328 18.0051 5.33203 17.9478L6.07031 17.9134V19.2551C6.07031 20.0005 6.0457 20.6083 6.02109 20.6083C5.99648 20.6083 5.86523 20.4936 5.72578 20.3675C5.59453 20.2299 5.23359 20.0005 4.93828 19.8514C4.27383 19.5303 3.16641 19.4845 2.42812 19.7482C1.37812 20.1381 0 21.4455 0 22.0647C0 22.9592 1.38633 25.2758 2.30508 25.918C3.58477 26.8124 5.16797 26.7666 6.24258 25.8147C6.41484 25.6657 6.58711 25.5395 6.62812 25.5395C6.66914 25.5395 6.74297 25.7574 6.80039 26.0212C6.85781 26.2964 7.03008 26.973 7.18594 27.5349C7.3418 28.0854 7.46484 28.5556 7.46484 28.567C7.46484 28.567 7.13672 28.5556 6.73477 28.5441C5.28281 28.4638 3.83906 29.4615 2.90391 31.1932C2.41992 32.0991 2.41992 32.4317 2.92031 33.2115C3.63398 34.3125 4.78242 35.184 5.84062 35.4134C7.00547 35.6657 8.35078 35.0693 9.17109 33.9225L9.56484 33.3721L10.3113 34.5533C10.7215 35.1955 11.0414 35.7574 11.0168 35.7918C10.984 35.8262 10.902 35.8606 10.8363 35.8606C10.7625 35.8606 10.4262 36.0441 10.098 36.262C9.41719 36.7207 8.54766 37.8446 8.16211 38.7735C7.70273 39.8858 7.45664 41.1244 7.59609 41.6519C7.66992 41.9042 8.62969 42.5693 9.27773 42.7987C10.0324 43.0854 11.1398 43.0625 11.8207 42.7528C12.8953 42.2712 13.7895 41.1817 14.2488 39.7826C14.3637 39.4615 14.4621 39.1863 14.4703 39.1863C14.4867 39.1863 14.8805 39.4386 15.348 39.7597C16.398 40.4592 17.891 41.1702 18.0961 41.067C18.3914 40.918 18.5391 40.6427 18.5391 40.2528C18.5391 39.7482 18.334 39.4845 17.7598 39.2551C17.1117 38.9799 15.7418 38.1542 15.0117 37.5808C11.3449 34.6794 8.74453 29.9661 7.76016 24.4157C7.39922 22.3973 7.3418 21.6748 7.3418 19.2322C7.3418 16.3423 7.51406 14.84 8.1375 12.2712C8.37539 11.262 8.4082 11.2046 8.68711 11.0785C9.78633 10.5968 10.8035 9.11749 11.1727 7.50052C11.3695 6.61749 11.3859 5.01199 11.2055 4.07162C10.9184 2.56932 10.1637 0.998224 9.73711 0.998224C9.62227 0.998224 9.22031 1.21611 8.85117 1.47988ZM9.79453 3.63584C10.4508 5.68859 10.1309 7.71841 8.95781 8.97988C8.26875 9.71382 7.82578 9.42712 7.57969 8.11978C7.25977 6.34226 7.80937 4.42712 8.97422 3.33767C9.20391 3.11978 9.43359 2.94777 9.48281 2.94777C9.53203 2.94777 9.67148 3.2574 9.79453 3.63584ZM4.44609 12.2024C5.34844 12.7987 6.0293 14.0487 6.13594 15.2757C6.16875 15.7001 6.14414 15.7803 5.94727 15.9982C5.64375 16.3423 4.85625 16.3423 4.22461 16.0097C3.65859 15.723 2.92852 14.8056 2.65781 14.0602C2.47734 13.5441 2.21484 12.3744 2.21484 12.0533C2.21484 11.8468 2.49375 11.7895 3.25664 11.8354C3.79805 11.8583 4.03594 11.9386 4.44609 12.2024ZM4.70859 21.5258C4.9793 21.6748 5.32383 21.9845 5.56992 22.3056C5.93906 22.7987 5.98828 22.9134 5.98828 23.3262C5.98828 23.9569 5.65195 24.4386 5.02852 24.6909C4.08516 25.0808 2.96953 24.7024 2.21484 23.7505C1.86211 23.3033 1.39453 22.4891 1.39453 22.317C1.39453 22.2138 2.20664 21.6634 2.66602 21.4569C3.19102 21.2276 4.1918 21.262 4.70859 21.5258ZM7.70273 30.5395C8.27695 30.8033 8.69531 31.3423 8.69531 31.8239C8.69531 32.5235 7.73555 33.4753 6.8168 33.6932C5.97187 33.8881 4.95469 33.4524 4.23281 32.6037L3.91289 32.2138L4.08516 31.8813C4.31484 31.4225 5.06133 30.723 5.59453 30.4478C6.11133 30.1955 7.00547 30.2299 7.70273 30.5395ZM13.0348 37.6725C13.2973 37.9478 13.3547 38.5556 13.1578 39.0831C12.9445 39.668 12.3047 40.5625 11.8781 40.8606C11.6648 41.0097 11.2383 41.1932 10.9348 41.2735C10.4672 41.3767 10.2785 41.3767 9.75352 41.2047C9.40898 41.1014 9.06445 40.9524 8.98242 40.8721C8.85117 40.7345 8.85117 40.6886 8.97422 40.2758C9.1957 39.5418 9.74531 38.6244 10.2211 38.2001C11.107 37.4088 12.5262 37.145 13.0348 37.6725Z" fill="#0073E6"/>
<path d="M31.7707 1.41109C31.418 1.93861 30.9586 3.20008 30.7945 4.11751C30.6141 5.08081 30.6141 6.5143 30.7945 7.36292C31.1473 9.03724 32.1891 10.5854 33.3129 11.0785C33.5918 11.2047 33.6246 11.262 33.8625 12.2712C34.4121 14.5304 34.6172 16.1015 34.6746 18.4982C34.7566 21.801 34.3875 24.6221 33.4687 27.5693C32.2055 31.6749 29.9332 35.2184 27.1441 37.4547C26.2828 38.1427 24.798 39.0487 24.1336 39.301C23.6742 39.4616 23.4609 39.7712 23.4609 40.2528C23.4609 40.6427 23.6086 40.918 23.9039 41.0671C24.109 41.1703 25.602 40.4593 26.652 39.7597C27.1195 39.4386 27.5133 39.1863 27.5215 39.1863C27.5297 39.1863 27.6527 39.5189 27.7922 39.9088C28.1121 40.8033 28.5797 41.5716 29.1047 42.0418C29.6051 42.4891 29.9496 42.512 30.1793 42.0992C30.4746 41.5716 30.3598 41.1359 29.8102 40.6198C29.0145 39.8859 28.5305 38.395 28.9242 37.9134C29.1703 37.6152 29.6543 37.4432 30.2449 37.4547C30.9668 37.4547 31.6805 37.9249 32.2629 38.762C32.7059 39.3927 33.2062 40.6313 33.0832 40.7918C33.0504 40.8377 32.8125 40.9638 32.5664 41.0785C31.8445 41.3882 31.6477 41.9271 32.0086 42.5694C32.1727 42.856 32.2137 42.879 32.591 42.8216C33.0668 42.7414 34.2645 41.9845 34.3793 41.6978C34.5598 41.2161 34.3219 39.9432 33.8379 38.7735C33.4523 37.8446 32.5828 36.7207 31.902 36.262C31.5738 36.0441 31.2375 35.8606 31.1637 35.8606C31.098 35.8606 31.016 35.8262 30.9832 35.7918C30.9586 35.7574 31.2785 35.1955 31.6887 34.5533L32.4352 33.3721L32.8289 33.9226C33.6492 35.0693 34.9945 35.6657 36.1594 35.4134C37.2176 35.184 38.366 34.3125 39.0797 33.2116C39.5801 32.4317 39.5801 32.0992 39.0961 31.1932C38.1527 29.4501 36.7336 28.4638 35.2652 28.5441C34.8633 28.5556 34.5352 28.5671 34.5352 28.5671C34.5352 28.5556 34.6582 28.0854 34.8141 27.5349C34.9699 26.973 35.1422 26.2964 35.1996 26.0212C35.257 25.7574 35.3227 25.5395 35.3637 25.5395C35.3965 25.5395 35.5852 25.6657 35.7738 25.8262C36.9633 26.7781 38.3496 26.8125 39.6621 25.9294C40.6055 25.2872 42 22.9937 42 22.0648C42 21.4455 40.6219 20.1382 39.5719 19.7482C38.8336 19.4845 37.7262 19.5304 37.0617 19.8515C36.7664 20.0005 36.4055 20.2299 36.2742 20.3675C36.1348 20.4937 36.0035 20.6083 35.9789 20.6083C35.9543 20.6083 35.9297 20.0005 35.9297 19.2551V17.9134L36.668 17.9478C38.366 18.051 39.7195 16.8583 40.4988 14.5877C40.9664 13.2115 41.1633 11.3079 40.8926 10.7689C40.6793 10.356 39.9574 10.1267 38.9238 10.1267C38.1691 10.1267 37.923 10.184 37.4227 10.4249C36.668 10.8033 36.1102 11.3079 35.6426 12.0304C35.4375 12.3515 35.257 12.5923 35.2406 12.5693C35.2324 12.5464 35.1176 12.0992 34.9863 11.5946L34.7566 10.6542L34.9699 10.2643C35.3062 9.6565 35.5852 8.6932 35.7 7.78724C35.9953 5.35604 34.9289 2.71843 33.1324 1.46843C32.3039 0.883565 32.1316 0.883565 31.7707 1.41109ZM33.2719 3.63586C34.2398 4.77118 34.6418 6.17026 34.4531 7.7643C34.2809 9.20925 33.9035 9.63357 33.2473 9.14045C32.2793 8.42944 31.7133 6.67485 31.902 5.02347C32.0086 4.12898 32.3777 2.94779 32.5582 2.94779C32.632 2.94779 32.952 3.25742 33.2719 3.63586ZM39.7523 11.9271C39.777 11.9615 39.7605 12.2712 39.7031 12.6267C39.3832 14.7712 38.1855 16.2505 36.7664 16.2505C36.0035 16.2505 35.8148 16.0671 35.8641 15.3446C35.9707 13.7964 36.9469 12.3056 38.1199 11.8927C38.4398 11.7895 39.6703 11.801 39.7523 11.9271ZM39.8426 21.6863C40.1215 21.8698 40.4086 22.0992 40.4824 22.2138C40.5973 22.3859 40.5891 22.4432 40.3758 22.856C40.023 23.5327 39.4898 24.1519 38.973 24.496C38.3332 24.9088 37.2504 24.9203 36.6023 24.5189C36.1266 24.2207 35.8477 23.8079 35.8477 23.4065C35.8477 22.8904 36.6105 21.9501 37.398 21.5028C37.9887 21.1703 39.1699 21.262 39.8426 21.6863ZM36.3152 30.4134C36.832 30.6313 37.6687 31.3996 37.9148 31.8698L38.0953 32.2253L37.8082 32.5579C36.4875 34.129 34.6336 34.106 33.5672 32.4891C33.3785 32.2024 33.2227 31.9386 33.2227 31.9042C33.2227 31.7207 33.5344 31.2161 33.8297 30.9409C34.5352 30.2643 35.4703 30.0579 36.3152 30.4134Z" fill="#0073E6"/>
<path d="M18.6458 1.41111C18.4161 1.73221 18.4161 1.5946 18.6294 3.68175C18.736 4.7024 18.9411 5.12671 19.3185 5.12671C19.5646 5.12671 19.9337 4.66799 19.9337 4.35836C19.9337 3.64735 19.6466 1.64047 19.5071 1.38818C19.2939 1.00974 18.9247 1.0212 18.6458 1.41111Z" fill="#0073E6"/>
<path d="M22.6159 1.36518C22.4683 1.58307 22.4026 1.90417 22.2796 3.03949C22.1401 4.33537 22.1401 4.46151 22.2632 4.72527C22.5011 5.22986 23.0261 5.24133 23.264 4.73674C23.3296 4.58766 23.4444 3.84225 23.5183 3.08537L23.6577 1.68628L23.4608 1.39959C23.2147 1.03261 22.862 1.02114 22.6159 1.36518Z" fill="#0073E6"/>
<path d="M15.1677 3.95697C14.8642 4.31248 14.9298 4.74826 15.4958 6.03266C16.0372 7.23679 16.1849 7.40881 16.6196 7.25973C16.8739 7.16798 17.079 6.57165 16.9806 6.20468C16.8411 5.70009 15.9962 3.88817 15.865 3.81936C15.6271 3.69321 15.3646 3.75055 15.1677 3.95697Z" fill="#0073E6"/>
<path d="M26.1516 3.88808C25.8891 4.18624 25.1016 6.12432 25.1016 6.49129C25.1016 7.16789 25.7004 7.5578 26.0695 7.09909C26.2828 6.83532 27.1523 4.79404 27.1523 4.55321C27.1523 4.43854 27.0785 4.22065 26.9801 4.04863C26.7914 3.71606 26.3813 3.63578 26.1516 3.88808Z" fill="#0073E6"/>
<path d="M20.4095 7.56932C20.1634 7.85602 19.0313 10.9753 19.0313 11.3652C19.0313 11.7092 19.2364 12.0877 19.4743 12.1679C19.8927 12.317 20.0731 12.0762 20.5243 10.8033C20.7622 10.1381 20.9755 9.59914 21.0001 9.59914C21.0329 9.59914 21.5989 11.1473 22.2634 13.051C23.0427 15.2528 23.5513 16.5601 23.6743 16.6634C23.7891 16.778 24.8884 17.0533 26.529 17.3858C28.0055 17.684 29.2196 17.9592 29.2442 17.9936C29.2688 18.028 28.4075 19.2666 27.3247 20.7459C26.0204 22.5349 25.3395 23.5556 25.2985 23.7735C25.2575 23.9799 25.4052 25.4707 25.7005 27.879C25.9548 29.9546 26.1516 31.6748 26.1434 31.6748C26.1352 31.6863 25.036 30.895 23.7071 29.9088C21.9188 28.59 21.2134 28.1313 21.0001 28.1313C20.7868 28.1313 20.0813 28.59 18.293 29.9088C16.9641 30.895 15.8649 31.6863 15.8567 31.6863C15.8485 31.6748 16.0454 29.9546 16.2997 27.879C16.595 25.4363 16.7427 23.9799 16.7016 23.762C16.6606 23.5441 15.988 22.5464 14.6673 20.7345C13.043 18.5097 12.7231 18.0166 12.8462 17.9592C12.9364 17.9134 14.093 17.6611 15.422 17.3973C16.7509 17.1335 17.9649 16.8698 18.1126 16.801C18.5802 16.606 19.0888 15.2528 18.9329 14.645C18.8345 14.2207 18.5145 14.0028 18.2356 14.1404C18.0388 14.2322 17.7024 14.7712 17.6204 15.1037C17.604 15.1725 16.3079 15.4822 14.7247 15.7918C13.1497 16.1129 11.747 16.434 11.6157 16.5028C11.1809 16.7436 10.943 17.6381 11.1645 18.2345C11.222 18.3721 12.2145 19.8056 13.3794 21.4111L15.504 24.3354L15.0118 28.2345C14.7411 30.379 14.5196 32.2826 14.5196 32.4546C14.5196 33.2001 15.0856 33.8996 15.5778 33.762C15.6927 33.7276 16.7509 32.9936 17.9239 32.1221C19.097 31.262 20.2782 30.4019 20.5489 30.2184L21.0411 29.8858L23.6251 31.7895C25.0442 32.8331 26.3075 33.7276 26.4223 33.762C26.9063 33.8996 27.4805 33.1771 27.4805 32.4546C27.4805 32.2826 27.2591 30.379 26.9884 28.2345L26.4962 24.3354L28.6618 21.3537C30.163 19.2895 30.852 18.2689 30.893 18.0395C30.9915 17.489 30.77 16.801 30.4337 16.5601C30.245 16.434 29.1376 16.1588 27.2837 15.7918C25.7005 15.4707 24.4044 15.1955 24.388 15.184C24.3798 15.1611 23.7891 13.5097 23.0919 11.5028C22.3618 9.42712 21.7302 7.74134 21.5989 7.58079C21.3118 7.20235 20.7294 7.19088 20.4095 7.56932Z" fill="#0073E6"/>
</svg>
