<svg width="42" height="50" viewBox="0 0 42 50" fill="none" xmlns="http://www.w3.org/2000/svg">
<path d="M9.89545 0.46159C9.66212 0.725353 7.33939 3.4729 4.7303 6.58311L0 12.2211V30.8824C0 48.8074 0.0106061 49.5437 0.190909 49.7086C0.371212 49.8844 1.25152 49.8954 10.6379 49.8954C20.7561 49.8954 20.8939 49.8954 21.1061 49.6756C21.3712 49.4008 21.3712 49.1151 21.1167 48.7854L20.9152 48.5216L11.0939 48.4886L1.27273 48.4667V30.8824V13.3091L6.69242 13.2761L12.1121 13.2432L12.3136 12.9794C12.5045 12.7376 12.5152 12.4958 12.5152 8.45145C12.5152 4.31914 12.5045 4.16528 12.303 3.95646C12.0167 3.65973 11.5076 3.67072 11.3061 3.97844C11.1576 4.18726 11.1364 4.76974 11.1364 8.04481V11.8694H6.67121C4.0197 11.8694 2.22727 11.8254 2.24848 11.7705C2.2697 11.7155 4.21061 9.36363 6.57576 6.55014L10.8712 1.42873H22.453H34.0455V9.22076C34.0455 16.9249 34.0455 17.0128 34.2682 17.2985C34.5333 17.6392 34.9152 17.6722 35.2121 17.3645C35.4242 17.1447 35.4242 17.0018 35.4242 8.75917C35.4242 0.769314 35.4136 0.351688 35.2333 0.186836C35.053 0.010994 34.0242 3.8147e-06 22.6864 3.8147e-06H10.3303L9.89545 0.46159Z" fill="#0073E6"/>
<path d="M31.1288 18.98C30.6834 19.0899 30.2273 19.1229 29.5909 19.0679C29.0925 19.035 28.3288 18.98 27.8834 18.947C26.8334 18.8591 26.4303 19.0459 25.3061 20.09C24.6697 20.6835 24.2561 20.9692 23.6622 21.222C22.0076 21.9144 21.6046 22.387 21.1591 24.0794C20.9364 24.9147 20.7349 25.3983 20.3319 26.0247C19.3031 27.6513 19.197 28.2557 19.6849 29.7504C19.9182 30.4537 19.9819 30.8934 20.0349 32.2012C20.0985 33.6849 20.1197 33.8277 20.3955 34.3113C20.5652 34.608 21 35.0916 21.4137 35.4433C21.8167 35.773 22.2409 36.1796 22.3576 36.3445L22.5697 36.6522L20.1409 40.9933C18.8152 43.3782 17.7228 45.4334 17.7122 45.5542C17.7122 45.6751 17.7864 45.8949 17.8819 46.0268C18.0834 46.3236 18.3803 46.3345 20.4591 46.0928C21.2864 46.0048 22.0606 45.9389 22.1879 45.9609C22.3576 45.9829 22.5697 46.3785 23.1743 47.7962C23.5985 48.7854 24.0228 49.6865 24.1182 49.7965C24.3197 50.0492 24.85 50.0712 25.0622 49.8404C25.147 49.7635 26.2606 47.8072 27.5334 45.5103C29.4849 41.9824 29.8667 41.367 29.9622 41.5209C30.0364 41.6198 31.0758 43.4881 32.2955 45.6641C33.5046 47.8402 34.5652 49.7085 34.6606 49.8074C34.8728 50.0602 35.4455 50.0602 35.6576 49.8074C35.7425 49.7085 36.1667 48.7854 36.6016 47.7633L37.3864 45.9169L38.0228 45.9719C38.3728 46.0048 39.3167 46.0928 40.1122 46.1697C41.4909 46.3016 41.5758 46.3016 41.7879 46.1038C41.9046 45.9939 42 45.7631 42 45.5872C42 45.3674 41.2258 43.8727 39.6137 40.9823C38.2985 38.6304 37.2273 36.6632 37.2273 36.6082C37.2273 36.5313 37.5667 36.1906 38.797 35.0366C39.5712 34.3113 39.6985 33.9157 39.7728 32.0363C39.8258 30.7285 39.8894 30.2669 40.0697 29.7833C40.5894 28.4316 40.4834 27.6732 39.6137 26.3105C38.9667 25.3103 38.9031 25.1565 38.5955 23.9695C38.2031 22.4419 37.747 21.9254 36.2303 21.266C35.4561 20.9363 34.8834 20.5296 33.9606 19.6614C33.5894 19.3097 33.2076 19.0679 32.8576 18.958C32.2 18.7602 31.9561 18.7602 31.1288 18.98ZM28.7531 20.5076C29.6864 20.6615 29.9728 20.6725 30.8 20.5516C32.444 20.3098 32.5606 20.3428 33.5258 21.266C34.2364 21.9364 34.7561 22.2661 35.8803 22.7496C36.3788 22.9585 36.7712 23.2112 36.8773 23.3651C36.9728 23.5189 37.1319 24.0355 37.2379 24.5191C37.4606 25.5082 37.7682 26.1676 38.447 27.2116C39.0197 28.0689 39.0409 28.3326 38.6379 29.5306C38.394 30.2669 38.3516 30.5966 38.3303 31.8495C38.2985 33.564 38.2879 33.575 37.2379 34.4542C36.4212 35.1136 36.1031 35.5092 35.5303 36.5203C35.0212 37.4435 34.6819 37.6523 33.6 37.7512C32.5182 37.8501 31.6803 38.1139 30.9485 38.5755C30.1106 39.114 29.7925 39.114 28.8379 38.5975C27.8834 38.0699 27.1622 37.8501 26.0909 37.7512C25.0834 37.6523 24.7864 37.4655 24.3197 36.6522C23.7152 35.5752 23.2379 35.0037 22.4637 34.3882C22.0606 34.0695 21.6576 33.6739 21.5728 33.509C21.4667 33.3002 21.4243 32.8276 21.4349 31.9594C21.4349 30.6516 21.3606 30.146 20.9894 29.069C20.7243 28.2887 20.7985 27.893 21.3606 27.1347C21.8909 26.4094 22.2516 25.6071 22.5379 24.4861C22.8349 23.3541 23.0258 23.0793 23.7364 22.8046C24.744 22.4089 25.4652 21.9583 26.1652 21.2989C26.7909 20.7165 27.3319 20.3538 27.597 20.3318C27.6394 20.3318 28.1591 20.4087 28.7531 20.5076ZM23.8743 38.5095C24.3197 38.9272 25.1364 39.2349 25.8258 39.2349C26.4303 39.2349 27.3531 39.4987 28.1061 39.8943C28.4561 40.0811 28.7425 40.246 28.7425 40.268C28.7425 40.3449 24.8925 47.3127 24.7758 47.4446C24.6803 47.5545 24.5 47.2138 24.0122 46.0708C23.5879 45.0817 23.2909 44.5212 23.1531 44.4442C22.9834 44.3673 22.4955 44.3783 21.4349 44.4882C20.6076 44.5761 19.9076 44.6311 19.8864 44.5981C19.8334 44.5541 23.344 38.1469 23.4288 38.1359C23.45 38.1359 23.6516 38.3007 23.8743 38.5095ZM38.1712 41.378C39.147 43.1364 39.9 44.5871 39.847 44.6091C39.794 44.6311 39.2425 44.5871 38.6167 44.5212C36.9303 44.3233 36.7076 44.3343 36.4849 44.5761C36.3788 44.686 36.0394 45.3784 35.7425 46.1038C35.4349 46.8291 35.1591 47.4665 35.1167 47.5105C35.0531 47.5764 31.1712 40.8065 30.9909 40.3339C30.9591 40.246 31.85 39.7844 32.6137 39.4877C32.847 39.3997 33.4622 39.2789 33.9925 39.2239C35.0212 39.114 35.7425 38.8283 36.0394 38.3996C36.1349 38.2568 36.2622 38.1579 36.3046 38.1688C36.3576 38.1798 37.1955 39.6305 38.1712 41.378Z" fill="#0073E6"/>
<path d="M28.5833 24.0025C26.547 24.519 24.9348 26.2335 24.447 28.3765C23.5561 32.3 26.7909 36.0587 30.5879 35.5092C32.8258 35.1905 34.6818 33.465 35.2652 31.1461C35.5091 30.1679 35.4773 29.7283 35.1485 29.4646C34.7879 29.1678 34.65 29.1788 34.3318 29.4756C34.1515 29.6514 34.0455 29.9262 33.9606 30.4097C33.7273 31.8385 32.7939 33.1023 31.5318 33.7178C30.9909 33.9815 30.7894 34.0145 29.8561 34.0145C28.8697 34.0145 28.7424 33.9925 28.0848 33.6518C26.0061 32.5968 25.147 29.9372 26.1864 27.7611C26.6212 26.8489 27.5545 25.9367 28.3924 25.607C29.2091 25.2773 30.3652 25.2553 31.2242 25.5411C31.7864 25.7389 31.8712 25.7389 32.1258 25.596C32.5182 25.3652 32.5182 24.6729 32.1364 24.3871C31.5 23.9036 29.7288 23.7057 28.5833 24.0025Z" fill="#0073E6"/>
<path d="M32.8365 27.1237C31.7228 28.2557 30.5562 29.4207 30.2592 29.7174L29.6971 30.2669L28.9122 29.4756C28.4774 29.036 28.0319 28.6843 27.9152 28.6843C27.5759 28.6843 27.1516 29.1019 27.1516 29.4426C27.1516 29.6734 27.3743 29.9702 28.2016 30.8054C29.188 31.8055 29.2728 31.8715 29.6865 31.8715C30.1107 31.8715 30.2062 31.8055 31.4789 30.5636C33.8865 28.2337 35.8486 26.1016 35.8486 25.8379C35.8486 25.5301 35.3925 25.0576 35.0956 25.0576C34.9259 25.0576 34.2365 25.684 32.8365 27.1237Z" fill="#0073E6"/>
<path d="M6.06661 19.3647C5.85449 19.6394 5.8757 20.134 6.10903 20.3758C6.25752 20.5297 7.01055 20.5516 12.8333 20.5516C20.0454 20.5516 19.7272 20.5846 19.7272 19.8922C19.7272 19.1998 20.0454 19.2328 12.7908 19.2328C7.6257 19.2328 6.15146 19.2658 6.06661 19.3647Z" fill="#0073E6"/>
<path d="M6.08776 25.7719C5.8014 26.0687 5.81201 26.3654 6.13019 26.7281C6.27867 26.9149 6.66049 26.9259 11.2953 26.9259C16.1423 26.9259 16.3014 26.9149 16.4923 26.7061C16.7469 26.4094 16.7256 25.9368 16.4393 25.695C16.2166 25.5082 15.8772 25.4972 11.2741 25.4972H6.35292L6.08776 25.7719Z" fill="#0073E6"/>
<path d="M6.09857 32.0253C5.8122 32.2341 5.84402 32.8386 6.14099 33.1023C6.37433 33.2892 6.6819 33.3002 11.2955 33.3002C15.8774 33.3002 16.2168 33.2892 16.4395 33.1023C16.7258 32.8606 16.7471 32.388 16.4925 32.0913C16.3016 31.8824 16.1425 31.8714 11.2955 31.8714C7.25463 31.8714 6.25766 31.9044 6.09857 32.0253Z" fill="#0073E6"/>
<path d="M6.06661 38.3776C5.85449 38.6524 5.8757 39.1469 6.10903 39.3887C6.25752 39.5426 6.87267 39.5646 11.2954 39.5646C15.7181 39.5646 16.3333 39.5426 16.4818 39.3887C16.6833 39.1909 16.7045 38.5645 16.5242 38.3776C16.3333 38.1798 6.2257 38.1908 6.06661 38.3776Z" fill="#0073E6"/>
</svg>
