<svg width="60" height="60" viewBox="0 0 60 60" fill="none" xmlns="http://www.w3.org/2000/svg">
<path d="M38 0.000305176C37.448 0.000305176 37 0.448313 37 1.00027C37 1.55222 37.448 2.00023 38 2.00023C49.028 2.00023 58 10.9722 58 22.0002C58 22.5522 58.448 23.0002 58.9999 23.0002C59.553 23.0002 59.9999 22.5522 59.9999 22.0002C59.9999 9.86936 50.131 0.000305176 38 0.000305176Z" fill="#0073E6"/>
<path d="M38 6.00031C37.448 6.00031 37 6.44831 37 7.00027C37 7.55222 37.448 8.00023 38 8.00023C45.7199 8.00023 52 14.2802 52 22.0003C52 22.5522 52.448 23.0002 52.9999 23.0002C53.553 23.0002 53.9999 22.5522 53.9999 22.0003C53.9999 13.1784 46.8229 6.00031 38 6.00031Z" fill="#0073E6"/>
<path d="M38 12.0003C37.448 12.0003 37 12.4483 37 13.0002C37 13.5522 37.448 14.0002 38 14.0002C42.411 14.0002 46 17.5892 46 22.0002C46 22.5522 46.448 23.0002 47 23.0002C47.553 23.0002 47.9999 22.5522 47.9999 22.0002C47.9999 16.4863 43.5139 12.0003 38 12.0003Z" fill="#0073E6"/>
<path d="M54.1129 37.5253C51.3919 37.1673 48.7089 36.4994 46.1388 35.5423C43.6499 34.6092 40.8218 35.2112 38.9278 37.0803L35.7668 40.2342C29.1388 36.3263 23.6018 30.8003 19.6848 24.1853L22.8478 21.0293C24.7178 19.1424 25.3218 16.3174 24.3869 13.8344C23.4279 11.2684 22.7589 8.59142 22.3989 5.86634C21.9198 2.4883 18.9948 -0.0127132 15.5759 0.000294647H6.82692C6.6229 0.000294647 6.41888 0.0102556 6.21696 0.0283024C4.39986 0.192365 2.7549 1.05334 1.58583 2.45139C0.416889 3.85037 -0.137173 5.62037 0.0288818 7.4513C0.997904 16.5593 4.1479 25.4363 9.13294 33.1163C13.6589 40.2243 19.816 46.3692 26.9309 50.8813C34.5969 55.8433 43.4499 58.9863 52.5529 59.9733C52.7589 59.9913 52.9658 60.0002 53.1738 60.0002C53.1798 60.0002 53.1858 60.0002 53.1928 60.0002C56.9609 59.9842 60.0128 56.9122 59.9978 53.1552V44.4362C60.0769 40.9793 57.5528 38.0093 54.1129 37.5253ZM57.9979 44.4003C57.9979 44.4082 57.9979 44.4172 57.9979 44.4252V53.1602C58.0078 55.8183 55.8489 57.9902 53.1859 58.0013C53.0299 57.9953 52.8799 57.9953 52.7479 57.9832C43.9739 57.0312 35.4218 53.9952 28.0089 49.1972C21.1329 44.8362 15.1889 38.9042 10.8149 32.0342C5.99583 24.6104 2.95388 16.0363 2.01884 7.25537C1.90283 5.97334 2.29388 4.72342 3.12087 3.73435C3.94786 2.74529 5.11083 2.13639 6.39685 2.02037C6.53981 2.00736 6.6829 2.00033 6.82681 2.00033H15.5848C15.6009 2.00033 15.6168 2.00033 15.6329 2.00033C18.0289 2.00033 20.0819 3.77537 20.4168 6.13728C20.7958 9.00228 21.5008 11.8283 22.5137 14.5373C23.1748 16.2932 22.7478 18.2893 21.4307 19.6183L17.7268 23.3143C17.4067 23.6332 17.3407 24.1253 17.5638 24.5173C21.8017 31.9573 27.9828 38.1253 35.4358 42.3543C35.8278 42.5773 36.3177 42.5093 36.6358 42.1923L40.3357 38.5003C41.6727 37.1814 43.6757 36.7564 45.4377 37.4164C48.1497 38.4264 50.9807 39.1314 53.8417 39.5073C56.2718 39.8493 58.0588 41.9523 57.9979 44.4003Z" fill="#0073E6"/>
<path d="M15.0005 4.00027H6.82749C6.74347 4.00027 6.6605 4.00426 6.57753 4.01223C5.55859 4.10422 4.9355 4.68219 4.65554 5.01723C4.43054 5.28617 3.91656 6.02023 4.00656 7.02828C4.3846 10.5753 5.06851 14.0262 6.04151 17.2863C6.17148 17.7193 6.56851 18.0003 6.99952 18.0003C7.09456 18.0003 7.19054 17.9873 7.28651 17.9583C7.8155 17.8004 8.11655 17.2434 7.95847 16.7144C7.0205 13.5724 6.3605 10.2424 5.99745 6.8334C5.97448 6.57945 6.13948 6.36043 6.19046 6.29844C6.27249 6.20047 6.45542 6.03148 6.82749 6.00043H14.9985C14.9996 6.00043 14.9996 6.00043 14.9996 6.00043C15.5515 6.00043 15.9995 5.55348 15.9995 5.00141C16.0005 4.44922 15.5524 4.00027 15.0005 4.00027Z" fill="#0073E6"/>
<path d="M54.9995 44.0003C54.4475 44.0003 53.9995 44.4483 53.9995 45.0002L53.9984 53.1592C53.9995 53.3842 53.9135 53.5962 53.7564 53.7541C53.5994 53.9121 53.3914 53.9992 53.1935 54.0001L53.1015 53.9981C49.6845 53.6271 46.3825 52.9691 43.2875 52.0421C42.7605 51.8831 42.2015 52.1842 42.0425 52.7132C41.8835 53.2421 42.1845 53.7991 42.7135 53.9582C45.9246 54.9201 49.3475 55.6022 52.9036 55.9882C52.9856 55.9962 53.1526 56.0001 53.1766 56.0001C53.9336 55.9971 54.6436 55.7001 55.1766 55.1632C55.7096 54.6252 56.0016 53.9112 55.9986 53.1552L55.9995 45.0002C55.9995 44.4483 55.5515 44.0003 54.9995 44.0003Z" fill="#0073E6"/>
</svg>
