<svg width="60" height="60" viewBox="0 0 60 60" fill="none" xmlns="http://www.w3.org/2000/svg">
<path fill-rule="evenodd" clip-rule="evenodd" d="M56.3641 17.8273L52.7705 17.1187L51.1923 13.3141L53.2337 10.27L49.0257 6.06195L45.9816 8.10348L42.1771 6.52531L41.4684 2.93164H35.5175L34.8089 6.52531L31.0043 8.10348L27.9601 6.06195L23.7521 10.27L25.7935 13.3141L24.2155 17.1187L20.6218 17.8273V23.7782L24.2155 24.4869L25.7935 28.2915L23.7521 31.3355L27.9601 35.5435L31.0043 33.5021L34.8089 35.0803L35.5175 38.6739H41.4684L42.1771 35.0803L45.9816 33.5021L49.0257 35.5435L53.2337 31.3355L51.1923 28.2915L52.7705 24.4869L56.3641 23.7782V17.8273Z" fill="#F9AC00"/>
<path fill-rule="evenodd" clip-rule="evenodd" d="M54.6269 23.7782L51.0333 24.4869L49.4551 28.2915L51.4966 31.3355L47.9859 34.8463L45.3176 33.0569L40.4399 35.0803L39.7312 38.6739H35.5175L34.8089 35.0803L29.931 33.0569L27.2628 34.8463L23.7521 31.3355L25.7935 28.2915L24.2155 24.4869L20.6218 23.7782V17.8273L24.2155 17.1187L25.7935 13.3141L23.7521 10.27L27.2628 6.75934L29.931 8.54867L34.8089 6.52531L35.5175 2.93164H39.7312L40.4399 6.52531L45.3176 8.54867L47.9859 6.75934L51.4966 10.27L49.4551 13.3141L51.0333 17.1187L54.6269 17.8273V23.7782Z" fill="#FDC72E"/>
<path d="M45.8568 23.4054C47.2989 18.5371 44.5214 13.4216 39.6531 11.9796C34.7848 10.5375 29.6693 13.315 28.2273 18.1833C26.7852 23.0515 29.5627 28.1671 34.431 29.6091C39.2993 31.0511 44.4148 28.2736 45.8568 23.4054Z" fill="#F9AC00"/>
<path d="M38.4929 29.9589C43.55 29.9589 47.6495 25.8593 47.6495 20.8022C47.6495 15.7451 43.55 11.6455 38.4929 11.6455C33.4358 11.6455 29.3362 15.7451 29.3362 20.8022C29.3362 25.8593 33.4358 29.9589 38.4929 29.9589Z" fill="#F3F3FF"/>
<path fill-rule="evenodd" clip-rule="evenodd" d="M22.8092 11.1266C21.6286 11.293 20.5501 11.8868 19.7782 12.7954C19.0063 13.704 18.5946 14.8642 18.6211 16.0561C18.6476 17.248 19.1105 18.3888 19.9221 19.2621C20.7337 20.1355 21.8375 20.6807 23.0243 20.7944H33.6025C35.4873 20.7943 37.0246 19.257 37.0246 17.3722V2.73134C35.4327 1.21083 33.0653 0.835945 31.0817 1.79032C29.8245 2.39489 28.8574 3.47202 28.3913 4.7868C26.8624 5.01522 25.4636 5.77684 24.442 6.93701C23.4205 8.09719 22.8421 9.58119 22.809 11.1266H22.8092ZM22.8092 30.4621C21.6286 30.2957 20.5501 29.702 19.7782 28.7934C19.0063 27.8848 18.5946 26.7246 18.6211 25.5326C18.6476 24.3407 19.1105 23.2 19.9221 22.3266C20.7337 21.4533 21.8375 20.9081 23.0243 20.7944H33.6025C35.4873 20.7945 37.0246 22.3318 37.0246 24.2166V38.8574C35.4327 40.3779 33.0653 40.7528 31.0817 39.7984C29.8245 39.1939 28.8574 38.1167 28.3913 36.802C26.8624 36.5735 25.4636 35.8119 24.442 34.6518C23.4205 33.4916 22.8421 32.0076 22.809 30.4621H22.8092Z" fill="#FF6161"/>
<path fill-rule="evenodd" clip-rule="evenodd" d="M40.4814 49.7151C41.6411 47.7638 40.172 45.2919 37.9038 45.3777C34.3189 45.3777 33.3814 45.5628 30.06 43.584L26.4464 41.4311C24.2381 40.1155 22.2173 39.568 19.6577 39.8046L9.70898 40.7247V55.4259C19.2892 55.4259 29.7742 60.2606 39.9268 58.1577C43.494 57.4187 55.1032 50.7773 57.2617 47.9401C59.2123 45.3757 56.694 42.9603 53.7185 44.6782C49.7118 46.9915 40.8257 51.0156 37.0999 51.3821C38.657 51.1898 39.9077 50.681 40.4816 49.7154L40.4814 49.7151Z" fill="#FDB0A0"/>
<path fill-rule="evenodd" clip-rule="evenodd" d="M40.4814 49.7151C41.6411 47.7638 40.172 45.2919 37.9038 45.3777C34.3189 45.3777 33.3814 45.5628 30.06 43.584L26.4464 41.4311C24.2381 40.1155 22.2173 39.568 19.6577 39.8046L9.70898 40.7247V52.9319C19.2038 53.0448 29.8958 57.7388 39.9268 55.661C43.494 54.922 55.1032 48.2806 57.2617 45.4434C57.3766 45.2929 57.4809 45.1346 57.5736 44.9695C56.8943 44.0478 55.3777 43.7203 53.7185 44.6782C49.7118 46.9915 40.8257 51.0156 37.0999 51.3821C38.657 51.1898 39.9077 50.681 40.4816 49.7154L40.4814 49.7151Z" fill="#FFCEC0"/>
<path fill-rule="evenodd" clip-rule="evenodd" d="M25.7063 47.1207C27.0663 47.9289 30.0423 48.8034 32.9459 49.1108C34.4074 49.2655 35.8232 49.2849 36.9283 49.0834C40.6515 48.4043 40.4779 46.7818 39.4299 45.7461C40.7432 46.4977 41.3503 48.2521 40.4813 49.7144C40.0093 50.5086 39.0795 50.9938 37.8979 51.248C37.6579 51.2928 37.3933 51.337 37.0996 51.3813C35.7846 51.5919 34.2158 51.5943 32.708 51.4347C29.485 51.0935 26.1109 50.0807 24.5169 49.1335C22.9586 48.2073 24.1392 46.1888 25.7063 47.1208V47.1207Z" fill="#FDB0A0"/>
<path fill-rule="evenodd" clip-rule="evenodd" d="M2.05103 38.2754H8.09228C9.27821 38.2754 10.2485 39.2457 10.2485 40.4316V55.7183C10.2485 56.9042 9.27821 57.8745 8.09228 57.8745H2.05103V38.2754Z" fill="#2A93FC"/>
<path fill-rule="evenodd" clip-rule="evenodd" d="M2.05103 38.2754H8.09228C8.31306 38.6201 8.43031 39.021 8.43013 39.4304V54.5077C8.43013 55.4291 7.6786 56.1807 6.75728 56.1807H2.05103V38.2754Z" fill="#4EB1FC"/>
<path fill-rule="evenodd" clip-rule="evenodd" d="M6.14965 55.19C7.03887 55.19 7.76426 54.4648 7.76426 53.5754C7.76426 52.6861 7.03898 51.9609 6.14965 51.9609C5.26031 51.9609 4.53516 52.6862 4.53516 53.5754C4.53516 54.4646 5.26043 55.19 6.14965 55.19Z" fill="#0062D9"/>
<path fill-rule="evenodd" clip-rule="evenodd" d="M6.93655 53.5942C6.93655 53.156 6.58007 52.799 6.14237 52.799C5.70468 52.799 5.34655 53.156 5.34655 53.5942C5.34655 54.0325 5.70409 54.389 6.14237 54.389C6.58065 54.389 6.93655 54.0326 6.93655 53.5942ZM8.57741 53.5942C8.57741 54.9375 7.48499 56.0293 6.14237 56.0293C4.79976 56.0293 3.70569 54.9375 3.70569 53.5942C3.70569 52.251 4.79917 51.158 6.14237 51.158C7.48558 51.158 8.57741 52.251 8.57741 53.5942ZM56.8618 45.3972C56.4071 44.8804 55.3881 44.6821 54.1364 45.404C50.3876 47.5685 41.2607 51.8156 37.1819 52.2161V52.2139C36.6544 52.276 36.0941 52.3065 35.5128 52.3065C31.6843 52.3065 26.9701 51.0446 25.0773 49.8234C24.9867 49.7651 24.9085 49.6896 24.8472 49.6011C24.7859 49.5126 24.7426 49.4128 24.7199 49.3076C24.6972 49.2023 24.6954 49.0936 24.7148 48.9877C24.7342 48.8818 24.7742 48.7807 24.8327 48.6903C24.891 48.5996 24.9666 48.5214 25.0552 48.46C25.1438 48.3986 25.2437 48.3552 25.349 48.3325C25.4544 48.3097 25.5632 48.3079 25.6692 48.3273C25.7753 48.3466 25.8764 48.3867 25.967 48.4451C28.0162 49.7657 34.4222 51.2433 37.8559 50.4362C38.8246 50.2074 39.4725 49.8301 39.7798 49.3133C40.1689 48.6597 40.1678 47.8757 39.7764 47.2183C39.386 46.5597 38.6969 46.1835 37.9372 46.214H37.9073C37.6097 46.214 37.3307 46.2152 37.0679 46.2162C34.1075 46.2292 32.8819 46.2349 29.6407 44.3036L26.0251 42.1498C23.8611 40.8609 22.0378 40.4225 19.7299 40.6354L11.0618 41.437V54.6561C14.5949 54.8109 18.2709 55.531 21.8352 56.2308C27.753 57.3933 33.8727 58.5947 39.7646 57.3747C43.0667 56.6901 54.5643 50.1605 56.6185 47.4594C57.2162 46.673 57.3076 45.9021 56.8619 45.3971L56.8618 45.3972ZM9.42128 40.4458V55.738C9.42128 56.4751 8.82257 57.0749 8.08487 57.0749H2.8623V39.11H8.08487C8.82257 39.11 9.42128 39.7087 9.42128 40.4459V40.4458ZM57.9237 48.4537C55.627 51.4734 43.8076 58.2126 40.0971 58.9814C38.2235 59.3694 36.3425 59.5287 34.4627 59.5287C30.1094 59.5287 25.764 58.6747 21.5181 57.8416C17.8618 57.1231 14.3931 56.4435 11.0091 56.2957C10.7475 57.6717 9.53589 58.716 8.08487 58.716H2.04163C1.93386 58.7161 1.82715 58.6949 1.72758 58.6536C1.62802 58.6124 1.53757 58.5519 1.46139 58.4757C1.38521 58.3994 1.32481 58.3089 1.28364 58.2094C1.24247 58.1098 1.22133 58.003 1.22144 57.8953V38.2899C1.22133 38.1821 1.24247 38.0754 1.28364 37.9758C1.32481 37.8762 1.38521 37.7857 1.46139 37.7095C1.53757 37.6333 1.62802 37.5728 1.72758 37.5316C1.82715 37.4903 1.93386 37.4691 2.04163 37.4691H8.08499C9.50331 37.4691 10.6923 38.4656 10.99 39.7958L19.579 39.0022C22.2275 38.7576 24.4073 39.2767 26.8655 40.7414L30.4794 42.894C33.3307 44.5937 34.1944 44.5873 37.0598 44.5755C37.3208 44.5743 37.5975 44.5733 37.8919 44.5733C39.2543 44.5264 40.4873 45.2014 41.1872 46.3802C41.739 47.3088 41.856 48.3775 41.5419 49.3642C45.484 47.9555 50.4473 45.6397 53.3162 43.983C55.3711 42.7968 57.1962 43.2938 58.0937 44.3123C59.0652 45.4149 58.9986 47.0416 57.9237 48.4537ZM19.6643 26.9814C20.0569 28.1179 20.9454 29.0165 22.0513 29.4407C22.1462 28.6579 22.3642 27.888 22.7099 27.1627C22.804 26.9665 22.9721 26.8156 23.1772 26.7431C23.3824 26.6705 23.608 26.6823 23.8045 26.7758C24.0007 26.8699 24.1517 27.038 24.2242 27.2431C24.2967 27.4483 24.285 27.6739 24.1915 27.8704C23.4109 29.5028 23.4521 31.4317 24.3016 33.0303C24.9602 34.269 26.0238 35.2005 27.3049 35.6902C27.2632 35.2993 27.2596 34.9053 27.2941 34.5137C27.5173 31.9955 29.3039 29.8485 31.7395 29.1703C32.1767 29.0493 32.6286 29.3053 32.7494 29.7407C32.8079 29.9502 32.7808 30.1744 32.674 30.3639C32.5672 30.5534 32.3895 30.6927 32.18 30.7512C30.3985 31.2466 29.092 32.8169 28.9276 34.6589C28.765 36.5002 29.7737 38.2767 31.4401 39.0782C33.0036 39.8294 34.8778 39.595 36.2074 38.5078V34.9769C35.507 35.7044 34.5902 36.2462 33.469 36.4381C33.4221 36.4449 33.3752 36.4499 33.3294 36.4499C33.1358 36.4497 32.9485 36.3809 32.8006 36.2558C32.6528 36.1307 32.554 35.9574 32.5216 35.7665C32.4853 35.5522 32.5354 35.3323 32.6612 35.155C32.7869 34.9777 32.9778 34.8575 33.1921 34.8209C35.1504 34.4854 36.2072 32.5462 36.2072 30.8907V24.2356C36.2072 22.8009 35.0402 21.6339 33.6055 21.6339C33.6039 21.6339 33.6021 21.6323 33.601 21.6323L23.0734 21.6339C22.1217 21.7319 21.2355 22.164 20.5723 22.8535C19.5126 23.9549 19.1647 25.5359 19.6641 26.9814H19.6643ZM20.5725 18.7719C21.2349 19.4599 22.1188 19.8923 23.0686 19.9931L33.6059 19.9919C35.0406 19.9919 36.2075 18.8249 36.2075 17.3902V10.7351C36.2075 9.07952 35.1507 7.13983 33.1924 6.80491C32.9781 6.76826 32.7871 6.64801 32.6614 6.47059C32.5356 6.29317 32.4855 6.0731 32.522 5.85874C32.5983 5.41249 33.0225 5.1126 33.4692 5.18772C34.5905 5.37979 35.5072 5.92143 36.2076 6.64905V3.11819C34.878 2.03092 33.0049 1.79479 31.4403 2.54713C29.7741 3.34917 28.7652 5.12573 28.9278 6.96651C29.0923 8.80846 30.3987 10.3788 32.1803 10.8747C32.6157 10.9967 32.8717 11.448 32.7497 11.8846C32.6914 12.0943 32.5523 12.2722 32.363 12.3793C32.1736 12.4864 31.9494 12.5138 31.7398 12.4557C29.3041 11.7773 27.5175 9.6303 27.2944 7.11171C27.2598 6.7201 27.2634 6.32605 27.3051 5.93514C26.0241 6.42546 24.9605 7.35581 24.3019 8.59553C23.4524 10.1941 23.4111 12.1225 24.1917 13.7554C24.386 14.1644 24.2137 14.6541 23.8048 14.8495C23.6947 14.9022 23.5743 14.9296 23.4523 14.9298C23.2971 14.9299 23.1452 14.8861 23.0138 14.8036C22.8825 14.721 22.7772 14.603 22.71 14.4632C22.3686 13.7446 22.1461 12.9752 22.0514 12.1852C20.9443 12.6077 20.0569 13.507 19.6644 14.6446C19.1651 16.0896 19.513 17.6705 20.5726 18.772L20.5725 18.7719ZM40.7969 3.76952H37.8484V10.855C38.0644 10.84 38.2808 10.8321 38.4974 10.8312C44.0007 10.8312 48.4782 15.3087 48.4782 20.8133C48.4782 26.3178 44.0007 30.7941 38.4974 30.7941C38.281 30.7941 38.0641 30.7851 37.8484 30.7709V37.8558H40.7969L41.3748 34.9255C41.4014 34.793 41.46 34.6691 41.5456 34.5647C41.6312 34.4602 41.7411 34.3783 41.8657 34.3262L45.6682 32.7492C45.793 32.6973 45.9287 32.6771 46.0632 32.6904C46.1978 32.7037 46.3269 32.7501 46.4392 32.8253L48.9223 34.4905L52.1747 31.2386L50.5106 28.7555C50.4352 28.6432 50.3887 28.5141 50.3752 28.3795C50.3617 28.2449 50.3816 28.109 50.4333 27.984L52.0114 24.1815C52.063 24.0566 52.1446 23.9464 52.2491 23.8608C52.3535 23.7751 52.4776 23.7166 52.6101 23.6906L55.54 23.1127V18.5131L52.6101 17.9353C52.4775 17.9094 52.3533 17.8511 52.2488 17.7654C52.1443 17.6797 52.0627 17.5694 52.0114 17.4444L50.4333 13.6417C50.3816 13.5167 50.3617 13.3809 50.3752 13.2463C50.3887 13.1117 50.4352 12.9825 50.5106 12.8702L52.1747 10.3883L48.9223 7.13538L46.4392 8.80049C46.3269 8.87568 46.1977 8.92196 46.0632 8.93525C45.9287 8.94854 45.793 8.92842 45.6682 8.87667L41.8657 7.29909C41.7411 7.24714 41.6312 7.16537 41.5456 7.06097C41.46 6.95658 41.4013 6.83275 41.3748 6.70038L40.7969 3.76952ZM36.1093 20.8133C37.1627 20.0399 37.8485 18.7945 37.8485 17.3902V12.4981C38.0644 12.4812 38.2809 12.4726 38.4975 12.4721C43.0959 12.4721 46.8381 16.2137 46.8381 20.8133C46.8381 25.4129 43.0959 29.1539 38.4975 29.1539C38.2809 29.1534 38.0644 29.1447 37.8485 29.1278V24.2357C37.8485 22.8315 37.1627 21.586 36.1093 20.8133ZM19.3904 21.7158C19.7247 21.3681 20.1023 21.0647 20.5139 20.8133C20.1026 20.5611 19.7251 20.2576 19.3904 19.9101C17.9009 18.3618 17.4123 16.1391 18.1127 14.1091C18.733 12.3174 20.2213 10.9465 22.0424 10.4658C22.1441 9.5519 22.4123 8.65378 22.853 7.82573C23.8821 5.88827 25.6772 4.53827 27.8089 4.08135C28.389 2.79018 29.4075 1.7062 30.7291 1.06963C32.9959 -0.0199746 35.7366 0.406471 37.5649 2.12924H41.4719C41.662 2.12952 41.846 2.19563 41.9928 2.31632C42.1395 2.43702 42.2399 2.60485 42.2769 2.79124L42.9005 5.95155L45.8907 7.19245L48.5687 5.39737C48.7265 5.29169 48.9161 5.24396 49.1052 5.26229C49.2942 5.28062 49.4711 5.36388 49.6057 5.49792L53.8116 9.70378C53.9461 9.8382 54.0297 10.0151 54.0483 10.2044C54.0668 10.3937 54.0191 10.5835 53.9133 10.7415L52.117 13.4189L53.358 16.4109L56.5195 17.034C56.7059 17.0706 56.8738 17.1708 56.9945 17.3175C57.1152 17.4643 57.1811 17.6484 57.1809 17.8383V23.788C57.181 23.9779 57.1151 24.1619 56.9944 24.3085C56.8738 24.4551 56.7059 24.5553 56.5195 24.5917L53.358 25.2153L52.117 28.2067L53.9133 30.8847C54.0192 31.0426 54.0669 31.2323 54.0484 31.4215C54.0298 31.6107 53.9461 31.7875 53.8116 31.9218L49.6057 36.1277C49.4712 36.2619 49.2944 36.3453 49.1053 36.3638C48.9162 36.3822 48.7266 36.3345 48.5687 36.2288L45.8907 34.4332L42.9005 35.6742L42.2769 38.8349C42.2399 39.0213 42.1395 39.1892 41.9928 39.3099C41.846 39.4306 41.662 39.4967 41.4719 39.4969H37.5649C36.4116 40.5832 34.8955 41.1548 33.3647 41.1548C32.4683 41.1548 31.5662 40.9593 30.7291 40.5561C29.4074 39.9201 28.3878 38.8349 27.8089 37.5444C25.6784 37.0863 23.881 35.7351 22.853 33.8006C22.4123 32.9719 22.1441 32.0732 22.0424 31.1593C20.2225 30.6786 18.7318 29.3065 18.1127 27.5171C17.4123 25.4871 17.901 23.2644 19.3904 21.7161V21.7158ZM28.885 28.9685C28.7546 28.9686 28.626 28.9376 28.51 28.878C28.394 28.8185 28.2939 28.7321 28.2179 28.6262C27.3746 27.4508 27.2655 25.9239 27.9333 24.6406C28.6015 23.3573 29.9198 22.5699 31.3636 22.5902C31.816 22.5948 32.178 22.9675 32.173 23.4194C32.1703 23.6352 32.0827 23.8412 31.9292 23.9928C31.7757 24.1444 31.5686 24.2294 31.3528 24.2294C31.3398 24.2306 31.3268 24.2294 31.3144 24.2294C30.501 24.2294 29.765 24.6762 29.3887 25.3986C29.0074 26.1289 29.0702 26.9999 29.5502 27.6687C29.6132 27.7562 29.6583 27.8552 29.683 27.9601C29.7076 28.065 29.7114 28.1738 29.694 28.2801C29.6765 28.3865 29.6383 28.4884 29.5815 28.5799C29.5247 28.6715 29.4503 28.751 29.3627 28.8138C29.2237 28.9144 29.0565 28.9686 28.8848 28.9686L28.885 28.9685ZM27.9333 16.9846C27.2657 15.7019 27.3746 14.1745 28.2179 12.9991C28.4828 12.6314 28.9951 12.5472 29.3628 12.8116C29.4504 12.8744 29.5247 12.9539 29.5816 13.0454C29.6384 13.137 29.6766 13.2389 29.694 13.3452C29.7114 13.4516 29.7077 13.5603 29.6831 13.6652C29.6584 13.7701 29.6133 13.8692 29.5503 13.9566C29.0702 14.6259 29.0075 15.4964 29.3889 16.2268C29.765 16.9498 30.5011 17.3965 31.3145 17.3965C31.3269 17.3965 31.3399 17.3949 31.3529 17.3965C31.5686 17.3964 31.7757 17.4813 31.9292 17.6329C32.0827 17.7844 32.1704 17.9903 32.1731 18.206C32.1782 18.6584 31.8162 19.0312 31.3637 19.0368H31.3146C29.8855 19.0368 28.5943 18.2539 27.9334 16.9848L27.9333 16.9846Z" fill="black"/>
</svg>
