<svg width="60" height="60" viewBox="0 0 60 60" fill="none" xmlns="http://www.w3.org/2000/svg">
<g clip-path="url(#clip0_1_257)">
<path d="M52.5 55.2V58.125H35.625V55.2C35.625 53.5875 36.6563 52.1531 38.1938 51.6469L41.25 50.625H46.875L49.9312 51.6469C51.4687 52.1531 52.5 53.5875 52.5 55.2Z" fill="#B4DD7F"/>
<path d="M35.625 55.2V58.125H18.75V55.2C18.75 53.5875 19.7812 52.1531 21.3187 51.6469L24.375 50.625H30L33.0562 51.6469C34.5937 52.1531 35.625 53.5875 35.625 55.2Z" fill="#FCD770"/>
<path d="M18.75 55.2V58.125H1.875V54.8156C1.875 53.4 2.68125 52.0969 3.94688 51.4594L5.625 50.625V54.375H15V50.625L16.6781 51.4594C17.2998 51.7728 17.8225 52.2524 18.1882 52.8448C18.5539 53.4373 18.7484 54.1194 18.75 54.8156V55.2Z" fill="#FF826E"/>
<path d="M31.875 44.0624C31.875 45.9092 31.4437 47.7374 30.6187 49.3874L30 50.6249H24.375L23.7563 49.3874C22.9313 47.7374 22.5 45.9092 22.5 44.0624C22.5 42.7686 23.025 41.5967 23.8687 40.7436C24.7508 39.867 25.9439 39.375 27.1875 39.375C28.4311 39.375 29.6242 39.867 30.5063 40.7436C31.35 41.5967 31.875 42.7686 31.875 44.0624Z" fill="#B27946"/>
<path d="M48.75 44.0625C48.75 45.9094 48.3187 47.7375 47.4938 49.3875L46.875 50.625H41.25L40.6312 49.3875C39.8063 47.7375 39.375 45.9094 39.375 44.0625C39.375 42.7687 39.9 41.5969 40.7437 40.7437C41.1562 40.3312 41.6437 40.0031 42.1875 39.7687V39.7594C42.7594 39.5156 43.3969 39.375 44.0625 39.375C45.3563 39.375 46.5281 39.9 47.3813 40.7437C48.225 41.5969 48.75 42.7687 48.75 44.0625ZM15 50.625V54.375H5.625V44.0625C5.625 41.475 7.725 39.375 10.3125 39.375C11.6062 39.375 12.7781 39.9 13.6313 40.7437C14.475 41.5969 15 42.7687 15 44.0625V50.625Z" fill="#656D78"/>
<path d="M1.875 31.875V1.875H46.6969C44.9719 1.875 43.2844 2.34375 41.8031 3.225C41.0603 3.67042 40.4459 4.30123 40.0202 5.05559C39.5946 5.80995 39.3722 6.66196 39.375 7.52812V7.71562C39.375 8.76562 39.6937 9.76875 40.2469 10.6031C39.7219 10.9406 39.375 11.5219 39.375 12.1875C39.375 12.7031 39.5812 13.1719 39.9281 13.5094C40.2656 13.8562 40.7344 14.0625 41.25 14.0625H43.125C43.125 15.5906 43.8656 16.9594 45.0094 17.8031L45 17.8125V20.625L40.5938 21.5063C40.4062 21.5438 40.2188 21.5906 40.0406 21.6562L37.5 22.5L32.5406 18.0844L29.8031 15.6563C29.325 15.2344 28.7156 15 28.0781 15H27.9094C27.1875 15 26.5406 15.2906 26.0719 15.7594C25.6031 16.2281 25.3125 16.875 25.3125 17.5969C25.3125 18.3281 25.6219 19.0312 26.175 19.5187L28.7719 21.8531L32.5781 25.2844C33.9352 26.5103 35.6993 27.1885 37.5281 27.1875C38.1281 27.1875 38.7375 27.1125 39.3187 26.9625L42.1594 26.2594C42.1781 26.3813 42.1875 26.5125 42.1875 26.6344V31.875H1.875Z" fill="#E6E9ED"/>
<path d="M53.4375 35.625V50.625H46.875L47.4937 49.3875C48.3187 47.7375 48.75 45.9094 48.75 44.0625C48.75 42.7688 48.225 41.5969 47.3813 40.7437C46.5281 39.9 45.3563 39.375 44.0625 39.375C43.3969 39.375 42.7594 39.5156 42.1875 39.7594V35.625H53.4375Z" fill="#D3A06C"/>
<path d="M53.4376 33.7496V35.6246H42.1876V26.634C42.1876 26.5121 42.1782 26.3809 42.1595 26.259L39.3188 26.9621C38.7376 27.1121 38.1282 27.1871 37.5282 27.1871C35.6994 27.1881 33.9353 26.5099 32.5782 25.284L28.772 21.8527L32.5407 18.084L37.5001 22.4996L40.0407 21.6559C40.2188 21.5902 40.4063 21.5434 40.5938 21.5059L45.0001 20.6246L45.347 21.6559C45.5189 22.1739 45.8496 22.6247 46.2922 22.9442C46.7348 23.2636 47.2668 23.4355 47.8126 23.4355C48.3584 23.4355 48.8904 23.2636 49.333 22.9442C49.7756 22.6247 50.1063 22.1739 50.2782 21.6559L50.6251 20.6246L54.422 21.384C55.4665 21.5928 56.4065 22.1572 57.0817 22.9811C57.7569 23.805 58.1256 24.8375 58.1251 25.9027V33.7496H53.4376Z" fill="#B4DD7F"/>
<path d="M56.25 7.5V7.71562C56.25 8.76562 55.9313 9.76875 55.3781 10.6031C55.0875 10.4156 54.7407 10.3125 54.375 10.3125H52.5V10.3031H52.3407C50.6438 10.3031 49.0125 9.62812 47.8125 8.42812C46.6125 9.62812 44.9813 10.3031 43.2844 10.3031H43.125V10.3125H41.25C40.8844 10.3125 40.5375 10.4156 40.2469 10.6031C39.6938 9.76875 39.375 8.76562 39.375 7.71562V7.52812C39.3723 6.66196 39.5946 5.80995 40.0203 5.05559C40.4459 4.30123 41.0603 3.67042 41.8032 3.225C43.2844 2.34375 44.9719 1.875 46.6969 1.875H46.875C49.3219 1.92188 51.675 2.925 53.4094 4.65937L53.4375 4.6875C54.9938 4.6875 56.25 5.94375 56.25 7.5Z" fill="#656D78"/>
<path d="M32.5406 18.0844L28.7719 21.8531L26.175 19.5187C25.6219 19.0312 25.3125 18.3281 25.3125 17.5969C25.3125 16.875 25.6031 16.2281 26.0719 15.7594C26.5406 15.2906 27.1875 15 27.9094 15H28.0781C28.7156 15 29.325 15.2344 29.8031 15.6563L32.5406 18.0844ZM58.125 33.75V37.0312C58.125 37.6529 57.8781 38.249 57.4385 38.6885C56.999 39.1281 56.4029 39.375 55.7812 39.375C55.1596 39.375 54.5635 39.1281 54.124 38.6885C53.6844 38.249 53.4375 37.6529 53.4375 37.0312V33.75H58.125ZM55.6969 10.8656C56.0438 11.2031 56.25 11.6719 56.25 12.1875C56.25 13.2188 55.4062 14.0625 54.375 14.0625H52.5V10.3125H54.375C54.7406 10.3125 55.0875 10.4156 55.3781 10.6031C55.4906 10.6781 55.6031 10.7625 55.6969 10.8656ZM50.625 17.8125V20.625L50.2781 21.6562C50.1062 22.1743 49.7755 22.6251 49.3329 22.9445C48.8903 23.264 48.3583 23.4359 47.8125 23.4359C47.2667 23.4359 46.7347 23.264 46.2921 22.9445C45.8495 22.6251 45.5188 22.1743 45.3469 21.6562L45 20.625V17.8125L45.0094 17.8031C45.7875 18.3938 46.7625 18.7406 47.8125 18.7406C48.8625 18.7406 49.8375 18.3938 50.6156 17.8031L50.625 17.8125Z" fill="#F0D0B4"/>
<path d="M52.5 10.3121V14.0621C52.5 15.5902 51.7594 16.959 50.6156 17.8027C49.8375 18.3934 48.8625 18.7402 47.8125 18.7402C46.7625 18.7402 45.7875 18.3934 45.0094 17.8027C44.4244 17.3702 43.9492 16.8065 43.6219 16.1568C43.2946 15.5071 43.1244 14.7896 43.125 14.0621V10.3027H43.2844C44.9812 10.3027 46.6125 9.62773 47.8125 8.42773C49.0125 9.62773 50.6438 10.3027 52.3406 10.3027H52.5V10.3121Z" fill="#F0D0B4"/>
<path d="M43.125 14.0531V14.0625H41.25C40.7344 14.0625 40.2656 13.8562 39.9281 13.5094C39.5813 13.1719 39.375 12.7031 39.375 12.1875C39.376 11.6905 39.5739 11.2142 39.9253 10.8628C40.2767 10.5114 40.753 10.3135 41.25 10.3125H43.125V14.0531Z" fill="#F0D0B4"/>
<path d="M4.6875 27.1875H6.5625V29.0625H4.6875V27.1875ZM8.4375 27.1875H16.875V29.0625H8.4375V27.1875Z" fill="black"/>
<path d="M56.5913 21.2887C55.9888 20.8859 55.3128 20.6059 54.6019 20.4647L51.5625 19.8563V18.2362C52.5075 17.3906 53.1383 16.2499 53.3522 15H54.375C55.9257 15 57.1875 13.7381 57.1875 12.1875C57.1847 11.5451 56.9598 10.9234 56.551 10.4278C56.9685 9.58492 57.1863 8.6572 57.1875 7.71656V7.5C57.1865 6.5755 56.8445 5.68387 56.2269 4.9959C55.6094 4.30792 54.7597 3.87198 53.8407 3.77156C51.9548 1.99025 49.4689 0.98185 46.875 0.945937V0.9375H0.937526V32.8125H41.25V39.1987C40.396 39.6917 39.6866 40.4006 39.1929 41.2543C38.6993 42.1079 38.4388 43.0764 38.4375 44.0625C38.4375 46.0481 38.9072 48.0356 39.7941 49.8094L39.9282 50.0775L37.8928 50.7562C36.9869 51.0588 36.1955 51.6317 35.625 52.3978C35.0546 51.6317 34.2631 51.0588 33.3572 50.7562L31.3219 50.0775L31.456 49.8094C32.3458 48.0242 32.8101 46.0572 32.8125 44.0625C32.8125 40.9603 30.2897 38.4375 27.1875 38.4375C24.0853 38.4375 21.5625 40.9603 21.5625 44.0625C21.5625 46.0481 22.0322 48.0356 22.9191 49.8094L23.0532 50.0775L21.0178 50.7562C20.1881 51.0363 19.4539 51.5441 18.8991 52.2216C18.4477 51.5412 17.8262 50.9908 17.0963 50.625L15.9375 50.0456V44.0625C15.9375 40.9603 13.4147 38.4375 10.3125 38.4375C7.21034 38.4375 4.68753 40.9603 4.68753 44.0625V50.0456L3.52878 50.625C2.7483 51.012 2.09185 51.6098 1.63385 52.3508C1.17586 53.0919 0.934629 53.9464 0.937526 54.8175V59.0625H53.4375V55.2028C53.4367 54.5037 53.279 53.8138 52.9761 53.1838C52.6731 52.5537 52.2327 51.9997 51.6872 51.5625H54.375V39.9834C54.8025 40.1878 55.276 40.3125 55.7813 40.3125C57.5907 40.3125 59.0625 38.8406 59.0625 37.0312V25.905C59.0634 24.9914 58.8383 24.0917 58.4071 23.2863C57.9759 22.4808 57.3521 21.7946 56.5913 21.2887ZM54.2344 22.3031C55.0678 22.4683 55.8179 22.9177 56.3566 23.5747C56.8952 24.2317 57.189 25.0554 57.1875 25.905V32.8125H54.375V26.6381C54.375 26.0334 54.6103 25.4653 55.0378 25.0378L53.7122 23.7113C53.3266 24.0947 53.0209 24.5508 52.8129 25.0532C52.6048 25.5556 52.4985 26.0943 52.5 26.6381V34.6875H43.125V26.6381C43.125 25.5319 42.6947 24.4931 41.9128 23.7113L40.5872 25.0378C40.7494 25.2 40.875 25.3875 40.9791 25.5853L39.0928 26.0569C38.066 26.3077 36.9937 26.3054 35.968 26.0501C34.9423 25.7949 33.9939 25.2944 33.2044 24.5916L30.1285 21.8231L32.5744 19.3762L37.2816 23.5603L40.3369 22.5422C40.4816 22.4941 40.629 22.455 40.7785 22.425L44.3719 21.7059L44.4553 21.9544C44.9382 23.4028 46.2872 24.375 47.8125 24.375C49.3378 24.375 50.6869 23.4028 51.1707 21.9544L51.2532 21.7059L54.2344 22.3031ZM26.7985 18.8269C26.5503 18.6022 26.3759 18.3076 26.2982 17.982C26.2205 17.6563 26.2431 17.3148 26.3631 17.0022C26.4831 16.6897 26.6948 16.4207 26.9704 16.2307C27.2461 16.0407 27.5727 15.9385 27.9075 15.9375H28.0772C28.4841 15.9375 28.8741 16.0856 29.1778 16.3566L31.1719 18.1284L28.7335 20.5669L26.7985 18.8269ZM49.6875 20.4722L49.3922 21.3619C49.2821 21.6936 49.0703 21.9823 48.7869 22.1869C48.5035 22.3916 48.1629 22.5017 47.8133 22.5018C47.4638 22.5019 47.1231 22.392 46.8395 22.1875C46.556 21.9831 46.3441 21.6945 46.2338 21.3628L45.9375 20.4722V19.3528C46.5253 19.5619 47.1544 19.6809 47.8125 19.6809C48.4707 19.6809 49.0997 19.5609 49.6875 19.3528V20.4722ZM51.5625 14.0559C51.5625 16.1241 49.8807 17.8059 47.8125 17.8059C45.7444 17.8059 44.0625 16.1241 44.0625 14.0559V11.2031C45.4314 11.0618 46.7319 10.5345 47.8125 9.6825C48.8934 10.5341 50.1938 11.0614 51.5625 11.2031V14.0559ZM54.375 13.125H53.4375V11.25H54.375C54.6164 11.2608 54.8443 11.3643 55.0113 11.5389C55.1783 11.7136 55.2715 11.9459 55.2715 12.1875C55.2715 12.4291 55.1783 12.6614 55.0113 12.8361C54.8443 13.0107 54.6164 13.1142 54.375 13.125ZM53.0532 5.625H53.4375C54.4716 5.625 55.3125 6.46594 55.3125 7.5V7.71656C55.3125 8.31281 55.1832 8.89406 54.946 9.43406C54.7582 9.39483 54.5669 9.37504 54.375 9.375H53.4375V9.36844H52.3388C51.621 9.37054 50.9099 9.23018 50.2467 8.95547C49.5835 8.68077 48.9814 8.27719 48.4753 7.76813L47.8125 7.10437L47.1497 7.76813C46.6436 8.27711 46.0415 8.68063 45.3783 8.95533C44.7152 9.23002 44.0041 9.37044 43.2863 9.36844H42.1875V9.375H41.25C41.0541 9.375 40.8638 9.39563 40.6791 9.43406C40.439 8.8932 40.3142 8.3083 40.3125 7.71656V7.52437C40.3125 6.10219 41.071 4.76438 42.2897 4.03219C43.6196 3.23428 45.1413 2.8127 46.6922 2.8125C48.9778 2.8125 51.1266 3.70219 52.7794 5.355L53.0532 5.625ZM41.25 13.125C41.0086 13.1142 40.7807 13.0107 40.6137 12.8361C40.4467 12.6614 40.3535 12.4291 40.3535 12.1875C40.3535 11.9459 40.4467 11.7136 40.6137 11.5389C40.7807 11.3643 41.0086 11.2608 41.25 11.25H42.1875V13.125H41.25ZM2.81253 30.9375V2.8125H40.7653C40.0441 3.36877 39.4595 4.08243 39.0561 4.89903C38.6527 5.71562 38.4411 6.61357 38.4375 7.52437V7.71656C38.4375 8.66437 38.6597 9.58594 39.0741 10.4278C38.6651 10.9233 38.4402 11.545 38.4375 12.1875C38.4375 13.7381 39.6994 15 41.25 15H42.2728C42.4868 16.2499 43.1176 17.3906 44.0625 18.2362V19.8563L40.41 20.5866C40.185 20.6316 39.961 20.6906 39.7435 20.7628L37.7175 21.4387L30.4228 14.955C29.7768 14.3794 28.9415 14.0617 28.0763 14.0625H27.9066C26.9702 14.0637 26.0725 14.4363 25.4104 15.0986C24.7484 15.7608 24.376 16.6586 24.375 17.595C24.3752 18.09 24.4794 18.5795 24.6807 19.0317C24.8821 19.4839 25.1763 19.8887 25.5441 20.22L31.95 25.9847C32.9642 26.8988 34.1877 27.5494 35.5126 27.8791C36.8375 28.2089 38.2232 28.2077 39.5475 27.8756L41.25 27.4509V30.9375H2.81253ZM44.0625 40.3125C46.1307 40.3125 47.8125 41.9944 47.8125 44.0625C47.8125 45.7584 47.4113 47.4553 46.6538 48.9712L46.2957 49.6875H41.8294L41.4713 48.9712C40.7113 47.4464 40.3147 45.7663 40.3125 44.0625C40.3125 41.9944 41.9944 40.3125 44.0625 40.3125ZM27.1875 40.3125C29.2557 40.3125 30.9375 41.9944 30.9375 44.0625C30.9375 45.7584 30.5363 47.4553 29.7788 48.9712L29.4207 49.6875H24.9544L24.5963 48.9712C23.8363 47.4464 23.4397 45.7663 23.4375 44.0625C23.4375 41.9944 25.1194 40.3125 27.1875 40.3125ZM6.56253 44.0625C6.56253 41.9944 8.2444 40.3125 10.3125 40.3125C12.3807 40.3125 14.0625 41.9944 14.0625 44.0625V53.4375H6.56253V44.0625ZM17.8125 57.1875H2.81253V54.8175C2.81253 53.745 3.40878 52.7812 4.3669 52.3022L4.68753 52.1419V55.3125H15.9375V52.1419L16.2582 52.3022C16.7263 52.5345 17.12 52.8932 17.3947 53.3378C17.6694 53.7823 17.8141 54.2949 17.8125 54.8175V55.2028V57.1875ZM34.6875 57.1875H19.6875V55.2028C19.6875 53.9906 20.46 52.9181 21.6113 52.5347L24.5278 51.5625H29.8482L32.7647 52.5347C33.325 52.7209 33.8123 53.0789 34.1575 53.5579C34.5026 54.0369 34.6881 54.6124 34.6875 55.2028V57.1875ZM51.5625 57.1875H36.5625V55.2028C36.5625 53.9906 37.335 52.9181 38.4863 52.5347L41.4028 51.5625H46.7232L49.6397 52.5347C50.2 52.7209 50.6873 53.0789 51.0325 53.5579C51.3776 54.0369 51.5631 54.6124 51.5625 55.2028V57.1875ZM52.5 49.6875H48.3835C49.2368 47.9348 49.6826 46.0119 49.6875 44.0625C49.6875 40.9603 47.1647 38.4375 44.0625 38.4375C43.7428 38.4375 43.4307 38.4703 43.125 38.5219V36.5625H52.5V37.0312V49.6875ZM55.7813 38.4375C55.006 38.4375 54.375 37.8066 54.375 37.0312V34.6875H57.1875V37.0312C57.1875 37.8066 56.5566 38.4375 55.7813 38.4375Z" fill="black"/>
<path d="M19.6875 10.3125H17.8125V14.0625H15.9375V6.5625H14.0625V14.0625H12.1875V8.4375H10.3125V14.0625H8.4375V10.3125H6.5625V14.0625H4.6875V15.9375H21.5625V14.0625H19.6875V10.3125ZM4.6875 17.8125H6.5625V19.6875H4.6875V17.8125ZM8.4375 17.8125H17.8125V19.6875H8.4375V17.8125ZM19.6875 17.8125H21.5625V19.6875H19.6875V17.8125Z" fill="black"/>
</g>
<defs>
<clipPath id="clip0_1_257">
<rect width="60" height="60" fill="white"/>
</clipPath>
</defs>
</svg>
