<svg width="38" height="56" viewBox="0 0 38 56" fill="none" xmlns="http://www.w3.org/2000/svg">
<path opacity="0.6" d="M22.6299 45.9638C22.6299 45.9638 11.1754 45.0119 5.22242 46.2998C2.40492 46.9096 -3.92334 53.5922 3.43524 54.3637C8.10353 54.8552 12.5301 55.4775 12.5301 55.4775C12.5301 55.4775 13.8785 51.7068 14.3618 51.3024C14.6544 51.0597 23.2405 50.3007 24.7478 50.3753C25.0976 50.394 25.4728 50.3878 25.7781 50.394C26.0898 50.394 26.2742 50.0518 26.0961 49.8091C25.2184 48.6082 24.2453 46.3185 22.6299 45.9638Z" fill="#D7D1C8"/>
<path d="M28.048 48.7761C27.5965 48.3841 26.7442 47.7059 25.8729 47.2455C25.345 47.2953 24.798 47.3015 24.232 47.2704C23.0808 47.2019 21.7325 47.0464 20.7403 46.3931C20.7149 46.6046 20.7149 46.8348 20.7276 47.0588C20.753 47.5068 20.7912 47.6873 21.3191 48.0108C23.9712 49.6286 24.3337 49.8463 24.8171 50.089C25.3641 50.3566 26.0255 50.6988 27.4693 50.313C28.2007 50.0019 28.2515 49.7095 28.2197 49.4481C28.1943 49.305 28.2325 48.9317 28.048 48.7761Z" fill="#C07A2D"/>
<path d="M27.9076 48.5272C27.2589 48.0045 25.6625 46.9343 24.8739 46.2374C24.6576 46.0445 24.028 45.2481 23.9135 44.9743C23.6146 44.2712 22.0945 44.5326 21.1787 44.9868C20.7462 45.1983 20.6635 45.9201 20.7017 46.5859C20.7271 47.0339 20.7653 47.2143 21.2931 47.5379C23.9453 49.1556 24.5304 49.4543 25.0201 49.6658C25.4971 49.8711 25.9932 50.064 27.0363 49.8525C27.3924 49.7778 27.7295 49.616 27.9776 49.3547C28.1938 49.1369 28.3019 48.8507 27.9076 48.5272Z" fill="#F4F1ED"/>
<path d="M11.4941 55.4337C12.3718 56.1182 14.4515 56.3422 14.9603 55.1848C15.1957 54.6435 14.318 51.1031 14.2353 50.0765C14.2099 49.784 14.1717 49.2676 14.1717 49.2676C14.089 49.168 13.7774 49.1058 13.6565 49.056C13.1477 48.8445 12.2446 49.0934 11.6913 49.0871C11.4114 49.0871 11.2524 50.9414 11.2397 51.1218C11.1443 52.2542 10.8072 54.8986 11.4941 55.4337Z" fill="#C07A2D"/>
<path d="M11.4483 54.8303C12.326 55.5148 14.4058 55.7388 14.9146 54.5814C15.1499 54.0401 14.3485 50.4997 14.2722 49.4793C14.2468 49.1869 14.2086 48.6704 14.2086 48.6704C14.1259 48.5709 13.7316 48.5087 13.6108 48.4589C13.102 48.2473 12.1988 48.4962 11.6455 48.49C11.3657 48.49 11.2067 50.3442 11.1939 50.5246C11.1049 51.6446 10.7678 54.2952 11.4483 54.8303Z" fill="#F4F1ED"/>
<path d="M23.8315 34.5585C23.7933 30.7506 24.3721 27.7391 23.7106 22.2449C23.4117 18.9908 17.8021 19.4948 13.7062 22.0894C12.8985 22.6058 12.5742 26.084 12.5296 27.9071C12.288 31.7025 12.2244 37.4082 12.0018 39.2064C11.5756 42.641 11.3594 47.8241 11.3848 48.8818C11.3594 49.9209 14.1642 50.0391 14.4885 49.0249C15.0291 46.5236 16.104 42.5539 16.7464 38.9575C17.0071 37.4953 18.6607 29.0084 18.6607 29.0084C18.8007 30.8564 19.443 37.1843 19.4748 37.6447C19.8691 42.7717 20.1681 40.65 20.7087 45.329C20.7532 46.2063 24.3275 46.2685 24.2894 45.2357C24.1049 39.5424 24.1049 39.5424 23.8315 34.5585Z" fill="#2B1F29"/>
<path d="M35.4713 14.9774C32.8128 13.9446 29.0477 12.2335 29.0477 12.2335C29.0477 12.2335 24.9963 7.78467 23.4699 6.65846C22.9738 6.29136 21.9817 6.1918 21.3647 6.9509L23.1265 11.6735C23.3236 11.9162 26.1984 14.1935 27.3941 14.9339C27.7121 15.1268 33.8686 17.0432 34.6891 17.2547C35.5795 17.4787 36.2854 15.2948 35.4713 14.9774Z" fill="#C4DCFF"/>
<path d="M12.5628 9.32171C12.213 10.3795 12.3148 11.7981 12.7854 12.8061C14.0638 15.5314 13.7521 18.4994 13.2751 22.5002C13.0334 24.5161 18.1406 25.3623 21.1171 24.2921C22.8025 23.6886 23.7883 22.5811 23.6166 21.6851C23.5403 21.2993 23.165 18.2505 23.8074 12.9181C24.0681 10.7279 25.0603 8.02129 23.1332 6.57776C22.2364 5.90577 20.5002 6.56532 19.19 6.63998C15.8319 6.83287 12.8554 8.43195 12.5628 9.32171Z" fill="#C4DCFF"/>
<path d="M7.1112 25.2006L6.92676 25.2877L15.6146 35.3115L15.799 35.2244L16.2124 28.237L7.1112 25.2006Z" fill="#625654"/>
<path d="M16.0352 28.3239L15.6154 35.3114L6.51416 32.2812L6.92756 25.2875L16.0352 28.3239Z" fill="#3E3635"/>
<path d="M12.3136 25.5987C12.0656 25.3249 11.862 25.1382 11.8302 24.7773C11.8302 24.74 11.8366 24.7027 11.8366 24.6653C11.296 24.7898 10.7554 24.9142 10.2211 25.0387C10.2084 25.2129 10.2021 25.3684 10.183 25.4182C10.1321 25.5924 9.93494 26.4013 9.80774 26.9115C9.73142 27.2226 9.75686 27.5462 9.89042 27.8386C10.1067 28.3115 10.3165 28.8591 10.6981 29.2324C10.749 29.2822 10.7999 29.3257 10.8635 29.3444C10.9271 29.3631 11.0098 29.3506 11.0479 29.3008C11.137 29.4813 11.3342 29.6057 11.5377 29.6244C11.7539 29.7613 11.9956 29.8546 12.25 29.8982C12.3327 29.9106 12.4281 29.9168 12.4917 29.8608C12.5489 29.8048 12.5553 29.7115 12.5426 29.6368C12.5235 29.5062 12.0846 27.3035 12.1928 27.1791C12.3581 26.9924 12.6634 27.0733 12.6634 27.0733L13.3503 27.2911C12.8288 26.7 12.8288 26.1773 12.3136 25.5987Z" fill="#FBBD9E"/>
<path d="M13.292 8.54403C12.3507 9.23468 11.9691 9.90668 11.314 11.7422C10.3472 14.4551 9.80664 17.759 9.80664 17.759C9.80664 17.759 9.80664 24.3109 9.92112 25.2567C10.0356 26.1526 12.2743 25.8789 12.2998 25.1198C12.3825 22.9047 12.8976 17.8897 12.8976 17.8897C12.8976 17.8897 14.1315 14.9528 15.0537 12.8373C16.0522 10.5725 13.8453 8.13959 13.292 8.54403Z" fill="#C4DCFF"/>
<path d="M20.2314 10.4791L19.6272 10.6222L18.9912 19.3518L20.295 21.0504L21.2109 18.8354C21.2172 18.8354 20.2505 10.5351 20.2314 10.4791Z" fill="#2B1F29"/>
<path d="M21.9177 6.44095C21.7459 6.20451 21.5106 6.0863 21.218 6.0863C21.199 6.0863 21.0654 6.21696 21.0463 6.21696C18.6613 6.21696 16.5498 7.0445 16.5498 7.0445C16.5498 7.0445 15.8756 7.21872 15.6784 7.86582C15.3668 8.89247 15.8883 11.2382 19.9333 15.9857L20.105 15.8426C15.9265 10.9396 15.5894 8.64359 15.8565 7.85338C16.041 7.29962 16.5434 7.09428 16.5752 7.08806C16.6006 7.08183 18.8585 6.27919 21.218 6.30408C21.4406 6.30408 21.606 6.39118 21.7332 6.5654C22.878 8.13338 21.0145 15.6497 20.9891 15.7244L21.199 15.7928C21.3071 15.4879 23.1261 8.09604 21.9177 6.44095Z" fill="#3F67A8"/>
<path d="M21.7088 18.2195L19.6927 18.7172L19.5273 16.359L21.5371 15.8613L21.7088 18.2195Z" fill="white"/>
<path d="M21.3369 17.2674L19.8932 17.6221L19.8169 16.5207L21.2606 16.1661L21.3369 17.2674Z" fill="#ABB5BE"/>
<path d="M20.2903 17.7339L19.9087 17.8272L19.9151 17.8894L20.2967 17.7961L20.2903 17.7339ZM20.6147 17.653L20.3666 17.7152L20.373 17.7774L20.621 17.7152L20.6147 17.653ZM20.691 17.6343L20.6973 17.6965L20.939 17.6343L20.9327 17.5721L20.691 17.6343ZM21.1807 17.5099L21.009 17.5534L21.0153 17.6157L21.1871 17.5721L21.1807 17.5099ZM21.3588 17.4663L21.2634 17.4912L21.2697 17.5534L21.3651 17.5285L21.3588 17.4663ZM20.1377 17.9392L19.9278 17.989L19.9341 18.0512L20.144 18.0014L20.1377 17.9392ZM20.4493 17.8645L20.214 17.9205L20.2203 17.9828L20.4557 17.9268L20.4493 17.8645ZM20.5256 17.8459L20.532 17.9081L20.7419 17.8583L20.7355 17.7961L20.5256 17.8459ZM21.0726 17.709L20.8182 17.7712L20.8245 17.8334L21.0789 17.7712L21.0726 17.709ZM21.3715 17.6343L21.1489 17.6903L21.1553 17.7525L21.3779 17.6965L21.3715 17.6343ZM19.9914 18.1445L19.9341 18.157L19.9405 18.2192L19.9977 18.2067L19.9914 18.1445ZM20.6401 17.9828L20.0677 18.1259L20.0741 18.1881L20.6465 18.045L20.6401 17.9828ZM20.7164 17.9641L20.7228 18.0263L20.9645 17.9641L20.9581 17.9019L20.7164 17.9641ZM21.2061 17.8459L21.0344 17.8894L21.0408 17.9516L21.2125 17.9081L21.2061 17.8459ZM21.3779 17.8023L21.2825 17.8272L21.2888 17.8894L21.3842 17.8645L21.3779 17.8023ZM20.1631 18.269L19.9532 18.3188L19.9596 18.381L20.1695 18.3312L20.1631 18.269ZM20.4747 18.1943L20.2394 18.2503L20.2458 18.3125L20.4811 18.2565L20.4747 18.1943ZM20.5511 18.1756L20.5574 18.2379L20.7673 18.1881L20.7609 18.1259L20.5511 18.1756ZM21.0917 18.0388L20.8373 18.101L20.8436 18.1632L21.098 18.101L21.0917 18.0388ZM21.3906 17.9641L21.168 18.0201L21.1743 18.0823L21.3969 18.0263L21.3906 17.9641Z" fill="#ABB5BE"/>
<path d="M19.4927 15.9544L19.5245 16.3837L21.5406 15.8859L21.5088 15.4566L19.4927 15.9544Z" fill="#3F67A8"/>
<path d="M20.7086 9.32181C20.3906 9.63292 20.0281 9.60182 19.6847 9.65781C18.2537 9.89425 16.8417 8.63739 16.988 7.21252C17.0007 7.0943 17.058 6.98231 17.1406 6.90142C17.535 6.50942 17.9993 5.84987 18.2791 4.51834C18.3618 4.10768 18.8579 3.92723 19.1949 4.18856C20.3461 5.07211 21.2429 6.80186 21.2365 7.5423C21.2238 7.95918 21.4146 8.61871 20.7086 9.32181Z" fill="#F2A883"/>
<path d="M20.6391 9.93775C20.6391 9.5582 20.1113 9.58308 19.7933 9.62041C19.2399 9.68263 18.7566 9.8133 19.1127 10.4231C19.6851 11.3937 20.6328 10.8711 20.6391 9.93775Z" fill="#2B1F29"/>
<path d="M17.4712 6.51544C17.4712 6.51544 16.7271 8.93584 19.8117 9.62027L18.3362 11.0265C18.3362 11.0265 16.2374 9.45227 16.7207 7.04431C16.9815 6.75809 17.4712 6.51544 17.4712 6.51544Z" fill="#D1E5FF"/>
<path d="M21.2308 7.5423C21.3453 9.38405 19.8062 9.61426 19.8062 9.61426L21.6506 10.5165C21.6569 10.5165 21.5679 9.10405 21.2308 7.5423Z" fill="#D1E5FF"/>
<path d="M23.012 3.79031C23.0247 3.32987 22.9611 2.82588 22.5605 2.56455C21.9435 2.16633 20.5189 1.457 18.0512 2.76987C17.695 2.96276 17.4661 3.31743 17.2244 3.63476C16.9445 4.00186 16.9445 4.21342 16.9891 4.6303C17.0717 5.41429 16.9509 5.75027 18.0893 7.0258C19.0497 8.10223 20.4171 8.95466 20.7224 9.11022C21.1167 9.30932 21.5111 9.35911 21.8927 9.25333C22.2552 9.15378 22.6241 8.80533 22.7195 7.96535C22.8021 7.33069 22.9675 5.50139 23.012 3.79031Z" fill="#FBBD9E"/>
<path d="M18.5978 5.21508C18.725 5.4453 19.2147 5.5324 19.3483 4.98485C19.5137 4.3253 20.1497 4.17598 20.6394 4.15732C21.428 4.12621 22.134 3.97687 22.7 3.66576C22.8145 3.60354 22.9099 3.52266 22.9926 3.42311C22.9926 3.42311 23.2725 3.12443 23.0244 2.39645C22.8972 2.01067 22.293 0.504931 20.6521 0.112937C19.8762 -0.0737267 19.0367 -0.0239543 18.2798 0.224931C15.3733 1.16447 16.2891 4.73598 16.6834 5.3893C16.9633 5.85596 17.5039 6.50306 17.8282 6.74572C17.6565 6.21684 17.0014 5.14041 17.5738 4.7733C17.7901 4.63641 18.0572 4.6302 18.2671 4.77953C18.4388 4.89775 18.5088 5.04086 18.5978 5.21508Z" fill="#98655B"/>
<path d="M36.7635 20.0114C36.7381 20.0052 36.7063 20.0052 36.6681 20.0239L36.3183 20.1732C36.2865 20.1856 36.2611 20.2043 36.2356 20.2292C36.153 20.3163 36.0894 20.4656 36.0894 20.6087L36.0957 21.934C36.0957 22.0772 36.153 22.1705 36.2356 22.1892L36.4646 22.2452L36.9861 20.0674L36.7635 20.0114Z" fill="#1B1822"/>
<path d="M36.8957 20.0734L36.5459 20.2228C36.5141 20.2352 36.4886 20.2539 36.4632 20.2787C36.3805 20.3659 36.3169 20.5152 36.3169 20.6583L36.3233 21.9836C36.3233 22.1765 36.425 22.2823 36.5522 22.2325L36.902 22.0832C36.9338 22.0707 36.9593 22.0521 36.9847 22.0272C37.0674 21.9401 37.131 21.7907 37.131 21.6476L37.1246 20.3223C37.1246 20.1356 37.0229 20.0236 36.8957 20.0734Z" fill="#272331"/>
<path d="M36.7375 20.372C36.7248 20.3782 36.7121 20.372 36.7057 20.3658C36.6929 20.3533 36.6866 20.3347 36.6929 20.3036C36.6993 20.26 36.7312 20.2164 36.7567 20.2102C36.7694 20.204 36.7822 20.2102 36.7885 20.2164C36.8013 20.2289 36.8076 20.2476 36.8013 20.2787C36.7949 20.3222 36.7694 20.3658 36.7375 20.372Z" fill="#1B1822"/>
<path d="M37.0727 19.103C37.0345 19.0719 36.9836 19.0595 36.9327 19.0657C36.831 19.0844 36.7229 19.1653 36.6465 19.2897C36.5257 19.4888 36.513 19.7128 36.6211 19.7999C36.6593 19.831 36.7101 19.8435 36.761 19.8373C36.8819 19.8061 36.9773 19.7253 37.0472 19.6133C37.1744 19.4204 37.1808 19.1964 37.0727 19.103ZM36.9836 19.5822C36.9137 19.6879 36.8246 19.7626 36.7419 19.775C36.7101 19.7813 36.6783 19.775 36.6593 19.7564C36.5766 19.6879 36.5957 19.5013 36.6974 19.3395C36.7674 19.2337 36.8564 19.159 36.9391 19.1466C36.9709 19.1404 37.0027 19.1466 37.0218 19.1653C37.1045 19.2275 37.0854 19.4204 36.9836 19.5822Z" fill="url(#paint0_linear_251_76793)"/>
<path d="M36.7672 19.7439C36.64 19.663 36.5064 19.6319 36.4046 19.6568C36.3538 19.6692 36.3092 19.7004 36.2902 19.7501C36.2456 19.8497 36.2965 19.999 36.4301 20.1172L36.5064 20.0861C36.4046 20.0115 36.3283 19.8497 36.3601 19.7812C36.3728 19.7563 36.3983 19.7377 36.4301 19.7315C36.5064 19.7066 36.6209 19.7377 36.729 19.8061C36.8944 19.9119 36.9898 20.0737 36.9452 20.167C36.9134 20.2292 36.818 20.2355 36.7417 20.2168C36.7163 20.2292 36.7036 20.2479 36.6908 20.2728C36.7672 20.3039 36.8498 20.2977 36.8944 20.2852C36.9452 20.2728 36.9898 20.2417 37.0088 20.1919C37.0724 20.0675 36.9643 19.8683 36.7672 19.7439Z" fill="url(#paint1_linear_251_76793)"/>
<path d="M37.7871 21.629L37.3229 20.0361L37.2656 20.0237L37.7299 21.6165C37.7426 21.629 37.7999 21.6476 37.7999 21.6476C37.7935 21.6414 37.7935 21.6352 37.7871 21.629Z" fill="#B5B1AD"/>
<path d="M37.4632 19.8245L37.2656 20.0236L37.323 20.0361L37.5206 19.837L37.4632 19.8245Z" fill="#D7D4CF"/>
<path d="M37.3223 20.0362L37.7866 21.6291C37.7993 21.6664 37.8502 21.6353 37.901 21.5855C37.9519 21.5357 37.9964 21.4673 37.9837 21.43L37.5194 19.8371L37.3223 20.0362Z" fill="url(#paint2_linear_251_76793)"/>
<path d="M37.5389 18.9287L37.3481 18.9038C37.3735 18.9598 37.2781 19.1091 37.1382 19.246C37.0237 19.3642 36.9219 19.4327 36.8838 19.4265L37.0619 19.4949C37.1 19.5011 37.2272 19.4513 37.3417 19.3331C37.4753 19.1962 37.5707 18.9971 37.558 18.9536C37.5516 18.9474 37.5452 18.9349 37.5389 18.9287Z" fill="#1B1822"/>
<path d="M37.5389 18.9287L37.3481 18.9038C37.3735 18.9598 37.2781 19.1091 37.1382 19.246C37.0237 19.3642 36.9219 19.4327 36.8838 19.4265L37.0619 19.4949C37.1 19.5011 37.2272 19.4513 37.3417 19.3331C37.4753 19.1962 37.5707 18.9971 37.558 18.9536C37.5516 18.9474 37.5452 18.9349 37.5389 18.9287Z" fill="#1B1822"/>
<path d="M37.4364 18.7731C37.3665 18.7544 37.2075 18.8664 37.0675 19.0095C36.8895 19.19 36.7241 19.4326 36.7559 19.5384L36.9022 20.0424C36.9276 20.1295 36.9785 20.1793 37.0357 20.198L37.2138 20.2415L36.9849 19.5944L36.9531 19.5882C36.9213 19.4762 37.0803 19.2522 37.2583 19.0718C37.4046 18.9287 37.6145 18.8167 37.6145 18.8167L37.4364 18.7731Z" fill="#1B1822"/>
<path d="M37.2384 19.0532C37.3593 18.9287 37.4865 18.8292 37.5692 18.8167C37.6073 18.8105 37.6391 18.8167 37.6455 18.8541L37.7918 19.3581C37.8426 19.5323 37.779 19.7812 37.6518 19.918L37.4038 20.1669C37.2702 20.2976 37.124 20.2665 37.0731 20.0861L36.9268 19.5821C36.895 19.4763 37.0604 19.2336 37.2384 19.0532ZM37.3148 19.2958C37.4229 19.1838 37.5056 19.0718 37.531 19.0034C37.5374 18.9847 37.5374 18.9723 37.5374 18.9661C37.5246 18.9225 37.4038 18.9972 37.2702 19.1341C37.1367 19.271 37.0349 19.4203 37.0476 19.4638C37.1049 19.4701 37.2066 19.4016 37.3148 19.2958Z" fill="#272331"/>
<path d="M37.112 18.7233C36.9848 18.6424 36.8512 18.6113 36.7495 18.6362C36.6986 18.6486 36.6541 18.6797 36.635 18.7295C36.5777 18.8602 36.6795 19.0531 36.8767 19.1837C36.9148 19.1775 36.9403 19.1402 36.9403 19.1402C36.7495 19.0219 36.6477 18.854 36.6922 18.7606C36.7049 18.7357 36.7304 18.7171 36.7622 18.7108C36.8385 18.6859 36.953 18.7171 37.0611 18.7855C37.2265 18.8913 37.3219 19.0531 37.2774 19.1464C37.2583 19.1837 37.2201 19.1962 37.1883 19.2024C37.1756 19.2211 37.1247 19.277 37.1247 19.277C37.1565 19.277 37.2074 19.2708 37.2265 19.2646C37.2774 19.2522 37.3219 19.2211 37.341 19.1713C37.4173 19.0468 37.3092 18.8477 37.112 18.7233Z" fill="url(#paint3_linear_251_76793)"/>
<path d="M37.9885 16.0416C37.9694 15.743 37.7659 15.5376 37.3207 15.4505C36.6784 15.3261 35.6925 15.1456 35.4 15.1145C34.5668 15.0088 34.1471 16.8318 34.6813 17.0496C35.4127 17.3483 35.966 18.182 36.1059 18.3811C36.4112 18.8105 36.7865 18.7856 36.8119 18.7545C36.8692 18.9474 37.2062 19.0905 37.3398 18.8727C37.4924 19.0034 37.7341 18.8416 37.7914 18.6487C37.874 18.3501 38.0458 16.9501 37.9885 16.0416Z" fill="#FBBD9E"/>
<path d="M35.8987 17.0495C35.8987 17.0495 36.0895 16.9686 36.3248 17.1677C36.5728 17.3855 36.5474 17.7651 36.6873 18.0948C36.3248 17.8148 35.7333 17.1926 35.8987 17.0495Z" fill="#F2A883"/>
<defs>
<linearGradient id="paint0_linear_251_76793" x1="36.5081" y1="20.1727" x2="37.1203" y2="18.8125" gradientUnits="userSpaceOnUse">
<stop stop-color="#B5B1AD"/>
<stop offset="0.3662" stop-color="#C3BFBB"/>
<stop offset="1" stop-color="#D7D4CF"/>
</linearGradient>
<linearGradient id="paint1_linear_251_76793" x1="36.5513" y1="20.1923" x2="37.1636" y2="18.832" gradientUnits="userSpaceOnUse">
<stop stop-color="#B5B1AD"/>
<stop offset="0.3662" stop-color="#C3BFBB"/>
<stop offset="1" stop-color="#D7D4CF"/>
</linearGradient>
<linearGradient id="paint2_linear_251_76793" x1="37.1493" y1="20.4645" x2="38.3043" y2="21.1182" gradientUnits="userSpaceOnUse">
<stop offset="0.3645" stop-color="#D7D4CF"/>
<stop offset="0.3744" stop-color="#EDEAE4"/>
<stop offset="1" stop-color="#D7D4CF"/>
</linearGradient>
<linearGradient id="paint3_linear_251_76793" x1="36.4413" y1="20.1315" x2="37.0498" y2="18.7794" gradientUnits="userSpaceOnUse">
<stop stop-color="#B5B1AD"/>
<stop offset="0.3662" stop-color="#C3BFBB"/>
<stop offset="1" stop-color="#D7D4CF"/>
</linearGradient>
</defs>
</svg>
