<svg width="47" height="48" viewBox="0 0 47 48" fill="none" xmlns="http://www.w3.org/2000/svg">
<path fill-rule="evenodd" clip-rule="evenodd" d="M3.50684 0.724204C2.38159 1.02651 1.28782 1.88189 0.801193 2.84014C0.319309 3.78892 0.289567 4.07438 0.289567 7.74843V11.1427L22.5728 11.1656L44.8561 11.1885V22.0663V32.9441L44.6548 33.3195C44.4272 33.7442 43.993 34.1419 43.5589 34.3234C43.32 34.4232 41.7365 34.4461 35.0516 34.4461H26.8379L26.8361 33.8772C26.8253 30.486 24.869 27.0583 21.9798 25.3683C21.5909 25.1408 21.2728 24.937 21.2728 24.9153C21.2728 24.8937 21.3708 24.7456 21.4908 24.5863C22.158 23.6996 22.55 22.444 22.55 21.1939C22.55 18.1391 20.1446 15.615 17.0761 15.4499C14.6797 15.3209 12.5469 16.5841 11.5148 18.7438C11.0664 19.6825 10.9553 20.1689 10.9553 21.196C10.9553 22.4368 11.2477 23.4689 11.8511 24.3577C11.9982 24.5743 12.1468 24.8001 12.1813 24.8592C12.2213 24.9279 12.0486 25.0708 11.7054 25.2533C11.4091 25.4109 10.8341 25.8054 10.4274 26.13C8.21127 27.8992 6.86068 30.544 6.70368 33.422L6.64784 34.4461H5.33603C4.44141 34.4461 3.93079 34.407 3.73063 34.3234C3.29655 34.1419 2.86238 33.7442 2.63476 33.3195L2.4335 32.9441L2.40869 23.1359L2.38396 13.3277H1.3348H0.285645L0.310459 23.318L0.335183 33.3082L0.549577 33.8384C1.02215 35.0073 1.99258 35.9337 3.19966 36.3683L3.80197 36.5852H23.6448H43.4876L44.0899 36.3683C45.297 35.9337 46.2674 35.0073 46.74 33.8384L46.9544 33.3082L46.9789 18.8804C46.9955 9.0555 46.9728 4.30541 46.9075 3.99146C46.6692 2.84578 45.8093 1.66861 44.8306 1.14812C43.6926 0.542877 45.227 0.583202 23.6028 0.589847C7.02134 0.594854 3.91054 0.615699 3.50684 0.724204ZM43.3328 2.78498C43.9272 2.93426 44.6443 3.64974 44.7939 4.24287C44.8619 4.51213 44.9017 5.47793 44.9017 6.85955V9.0494H23.6448H2.38789V6.85955C2.38789 5.47793 2.42766 4.51213 2.49563 4.24287C2.63512 3.68997 3.3678 2.9308 3.89631 2.79162C4.44379 2.64734 42.7596 2.64088 43.3328 2.78498ZM27.9327 5.90895V6.95577H28.9818H30.031V5.90895V4.86213H28.9818H27.9327V5.90895ZM32.1293 5.90895V6.95577H33.1785H34.2276V5.90895V4.86213H33.1785H32.1293V5.90895ZM36.4172 5.90895V6.95577H37.4663H38.5155V5.90895V4.86213H37.4663H36.4172V5.90895ZM40.6138 5.90895V6.95577H41.663H42.7121V5.90895V4.86213H41.663H40.6138V5.90895ZM30.5567 15.5638C30.0191 15.8549 30.031 15.713 30.031 21.8433V27.4552L30.3412 27.7647C30.6317 28.0546 30.818 28.1181 31.2626 28.0791C31.5923 28.0501 41.3522 22.593 41.5135 22.3475C41.5957 22.2223 41.663 21.9447 41.663 21.7307C41.663 21.418 41.6092 21.2896 41.3893 21.0764C40.9449 20.6459 31.4195 15.4207 31.0868 15.425C30.9326 15.427 30.694 15.4894 30.5567 15.5638ZM17.9981 17.7444C19.0358 18.1059 19.9355 19.0526 20.2709 20.1359C20.8209 21.9129 19.9757 23.8065 18.2781 24.6005C17.8158 24.8167 17.6528 24.8427 16.7568 24.8427C15.8576 24.8427 15.6987 24.8172 15.2284 24.5973C14.4943 24.254 13.7592 23.5316 13.4011 22.8013C13.1273 22.243 13.1076 22.1387 13.1076 21.2471C13.1076 20.361 13.1288 20.2465 13.3989 19.6777C13.8947 18.6334 14.8889 17.8382 15.9855 17.6089C16.5073 17.4998 17.4848 17.5657 17.9981 17.7444ZM35.3941 20.0748C37.0356 20.9839 38.391 21.7377 38.4062 21.75C38.4213 21.7623 37.046 22.5404 35.3499 23.4792C33.6539 24.4179 32.2354 25.2032 32.1977 25.2244C32.16 25.2457 32.1293 23.6996 32.1293 21.7889C32.1293 18.702 32.1449 18.3207 32.2694 18.3683C32.3465 18.3979 33.7526 19.1658 35.3941 20.0748ZM15.069 26.7778C15.6312 26.9653 15.9324 27.0064 16.7568 27.0081C17.6459 27.01 17.8541 26.978 18.5814 26.7274L19.4025 26.4445L20.2236 26.8367C22.2047 27.783 23.7076 29.5347 24.367 31.6661C24.5787 32.3504 24.7826 33.9853 24.6918 34.2706C24.6373 34.4421 24.4567 34.4461 16.6916 34.4461H8.74707L8.79935 33.6496C9.00681 30.4883 10.7548 27.932 13.5637 26.682C13.8648 26.548 14.1727 26.4634 14.248 26.494C14.3232 26.5247 14.6927 26.6524 15.069 26.7778ZM9.93253 38.8241C8.60959 39.1347 7.38755 40.2646 6.86525 41.66L6.77155 41.9103H3.53056H0.289567V42.9572V44.004H3.53056H6.77155L6.86525 44.2543C7.52968 46.0295 9.14393 47.1899 10.9489 47.1899C11.8591 47.1899 12.9531 46.7678 13.6925 46.1316C14.1563 45.7324 14.7498 44.8593 14.9021 44.3523L15.0067 44.004H31.0033H47V42.9572V41.9103H30.9889C18.2409 41.9103 14.9778 41.8871 14.9777 41.7966C14.9777 41.734 14.861 41.437 14.7185 41.1366C14.2043 40.0532 13.1253 39.1675 11.9336 38.8509C11.4122 38.7125 10.4624 38.6997 9.93253 38.8241ZM11.4653 40.9185C12.3418 41.1387 13.0016 42.0139 13.002 42.9572C13.003 44.8218 10.746 45.7681 9.42985 44.4548C8.29019 43.3176 8.74105 41.4241 10.2648 40.9486C10.7449 40.7988 10.9667 40.7933 11.4653 40.9185Z" fill="#0073E6"/>
</svg>
