<svg width="50" height="50" viewBox="0 0 50 50" fill="none" xmlns="http://www.w3.org/2000/svg">
<path d="M35.4481 20.9528C35.4481 20.9528 37.0031 21.3918 37.5341 21.3397C38.4292 21.2579 40.5381 20.1642 40.4546 19.2936C40.4167 18.8993 39.3395 18.7877 38.9375 18.7282C38.4141 18.6538 36.8287 18.877 36.8287 18.877C36.8287 18.877 37.4128 18.2297 37.2611 18.0511C36.9728 17.7088 35.5088 18.557 35.5088 18.557L35.4481 20.9528Z" fill="#B59888"/>
<path d="M23.9176 22.1061C23.9176 22.1061 13.7832 18.8101 13.1157 17.9247C12.0537 16.5259 12.3874 14.7476 13.4039 14.5691C15.9451 14.2045 25.2906 18.3711 25.2906 18.3711L35.7285 18.3264L35.4175 21.1017L23.9176 22.1061Z" fill="#667502"/>
<path d="M12.7362 18.9886L16.5366 16.1464C13.821 12.6643 8.41236 6.25072 2.64726 2.4859L-0.000127792 6.38465C5.18847 9.77745 10.2102 15.7372 12.7362 18.9886Z" fill="#231F20"/>
<path d="M12.8959 11.6152C12.8959 11.6152 10.9767 7.76855 10.6581 6.28792C10.3471 4.81473 11.0753 2.16597 12.4559 1.19128C14.6861 -0.386074 20.034 0.298437 21.3842 2.4487C22.0063 3.44571 20.7546 4.93378 20.7546 4.93378L12.8959 11.6152Z" fill="#594A42"/>
<path d="M19.5487 34.8961C19.5487 34.8961 29.2432 33.7354 31.5492 35.6327C33.7718 37.4555 40.3789 45.2233 40.3789 45.2233L37.2005 47.5521L28.6742 39.8216L13.7229 40.5954L10.4004 39.5537L9.68731 35.6327L19.5487 34.8961Z" fill="#382F2A"/>
<path d="M21.2547 33.2294C21.2547 33.2294 30.9492 32.0687 33.2552 33.966C35.4778 35.7889 42.085 43.5566 42.085 43.5566L38.9066 45.8855L30.3803 38.1549L15.4289 38.9287L12.1064 37.8871L11.3934 33.966L21.2547 33.2294Z" fill="#594A42"/>
<path d="M19.1387 15.4991L16.1272 20.2386L13.1157 15.4991V10.8638H19.1387V15.4991Z" fill="#DBB8A5"/>
<path d="M37.0485 47.314L38.3608 50L42.2522 48.4226C42.2522 48.4226 45.9768 47.7307 46.3409 46.6965C46.4319 46.4435 45.8175 45.7441 45.8175 45.7441L41.8881 45.9822L39.7565 45.4837L37.0485 47.314Z" fill="#4A4144"/>
<path d="M12.7668 15.1048H16.3851L19.4194 15.2462L20.6483 20.2461L20.6635 27.0763L21.2476 33.2295L11.3862 33.9661L10.5821 21.883C10.5821 21.883 10.529 17.4559 11.2648 16.2432C11.591 15.7298 12.7668 15.1048 12.7668 15.1048Z" fill="#654E60"/>
<path d="M38.8386 45.7441L40.4088 48.9732L45.0816 47.0759C45.0816 47.0759 49.5571 46.2426 49.9895 45.0075C50.0957 44.7025 49.3599 43.8691 49.3599 43.8691L44.6416 44.1519L42.0777 43.5566L38.8386 45.7441Z" fill="#231F20"/>
<path d="M21.4824 33.9288L11.3025 34.1297L11.3935 32.3143L21.2624 32.0762L21.4824 33.9288Z" fill="#BDBBC9"/>
<path d="M12.8955 11.6153L16.5973 13.0066C16.5973 13.0066 19.5026 13.7655 20.2536 13.2521C21.0729 12.6941 21.3763 9.49476 21.3763 9.49476L21.6646 8.24478L20.7467 4.92638L14.754 4.68085L13.1003 7.12872L12.8955 11.6153Z" fill="#EDD0B9"/>
<path d="M21.6113 8.06616C21.6113 8.06616 22.8022 9.15989 22.3395 9.70304C21.8768 10.2462 20.9134 9.74024 20.701 9.39055C20.481 9.04085 21.6113 8.06616 21.6113 8.06616Z" fill="#EDD0B9"/>
<path d="M6.10637 10.8638H7.42627V13.0587H6.10637V10.8638Z" fill="#BF3715"/>
<path d="M7.04708 38.4451C7.21396 39.8514 9.36829 40.0299 10.802 39.8588C12.2357 39.6951 11.4695 39.4198 11.3026 38.0136C11.3026 38.0136 12.8956 34.591 12.8956 32.0762C12.8956 30.1864 13.1156 27.5227 12.9942 23.1775C12.8956 19.4797 11.2723 16.2431 11.2723 16.2431C9.72482 12.7983 7.51738 12.3816 7.51738 12.3816C6.08369 12.5453 2.98116 15.8488 3.15563 17.2625L7.04708 38.4451Z" fill="#0073E6"/>
<path d="M4.36201 8.87717C4.24064 10.328 5.59089 11.6301 7.37352 11.7789C13.1538 10.395 11.3256 3.73589 11.3256 3.73589C10.5823 1.89812 9.43682 0.2166 6.83493 0.00827063C5.04472 -0.140536 4.96887 1.74931 4.84749 3.20762L4.36201 8.87717Z" fill="#0073E6"/>
<path d="M27.786 44.509L10.8852 44.6652C9.25427 44.7396 7.86609 40.9972 7.79024 39.3975C7.71438 37.7978 8.9736 36.4362 10.6045 36.3618L28.1805 37.2026C28.9315 37.1951 30.5245 37.3663 30.6079 38.9659C30.6003 38.9585 30.7445 44.509 27.786 44.509Z" fill="#0073E6"/>
<path d="M13.0856 33.8395C16.6281 29.8961 18.479 26.1016 19.4879 23.7355C20.5195 21.3174 20.6561 20.3651 20.6561 20.3651L20.6712 27.0688L21.0581 31.1684C20.9747 31.3024 20.876 31.4437 20.785 31.5851C20.785 31.5851 20.785 31.5851 20.785 31.5925C20.694 31.7339 20.5954 31.8753 20.4968 32.0241C20.4285 32.1208 20.3678 32.2175 20.2995 32.3217C20.0871 32.6342 19.8596 32.9541 19.6244 33.2815C19.6017 33.3113 19.5865 33.3336 19.5637 33.3633C16.8632 37.0686 12.7897 41.332 6.63017 45.8929L3.75521 42.1504C7.7832 39.1743 10.8023 36.3767 13.0856 33.8395Z" fill="#231F20"/>
<path d="M32.838 22.3888C30.5623 24.5763 27.4219 25.4394 24.6911 24.3159C20.83 22.7385 19.2445 17.8279 21.1485 13.3563L35.2275 19.1151C34.5297 20.7669 33.2553 22.188 32.838 22.3888Z" fill="#D2D6D5"/>
<path d="M31.5792 8.11085C34.3176 9.2269 35.8954 12.0245 35.9182 15.1494C36.0623 15.581 35.9334 17.4634 35.2355 19.1151C35.2355 19.1151 35.2355 19.1151 35.2355 19.1226L21.1565 13.3637C23.0529 8.8772 27.7181 6.53349 31.5792 8.11085Z" fill="#E4E8E7"/>
<path d="M34.1204 13.9069C34.1204 13.9069 35.4327 18.2074 32.4288 20.938C32.4288 20.9306 30.9875 17.8949 34.1204 13.9069Z" fill="#595959"/>
<path d="M38.4398 20.3356L41.353 21.4658L39.3805 26.3573L36.4672 25.2271L38.4398 20.3356Z" fill="#594A42"/>
<path d="M32.5951 28.3411C32.3296 28.981 32.6482 29.7101 33.3005 29.9705C33.9529 30.231 34.6963 29.9185 34.9618 29.2786L40.6055 15.6032C40.871 14.9634 40.5524 14.2342 39.9001 13.9738C39.2477 13.7134 38.5043 14.0259 38.2388 14.6657L32.5951 28.3411Z" fill="#231F20"/>
<path d="M32.345 25.2236C32.345 25.2236 33.7407 26.0272 34.2717 26.109C35.1593 26.2429 37.4805 25.7072 37.617 24.8367C37.6777 24.4424 36.6612 24.0704 36.2895 23.9215C35.8041 23.7207 34.2035 23.5495 34.2035 23.5495C34.2035 23.5495 34.9317 23.0659 34.8331 22.8501C34.6359 22.4484 33.0049 22.9097 33.0049 22.9097L32.345 25.2236Z" fill="#DBB8A5"/>
<path d="M23.9177 24.8442C23.9177 24.8442 13.7832 20.4841 13.1157 19.5987C12.0537 18.1999 12.3875 16.4291 13.4039 16.2431C15.9451 15.8785 25.2907 21.1091 25.2907 21.1091L33.248 22.56L32.4971 25.3724L23.9177 24.8442Z" fill="#8CA103"/>
<path d="M14.9591 38.78C17.4776 37.0389 19.2602 34.9556 20.4208 33.289L21.2552 33.2295C21.2552 33.2295 23.2199 32.9914 25.5942 32.9095C24.957 34.1298 23.6523 36.3321 21.5359 38.6089C18.403 41.9793 13.4951 45.5135 6.33424 46.2724L5.87911 42.1207C9.61125 41.7264 12.6 40.402 14.9591 38.78Z" fill="#231F20"/>
</svg>
