<svg width="54" height="50" viewBox="0 0 54 50" fill="none" xmlns="http://www.w3.org/2000/svg">
<path opacity="0.9" d="M18.6509 22.8983L0 33.6645L14.3408 41.9432V45.1686L22.7063 50H34.1279L39.4633 41.0357L18.6509 22.8983Z" fill="#D7D1C8"/>
<path d="M22.5426 35.0552L13.2041 29.6623V24.4326L23.9924 29.7471L22.5426 35.0552Z" fill="#2A2F3C"/>
<path d="M33.0369 29.0028L22.5425 35.0552V29.8255L33.0369 23.7666V29.0028Z" fill="#0073E6"/>
<path d="M34.8982 23.8711C34.748 23.5251 34.5391 23.1921 34.2909 22.9179C34.0819 22.6828 33.8534 22.4804 33.6052 22.3433L23.7769 16.6696C23.6072 16.5717 23.457 16.5652 23.3459 16.6305L12.8516 22.7285C12.9626 22.6632 13.1193 22.6763 13.2826 22.7677L23.1108 28.4414C23.359 28.585 23.5876 28.7809 23.7965 29.0159C24.0447 29.2967 24.2537 29.6231 24.4039 29.9692C24.5737 30.3609 24.6781 30.7657 24.6781 31.1444V31.6797C24.6781 31.8691 24.6128 32.0062 24.5018 32.0715L34.9962 25.9734C35.1072 25.9081 35.1725 25.7776 35.1725 25.5817V25.0463C35.1725 24.6742 35.068 24.2628 34.8982 23.8711Z" fill="url(#paint0_linear_251_76620)"/>
<path d="M23.1113 28.4349C23.9798 28.9376 24.6786 30.152 24.672 31.1444V31.6798C24.672 32.065 24.3978 32.2217 24.0582 32.0258L13.2699 25.7972C12.9303 25.6013 12.6626 25.1312 12.6626 24.746L12.6691 23.1072C12.6691 22.722 12.9434 22.5653 13.283 22.7612L23.1113 28.4349Z" fill="#C18C68"/>
<path d="M24.6783 6.52359C24.5738 5.10027 24.6326 3.7553 24.7109 3.11547C24.7567 2.71067 24.6783 2.3124 24.515 1.94677C24.3844 1.6595 24.2081 1.39182 24.0122 1.16331C23.8032 0.921739 23.5616 0.725866 23.3265 0.588758C22.9804 0.38636 22.6343 0.321062 22.3992 0.458171L11.9048 6.55624C12.1399 6.41914 12.486 6.48441 12.8321 6.68681C13.0672 6.82392 13.3023 7.01979 13.5178 7.26136C13.7202 7.48988 13.8966 7.75757 14.0206 8.04485C14.1839 8.41047 14.2623 8.81525 14.2166 9.21352C14.1382 9.85989 14.0859 11.2049 14.1839 12.6216C14.308 14.3583 15.1047 21.6577 15.3202 23.6491C15.3333 23.7535 15.3006 23.8254 15.2484 23.858L25.7427 17.7599C25.795 17.7273 25.8276 17.6555 25.8146 17.551C25.5991 15.5532 24.8024 8.25376 24.6783 6.52359Z" fill="url(#paint1_linear_251_76620)"/>
<path d="M12.825 6.68024C13.5628 7.10463 14.3332 8.15581 14.2092 9.20697C14.1308 9.85334 14.0786 11.1983 14.1765 12.6151C14.3006 14.3518 15.0971 21.6512 15.3126 23.6425C15.3321 23.8384 15.2081 23.9233 15.0449 23.8319L12.9099 22.5979C12.7728 22.5195 12.6618 22.3367 12.6422 22.167L11.5715 7.50944C11.5062 6.4191 12.1525 6.29504 12.825 6.68024Z" fill="#C18C68"/>
<path d="M21.3085 0.869526C21.2694 0.778121 21.2171 0.68672 21.1583 0.588785C21.1126 0.510438 21.0604 0.438614 21.0016 0.379854C20.9036 0.268861 20.7992 0.183989 20.6882 0.118699C20.4531 -0.0184093 20.1984 -0.0379875 20.0155 0.066476L15.6401 2.60623C15.823 2.49524 16.0777 2.52137 16.3128 2.65848C16.4238 2.72377 16.5283 2.80864 16.6262 2.91963C16.6785 2.98492 16.7307 3.05022 16.783 3.12856C16.8417 3.2265 16.894 3.3179 16.9332 3.4093C17.2793 4.19278 16.9332 4.75427 16.9789 5.87725C16.9854 6.00783 16.9462 6.09923 16.8744 6.13841L21.2498 3.59865C21.3216 3.55948 21.3608 3.46805 21.3543 3.33748C21.3085 2.21449 21.6546 1.653 21.3085 0.869526Z" fill="url(#paint2_linear_251_76620)"/>
<path d="M16.319 2.65843C16.4887 2.75637 16.652 2.91306 16.7891 3.12852C17.3702 4.06869 16.9327 4.62365 16.9849 5.87721C16.998 6.12531 16.8348 6.22976 16.6259 6.11224C16.4039 5.98819 16.2994 5.43324 15.4049 4.91745C15.3788 4.90439 15.3592 4.89134 15.3331 4.87828C15.2352 4.81952 15.1568 4.68894 15.1699 4.591L15.3658 3.10893C15.4376 2.54091 15.8946 2.41033 16.319 2.65843Z" fill="#C18C68"/>
<path d="M33.6311 38.2544C33.2981 37.817 32.9978 37.3534 32.7236 36.8768C32.5538 36.583 32.3384 36.3284 32.1621 36.0477C31.803 35.4796 30.9281 35.6167 30.7453 36.3023C30.7127 36.4198 30.7453 36.694 30.7845 36.8703C30.7975 36.9552 30.8106 37.0401 30.8302 37.1249C30.9151 37.5167 30.9477 37.9149 30.9216 38.3132C30.915 38.385 31.4047 38.9596 31.7899 39.384C31.8683 39.4688 31.9401 39.5668 31.9988 39.6647C32.1751 39.9324 32.3906 40.174 32.6713 40.3176C33.0043 40.4874 34.4211 40.7355 34.4211 39.9128C34.4276 39.286 34.0098 38.7506 33.6311 38.2544Z" fill="#3C427F"/>
<path d="M31.1436 35.2184C31.1827 35.5449 31.2415 35.7669 31.0783 35.9497C30.9673 36.0803 31.026 36.2892 31.0913 36.4524C31.4113 37.262 31.6136 37.8823 31.9858 38.3001C32.6256 39.0118 33.6768 38.8551 33.4809 38.1304C33.383 37.7713 32.9913 37.262 32.704 36.2566C32.6061 35.9105 32.5473 35.3882 32.4755 34.9508C32.4428 34.7679 31.1436 35.2184 31.1436 35.2184Z" fill="#FBBD9E"/>
<path d="M36.7068 36.5111C36.3738 36.0737 36.0735 35.6102 35.7993 35.1335C35.6295 34.8397 35.4141 34.5851 35.2378 34.3044C34.8787 33.7364 34.0038 33.8735 33.821 34.559C33.7883 34.6765 33.821 34.9507 33.8602 35.127C33.8732 35.2119 33.8863 35.2968 33.9059 35.3816C33.9907 35.7734 34.0234 36.1717 33.9973 36.5699C33.9907 36.6417 34.4804 37.2163 34.8656 37.6407C34.944 37.7255 35.0158 37.8235 35.0746 37.9214C35.2508 38.1891 35.4663 38.4307 35.747 38.5743C36.08 38.7441 37.4968 38.9922 37.4968 38.1695C37.4968 37.5427 37.0789 37.0139 36.7068 36.5111Z" fill="#3C427F"/>
<path d="M34.2188 33.4817C34.2579 33.8081 34.3167 34.0236 34.1535 34.2129C34.0425 34.3435 34.1012 34.5524 34.1665 34.7157C34.4864 35.5252 34.6888 36.1455 35.061 36.5634C35.7008 37.275 36.752 37.1183 36.5561 36.3936C36.4582 36.0345 36.0665 35.5253 35.7792 34.5198C35.6813 34.1738 35.6225 33.6514 35.5507 33.214C35.518 33.0312 34.2188 33.4817 34.2188 33.4817Z" fill="#FBBD9E"/>
<path d="M34.6111 26.3325C34.5785 25.2487 33.8601 23.9494 32.234 22.265C31.3002 21.2987 30.2488 20.352 28.6293 19.2225C28.0742 18.8307 27.5779 18.3541 27.186 17.8057L26.5852 16.97C21.1258 18.0081 20.3617 19.8884 25.7559 22.8787L32.1622 26.0191C32.1622 26.0191 31.248 27.7689 32.7042 30.4849C33.0438 31.1117 33.3638 31.7516 33.612 32.424C33.8536 33.0639 34.1148 33.7755 34.1736 34.0302C34.2911 34.5329 35.8062 34.448 35.7082 33.8931C35.7082 33.88 35.4013 29.1661 34.6111 26.3325Z" fill="#2B1F29"/>
<path d="M32.3126 30.9289C32.3191 29.832 32.4889 28.5132 32.293 27.5599C32.2277 27.2465 32.1101 26.9266 31.8881 26.6916C31.7118 26.5088 26.9446 23.0941 25.6973 21.7687L20.7733 18.9417C20.3488 20.0908 20.3227 21.3835 20.695 22.5457C21.0672 23.7144 21.8443 24.7459 22.8631 25.4315C23.6206 25.9407 29.0147 28.6699 29.5437 28.9898C29.6025 29.0224 29.6612 29.0616 29.6808 29.1269C29.7004 29.1922 29.6743 29.2575 29.6416 29.3228C29.4718 29.6819 29.2955 30.165 29.2563 30.5567C29.0996 32.1498 30.4841 33.8277 31.0783 35.1662C31.2547 35.5644 32.5673 35.5253 32.5673 35.114C32.5281 34.6178 32.306 32.0192 32.3126 30.9289Z" fill="#2B1F29"/>
<path d="M27.3431 6.72606C28.2051 7.60747 30.6344 10.6369 30.9021 11.218C30.9021 11.218 34.3567 12.909 34.7943 13.2028C35.3493 13.575 34.5526 14.8089 33.7363 14.5674C33.6449 14.5412 29.6875 13.0396 29.6875 13.0396C28.4271 11.8774 25.8737 9.67716 25.7497 9.44865C24.5807 7.17004 26.788 6.16457 27.3431 6.72606Z" fill="#EA4242"/>
<path d="M20.2309 10.0492C20.0872 10.6695 20.5248 11.3355 20.7925 11.91C22.4317 15.3573 21.3345 16.0885 20.5966 18.8503C20.257 20.1169 24.123 20.241 25.3507 19.6272C26.8527 18.8829 27.0029 18.1386 26.9572 17.7208C26.8984 17.205 26.3826 16.5586 26.7091 15.1092C26.8462 14.502 26.9964 14.0972 27.3948 13.712C28.2241 12.8959 28.6225 12.1059 28.0609 11.2441C27.7474 10.7609 26.9638 10.1864 27.1531 8.67817C27.2054 8.24726 27.3425 7.81634 27.3164 7.38543C27.2968 6.98063 27.0682 6.43873 26.6242 6.42567C26.1409 6.41914 20.4725 9.01766 20.2309 10.0492Z" fill="#EA4242"/>
<path opacity="0.8" d="M24.1819 17.871C23.1109 17.2115 22.4318 16.2714 21.6155 15.4291C21.4914 16.4738 20.9951 17.3748 20.5967 18.8568C20.2571 20.1235 24.1231 20.2475 25.3509 19.6338C25.8733 19.3792 26.2194 19.118 26.461 18.8764C25.6709 18.6218 24.8937 18.3084 24.1819 17.871Z" fill="#CE2E2E"/>
<path d="M27.049 6.56274L26.1347 6.91531C26.1609 6.99366 28.9624 14.5346 22.4255 19.2159C19.1537 21.5598 17.2076 23.179 15.9995 24.3346L16.006 26.9462L16.8942 27.5011V24.8373C18.0827 23.7209 19.9439 22.1931 22.9936 20.0124C30.1444 14.8937 27.0751 6.64762 27.049 6.56274Z" fill="#EFF3FA"/>
<path d="M23.5681 0.347166C22.5038 0.242703 21.309 1.17635 21.1915 2.31239C21.1132 3.1024 21.5963 3.5986 22.0599 3.85975C22.7519 4.25149 22.8695 3.85322 23.3983 3.68999C23.8227 3.55942 25.4288 2.05122 25.3048 1.76394C25.3048 1.77047 24.9979 0.484274 23.5681 0.347166Z" fill="#99655B"/>
<path d="M23.0454 8.64551C23.0519 10.2582 26.1206 11.0351 26.212 9.28535C26.2381 8.74345 26.2707 8.20154 26.4078 7.6727C26.6755 6.67376 26.5254 5.68788 25.1086 5.43978C23.3457 5.12639 23.5873 5.95558 23.62 6.65418C23.6787 7.81634 23.0454 8.03831 23.0454 8.64551Z" fill="#F3A984"/>
<path d="M22.2884 2.81516C22.0664 3.12202 22.0402 3.52682 22.0664 3.89897C22.2035 5.61609 24.4108 8.28643 26.0238 8.97197C27.356 9.53999 27.4605 7.59437 27.5584 5.88378C27.578 5.51163 27.565 4.96972 27.5454 4.51269C27.4997 3.48112 26.9903 2.50177 26.1087 1.9664C25.4361 1.55507 24.6197 1.38531 23.8361 1.75093C23.5814 1.86845 22.4908 2.53441 22.2884 2.81516Z" fill="#FBBD9E"/>
<path d="M21.9355 3.5268C21.5894 5.2635 23.4245 6.75864 23.4245 6.75864C24.1363 7.06551 23.7053 5.03499 24.6065 5.08069C26.9313 5.19822 27.2382 4.21887 27.3427 4.023C27.408 3.89895 27.506 4.07523 27.506 4.07523C27.3689 0.947853 22.6016 0.197024 21.9355 3.5268Z" fill="#99655B"/>
<path d="M22.7519 6.24935C22.8955 6.61497 23.7835 7.32663 23.9793 7.28745C24.2274 7.24175 24.0054 6.53008 23.9402 6.29504C23.7051 5.45933 22.4646 5.52463 22.7519 6.24935Z" fill="#FBBD9E"/>
<path d="M31.5485 24.6284C30.7192 24.6284 30.027 24.2758 29.609 23.6425C28.9691 22.6632 29.0082 21.1028 29.7266 19.4509C30.9086 16.7153 33.4816 14.5738 35.5713 14.5738C36.4006 14.5738 37.0929 14.9263 37.5108 15.5597C38.1508 16.539 38.1116 18.0994 37.3933 19.7513C36.2113 22.4869 33.6448 24.6284 31.5485 24.6284ZM35.5713 15.3377C33.7885 15.3377 31.4767 17.3225 30.4253 19.7578C29.8115 21.1681 29.7462 22.4673 30.249 23.2247C30.5298 23.6556 30.9673 23.871 31.5485 23.871C33.3314 23.871 35.6431 21.8862 36.6945 19.4509C37.3084 18.0407 37.3737 16.7414 36.8709 15.9775C36.59 15.5531 36.1525 15.3377 35.5713 15.3377Z" fill="#EFF3FA"/>
<path d="M35.1459 18.1517C34.9566 17.8644 34.6563 17.7077 34.2906 17.7077C33.5463 17.7077 32.678 18.4063 32.2797 19.3269C32.0251 19.921 32.0186 20.4825 32.2732 20.8677C32.4625 21.155 32.7629 21.3117 33.1285 21.3117C33.8728 21.3117 34.7411 20.6131 35.1394 19.6925C35.4006 19.1049 35.4006 18.5434 35.1459 18.1517Z" fill="#EFF3FA"/>
<path d="M34.3236 19.6207L37.3269 17.8905C37.6142 17.7273 37.5555 17.0222 37.2812 17.1854L34.0102 19.0723C33.8601 19.1572 33.8078 19.353 33.8927 19.5097C33.9776 19.6534 34.1734 19.7056 34.3236 19.6207Z" fill="#EFF3FA"/>
<path d="M34.0491 19.5489L34.0295 23.0158C34.0295 23.3488 33.3896 23.6426 33.3896 23.3226L33.4092 19.5489C33.4092 19.3726 33.5529 19.229 33.7292 19.2355C33.9054 19.229 34.0491 19.3726 34.0491 19.5489Z" fill="#EFF3FA"/>
<path d="M29.8309 22.2127L32.8343 20.4825C33.1215 20.3193 33.0628 19.6142 32.7886 19.7774L29.5175 21.6643C29.3674 21.7491 29.3152 21.945 29.4 22.1017C29.4849 22.2453 29.6808 22.2976 29.8309 22.2127Z" fill="#EFF3FA"/>
<path d="M20.2247 13.2288C20.6884 14.8154 21.9749 17.7207 22.1512 17.884C22.9218 18.5956 28.2506 19.4248 28.3159 19.4379C28.9559 19.5358 29.3216 18.119 28.8645 17.9493C27.2841 17.3747 23.8099 15.971 23.8099 15.971C23.2875 14.3648 23.0654 13.3463 22.6148 11.7206C22.2687 10.4475 22.1773 9.22003 20.9104 9.49425C19.5652 9.78805 19.8655 12.0144 20.2247 13.2288Z" fill="#EA4242"/>
<path d="M31.176 17.2964C31.1172 17.2768 30.6667 17.3355 30.4904 17.3551C30.3403 17.3682 29.3087 17.897 28.8125 17.9688C28.4142 18.0145 28.0421 19.3334 28.3685 19.3465C28.6232 19.353 28.93 19.4705 29.0606 19.5032C29.2369 19.5423 29.4197 19.4966 29.5894 19.4444C29.7918 19.3791 29.9942 19.3008 30.1901 19.2093C30.3468 19.1375 30.4643 19.0984 30.608 19.1898C30.6929 19.242 30.7647 19.2877 30.8365 19.353C30.9083 19.4248 30.9932 19.464 31.0977 19.4705C31.3588 19.477 31.8615 18.6087 31.8877 18.4063C31.9138 18.1517 31.4959 17.4139 31.176 17.2964Z" fill="#FBBD9E"/>
<path d="M34.0165 14.5216C34.2123 14.6391 35.048 14.8677 35.2243 15.4683C35.2831 15.6707 35.3549 15.8666 35.492 16.0363C35.7793 16.3889 36.5301 15.7295 36.5888 15.6511C36.739 15.4618 36.8892 15.2659 36.9806 15.0439C37.0785 14.8089 37.1242 14.4237 36.9414 14.2213C36.739 13.9928 36.4126 13.8622 36.1449 13.7251C35.8837 13.5945 35.7532 13.5292 35.257 13.3986C35.1394 13.366 34.5126 13.2223 34.48 13.2093C34.0099 13.0722 33.6051 14.2735 34.0165 14.5216Z" fill="#FBBD9E"/>
<path d="M28.4206 43.791L5.50537 30.5633V27.808L28.4206 41.0357V43.791Z" fill="#C18C68"/>
<path d="M35.4933 39.7104L28.4209 43.791V41.0357L35.4933 36.9551V39.7104Z" fill="#D3A57D"/>
<path d="M28.4206 41.0357L5.50537 27.808L12.5778 23.7274L35.493 36.9551L28.4206 41.0357Z" fill="#F4C698"/>
<path d="M12.5 31.1247L18.3251 27.7623L25.2604 31.7646L19.4288 35.127L12.5 31.1247Z" fill="#EFF3FA"/>
<path d="M13.381 24.9092L7.54932 28.2716L11.9247 30.7983L17.7563 27.4359L13.381 24.9092ZM11.9312 30.5829L7.92808 28.2716L13.3875 25.1246L17.3906 27.4359L11.9312 30.5829Z" fill="#D3A57D"/>
<path d="M28.4206 46.7094L5.50537 33.4817V30.2107L28.4206 43.4384V46.7094Z" fill="#2A2F3C"/>
<path d="M35.4928 42.6223L28.4204 46.7094V43.4384L35.4928 39.3578V42.6223Z" fill="#0073E6"/>
<path d="M22.0602 30.8506L20.3688 28.3696L18.5207 28.363L16.8162 30.831C16.4179 31.4121 16.6138 32.0976 17.4105 32.5742C18.1354 33.0051 19.1737 33.1618 20.1206 33.0247C20.3884 32.9855 20.6496 32.9268 20.8977 32.8354C21.0741 32.7701 21.2439 32.6983 21.4006 32.6134C22.243 32.1498 22.465 31.4447 22.0602 30.8506Z" fill="#0073E6"/>
<path d="M20.1591 28.1802C19.7739 27.9517 19.1471 27.9451 18.7554 28.1671C18.3636 28.3891 18.3506 28.7547 18.7358 28.9832C19.121 29.2118 19.7478 29.2183 20.1395 28.9963C20.5313 28.7743 20.5378 28.4087 20.1591 28.1802Z" fill="#EFF3FA"/>
<path d="M19.0562 24.9353V28.5654C19.0562 28.6242 19.0953 28.6829 19.1737 28.7286C19.3304 28.82 19.5915 28.82 19.7547 28.7286C19.8331 28.6829 19.8788 28.6176 19.8723 28.5589V24.9288L19.0562 24.9353Z" fill="url(#paint3_linear_251_76620)"/>
<path d="M19.467 25.6992C19.8889 25.6992 20.2309 25.3572 20.2309 24.9353C20.2309 24.5134 19.8889 24.1714 19.467 24.1714C19.0451 24.1714 18.7031 24.5134 18.7031 24.9353C18.7031 25.3572 19.0451 25.6992 19.467 25.6992Z" fill="#EFF3FA"/>
<path d="M28.0352 46.4809L34.128 50L36.368 33.9518L28.0352 31.7254V46.4809Z" fill="#2A2F3C"/>
<path d="M22.3667 32.3196L29.4914 36.4393L34.128 35.2445L22.3667 28.4544V32.3196Z" fill="#2A2F3C"/>
<path d="M53.9799 38.5417L34.1274 50V35.2445L40.266 24.9353L53.9799 23.7862V38.5417Z" fill="#0073E6"/>
<path d="M54 23.7732L42.2388 16.983C30.053 22.376 31.9991 21.3574 22.3667 28.4544L34.128 35.2445L54 23.7732Z" fill="#EFF3FA"/>
<path d="M40.8279 17.6424C40.0377 21.0309 34.9636 23.3944 29.269 23.3683C32.5212 18.3802 38.7643 16.3236 40.8279 17.6424Z" fill="#423C51"/>
<path d="M33.4683 18.9939L53.1052 7.5813L53.3142 7.77064L33.6707 19.1768L33.4683 18.9939Z" fill="#EFF3FA"/>
<path d="M33.6705 19.1768L53.314 7.77069L49.9705 19.6926L30.3335 31.1052L33.6705 19.1768Z" fill="#0073E6"/>
<path d="M34.5978 19.7383L34.8394 19.5881L34.2714 21.6056L34.0298 21.7557L34.5978 19.7383ZM34.5325 21.4685L34.7741 21.3183L35.3421 19.3009L35.1005 19.451L34.5325 21.4685ZM35.0287 21.1812L35.2703 21.031L35.8383 19.0136L35.5967 19.1637L35.0287 21.1812ZM35.5314 20.8939L35.773 20.7437L36.341 18.7263L36.0995 18.8765L35.5314 20.8939ZM36.0342 20.6066L36.2758 20.4565L36.8438 18.439L36.6022 18.5892L36.0342 20.6066ZM36.5304 20.3194L36.7719 20.1692L37.34 18.1517L37.0984 18.3019L36.5304 20.3194ZM37.0331 20.0256L37.2747 19.8754L37.8427 17.858L37.6011 18.0081L37.0331 20.0256ZM37.5293 19.7383L37.7709 19.5881L38.3389 17.5707L38.0973 17.7208L37.5293 19.7383Z" fill="#2A2F3C"/>
<path d="M47.528 12.2757L47.7696 12.1255L47.2015 14.1429L46.96 14.2931L47.528 12.2757ZM47.4627 14.0058L47.7043 13.8557L48.2723 11.8382L48.0307 11.9884L47.4627 14.0058ZM47.9589 13.7186L48.2005 13.5684L48.7685 11.5509L48.5269 11.7011L47.9589 13.7186ZM48.4616 13.4313L48.7032 13.2811L49.2712 11.2637L49.0297 11.4138L48.4616 13.4313ZM48.9578 13.144L49.1994 12.9938L49.7674 10.9764L49.5259 11.1266L48.9578 13.144ZM49.4606 12.8567L49.7021 12.7066L50.2702 10.6891L50.0286 10.8393L49.4606 12.8567ZM49.9633 12.5629L50.2049 12.4128L50.7729 10.3953L50.5313 10.5455L49.9633 12.5629ZM50.4595 12.2757L50.7011 12.1255L51.2691 10.108L51.0275 10.2582L50.4595 12.2757Z" fill="#2A2F3C"/>
<path d="M33.4678 18.994L33.6702 19.1768L30.3339 31.1052L30.125 30.9224L33.4678 18.994Z" fill="#2A2F3C"/>
<path d="M39.4634 21.7426L44.0673 19.0657L46.6011 22.2127L41.9972 24.883L39.4634 21.7426Z" fill="#EFF3FA"/>
<path d="M41.9971 24.8831L46.6011 22.2127L46.5815 31.4447L41.9775 34.1216L41.9971 24.8831Z" fill="#0073E6"/>
<path d="M39.4629 21.7426L41.9962 24.883L41.9766 30.7461L40.9189 30.1389L40.932 25.0332L39.1626 22.8264L39.4629 21.7426Z" fill="#2A2F3C"/>
<defs>
<linearGradient id="paint0_linear_251_76620" x1="20.861" y1="18.0588" x2="27.8368" y2="30.144" gradientUnits="userSpaceOnUse">
<stop offset="0.1773" stop-color="#C18C68"/>
<stop offset="0.202" stop-color="#F4C698"/>
<stop offset="0.7783" stop-color="#F4C698"/>
<stop offset="0.8571" stop-color="#E9BB8F"/>
<stop offset="0.8719" stop-color="#D3A57D"/>
</linearGradient>
<linearGradient id="paint1_linear_251_76620" x1="15.1268" y1="4.65114" x2="22.7286" y2="17.8206" gradientUnits="userSpaceOnUse">
<stop offset="0.1478" stop-color="#F4C698"/>
<stop offset="0.2217" stop-color="#DBAD83"/>
<stop offset="0.2232" stop-color="#D7A980"/>
<stop offset="0.2266" stop-color="#D3A57D"/>
</linearGradient>
<linearGradient id="paint2_linear_251_76620" x1="17.8427" y1="1.32434" x2="19.6862" y2="4.51808" gradientUnits="userSpaceOnUse">
<stop stop-color="#F4C698"/>
<stop offset="0.1683" stop-color="#EBBD91"/>
<stop offset="0.3645" stop-color="#DBAD83"/>
<stop offset="0.3705" stop-color="#D7A980"/>
<stop offset="0.3842" stop-color="#D3A57D"/>
</linearGradient>
<linearGradient id="paint3_linear_251_76620" x1="19.0569" y1="26.8682" x2="19.8755" y2="26.8682" gradientUnits="userSpaceOnUse">
<stop stop-color="#D3D0C4"/>
<stop offset="1" stop-color="#E9E5D9"/>
</linearGradient>
</defs>
</svg>
