<svg width="38" height="50" viewBox="0 0 38 50" fill="none" xmlns="http://www.w3.org/2000/svg">
<path d="M29.9835 49.9999C30.2262 46.305 30.9777 38.7611 30.3749 33.6469C30.1088 31.3483 29.6704 30.1526 28.9032 29.1961C28.5822 29.2656 28.2377 29.2039 27.9559 28.9956L25.1846 26.9978C24.8949 26.7895 24.7149 26.4655 24.6757 26.1338C24.5426 26.0875 24.4096 26.0413 24.2686 26.0027V28.5328H12.8937V26.0027C12.7528 26.0413 12.6197 26.0875 12.4944 26.1338C12.4474 26.4732 12.2752 26.7895 11.9856 26.9978L9.21423 28.9956C8.92458 29.2039 8.58012 29.2656 8.26698 29.1961C7.49978 30.1526 7.0692 31.3483 6.7952 33.6469C6.1924 38.7611 6.94394 46.305 7.18663 49.9999H29.9835Z" fill="#A8ABAA"/>
<path d="M24.269 28.5327V26.0026C21.028 25.0076 16.1429 25.0076 12.894 26.0026V28.5327H24.269Z" fill="#363B39"/>
<path d="M29.2872 49.9999C29.4985 46.5365 30.2501 39.0542 29.6708 34.0249C29.2324 30.1989 28.3477 29.5587 26.1635 27.7691C23.2043 25.3393 13.9666 25.3393 11.0074 27.7691C8.82322 29.5664 7.93858 30.1989 7.50018 34.0249C6.92086 39.0542 7.67242 46.5365 7.88379 49.9999H29.2872Z" fill="#D2D6D5"/>
<path d="M14.0601 46.6676C12.1421 46.9376 10.7642 47.4544 10.2554 47.6704L10.4041 48.5111C10.4041 48.5111 11.9072 47.7475 14.2558 47.4081C16.2834 47.115 20.8866 47.115 22.9142 47.4081C25.2628 47.7475 26.7659 48.5111 26.7659 48.5111L26.9146 47.6704C26.4058 47.4544 25.0358 46.9376 23.1099 46.6676C20.9962 46.3745 16.1816 46.3745 14.0601 46.6676Z" fill="#1B1C1C"/>
<path d="M9.66863 40.3733C10.4123 40.057 11.7119 39.5248 13.7395 39.0928C16.6517 38.468 20.5269 38.468 23.4313 39.0928C25.4589 39.5248 26.7585 40.057 27.5022 40.3733C27.831 40.5121 28.0345 40.6278 28.1441 40.7435L28.1519 40.7204C28.1519 40.7204 28.285 40.111 28.1989 39.949C28.1206 39.8101 27.9014 39.6713 27.5022 39.5093C26.7585 39.1931 25.4589 38.6608 23.4313 38.2289C20.5191 37.6041 16.6517 37.6041 13.7395 38.2289C11.7119 38.6608 10.4123 39.1931 9.66863 39.5093C9.2772 39.679 9.05016 39.8101 8.97187 39.949C8.88576 40.111 9.01884 40.7204 9.01884 40.7204L9.02668 40.7435C9.13628 40.6278 9.33983 40.5198 9.66863 40.3733Z" fill="#1B1C1C"/>
<path d="M14.0602 46.6677C16.1817 46.3746 20.9885 46.3746 23.11 46.6677C25.028 46.9377 26.4059 47.4545 26.9147 47.6705L28.1438 40.7436C28.0342 40.6279 27.8307 40.5122 27.5019 40.3733C26.7581 40.0571 25.4586 39.5248 23.431 39.0929C20.5187 38.4681 16.6514 38.4681 13.7392 39.0929C11.7116 39.5248 10.412 40.0571 9.66832 40.3733C9.33952 40.5122 9.13597 40.6279 9.02637 40.7436L10.2555 47.6705C10.7722 47.4622 12.1421 46.9377 14.0602 46.6677Z" fill="#363B39"/>
<path d="M8.59578 50H9.93449L9.89533 48.9972L8.34528 40.5122C8.34528 40.5122 8.2122 42.6875 8.34528 45.8115C8.40008 47.0457 8.51749 48.5884 8.59578 50Z" fill="#363B39"/>
<path d="M28.5824 49.9999C28.6606 48.5883 28.7781 47.0533 28.8251 45.8037C28.9582 42.6874 28.8251 40.5044 28.8251 40.5044L27.275 48.9894L27.2358 49.9922H28.5824V49.9999Z" fill="#363B39"/>
<path d="M9.21437 28.9956L11.9857 26.9977C12.2754 26.7894 12.4554 26.4655 12.4946 26.1338C11.7039 26.4115 11.0306 26.7509 10.5218 27.152C9.54318 27.9311 8.81511 28.5019 8.25928 29.1961C8.58025 29.2578 8.92471 29.2038 9.21437 28.9956Z" fill="#D2D6D5"/>
<path d="M25.1924 26.9899L27.9638 28.9877C28.2534 29.196 28.5901 29.2577 28.911 29.1883C28.3552 28.4941 27.6271 27.9233 26.6486 27.1442C26.1475 26.7431 25.4743 26.4037 24.6836 26.126C24.7227 26.4654 24.895 26.7816 25.1924 26.9899Z" fill="#D2D6D5"/>
<path d="M26.5077 49.9999C26.5155 49.3057 26.5155 48.8891 26.5155 48.8891C26.5155 48.8891 24.5271 47.8246 18.5852 47.9558C12.6433 47.8246 10.6548 48.8891 10.6548 48.8891C10.6548 48.8891 10.6548 49.3057 10.6626 49.9999H26.5077Z" fill="#D2D6D5"/>
<path d="M28.7544 41.0366C28.7544 41.0366 29.6782 41.214 29.7017 42.0008C29.7252 42.7876 28.7701 44.3689 28.7544 43.3662C28.7387 42.3634 28.6683 41.3375 28.7544 41.0366Z" fill="#1B1C1C"/>
<path d="M31.98 42.7492C31.7764 42.4792 29.9132 41.9084 29.9132 41.9084C29.5453 41.785 29.42 42.1089 29.373 42.3789L32.0504 43.1811C32.0818 43.0654 32.0896 42.8957 31.98 42.7492Z" fill="#D2D6D5"/>
<path d="M29.3725 42.3865C29.3412 42.5639 29.349 42.7259 29.349 42.7259L31.9794 43.3738C31.9794 43.3738 32.0186 43.3044 32.0499 43.1964L29.3725 42.3865Z" fill="url(#paint0_linear_251_74537)"/>
<path d="M8.40776 40.9827C8.40776 40.9827 7.42135 41.1601 7.39786 41.9469C7.37438 42.7337 8.38427 44.315 8.40776 43.3122C8.43125 42.3094 8.49387 41.2835 8.40776 40.9827Z" fill="#1B1C1C"/>
<path d="M7.2573 41.8541C7.2573 41.8541 5.39409 42.4249 5.19055 42.6949C5.06529 42.8569 5.08878 43.042 5.12792 43.1654L7.79747 42.3555C7.75833 42.0855 7.6409 41.7307 7.2573 41.8541Z" fill="#D2D6D5"/>
<path d="M5.12793 43.1656C5.15142 43.2505 5.19056 43.3045 5.19056 43.3045L7.82097 42.6565C7.82097 42.6565 7.82881 42.5177 7.80532 42.3557L5.12793 43.1656Z" fill="url(#paint1_linear_251_74537)"/>
<path d="M5.5657 0H3.53027V23.9278H5.5657V0Z" fill="#D2D6D5"/>
<path d="M34.1092 0H32.0737V23.9278H34.1092V0Z" fill="#D2D6D5"/>
<path d="M33.4517 21.197C31.2441 21.197 28.9033 20.4874 28.9033 19.1683C28.9033 17.857 31.2441 17.1396 33.4517 17.1396C35.6594 17.1396 38.0001 17.8493 38.0001 19.1683C38.0001 20.4874 35.6516 21.197 33.4517 21.197ZM33.4517 17.8416C31.0718 17.8416 29.6079 18.6129 29.6079 19.1683C29.6079 19.7237 31.0718 20.5028 33.4517 20.5028C35.8316 20.5028 37.2956 19.7314 37.2956 19.1683C37.2956 18.6052 35.8316 17.8416 33.4517 17.8416Z" fill="#DF4019"/>
<path d="M33.4517 8.63926C31.2441 8.63926 28.9033 7.92961 28.9033 6.61058C28.9033 5.29925 31.2441 4.5896 33.4517 4.5896C35.6594 4.5896 38.0001 5.29925 38.0001 6.61058C38.0001 7.92961 35.6516 8.63926 33.4517 8.63926ZM33.4517 5.28383C31.0718 5.28383 29.6079 6.05519 29.6079 6.61058C29.6079 7.16596 31.0718 7.94504 33.4517 7.94504C35.8316 7.94504 37.2956 7.17367 37.2956 6.61058C37.2956 6.05519 35.8316 5.28383 33.4517 5.28383Z" fill="#DF4019"/>
<path d="M4.54841 21.197C2.34075 21.197 0 20.4874 0 19.1683C0 17.857 2.34075 17.1396 4.54841 17.1396C6.75608 17.1396 9.09683 17.8493 9.09683 19.1683C9.09683 20.4874 6.74825 21.197 4.54841 21.197ZM4.54841 17.8416C2.16852 17.8416 0.704569 18.6129 0.704569 19.1683C0.704569 19.7237 2.16852 20.5028 4.54841 20.5028C6.92831 20.5028 8.39226 19.7314 8.39226 19.1683C8.39226 18.6052 6.92831 17.8416 4.54841 17.8416Z" fill="#DF4019"/>
<path d="M4.54841 8.63926C2.34075 8.63926 0 7.92961 0 6.61058C0 5.29925 2.34075 4.5896 4.54841 4.5896C6.75608 4.5896 9.09683 5.29925 9.09683 6.61058C9.09683 7.92961 6.74825 8.63926 4.54841 8.63926ZM4.54841 5.28383C2.16852 5.28383 0.704569 6.05519 0.704569 6.61058C0.704569 7.16596 2.16852 7.94504 4.54841 7.94504C6.92831 7.94504 8.39226 7.17367 8.39226 6.61058C8.39226 6.05519 6.92831 5.28383 4.54841 5.28383Z" fill="#DF4019"/>
<path d="M18.5773 47.1691L4.23535 21.012L4.85382 20.6803L18.593 45.742L33.1464 20.6726L33.757 21.0197L18.5773 47.1691Z" fill="#DF4019"/>
<defs>
<linearGradient id="paint0_linear_251_74537" x1="29.3514" y1="42.8731" x2="32.0712" y2="42.8731" gradientUnits="userSpaceOnUse">
<stop stop-color="#363B39"/>
<stop offset="1" stop-color="#1B1C1C"/>
</linearGradient>
<linearGradient id="paint1_linear_251_74537" x1="5.09395" y1="42.8358" x2="7.81346" y2="42.8358" gradientUnits="userSpaceOnUse">
<stop stop-color="#363B39"/>
<stop offset="1" stop-color="#1B1C1C"/>
</linearGradient>
</defs>
</svg>
