<svg width="40" height="50" viewBox="0 0 40 50" fill="none" xmlns="http://www.w3.org/2000/svg">
<path d="M5.99951 7.17858C9.76633 2.54486 14.717 0 19.9995 0C25.273 0 30.2237 2.54486 33.9995 7.17858L19.9995 18.6599L5.99951 7.17858Z" fill="#BDE8FF"/>
<path d="M5.49776 42.1888C1.94619 37.5183 0 31.4577 0 24.9999C0 18.8069 1.81165 12.9302 5.12107 8.32593L20 20.5281L34.8789 8.32593C38.1883 12.9229 40 18.807 40 24.9926C40 31.443 38.0538 37.511 34.5022 42.1741L20 30.2883L5.49776 42.1888Z" fill="#BDE8FF"/>
<path d="M20 49.9999C14.9328 49.9999 10.1256 47.6316 6.4126 43.3141L20 32.1711L33.5875 43.3141C29.8655 47.6242 25.0583 49.9999 20 49.9999Z" fill="#DF4019"/>
<path d="M29.6415 12.9449C29.4173 11.3783 29.0675 10.5692 28.4397 9.91463C28.1796 9.95876 27.9016 9.92199 27.6594 9.78224L25.3904 8.42154C25.1482 8.27444 25.0137 8.06114 24.9778 7.83313C24.8702 7.80371 24.7626 7.77429 24.646 7.74487V9.46596H15.3455V7.74487C15.2379 7.77429 15.1213 7.80371 15.0137 7.83313C14.9778 8.06849 14.8343 8.28179 14.6011 8.42154L12.3321 9.78224C12.0989 9.92199 11.8119 9.96611 11.5518 9.91463C10.924 10.5692 10.5742 11.3783 10.35 12.9449C9.76705 17.0932 10.7536 23.6098 10.7357 25.2132C10.6101 33.7746 10.5204 38.982 11.211 40.7913C11.3455 41.137 11.6684 41.4165 12.1258 41.6519C12.2244 41.6151 12.341 41.5931 12.4845 41.5931C13.2917 41.5931 13.6863 42.027 14.5832 41.902C15.1751 41.8211 15.3724 42.2183 15.4442 42.5051C15.9733 42.5713 16.5025 42.6228 17.0137 42.6595C17.0944 42.5639 17.2289 42.5051 17.3814 42.5051H22.6191C22.7715 42.5051 22.9061 42.5639 22.9868 42.6595C23.3635 42.6301 23.7581 42.6007 24.1527 42.5492C24.2065 42.2697 24.3948 41.8137 25.0226 41.902C25.9195 42.027 26.3141 41.5931 27.1213 41.5931C27.3724 41.5931 27.5428 41.6592 27.6594 41.7549C28.2244 41.5048 28.637 41.1885 28.7805 40.7913C29.4711 38.9893 29.3904 33.7746 29.2558 25.2132C29.2289 23.6098 30.2244 17.0932 29.6415 12.9449Z" fill="#A8ABAA"/>
<path d="M24.6457 9.47348V7.75238C21.991 7.07571 17.9999 7.07571 15.3452 7.75238V9.47348H24.6457Z" fill="#363B39"/>
<path d="M29.0582 13.2024C28.6995 10.5987 27.973 10.1648 26.1883 8.94381C23.7668 7.28891 16.2152 7.28891 13.8026 8.94381C12.0179 10.1648 11.2914 10.5987 10.9327 13.2024C10.3856 17.1962 11.3094 23.4628 11.2914 25.0074C11.1659 33.2451 11.0852 38.2613 11.7399 39.9971C12.4932 41.9976 19.991 41.8873 19.991 41.8873C19.991 41.8873 27.4977 41.9976 28.2511 39.9971C28.8968 38.2613 28.8161 33.2451 28.6995 25.0074C28.6816 23.4701 29.6053 17.1962 29.0582 13.2024Z" fill="#D2D6D5"/>
<path d="M16.305 21.8079C14.7355 21.9918 13.6144 22.3448 13.1929 22.4919L13.3184 23.0656C13.3184 23.0656 14.5471 22.5507 16.4664 22.3154C18.1256 22.1168 21.8835 22.1168 23.5427 22.3154C25.4619 22.5507 26.6906 23.0656 26.6906 23.0656L26.8162 22.4919C26.4036 22.3448 25.2736 21.9918 23.7041 21.8079C21.9642 21.6093 18.0359 21.6093 16.305 21.8079Z" fill="#1B1C1C"/>
<path d="M12.7085 17.5273C13.3184 17.314 14.3767 16.9462 16.0359 16.652C18.4126 16.2254 21.5785 16.2254 23.9551 16.652C25.6143 16.9462 26.6726 17.3066 27.2825 17.5273C27.5516 17.6229 27.722 17.6964 27.8027 17.7773V17.7626C27.8027 17.7626 27.9193 17.3507 27.8386 17.2404C27.7758 17.1448 27.5964 17.0565 27.2735 16.9389C26.6637 16.7256 25.6054 16.3578 23.9462 16.0636C21.5695 15.637 18.4036 15.637 16.0269 16.0636C14.3677 16.3578 13.3094 16.7182 12.6996 16.9389C12.3767 17.0565 12.1973 17.1448 12.1345 17.2404C12.0628 17.3507 12.1704 17.7626 12.1704 17.7626V17.7773C12.2691 17.7038 12.4394 17.6229 12.7085 17.5273Z" fill="#1B1C1C"/>
<path d="M16.3049 21.8079C18.0358 21.6093 21.9641 21.6093 23.695 21.8079C25.2645 21.9918 26.3856 22.3448 26.8071 22.4919L27.8116 17.7773C27.7219 17.6964 27.5515 17.6229 27.2914 17.5272C26.6816 17.3139 25.6233 16.9462 23.9641 16.652C21.5874 16.2254 18.4215 16.2254 16.0448 16.652C14.3856 16.9462 13.3273 17.3066 12.7174 17.5272C12.4484 17.6229 12.278 17.6964 12.1973 17.7773L13.2017 22.4919C13.6053 22.3448 14.7354 21.9918 16.3049 21.8079Z" fill="#363B39"/>
<path d="M26.3044 35.4223C26.2506 35.2163 26.1968 35.0104 26.1251 34.8118C26.1251 34.8118 26.0354 34.8485 25.856 34.9074C25.2013 35.1207 23.3089 35.6282 19.9995 35.6282C16.9591 35.6282 14.8605 35.106 14.143 34.9C13.9636 34.8486 13.8739 34.8118 13.8739 34.8118C13.8111 35.0104 13.7484 35.2089 13.6945 35.4075C13.2013 37.3419 13.4345 39.1954 13.4345 39.1954C13.4345 39.1954 14.7708 39.6882 16.6811 39.9751C18.152 40.1957 21.838 40.1957 23.3089 39.9751C25.2192 39.6882 26.5466 39.1954 26.5466 39.1954C26.5466 39.1954 26.7887 37.3566 26.3044 35.4223ZM26.0892 38.6953C26.0892 38.6953 24.8515 39.1881 23.0757 39.4749C21.7125 39.6956 18.2775 39.6956 16.9143 39.4749C15.1385 39.1881 13.9008 38.6953 13.9008 38.6953C13.9008 38.6953 13.7214 37.1948 14.0264 35.4737C15.1475 35.7165 17.2282 36.0548 19.9995 36.0548C22.9771 36.0548 24.9322 35.7385 25.9816 35.4958C26.2685 37.2095 26.0892 38.6953 26.0892 38.6953Z" fill="#1B1C1C"/>
<path d="M14.0266 35.481C13.7217 37.1947 13.9011 38.7025 13.9011 38.7025C13.9011 38.7025 15.1387 39.1953 16.9145 39.4821C18.2777 39.7028 21.7127 39.7028 23.0759 39.4821C24.8517 39.1953 26.0894 38.7025 26.0894 38.7025C26.0894 38.7025 26.2688 37.2168 25.9728 35.5104C24.9235 35.7457 22.9683 36.0694 19.9907 36.0694C17.2284 36.062 15.1477 35.7163 14.0266 35.481Z" fill="#363B39"/>
<path d="M11.803 27.8905L13.1303 28.2583L12.9061 23.3892L11.6416 17.6155C11.6416 17.6155 11.534 19.0938 11.6416 21.2195C11.7133 22.5655 11.9017 24.4116 11.9017 25.6031C11.8927 26.7284 11.8389 27.5007 11.803 27.8905Z" fill="#363B39"/>
<path d="M28.197 27.8905L26.8696 28.2583L27.0938 23.3892L28.3584 17.6155C28.3584 17.6155 28.466 19.0938 28.3584 21.2195C28.2867 22.5655 28.0983 24.4116 28.0983 25.6031C28.1073 26.7284 28.1432 27.5081 28.197 27.8905Z" fill="#363B39"/>
<path d="M11.7576 28.3467L13.1298 28.8174L13.2823 32.8921C13.2823 32.8921 13.1657 33.3996 12.6545 34.2308C12.0715 35.1796 11.7576 35.4517 11.7576 35.4517C11.7576 35.4517 11.6141 29.8692 11.7576 28.3467Z" fill="#363B39"/>
<path d="M28.2332 28.3467L26.8609 28.8174L26.7085 32.8921C26.7085 32.8921 26.8251 33.3996 27.3363 34.2308C27.9193 35.1796 28.2332 35.4517 28.2332 35.4517C28.2332 35.4517 28.3856 29.8692 28.2332 28.3467Z" fill="#363B39"/>
<path d="M12.3407 9.78212L14.6097 8.42142C14.8519 8.27432 14.9864 8.06102 15.0223 7.83301C14.3765 8.02424 13.8205 8.25225 13.4169 8.52439C12.6187 9.05396 12.0267 9.44378 11.5693 9.9145C11.8205 9.96599 12.0985 9.92922 12.3407 9.78212Z" fill="#D2D6D5"/>
<path d="M25.3899 8.42142L27.659 9.78212C27.8922 9.92186 28.1792 9.96599 28.4392 9.9145C27.9818 9.44378 27.3899 9.05396 26.5917 8.52439C26.1792 8.25225 25.6321 8.01689 24.9863 7.83301C25.0132 8.06837 25.1567 8.28167 25.3899 8.42142Z" fill="#D2D6D5"/>
<path d="M14.5834 41.8946C13.6865 42.0196 13.3009 41.5857 12.4847 41.5857C12.3412 41.5857 12.2246 41.6077 12.126 41.6445C12.9511 42.0711 14.1888 42.3285 15.4354 42.4904C15.3726 42.2109 15.1753 41.8137 14.5834 41.8946Z" fill="#93091A"/>
<path d="M25.0135 41.8946C24.3857 41.8063 24.1974 42.2624 24.1436 42.5418C25.4261 42.3947 26.7355 42.152 27.6503 41.7475C27.5337 41.6519 27.3633 41.5857 27.1122 41.5857C26.305 41.5857 25.9104 42.0196 25.0135 41.8946Z" fill="#93091A"/>
<path d="M19.9999 22.6905C15.1479 22.6023 13.5156 23.3231 13.5156 23.3231C13.5156 23.3231 13.5694 32.973 13.9461 33.9291C14.1972 34.5764 17.2555 34.8632 19.1927 34.9809H20.7981C22.7443 34.8632 25.8026 34.5764 26.0537 33.9291C26.4214 32.973 26.4842 23.3231 26.4842 23.3231C26.4842 23.3231 24.8519 22.5949 19.9999 22.6905Z" fill="#F7F7F7"/>
<path d="M20.843 41.5783C25.5516 41.4606 27.6413 40.3647 27.6413 40.3647L26.7085 39.4453C23.7668 40.7987 19.991 40.5192 19.991 40.5192C19.991 40.5192 16.2242 40.7987 13.2735 39.4453L12.3408 40.3647C12.3408 40.3647 14.4305 41.4606 19.139 41.5783C19.3812 41.5856 19.9821 41.5857 19.9821 41.5857C20.3139 41.5857 20.6009 41.5856 20.843 41.5783Z" fill="#F7F7F7"/>
<path d="M28.3049 17.9758C28.3049 17.9758 29.0672 18.1009 29.0852 18.6304C29.1031 19.16 28.3228 20.2412 28.3049 19.5572C28.2959 18.8805 28.2421 18.1818 28.3049 17.9758Z" fill="#1B1C1C"/>
<path d="M30.9412 19.1453C30.7708 18.9615 29.2461 18.5716 29.2461 18.5716C28.9412 18.4907 28.8425 18.7114 28.8066 18.8953L30.995 19.4395C31.0309 19.3586 31.0309 19.241 30.9412 19.1453Z" fill="#D2D6D5"/>
<path d="M28.8163 18.8953C28.7894 19.0129 28.7983 19.1233 28.7983 19.1233L30.9508 19.5646C30.9508 19.5646 30.9867 19.5131 31.0046 19.4469L28.8163 18.8953Z" fill="url(#paint0_linear_251_74467)"/>
<path d="M11.6774 17.939C11.6774 17.939 10.8703 18.064 10.8523 18.5936C10.8344 19.1231 11.6595 20.2044 11.6774 19.5203C11.6954 18.8437 11.7492 18.1449 11.6774 17.939Z" fill="#1B1C1C"/>
<path d="M10.7353 18.5348C10.7353 18.5348 9.21058 18.9246 9.04018 19.1085C8.94152 19.2188 8.95947 19.3438 8.99535 19.4321L11.1837 18.8805C11.1478 18.6892 11.0492 18.4465 10.7353 18.5348Z" fill="#D2D6D5"/>
<path d="M8.99512 19.4247C9.01305 19.4835 9.03995 19.5203 9.03995 19.5203L11.1835 19.079C11.1835 19.079 11.1924 18.9834 11.1745 18.873L8.99512 19.4247Z" fill="url(#paint1_linear_251_74467)"/>
<path d="M10.7624 24.9705C10.6458 24.9705 10.5562 25.044 10.5562 25.1322V26.5003C10.5562 26.5886 10.6458 26.6621 10.7624 26.6621V24.9705Z" fill="#595959"/>
<path d="M10.6636 31.8254C10.556 31.8254 10.4663 31.899 10.4663 31.9873V33.3553C10.4663 33.4436 10.556 33.5245 10.6636 33.5245V31.8254Z" fill="#595959"/>
<path d="M29.2378 24.9705C29.3544 24.9705 29.4441 25.044 29.4441 25.1322V26.5003C29.4441 26.5886 29.3544 26.6621 29.2378 26.6621V24.9705Z" fill="#595959"/>
<path d="M29.3364 31.8254C29.444 31.8254 29.5337 31.899 29.5337 31.9873V33.3553C29.5337 33.4436 29.444 33.5245 29.3364 33.5245V31.8254Z" fill="#595959"/>
<path d="M22.6191 42.4978H17.3814C17.2289 42.4978 17.0944 42.5566 17.0137 42.6523C18.6549 42.7773 20.0092 42.7552 20.0092 42.7552C20.0092 42.7552 21.3545 42.7773 22.9957 42.6523C22.906 42.5566 22.7715 42.4978 22.6191 42.4978Z" fill="#1B1C1C"/>
<defs>
<linearGradient id="paint0_linear_251_74467" x1="28.7962" y1="19.2267" x2="31.0197" y2="19.2267" gradientUnits="userSpaceOnUse">
<stop stop-color="#363B39"/>
<stop offset="1" stop-color="#1B1C1C"/>
</linearGradient>
<linearGradient id="paint1_linear_251_74467" x1="8.97036" y1="19.2003" x2="11.1942" y2="19.2003" gradientUnits="userSpaceOnUse">
<stop stop-color="#363B39"/>
<stop offset="1" stop-color="#1B1C1C"/>
</linearGradient>
</defs>
</svg>
