<svg width="40" height="50" viewBox="0 0 40 50" fill="none" xmlns="http://www.w3.org/2000/svg">
<path d="M24.8117 49.9999C25.0459 46.2442 25.8185 38.3595 25.2098 33.0395C24.9444 30.6653 24.5073 29.4425 23.7425 28.4579C23.4225 28.5294 23.079 28.4659 22.798 28.2515L20.0351 26.195C19.7463 25.9806 19.5746 25.6471 19.5278 25.3056C19.3951 25.258 19.2624 25.2183 19.1219 25.1707V27.7751H7.78144V25.1707C7.64095 25.2104 7.50827 25.258 7.37559 25.3056C7.32876 25.655 7.15704 25.9806 6.86825 26.195L4.10534 28.2515C3.81656 28.4659 3.47313 28.5294 3.16093 28.4579C2.39605 29.4425 1.9668 30.6733 1.69363 33.0395C1.08485 38.3595 1.85752 46.2442 2.09166 49.9999H24.8117Z" fill="#A8ABAA"/>
<path d="M19.1218 27.775V25.1706C15.8905 24.1463 11.0203 24.1463 7.78125 25.1706V27.775H19.1218Z" fill="#363B39"/>
<path d="M24.1092 49.9999C24.3122 46.4903 25.0849 38.6612 24.4995 33.4285C24.0624 29.4901 23.1805 28.8311 21.0029 26.9889C18.0527 24.4877 8.84288 24.4877 5.89263 26.9889C3.71507 28.839 2.83313 29.4901 2.39606 33.4285C1.81069 38.6691 2.59118 46.4903 2.7863 49.9999H24.1092Z" fill="#D2D6D5"/>
<path d="M8.94453 46.4507C7.03233 46.7286 5.65869 47.2606 5.15137 47.4829L5.29966 48.3484C5.29966 48.3484 6.79819 47.5623 9.13966 47.2129C11.1611 46.9112 15.7504 46.9112 17.7719 47.2129C20.1133 47.5623 21.6119 48.3484 21.6119 48.3484L21.7602 47.4829C21.2529 47.2606 19.8792 46.7286 17.967 46.4507C15.8519 46.1489 11.0519 46.1489 8.94453 46.4507Z" fill="#1B1C1C"/>
<path d="M4.55786 39.9713C5.29933 39.6457 6.59495 39.0978 8.61642 38.6532C11.5198 38.01 15.3755 38.01 18.2789 38.6532C20.3003 39.0978 21.5959 39.6457 22.3374 39.9713C22.6652 40.1142 22.8681 40.2333 22.9774 40.3524L22.9852 40.3286C22.9852 40.3286 23.1257 39.7013 23.0321 39.5345C22.954 39.3916 22.7355 39.2566 22.3374 39.082C21.5959 38.7564 20.3003 38.2085 18.2789 37.7639C15.3755 37.1207 11.5198 37.1207 8.61642 37.7639C6.59495 38.2085 5.29933 38.7564 4.55786 39.082C4.16762 39.2566 3.94129 39.3916 3.86324 39.5345C3.77739 39.7013 3.91786 40.3286 3.91786 40.3286V40.3524C4.02713 40.2333 4.23006 40.1142 4.55786 39.9713Z" fill="#1B1C1C"/>
<path d="M8.94432 46.4506C11.0594 46.1489 15.8516 46.1489 17.9668 46.4506C19.879 46.7285 21.2526 47.2605 21.76 47.4829L22.9853 40.3525C22.8761 40.2334 22.6731 40.1143 22.3453 39.9714C21.6039 39.6458 20.3082 39.0979 18.2868 38.6533C15.3834 38.0101 11.5277 38.0101 8.62432 38.6533C6.60285 39.0979 5.30725 39.6458 4.56579 39.9714C4.23798 40.1143 4.03505 40.2334 3.92578 40.3525L5.15115 47.4829C5.65847 47.2605 7.02432 46.7285 8.94432 46.4506Z" fill="#363B39"/>
<path d="M3.49623 50.0001H4.83086L4.78404 48.8408L3.23866 40.1064C3.23866 40.1064 3.10597 42.3456 3.23866 45.5614C3.3011 46.8795 3.41818 48.5232 3.49623 50.0001Z" fill="#363B39"/>
<path d="M23.4064 49.9999C23.4845 48.5151 23.6015 46.8714 23.6562 45.5534C23.7889 42.3455 23.6562 40.0984 23.6562 40.0984L22.1108 48.8327L22.064 49.992H23.4064V49.9999Z" fill="#363B39"/>
<path d="M4.10552 28.2515L6.86843 26.195C7.15721 25.9806 7.33674 25.6471 7.37577 25.3057C6.58748 25.5915 5.91624 25.9409 5.40892 26.3538C4.43331 27.1637 3.70747 27.7433 3.15332 28.458C3.47332 28.5294 3.81674 28.4659 4.10552 28.2515Z" fill="#D2D6D5"/>
<path d="M20.0351 26.195L22.7981 28.2515C23.0868 28.4659 23.4303 28.5294 23.7425 28.458C23.1883 27.7433 22.4625 27.1558 21.4868 26.3538C20.9873 25.9409 20.3161 25.5915 19.52 25.3057C19.5668 25.655 19.7386 25.9806 20.0351 26.195Z" fill="#D2D6D5"/>
<path d="M21.3464 50.0001C21.3542 49.214 21.3542 48.7296 21.3542 48.7296C21.3542 48.7296 19.364 47.6339 13.4479 47.7688C7.52395 47.6339 5.5415 48.7296 5.5415 48.7296C5.5415 48.7296 5.54149 49.206 5.54929 50.0001H21.3464Z" fill="#D2D6D5"/>
<path d="M23.5942 40.6543C23.5942 40.6543 24.5152 40.8369 24.5386 41.6468C24.562 42.4488 23.6098 44.0845 23.5942 43.0523C23.5708 42.0121 23.5084 40.964 23.5942 40.6543Z" fill="#1B1C1C"/>
<path d="M26.8021 42.417C26.5992 42.1391 24.7339 41.5515 24.7339 41.5515C24.367 41.4245 24.2421 41.758 24.2031 42.0359L26.8724 42.8616C26.9036 42.7346 26.9192 42.5679 26.8021 42.417Z" fill="#D2D6D5"/>
<path d="M24.203 42.0359C24.1718 42.2185 24.1796 42.3773 24.1796 42.3773L26.802 43.0443C26.802 43.0443 26.841 42.9728 26.8723 42.8617L24.203 42.0359Z" fill="url(#paint0_linear_251_74432)"/>
<path d="M3.30119 40.5986C3.30119 40.5986 2.31776 40.7813 2.29435 41.5912C2.27093 42.3931 3.27777 44.0288 3.30119 42.9966C3.3246 41.9564 3.38704 40.9083 3.30119 40.5986Z" fill="#1B1C1C"/>
<path d="M2.15408 41.4959C2.15408 41.4959 0.296505 42.0835 0.0935782 42.3614C-0.0313001 42.5282 -0.00787494 42.7187 0.0311495 42.8458L2.69262 42.012C2.6536 41.7262 2.53652 41.3689 2.15408 41.4959Z" fill="#D2D6D5"/>
<path d="M0.03125 42.8457C0.0546647 42.933 0.0936787 42.9886 0.0936787 42.9886L2.71613 42.3216C2.71613 42.3216 2.72392 42.1787 2.70051 42.012L0.03125 42.8457Z" fill="url(#paint1_linear_251_74432)"/>
<path d="M30.2131 19.9142C24.8121 19.9142 20.418 15.4438 20.418 9.9571C20.418 4.47036 24.8121 0 30.2131 0C35.6141 0 40.0004 4.47036 40.0004 9.9571C40.0004 15.4438 35.6063 19.9142 30.2131 19.9142ZM30.2131 0.651109C25.1711 0.651109 21.0736 4.81975 21.0736 9.94918C21.0736 15.0786 25.1711 19.2472 30.2131 19.2472C35.2551 19.2472 39.3526 15.0786 39.3526 9.94918C39.3526 4.81975 35.2473 0.651109 30.2131 0.651109Z" fill="#9FB603"/>
<path d="M30.2132 16.7777C33.9202 16.7777 36.9254 13.7204 36.9254 9.94901C36.9254 6.17766 33.9202 3.12036 30.2132 3.12036C26.5061 3.12036 23.501 6.17766 23.501 9.94901C23.501 13.7204 26.5061 16.7777 30.2132 16.7777Z" fill="#DF4019"/>
<path d="M35.8084 9.94906C35.8084 13.0934 33.303 15.6422 30.2123 15.6422C27.1216 15.6422 24.6162 13.0934 24.6162 9.94906C24.6162 6.8047 27.1216 4.25586 30.2123 4.25586C33.303 4.25586 35.8084 6.8047 35.8084 9.94906Z" fill="white"/>
<path d="M27.9961 9.09163C28.2225 9.09163 28.4488 9.13136 28.6674 9.21076C28.8859 9.29016 29.0732 9.4013 29.2449 9.56011C29.4088 9.71891 29.5415 9.90949 29.643 10.1398C29.7444 10.37 29.7913 10.64 29.7913 10.9497C29.7913 11.2355 29.7366 11.5055 29.6352 11.7596C29.5337 12.0137 29.3854 12.236 29.1981 12.4186C29.0108 12.6092 28.7844 12.7521 28.5191 12.8633C28.2537 12.9744 27.9649 13.03 27.6371 13.03C27.3093 13.03 27.0205 12.9744 26.763 12.8712C26.5054 12.768 26.2869 12.6171 26.0996 12.4266C25.92 12.236 25.7795 12.0057 25.6781 11.7437C25.5844 11.4737 25.5298 11.1799 25.5298 10.8544C25.5298 10.5606 25.5922 10.2668 25.7015 9.95712C25.8186 9.64745 25.9981 9.32985 26.24 8.99636L27.6918 7.01128C27.7386 6.93982 27.8166 6.88424 27.9103 6.8366C28.004 6.78895 28.121 6.76514 28.2459 6.76514H29.1747L27.3639 9.01225C27.3249 9.05989 27.2859 9.10752 27.2547 9.14722C27.2157 9.18692 27.1844 9.23458 27.1532 9.28222C27.2703 9.2187 27.3952 9.17104 27.5356 9.13927C27.6917 9.10751 27.84 9.09163 27.9961 9.09163ZM26.5366 11.0211C26.5366 11.1958 26.56 11.3467 26.6069 11.4896C26.6537 11.6325 26.7239 11.7516 26.8098 11.8549C26.9035 11.9581 27.0127 12.0296 27.1454 12.0851C27.2781 12.1407 27.4342 12.1645 27.6137 12.1645C27.7776 12.1645 27.9337 12.1328 28.0742 12.0772C28.2147 12.0216 28.3317 11.9422 28.4332 11.839C28.5347 11.7358 28.6127 11.6166 28.6674 11.4737C28.722 11.3387 28.7532 11.1879 28.7532 11.0211C28.7532 10.8465 28.7298 10.6876 28.6752 10.5447C28.6205 10.4018 28.5425 10.2827 28.4488 10.1874C28.3474 10.0842 28.2303 10.0127 28.0976 9.96507C27.9571 9.91743 27.8088 9.88566 27.6449 9.88566C27.481 9.88566 27.3249 9.91744 27.1922 9.97302C27.0595 10.0286 26.9425 10.108 26.841 10.2112C26.7473 10.3144 26.6693 10.4336 26.6147 10.5685C26.5678 10.7115 26.5366 10.8623 26.5366 11.0211Z" fill="black"/>
<path d="M34.7398 9.86177C34.7398 10.4017 34.6852 10.8702 34.5681 11.2672C34.451 11.6642 34.2949 11.9977 34.0998 12.2518C33.8969 12.5138 33.6627 12.7044 33.3895 12.8315C33.1164 12.9585 32.8198 13.022 32.4998 13.022C32.1798 13.022 31.891 12.9585 31.6178 12.8315C31.3447 12.7044 31.1105 12.5138 30.9076 12.2518C30.7125 11.9898 30.5564 11.6642 30.4393 11.2672C30.33 10.8702 30.2676 10.4017 30.2676 9.86177C30.2676 9.32183 30.3222 8.84541 30.4393 8.4484C30.5486 8.05139 30.7047 7.72584 30.9076 7.46381C31.1105 7.20178 31.3447 7.01121 31.6178 6.88416C31.891 6.75712 32.1798 6.6936 32.4998 6.6936C32.8198 6.6936 33.1164 6.75712 33.3895 6.88416C33.6627 7.01121 33.9047 7.20178 34.0998 7.46381C34.3027 7.72584 34.4588 8.05139 34.5681 8.4484C34.6852 8.85335 34.7398 9.32183 34.7398 9.86177ZM33.6705 9.86177C33.6705 9.40917 33.6393 9.04393 33.5768 8.75013C33.5144 8.45634 33.4286 8.21813 33.3193 8.05139C33.21 7.8767 33.0851 7.7576 32.9447 7.68614C32.8042 7.61468 32.6559 7.58291 32.5076 7.58291C32.3593 7.58291 32.211 7.61468 32.0783 7.68614C31.9378 7.7576 31.8208 7.8767 31.7115 8.05139C31.6022 8.22607 31.5164 8.45634 31.4539 8.75013C31.3915 9.04393 31.3603 9.41711 31.3603 9.86177C31.3603 10.3144 31.3915 10.6796 31.4539 10.9734C31.5164 11.2672 31.6022 11.5054 31.7115 11.6801C31.8208 11.8548 31.9378 11.9739 32.0783 12.0453C32.2188 12.1168 32.3593 12.1486 32.5076 12.1486C32.6559 12.1486 32.8042 12.1168 32.9447 12.0453C33.0851 11.9739 33.21 11.8548 33.3193 11.6801C33.4286 11.5054 33.5144 11.2752 33.5768 10.9734C33.6315 10.6876 33.6705 10.3144 33.6705 9.86177Z" fill="black"/>
<path d="M13.4556 38.1691L24.9522 17.7388L26.1463 18.4931L13.4556 38.1691Z" fill="#9FB603"/>
<defs>
<linearGradient id="paint0_linear_251_74432" x1="24.1834" y1="42.5425" x2="26.8955" y2="42.5425" gradientUnits="userSpaceOnUse">
<stop stop-color="#363B39"/>
<stop offset="1" stop-color="#1B1C1C"/>
</linearGradient>
<linearGradient id="paint1_linear_251_74432" x1="-0.000593917" y1="42.5039" x2="2.71059" y2="42.5039" gradientUnits="userSpaceOnUse">
<stop stop-color="#363B39"/>
<stop offset="1" stop-color="#1B1C1C"/>
</linearGradient>
</defs>
</svg>
