<svg width="50" height="50" viewBox="0 0 50 50" fill="none" xmlns="http://www.w3.org/2000/svg">
<path d="M2.5046 0.00925075C2.29961 17.9933 2.35817 29.1836 3.78333 33.4783C4.10546 34.441 4.89614 35.2277 5.98942 35.8756C6.22369 35.7738 6.50678 35.709 6.85819 35.709C8.81047 35.709 9.75732 36.9123 11.9244 36.5698C13.3495 36.3476 13.8278 37.4583 13.9938 38.2451C15.2725 38.4302 16.561 38.5783 17.7714 38.6801C17.9764 38.421 18.2985 38.2451 18.6597 38.2451H31.3104C31.6814 38.2451 32.0035 38.4117 32.2085 38.6801C33.1163 38.6061 34.0631 38.5043 35.0197 38.3747C35.1564 37.5879 35.6055 36.3199 37.1185 36.5605C39.2757 36.903 40.2323 35.6997 42.1846 35.6997C42.7996 35.6997 43.2096 35.8941 43.4926 36.1533C44.8592 35.4498 45.8451 34.5705 46.2161 33.4691C47.6412 29.1836 47.6998 17.9841 47.4948 0H2.5046V0.00925075Z" fill="#A8ABAA"/>
<path d="M3.84275 0.00927734C3.65728 16.7716 3.74513 27.2307 5.05315 31.2847C6.85901 36.866 24.9956 36.5698 24.9956 36.5698C24.9956 36.5698 43.1225 36.8753 44.9381 31.2847C46.2559 27.2307 46.334 16.7716 46.1486 0.00927734H3.84275Z" fill="#D2D6D5"/>
<path d="M40.2331 18.5024C40.1062 17.9285 39.9696 17.3546 39.8036 16.79C39.8036 16.79 39.5889 16.8918 39.1594 17.0585C37.5683 17.6601 33.0195 19.067 25.0054 19.067C17.6648 19.067 12.5889 17.6046 10.8611 17.0214C10.4316 16.8826 10.2071 16.79 10.2071 16.79C10.0412 17.3454 9.90453 17.8915 9.78739 18.4468C8.59651 23.8615 9.17242 29.0263 9.17242 29.0263C9.17242 29.0263 12.3937 30.3961 17.001 31.2014C20.5444 31.8215 29.4566 31.8215 33 31.2014C37.6073 30.4054 40.8286 29.0263 40.8286 29.0263C40.8286 29.0263 41.4045 23.8893 40.2331 18.5024ZM39.7255 27.6471C39.7255 27.6471 36.7288 29.017 32.4435 29.8223C29.1442 30.4424 20.8568 30.4424 17.5574 29.8223C13.2722 29.0263 10.2755 27.6471 10.2755 27.6471C10.2755 27.6471 9.83619 23.445 10.5683 18.6505C13.2722 19.3261 18.2993 20.2795 25.0054 20.2795C32.1995 20.2795 36.924 19.3909 39.4522 18.7245C40.155 23.482 39.7255 27.6471 39.7255 27.6471Z" fill="#1B1C1C"/>
<path d="M10.568 18.6411C9.84567 23.4356 10.2752 27.6378 10.2752 27.6378C10.2752 27.6378 13.2719 29.0076 17.5572 29.8129C20.8565 30.433 29.1537 30.433 32.4433 29.8129C36.7285 29.0169 39.7252 27.6378 39.7252 27.6378C39.7252 27.6378 40.1548 23.4727 39.4422 18.7152C36.914 19.3816 32.1895 20.2701 24.9953 20.2701C18.299 20.2794 13.2719 19.3168 10.568 18.6411Z" fill="#363B39"/>
<path d="M8.37197 0.00927734H5.02383C4.79931 5.47947 5.1019 18.5487 5.1019 18.5487C5.1019 18.5487 5.85355 17.8082 7.25919 15.1426C8.49889 12.8101 8.78196 11.394 8.78196 11.394L8.41103 0.0185281L8.37197 0.00927734Z" fill="#363B39"/>
<path d="M41.6287 0.00927734L41.5799 0.027793L41.209 11.4032C41.209 11.4032 41.4921 12.8193 42.7318 15.1518C44.1472 17.8082 44.889 18.558 44.889 18.558C44.889 18.558 45.1916 5.47947 44.9671 0.0185281H41.6287V0.00927734Z" fill="#363B39"/>
<path d="M11.9247 36.5698C9.76742 36.9122 8.8108 35.709 6.85852 35.709C6.50711 35.709 6.22402 35.7738 5.98975 35.8756C7.97131 37.0603 10.9583 37.7915 13.9843 38.2451C13.8281 37.4583 13.3401 36.3476 11.9247 36.5698Z" fill="#93091A"/>
<path d="M37.1187 36.5698C35.6057 36.3291 35.1567 37.5972 35.02 38.3839C38.1144 37.9767 41.2868 37.301 43.4929 36.1625C43.2098 35.8941 42.7999 35.709 42.1849 35.709C40.2326 35.709 39.2858 36.9122 37.1187 36.5698Z" fill="#93091A"/>
<path d="M9.55273 0.00927734C9.70892 6.59017 9.95295 13.06 10.3727 14.3003C10.9779 16.1144 18.3673 16.9197 23.0625 17.2529H26.9377C31.633 16.9197 39.0223 16.1237 39.6275 14.3003C40.0375 13.06 40.2913 6.59017 40.4475 0.00927734H9.55273Z" fill="#D2D6D5"/>
<path d="M27.0448 35.6814C38.4363 35.3482 43.4732 32.2845 43.4732 32.2845L41.2183 29.7114C34.112 33.4785 25.0047 32.7103 25.0047 32.7103C24.9949 32.7103 15.8973 33.4785 8.79101 29.7114L6.53613 32.2845C6.53613 32.2845 11.573 35.3482 22.9646 35.6814C23.56 35.6999 25.0047 35.7092 25.0047 35.7092C25.7661 35.7092 26.4494 35.6999 27.0448 35.6814Z" fill="#BABDBC"/>
<path d="M2.44657 8.43213C2.17325 8.43213 1.9585 8.63576 1.9585 8.89492V12.7176C1.9585 12.9767 2.17325 13.1804 2.44657 13.1804V8.43213Z" fill="#595959"/>
<path d="M47.5537 8.43213C47.8173 8.43213 48.0418 8.63576 48.0418 8.89492V12.7176C48.0418 12.9767 47.827 13.1804 47.5537 13.1804V8.43213Z" fill="#595959"/>
<path d="M31.3208 38.2451H18.6603C18.2893 38.2451 17.9672 38.4117 17.772 38.6801C21.7449 39.0226 24.9954 38.9671 25.0052 38.9671C25.0052 38.9671 28.2557 39.0226 32.2188 38.6801C32.0138 38.421 31.6917 38.2451 31.3208 38.2451Z" fill="#1B1C1C"/>
<path d="M40.8087 41.9937C39.3445 41.9937 37.8998 41.4754 36.7968 40.5128C36.6211 40.3554 36.6113 40.0963 36.7675 39.9204C36.9334 39.7538 37.2067 39.7445 37.3922 39.8926C38.71 41.0404 40.5842 41.4476 42.2924 40.9478C44.0007 40.448 45.3087 39.1059 45.7089 37.4584C45.7675 37.2362 45.992 37.0974 46.236 37.1437C46.4703 37.1992 46.6167 37.4213 46.5679 37.6435C46.0994 39.5872 44.5668 41.1607 42.556 41.7438C41.98 41.9197 41.3944 41.9937 40.8087 41.9937Z" fill="#0073E6"/>
<path d="M24.9465 43.8448C22.8575 43.8448 20.9052 42.7804 19.851 41.068C19.7241 40.8737 19.8022 40.6145 20.0072 40.4942C20.222 40.3738 20.4855 40.4479 20.6124 40.6422C21.5104 42.1047 23.1699 43.0025 24.9562 43.0025C24.966 43.0025 24.966 43.0025 24.9757 43.0025C26.7621 42.9932 28.4215 42.0769 29.3195 40.6052C29.4464 40.4016 29.71 40.3368 29.915 40.4479C30.1297 40.559 30.1981 40.8181 30.0809 41.0125C29.0365 42.7433 27.0842 43.817 24.9855 43.8263C24.966 43.8448 24.9562 43.8448 24.9465 43.8448Z" fill="#0073E6"/>
<path d="M24.9371 49.9816C21.5011 49.9816 18.2993 48.2323 16.5618 45.4185C16.3568 45.0945 16.4739 44.6688 16.8254 44.4836C17.167 44.2893 17.6063 44.4003 17.8113 44.7336C19.2852 47.1308 22.0184 48.621 24.9371 48.621C24.9468 48.621 24.9566 48.621 24.9663 48.621C27.9045 48.6117 30.6279 47.103 32.0921 44.6873C32.2874 44.3633 32.7364 44.243 33.078 44.4374C33.4197 44.6225 33.5466 45.039 33.3416 45.3722C31.6236 48.2137 28.4121 49.9816 24.9663 50.0001C24.9663 49.9816 24.9566 49.9816 24.9371 49.9816Z" fill="#0073E6"/>
<path d="M42.0386 47.1862C40.0083 47.1862 38.0072 46.4735 36.4747 45.1314C36.2111 44.9 36.1916 44.502 36.4356 44.2521C36.6796 44.0022 37.0994 43.9837 37.363 44.2151C39.1591 45.7886 41.7165 46.3347 44.0397 45.6498C46.3727 44.9648 48.1493 43.1414 48.6959 40.883C48.774 40.5498 49.1254 40.3369 49.4866 40.411C49.838 40.485 50.0625 40.8182 49.9844 41.1607C49.3402 43.8449 47.2122 46.0293 44.44 46.8438C43.659 47.0752 42.8488 47.1862 42.0386 47.1862Z" fill="#0073E6"/>
<path d="M9.19148 41.9939C8.60579 41.9939 8.02011 41.9105 7.45395 41.7439C5.45287 41.1516 3.91059 39.5873 3.44204 37.6436C3.38347 37.4215 3.53965 37.1993 3.77392 37.1438C4.0082 37.0883 4.24248 37.2364 4.30105 37.4585C4.70126 39.1153 6.00929 40.4481 7.71753 40.9479C9.42577 41.4478 11.2999 41.0405 12.6177 39.8928C12.7934 39.7354 13.0765 39.7447 13.2424 39.9205C13.4084 40.0964 13.3986 40.3556 13.2132 40.5129C12.1004 41.4755 10.6557 41.9939 9.19148 41.9939Z" fill="#0073E6"/>
<path d="M7.96176 47.1862C7.15157 47.1862 6.34135 47.0751 5.56044 46.8437C2.78821 46.0292 0.660234 43.8541 0.0159834 41.1606C-0.0621076 40.8274 0.152652 40.485 0.513823 40.4109C0.865233 40.3369 1.2264 40.5405 1.30449 40.883C1.85113 43.1414 3.62769 44.9648 5.96066 45.6497C8.28387 46.3346 10.8511 45.7793 12.6374 44.2151C12.901 43.9837 13.3207 43.9929 13.5648 44.2521C13.8088 44.502 13.799 44.9 13.5257 45.1314C11.9834 46.4735 9.98237 47.1862 7.96176 47.1862Z" fill="#0073E6"/>
</svg>
