<svg width="50" height="50" viewBox="0 0 50 50" fill="none" xmlns="http://www.w3.org/2000/svg">
<path d="M15.0811 14.9837L18.9428 14.8618L18.8453 14.9106L19.7965 13.4553L19.9428 13.2358L20.081 13.4715L21.1867 15.3333L20.8371 15.3252L23.2111 11.3821L23.6014 10.7317L23.7233 11.4878L24.9022 18.8862L24.2843 18.8211C24.7802 17.4878 25.3087 16.1707 25.8209 14.8455L25.9754 14.4471L26.3087 14.7154L27.3981 15.5935L26.951 15.6748C27.7315 14.3658 28.4794 13.0488 29.2762 11.7561L29.577 11.2683L29.7396 11.8049L31.5119 17.5935L31.2355 17.561L32.951 14.9512L32.9754 14.9187H33.016L34.9347 15.0569L33.0079 15.0488L33.0648 15.0163L31.4957 17.7236L31.3331 18.0081L31.2193 17.691L29.2518 11.9675L29.7152 12.0163C28.9835 13.3496 28.2193 14.6585 27.4713 15.9837L27.3006 16.2845L27.0241 16.065L25.9266 15.2032L26.4144 15.0731C25.9103 16.3984 25.4144 17.7317 24.8941 19.0569L24.455 20.1707L24.2843 18.9919L23.1867 11.5772L23.6989 11.6829L21.203 15.5447L21.016 15.8293L20.8534 15.5366L19.8128 13.6423L20.0973 13.6504L19.0729 15.0488L19.0323 15.1057H18.9754L15.0811 14.9837Z" fill="#DF4019"/>
<path d="M44.0977 23.5202C44.0977 23.5202 45.9107 23.9511 45.5773 21.0568C45.2521 18.1625 47.057 20.7153 47.057 20.7153L47.0895 25.5527L44.7643 24.8942L44.0977 23.5202Z" fill="#363B39"/>
<path d="M5.99186 23.187C5.99186 23.187 4.17886 23.6179 4.5122 20.7236C4.8374 17.8292 3.03251 20.3821 3.03251 20.3821L3 25.2195L5.3252 24.561L5.99186 23.187Z" fill="#363B39"/>
<path d="M8.74794 33.2441C8.74794 33.2441 6.96745 33.7969 8.72355 36.1221C10.4797 38.4473 7.62599 37.1709 7.62599 37.1709L5.13818 33.0246L7.47965 32.4148L8.74794 33.2441Z" fill="#363B39"/>
<path d="M41.2279 33.2441C41.2279 33.2441 43.0003 33.7969 41.2523 36.1221C39.4962 38.4473 42.3499 37.1709 42.3499 37.1709L44.8377 33.0246L42.4962 32.4148L41.2279 33.2441Z" fill="#363B39"/>
<path d="M14.0814 20.1626C7.59359 21.6748 2.74806 24.4715 1.09766 27.8293C2.4066 30.0569 3.1627 32.626 3.1627 35.3496C3.1627 35.4146 3.1627 35.4797 3.15457 35.5447C3.35782 35.7317 3.56921 35.9106 3.78872 36.0894C6.56108 33.878 10.8944 32.1382 16.0814 31.187C14.496 29.1138 13.5448 26.5366 13.5448 23.7236C13.553 22.4797 13.7399 21.2845 14.0814 20.1626Z" fill="#363B39"/>
<path d="M48.4792 27.8535C46.967 24.7072 42.6581 22.0568 36.8207 20.4714C37.0971 21.4958 37.2597 22.5771 37.2597 23.6909C37.2597 26.6015 36.2435 29.2682 34.5605 31.3739C39.2597 32.3657 43.1784 34.008 45.7475 36.0568C45.9914 35.8617 46.2272 35.6584 46.4467 35.4552C46.4467 35.4145 46.4467 35.3658 46.4467 35.317C46.4467 32.6178 47.1947 30.0649 48.4792 27.8535Z" fill="#363B39"/>
<path d="M25.0002 18.9351L29.2604 46.4798H20.7319L25.0002 18.9351Z" fill="#363B39"/>
<path d="M36.8701 20.5042C33.2034 19.5123 28.927 18.9351 24.366 18.9351C20.3498 18.9351 16.5693 19.3741 13.2116 20.1627C12.8701 21.2928 12.6831 22.4879 12.6831 23.7237C12.6831 26.5367 13.6343 29.1139 15.2197 31.1871C17.4717 34.1302 21.0083 36.0408 25.0002 36.0408C28.8945 36.0408 32.3579 34.2278 34.6181 31.4066C36.301 29.3009 37.3173 26.6343 37.3173 23.7237C37.3173 22.6099 37.1546 21.5286 36.8701 20.5042Z" fill="#231F20"/>
<path d="M24.3658 20.9023C21.0325 20.9023 17.8293 21.2113 14.8293 21.821C14.7073 22.4471 14.6504 23.0812 14.6504 23.7235C14.6504 25.9999 15.3902 28.1625 16.7805 29.9918C18.7642 32.5853 21.7561 34.0731 25 34.0731V20.9267C24.7886 20.9186 24.5772 20.9023 24.3658 20.9023Z" fill="#F7F7F7"/>
<path d="M35.2114 22.1137C32.065 21.3658 28.5691 20.9674 25 20.9268V34.0731C28.1545 34.0731 31.0976 32.6503 33.0813 30.1788C34.561 28.3251 35.3496 26.0975 35.3496 23.7316C35.3415 23.1951 35.3008 22.6503 35.2114 22.1137Z" fill="#D2D6D5"/>
<path d="M30.1545 25.8862C30.1545 23.8537 28.561 22.187 26.6016 22.187C26.0407 22.187 25.4878 22.3252 25 22.5854V32.7886C26.8618 32.7968 30.1545 27.3252 30.1545 25.8862Z" fill="#F7F7F7"/>
<path d="M25.0002 22.5934C24.5124 22.3333 23.9595 22.1951 23.3985 22.1951C21.4392 22.1951 19.8457 23.8536 19.8457 25.8943C19.8457 27.3333 23.1384 32.8048 25.0002 32.8048V22.5934Z" fill="#D2D6D5"/>
<path d="M26.6018 23.6587C25.9514 23.6587 25.3823 23.9839 25.0001 24.4717C24.618 23.9839 24.0489 23.6587 23.3985 23.6587C22.244 23.6587 21.3091 24.6587 21.3091 25.8945C21.3091 27.1221 24.3985 31.3416 25.0001 31.3416C25.6018 31.3416 28.6912 27.1221 28.6912 25.8945C28.6912 24.6587 27.7481 23.6587 26.6018 23.6587Z" fill="#DF4019"/>
<path d="M41.8374 6.53662C40.5447 7.11386 39.0894 7.62605 37.4959 8.05694C42.6911 11.8943 46.065 18.057 46.065 25C46.065 36.6098 36.6179 46.0651 25 46.0651C13.3821 46.0651 3.93496 36.6179 3.93496 25C3.93496 18.0651 7.30893 11.8943 12.5041 8.05694C10.9106 7.62605 9.45528 7.11386 8.1626 6.53662C3.15447 11.1139 0 17.6911 0 25C0 38.7887 11.2114 50 25 50C38.7805 50 50 38.7887 50 25C50 17.6911 46.8455 11.1057 41.8374 6.53662Z" fill="#231F20"/>
<path d="M25 3.93496C29.6748 3.93496 34 5.46341 37.4959 8.0569C39.0894 7.62601 40.5447 7.11382 41.8374 6.53658C37.3902 2.47967 31.4797 0 25 0C18.5203 0 12.6098 2.47967 8.1626 6.53658C9.45528 7.11382 10.9106 7.62601 12.5041 8.0569C16 5.46341 20.3252 3.93496 25 3.93496Z" fill="#363B39"/>
<path d="M48.0324 27.0487C48.3871 27.0487 48.6747 26.7611 48.6747 26.4064C48.6747 26.0517 48.3871 25.7642 48.0324 25.7642C47.6777 25.7642 47.3901 26.0517 47.3901 26.4064C47.3901 26.7611 47.6777 27.0487 48.0324 27.0487Z" fill="#DF4019"/>
<path d="M46.5446 33.9918C46.8993 33.9918 47.1869 33.7043 47.1869 33.3496C47.1869 32.9948 46.8993 32.7073 46.5446 32.7073C46.1899 32.7073 45.9023 32.9948 45.9023 33.3496C45.9023 33.7043 46.1899 33.9918 46.5446 33.9918Z" fill="#DF4019"/>
<path d="M47.0814 32.4308C47.0326 32.4308 46.9838 32.4227 46.9351 32.4064C46.7237 32.3251 46.618 32.0893 46.6993 31.878C47.4716 29.8617 47.6261 27.7804 47.6261 27.7641C47.6424 27.5446 47.8375 27.3658 48.057 27.3902C48.2847 27.4064 48.4473 27.6016 48.4391 27.8211C48.431 27.9105 48.2765 30.0487 47.4635 32.1707C47.3985 32.3251 47.244 32.4308 47.0814 32.4308Z" fill="#DF4019"/>
<path d="M1.95967 27.0487C2.31439 27.0487 2.60194 26.7611 2.60194 26.4064C2.60194 26.0517 2.31439 25.7642 1.95967 25.7642C1.60495 25.7642 1.31738 26.0517 1.31738 26.4064C1.31738 26.7611 1.60495 27.0487 1.95967 27.0487Z" fill="#DF4019"/>
<path d="M3.45527 33.9918C3.80999 33.9918 4.09754 33.7043 4.09754 33.3496C4.09754 32.9948 3.80999 32.7073 3.45527 32.7073C3.10055 32.7073 2.81299 32.9948 2.81299 33.3496C2.81299 33.7043 3.10055 33.9918 3.45527 33.9918Z" fill="#DF4019"/>
<path d="M2.91075 32.4308C2.95953 32.4308 3.0083 32.4227 3.05708 32.4064C3.26847 32.3251 3.37416 32.0893 3.29286 31.878C2.52051 29.8617 2.36603 27.7804 2.36603 27.7641C2.34977 27.5446 2.15464 27.3658 1.93513 27.3902C1.70749 27.4064 1.5449 27.6016 1.55303 27.8211C1.56116 27.9105 1.71563 30.0487 2.52863 32.1707C2.59367 32.3251 2.74815 32.4308 2.91075 32.4308Z" fill="#DF4019"/>
</svg>
