<svg width="30" height="50" viewBox="0 0 30 50" fill="none" xmlns="http://www.w3.org/2000/svg">
<path d="M18.273 13.4037L15.389 17.3571L12.4971 13.4037V10.3574H18.273V13.4037Z" fill="#DBB8A5"/>
<path d="M19.775 2.00382C19.1711 0.974851 16.7956 -0.00673475 15.3973 3.4813e-05C13.9911 3.4813e-05 11.6235 1.00193 11.0038 2.0309C10.3046 3.19527 10.3205 6.11295 10.7019 7.41947C10.972 8.34013 12.4656 10.9126 12.4656 10.9126C12.4656 10.9126 14.5313 11.9618 15.3099 11.9889C16.0965 12.0092 18.2575 11.0683 18.2575 11.0683C18.2575 11.0683 19.6399 8.36721 19.91 7.41947C20.2914 6.09941 20.4662 3.17496 19.775 2.00382Z" fill="#EDD0B9"/>
<path d="M18.6465 13.1194L15.397 15.7392L12.1476 13.1194L6.16504 15.0081L7.07076 18.5621L7.15021 18.887L7.26144 19.3271L7.34883 19.652L7.46006 20.0988L7.53951 20.4237L8.38962 23.7476L9.66875 30.815H15.397H21.1253L22.4044 23.7476L23.2466 20.4237L23.334 20.0988L23.4452 19.652L23.5247 19.3271L23.6439 18.887L23.7233 18.5621L24.6211 15.0081L18.6465 13.1194Z" fill="#756654"/>
<path d="M21.1171 30.8149H9.66846V32.2365H21.1171V30.8149Z" fill="#3C2415"/>
<path d="M3.03497 32.9746L0.174805 30.8354C0.57205 30.4496 10.0424 21.507 30 28.5338L28.5461 31.5327C11.2421 25.4401 3.36866 32.6632 3.03497 32.9746Z" fill="black"/>
<path d="M18.9328 34.6533L18.2734 30.1719L15.3973 30.6525V30.6796V30.6525L12.5212 30.1719L11.8618 34.6533L15.4291 34.3758L18.9328 34.6533Z" fill="#7B7D7C"/>
<path d="M23.0879 29.1701C23.0879 29.2987 23.0244 29.8538 22.9449 29.9689C22.6828 30.348 22.0551 30.1788 21.2845 30.1788C20.2913 30.1788 19.481 29.732 19.481 29.1769C19.481 28.6218 20.2913 28.4255 21.2845 28.4255C22.2776 28.4187 23.0879 28.615 23.0879 29.1701Z" fill="#DBB8A5"/>
<path d="M22.8181 28.9263C22.8181 28.9263 24.3991 25.8056 24.6295 24.6954C25.1221 22.3125 24.6216 15.0149 24.6216 15.0149L22.3732 21.0466L21.7535 26.1914L20.522 28.5066C20.514 28.642 22.8181 28.9263 22.8181 28.9263Z" fill="#DBB8A5"/>
<path d="M24.6211 15.0083L26.2975 22.8407L21.7212 23.3687L24.0093 15.0963L24.5655 15.0557L24.6211 15.0083Z" fill="#EF4E00"/>
<path d="M1.62871 33.6989L0 30.7677C17.0577 23.883 25.2013 6.43786 25.3125 6.27539L28.562 7.96101C28.0773 8.64474 19.7113 26.4013 1.62871 33.6989Z" fill="#231F20"/>
<path d="M7.70654 29.1701C7.70654 29.2987 7.7701 29.8538 7.84955 29.9689C8.11173 30.348 8.73938 30.1788 9.51004 30.1788C10.5032 30.1788 11.3135 29.732 11.3135 29.1769C11.3135 28.6218 10.5032 28.4255 9.51004 28.4255C8.51692 28.4187 7.70654 28.615 7.70654 29.1701Z" fill="#DBB8A5"/>
<path d="M7.97657 28.9263C7.97657 28.9263 6.39553 25.8056 6.16513 24.6954C5.67254 22.3125 6.17307 15.0149 6.17307 15.0149L8.42148 21.0466L9.04119 26.1914L10.2726 28.5066C10.2806 28.642 7.97657 28.9263 7.97657 28.9263Z" fill="#DBB8A5"/>
<path d="M6.16501 15.0083L4.49658 22.8407L9.07285 23.3687L6.78472 15.0963L6.22857 15.0557L6.16501 15.0083Z" fill="#EF4E00"/>
<path d="M9.41436 45.7757L6.93555 48.1992L7.26129 49.9999H10.2089L12.5923 47.2718L12.8227 47.2853L13.2835 46.8859L12.9181 45.4846L9.41436 45.7757Z" fill="#362100"/>
<path d="M6.73704 30.8422C4.64753 34.403 9.28736 45.9113 9.28736 45.9113L13.0135 45.4713L12.37 33.699C12.37 33.699 13.0691 30.9235 12.513 30.1721C12.0363 29.5222 9.97856 29.2243 9.08079 29.2446C8.27041 29.2717 7.10251 30.2194 6.73704 30.8422Z" fill="#D2D6D5"/>
<path d="M21.3794 45.7757L23.8503 48.1992L23.5325 49.9999H20.5849L18.1935 47.2718L17.9711 47.2853L17.5103 46.8859L17.8678 45.4846L21.3794 45.7757Z" fill="#362100"/>
<path d="M24.0494 30.8422C26.1389 34.403 21.4991 45.9113 21.4991 45.9113L17.7729 45.4713L18.4165 33.699C18.4165 33.699 17.7173 30.9235 18.2735 30.1721C18.7502 29.5222 20.8079 29.2243 21.7057 29.2446C22.524 29.2717 23.684 30.2194 24.0494 30.8422Z" fill="#D2D6D5"/>
</svg>
