<svg width="50" height="30" viewBox="0 0 50 30" fill="none" xmlns="http://www.w3.org/2000/svg">
<path d="M49.2543 16.7539C49.2543 7.49999 38.2321 0 24.6272 0C11.029 0 0 7.49999 0 16.7539C0 16.7812 0 16.8016 0 16.8289H49.2476C49.2543 16.8016 49.2543 16.7743 49.2543 16.7539Z" fill="#362100"/>
<path d="M23.3661 10.2708C23.3661 10.8577 23.3051 11.3627 23.1831 11.7927C23.061 12.2226 22.8848 12.5775 22.6679 12.8573C22.451 13.1371 22.1866 13.3486 21.8883 13.4851C21.5901 13.6216 21.2647 13.6898 20.919 13.6898C20.5733 13.6898 20.2479 13.6216 19.9564 13.4851C19.6581 13.3486 19.4005 13.1371 19.1836 12.8573C18.9667 12.5775 18.7972 12.2226 18.6752 11.7927C18.5532 11.3627 18.4922 10.8577 18.4922 10.2708C18.4922 9.68392 18.5532 9.17892 18.6752 8.74899C18.7972 8.31905 18.9667 7.96418 19.1836 7.68438C19.4005 7.40458 19.6581 7.19303 19.9564 7.05654C20.2547 6.92005 20.5733 6.85181 20.919 6.85181C21.2647 6.85181 21.5901 6.92005 21.8883 7.05654C22.1866 7.19303 22.4442 7.40458 22.6679 7.68438C22.8848 7.96418 23.061 8.31905 23.1831 8.74899C23.3051 9.17892 23.3661 9.68392 23.3661 10.2708ZM22.1934 10.2708C22.1934 9.78629 22.1595 9.38365 22.0849 9.06973C22.0171 8.74899 21.9222 8.49648 21.8002 8.31223C21.685 8.12114 21.5426 7.99148 21.3935 7.91641C21.2376 7.84134 21.0817 7.8004 20.9122 7.8004C20.7495 7.8004 20.5936 7.84134 20.4377 7.91641C20.2886 7.99148 20.153 8.12114 20.0377 8.31223C19.9225 8.50331 19.8276 8.75581 19.7598 9.06973C19.692 9.39048 19.6581 9.78629 19.6581 10.2708C19.6581 10.7554 19.692 11.158 19.7598 11.4787C19.8276 11.7995 19.9225 12.052 20.0377 12.2362C20.153 12.4273 20.2886 12.557 20.4377 12.6321C20.5868 12.7071 20.7495 12.7481 20.9122 12.7481C21.0749 12.7481 21.2376 12.7071 21.3935 12.6321C21.5494 12.557 21.685 12.4273 21.8002 12.2362C21.9154 12.0452 22.0103 11.7927 22.0849 11.4787C22.1595 11.158 22.1934 10.7554 22.1934 10.2708Z" fill="#0073E6"/>
<path d="M23.9287 12.9937C23.9287 12.8981 23.949 12.8094 23.9829 12.7207C24.0168 12.632 24.0711 12.5569 24.1321 12.4955C24.1931 12.4341 24.2677 12.3863 24.3558 12.3454C24.4439 12.3112 24.532 12.2908 24.6337 12.2908C24.7286 12.2908 24.8167 12.3112 24.9049 12.3454C24.993 12.3795 25.0675 12.4341 25.1285 12.4955C25.1895 12.5569 25.237 12.632 25.2777 12.7207C25.3116 12.8094 25.3319 12.8981 25.3319 12.9937C25.3319 13.096 25.3116 13.1848 25.2777 13.2667C25.2438 13.3485 25.1895 13.4236 25.1285 13.485C25.0675 13.5465 24.993 13.5942 24.9049 13.6283C24.8167 13.6625 24.7286 13.6829 24.6337 13.6829C24.5388 13.6829 24.4439 13.6625 24.3558 13.6283C24.2677 13.5942 24.1931 13.5465 24.1321 13.485C24.0711 13.4236 24.0168 13.3485 23.9829 13.2667C23.949 13.1848 23.9287 13.0892 23.9287 12.9937Z" fill="#0073E6"/>
<path d="M28.5382 6.85181C28.8432 6.85181 29.1212 6.89275 29.372 6.98147C29.616 7.07019 29.8262 7.19302 30.0024 7.34998C30.1787 7.50694 30.3142 7.69121 30.4024 7.89594C30.4973 8.10749 30.5447 8.3327 30.5447 8.57838C30.5447 8.78993 30.5176 8.98102 30.4701 9.13798C30.4227 9.30177 30.3549 9.43825 30.26 9.56109C30.1719 9.68393 30.0567 9.78629 29.9279 9.86818C29.7991 9.95008 29.6499 10.0183 29.4805 10.0797C29.8804 10.2094 30.1787 10.4005 30.3753 10.6598C30.5718 10.9191 30.6667 11.2467 30.6667 11.6357C30.6667 11.9701 30.6057 12.2635 30.4837 12.5229C30.3617 12.7822 30.199 12.9938 29.9889 13.1712C29.7787 13.3486 29.5415 13.4783 29.2635 13.567C28.9856 13.6557 28.7009 13.7035 28.3891 13.7035C28.0569 13.7035 27.7654 13.6625 27.5146 13.5875C27.2638 13.5124 27.0469 13.3964 26.8639 13.2463C26.6808 13.0961 26.5249 12.9119 26.3961 12.6935C26.2673 12.4751 26.1589 12.2226 26.064 11.936L26.5656 11.7244C26.6537 11.6903 26.7418 11.6698 26.83 11.6698C26.9113 11.6698 26.9791 11.6835 27.0469 11.7176C27.1079 11.7517 27.1553 11.7995 27.1892 11.8677C27.2435 11.9769 27.3045 12.0793 27.3723 12.1885C27.44 12.2908 27.5146 12.3864 27.6095 12.4683C27.7044 12.5502 27.8061 12.6184 27.9349 12.6662C28.0569 12.714 28.2061 12.7413 28.3823 12.7413C28.5789 12.7413 28.7416 12.7071 28.8907 12.6457C29.0331 12.5843 29.1551 12.5024 29.25 12.4C29.3449 12.2977 29.4195 12.1817 29.4669 12.0588C29.5144 11.936 29.5415 11.8063 29.5415 11.6835C29.5415 11.5265 29.5211 11.3764 29.4872 11.2467C29.4533 11.1171 29.3856 11.001 29.2771 10.9123C29.1686 10.8168 29.0127 10.7485 28.8161 10.6939C28.6128 10.6393 28.3484 10.612 28.0095 10.612V9.79312C28.2874 9.79312 28.5179 9.76582 28.7009 9.71805C28.8839 9.67028 29.0331 9.60203 29.1415 9.51331C29.25 9.4246 29.3245 9.32224 29.372 9.1994C29.4127 9.07656 29.4398 8.94007 29.4398 8.78993C29.4398 8.46918 29.3517 8.23033 29.1822 8.06655C29.0127 7.90276 28.7755 7.82087 28.4772 7.82087C28.206 7.82087 27.9824 7.89594 27.8061 8.03925C27.6299 8.18257 27.5011 8.36682 27.4333 8.59203C27.3994 8.70804 27.3452 8.78993 27.2842 8.84453C27.2164 8.8923 27.135 8.9196 27.0333 8.9196C26.9859 8.9196 26.9317 8.91277 26.8774 8.90594L26.2809 8.80358C26.3283 8.48284 26.4165 8.20303 26.5452 7.95735C26.674 7.71168 26.8435 7.51377 27.0401 7.34998C27.2367 7.1862 27.4672 7.06336 27.718 6.98147C27.9688 6.89275 28.2467 6.85181 28.5382 6.85181Z" fill="#0073E6"/>
<path d="M32.4771 14.8635H16.8589V9.17197C16.8589 6.56505 18.7027 5.19336 22.2005 5.19336H27.1355C30.6265 5.19336 32.4771 6.57188 32.4771 9.17197V14.8635ZM17.1165 14.5974H32.2127V9.17197C32.2127 6.10099 29.4538 5.45268 27.1355 5.45268H22.2005C19.8822 5.45268 17.1232 6.10099 17.1232 9.17197V14.5974H17.1165Z" fill="#BDBBC9"/>
<path d="M34.7001 14.2017C34.7001 14.4951 34.4628 14.734 34.1713 14.734C33.8798 14.734 33.6426 14.4951 33.6426 14.2017V7.96419C33.6426 7.67074 33.8798 7.43188 34.1713 7.43188C34.4628 7.43188 34.7001 7.67074 34.7001 7.96419V14.2017Z" fill="#0073E6"/>
<path d="M36.5238 14.2014C36.5238 14.4949 36.2865 14.7337 35.995 14.7337C35.7036 14.7337 35.4663 14.4949 35.4663 14.2014V8.54402C35.4663 8.25057 35.7036 8.01172 35.995 8.01172C36.2865 8.01172 36.5238 8.25057 36.5238 8.54402V14.2014Z" fill="#0073E6"/>
<path d="M38.3407 14.2014C38.3407 14.4949 38.1034 14.7337 37.8119 14.7337C37.5205 14.7337 37.2832 14.4949 37.2832 14.2014V9.1241C37.2832 8.83065 37.5205 8.5918 37.8119 8.5918C38.1034 8.5918 38.3407 8.83065 38.3407 9.1241V14.2014Z" fill="#0073E6"/>
<path d="M40.1639 14.2015C40.1639 14.4949 39.9267 14.7338 39.6352 14.7338C39.3437 14.7338 39.1064 14.4949 39.1064 14.2015V9.70418C39.1064 9.41073 39.3437 9.17188 39.6352 9.17188C39.9267 9.17188 40.1639 9.41073 40.1639 9.70418V14.2015Z" fill="#0073E6"/>
<path d="M41.9808 14.2015C41.9808 14.4949 41.7436 14.7338 41.4521 14.7338C41.1606 14.7338 40.9233 14.4949 40.9233 14.2015V10.2843C40.9233 9.99081 41.1606 9.75195 41.4521 9.75195C41.7436 9.75195 41.9808 9.99081 41.9808 10.2843V14.2015Z" fill="#0073E6"/>
<path d="M43.8041 14.2017C43.8041 14.4951 43.5668 14.734 43.2753 14.734C42.9838 14.734 42.7466 14.4951 42.7466 14.2017V11.4378C42.7466 11.1444 42.9838 10.9055 43.2753 10.9055C43.5668 10.9055 43.8041 11.1444 43.8041 11.4378V14.2017Z" fill="#0073E6"/>
<path d="M45.621 14.2017C45.621 14.4952 45.3837 14.734 45.0922 14.734C44.8007 14.734 44.5635 14.4952 44.5635 14.2017V12.598C44.5635 12.3045 44.8007 12.0657 45.0922 12.0657C45.3837 12.0657 45.621 12.3045 45.621 12.598V14.2017Z" fill="#9FB603"/>
<path d="M14.6284 14.2017C14.6284 14.4951 14.8657 14.734 15.1572 14.734C15.4486 14.734 15.6859 14.4951 15.6859 14.2017V7.96419C15.6859 7.67074 15.4486 7.43188 15.1572 7.43188C14.8657 7.43188 14.6284 7.67074 14.6284 7.96419V14.2017Z" fill="#0073E6"/>
<path d="M12.8052 14.2014C12.8052 14.4949 13.0424 14.7337 13.3339 14.7337C13.6254 14.7337 13.8627 14.4949 13.8627 14.2014V8.54402C13.8627 8.25057 13.6254 8.01172 13.3339 8.01172C13.0424 8.01172 12.8052 8.25057 12.8052 8.54402V14.2014Z" fill="#0073E6"/>
<path d="M10.9883 14.2014C10.9883 14.4949 11.2255 14.7337 11.517 14.7337C11.8085 14.7337 12.0458 14.4949 12.0458 14.2014V9.1241C12.0458 8.83065 11.8085 8.5918 11.517 8.5918C11.2255 8.5918 10.9883 8.83065 10.9883 9.1241V14.2014Z" fill="#0073E6"/>
<path d="M9.16504 14.2015C9.16504 14.4949 9.40229 14.7338 9.69378 14.7338C9.98527 14.7338 10.2225 14.4949 10.2225 14.2015V9.70418C10.2225 9.41073 9.98527 9.17188 9.69378 9.17188C9.40229 9.17188 9.16504 9.41073 9.16504 9.70418V14.2015Z" fill="#0073E6"/>
<path d="M7.34814 14.2015C7.34814 14.4949 7.58541 14.7338 7.8769 14.7338C8.16838 14.7338 8.40564 14.4949 8.40564 14.2015V10.2843C8.40564 9.99081 8.16838 9.75195 7.8769 9.75195C7.58541 9.75195 7.34814 9.99081 7.34814 10.2843V14.2015Z" fill="#0073E6"/>
<path d="M5.53174 14.2017C5.53174 14.4951 5.76899 14.734 6.06048 14.734C6.35197 14.734 6.58922 14.4951 6.58922 14.2017V11.4378C6.58922 11.1444 6.35197 10.9055 6.06048 10.9055C5.76899 10.9055 5.53174 11.1444 5.53174 11.4378V14.2017Z" fill="#0073E6"/>
<path d="M3.70801 14.2017C3.70801 14.4952 3.94526 14.734 4.23675 14.734C4.52823 14.734 4.76549 14.4952 4.76549 14.2017V12.598C4.76549 12.3045 4.52823 12.0657 4.23675 12.0657C3.94526 12.0657 3.70801 12.3045 3.70801 12.598V14.2017Z" fill="#9FB603"/>
<path d="M45.621 15.7439H3.70801V16.0305H45.621V15.7439Z" fill="#BDBBC9"/>
<path d="M24.6272 0C11.029 0 0 7.49999 0 16.7539C0 16.7812 0 16.8016 0 16.8289H0.338937C2.28444 8.89899 12.4119 2.85941 24.6204 2.85941C24.6339 2.85941 24.6475 2.85941 24.6543 2.85941V0.00682064C24.6543 -3.7486e-06 24.6407 0 24.6272 0Z" fill="#D2D6D5"/>
<path d="M24.668 0V2.85259C36.8629 2.86624 46.97 8.90582 48.9155 16.8221H49.2545C49.2545 16.7948 49.2545 16.7743 49.2545 16.747C49.2545 7.50682 38.2526 0.0136488 24.668 0Z" fill="#BEC2C1"/>
<path d="M7.87696 26.0419C7.87696 28.2325 6.11447 30 3.9385 30C1.76252 30 0.00683594 28.2257 0.00683594 26.0419C0.00683594 23.8512 1.7693 22.0769 3.9385 22.0769C6.11447 22.0769 7.87696 23.8512 7.87696 26.0419Z" fill="#231F20"/>
<path d="M3.93822 28.5192C2.58247 28.5192 1.47754 27.4068 1.47754 26.0419C1.47754 24.6771 2.58247 23.5647 3.93822 23.5647C5.29396 23.5647 6.3989 24.6771 6.3989 26.0419C6.3989 27.4068 5.29396 28.5192 3.93822 28.5192ZM3.93822 23.8513C2.73838 23.8513 1.76225 24.834 1.76225 26.0419C1.76225 27.2499 2.73838 28.2258 3.93822 28.2258C5.13805 28.2258 6.1142 27.243 6.1142 26.0419C6.1142 24.834 5.13805 23.8513 3.93822 23.8513Z" fill="#A3A1AD"/>
<path d="M21.9155 26.0419C21.9155 28.2325 20.153 30 17.977 30C15.801 30 14.0386 28.2257 14.0386 26.0419C14.0386 23.8512 15.801 22.0769 17.977 22.0769C20.153 22.0769 21.9155 23.8512 21.9155 26.0419Z" fill="#231F20"/>
<path d="M17.9773 28.5192C16.6215 28.5192 15.5166 27.4068 15.5166 26.0419C15.5166 24.6771 16.6215 23.5647 17.9773 23.5647C19.333 23.5647 20.438 24.6771 20.438 26.0419C20.438 27.4068 19.3398 28.5192 17.9773 28.5192ZM17.9773 23.8513C16.7775 23.8513 15.8013 24.834 15.8013 26.0419C15.8013 27.2499 16.7775 28.2258 17.9773 28.2258C19.1771 28.2258 20.1533 27.243 20.1533 26.0419C20.1533 24.834 19.1771 23.8513 17.9773 23.8513Z" fill="#A3A1AD"/>
<path d="M35.9546 26.0419C35.9546 28.2325 34.1921 30 32.0161 30C29.8402 30 28.0845 28.2257 28.0845 26.0419C28.0845 23.8512 29.8469 22.0769 32.0161 22.0769C34.1921 22.0769 35.9546 23.8512 35.9546 26.0419Z" fill="#231F20"/>
<path d="M32.0232 28.5192C30.6674 28.5192 29.5625 27.4068 29.5625 26.0419C29.5625 24.6771 30.6674 23.5647 32.0232 23.5647C33.3789 23.5647 34.4839 24.6771 34.4839 26.0419C34.4839 27.4068 33.3789 28.5192 32.0232 28.5192ZM32.0232 23.8513C30.8233 23.8513 29.854 24.834 29.854 26.0419C29.854 27.2499 30.8301 28.2258 32.0232 28.2258C33.223 28.2258 34.1992 27.243 34.1992 26.0419C34.1924 24.834 33.2162 23.8513 32.0232 23.8513Z" fill="#A3A1AD"/>
<path d="M49.9999 26.0419C49.9999 28.2325 48.2375 30 46.0615 30C43.8855 30 42.123 28.2257 42.123 26.0419C42.123 23.8512 43.8855 22.0769 46.0615 22.0769C48.2375 22.0769 49.9999 23.8512 49.9999 26.0419Z" fill="#231F20"/>
<path d="M46.0618 28.5192C44.706 28.5192 43.6011 27.4068 43.6011 26.0419C43.6011 24.6771 44.706 23.5647 46.0618 23.5647C47.4175 23.5647 48.5224 24.6771 48.5224 26.0419C48.5224 27.4068 47.4175 28.5192 46.0618 28.5192ZM46.0618 23.8513C44.8619 23.8513 43.8858 24.834 43.8858 26.0419C43.8858 27.2499 44.8619 28.2258 46.0618 28.2258C47.2616 28.2258 48.2377 27.243 48.2377 26.0419C48.2377 24.834 47.2616 23.8513 46.0618 23.8513Z" fill="#A3A1AD"/>
</svg>
