<svg width="50" height="25" viewBox="0 0 50 25" fill="none" xmlns="http://www.w3.org/2000/svg">
<path d="M45.5753 11.7405L49.9997 12.8935V22.9857L36.5635 24.037L45.5753 11.7405Z" fill="#231F20"/>
<path d="M45.5756 11.7404C45.5756 11.7404 40.0979 0 25.8325 0C11.5604 0 15.4139 0 11.5604 0C6.93217 0 0 4.20509 0 12.9002C0 23.847 3.8127 25 13.2867 25C22.7538 25 31.922 25 34.491 25C37.0599 25 43.9581 21.9343 45.5824 19.5266C46.9417 17.4919 45.5756 11.7404 45.5756 11.7404Z" fill="#231F20"/>
<path d="M43.6657 12.4184C43.0676 11.2586 39.5471 5.04587 31.7314 2.81445V22.9854H34.4839C36.5568 22.9854 42.721 20.1571 43.9035 18.4005C44.3453 17.7426 44.2297 14.9279 43.6657 12.4184Z" fill="#363B39"/>
<path d="M33.2607 6.54492V8.81025V9.15616V11.0756V11.4147V13.3341V13.68V15.5995V15.9454V17.8444V18.2039V20.4489H36.5773V18.2039V17.8444V15.9454V15.5995V13.68V13.3341V11.4147V11.0756V9.15616V8.81025V6.54492H33.2607Z" fill="#231F20"/>
<path d="M35.9045 7.21655H33.9336V8.48486H35.9045V7.21655Z" fill="#DF4019"/>
<path d="M35.9045 9.48193H33.9336V10.7502H35.9045V9.48193Z" fill="#DF4019"/>
<path d="M35.9045 11.7473H33.9336V13.0156H35.9045V11.7473Z" fill="#FDA014"/>
<path d="M35.9045 14.0059H33.9336V15.2674H35.9045V14.0059Z" fill="#FDA014"/>
<path d="M35.9045 16.2712H33.9336V17.5396H35.9045V16.2712Z" fill="#8CA103"/>
<path d="M35.9045 18.5159H33.9336V19.7842H35.9045V18.5159Z" fill="#9FB603"/>
<path d="M42.2115 14.2363C42.2115 15.0434 41.559 15.6945 40.7503 15.6945C39.9415 15.6945 39.2891 15.0434 39.2891 14.2363C39.2891 13.4292 39.9415 12.7781 40.7503 12.7781C41.559 12.7781 42.2115 13.4292 42.2115 14.2363Z" fill="#231F20"/>
<path d="M40.628 17.4648C40.628 17.8785 40.295 18.2109 39.8804 18.2109C39.4658 18.2109 39.1328 17.8785 39.1328 17.4648C39.1328 17.0511 39.4658 16.7188 39.8804 16.7188C40.295 16.7188 40.628 17.0511 40.628 17.4648Z" fill="#231F20"/>
<path d="M25.8258 2.00757H18.2412H11.3702C8.68564 2.00757 2.90204 4.40177 2.91563 11.7403C2.66417 21.9072 6.25259 22.9788 14.843 22.9788H18.2412H31.7317V11.7336V2.80791C29.9851 2.31279 28.021 2.00757 25.8258 2.00757Z" fill="#D2D6D5"/>
<path d="M13.674 3.8457C13.674 3.8457 5.26702 3.81856 5.71557 11.7336H9.68458C9.69138 11.7404 8.50883 6.67397 13.674 3.8457Z" fill="#EBF0EF"/>
</svg>
