<svg width="50" height="51" viewBox="0 0 50 51" fill="none" xmlns="http://www.w3.org/2000/svg">
<path d="M25.2049 1.10793C24.2761 1.37176 23.5135 2.08506 23.1517 3.0231C22.9855 3.46281 22.9659 3.78526 22.9659 6.09129V8.67091L23.269 8.97381C23.6797 9.38421 24.1979 9.39398 24.6476 8.99336L24.9703 8.70999L25.0192 6.22808C25.0485 4.60605 25.1071 3.68755 25.1854 3.56052C25.4689 3.05242 25.0192 3.07196 36.566 3.07196H47.3112L47.624 3.39441L47.9467 3.70709V10.3516V16.9863L47.6632 17.2794C47.4676 17.4846 47.2427 17.5921 46.9299 17.6409C46.0499 17.7777 45.6393 18.5985 46.1086 19.3021C46.4312 19.7906 47.3112 19.8297 48.2498 19.3998C48.8951 19.0969 49.4231 18.5692 49.7457 17.8852L49.9999 17.338V10.3516V3.3651L49.7457 2.81791C49.4231 2.12415 48.8951 1.5965 48.2009 1.27404L47.6534 1.01999L36.654 1.00045C27.9621 0.990677 25.5569 1.01022 25.2049 1.10793Z" fill="#0073E6"/>
<path d="M31.2766 10.3514V11.4263H32.3032H33.3298V10.3514V9.27659H32.3032H31.2766V10.3514Z" fill="#0073E6"/>
<path d="M35.4808 10.3514V11.4263H36.5074H37.534V10.3514V9.27659H36.5074H35.4808V10.3514Z" fill="#0073E6"/>
<path d="M39.6263 9.40364C39.6067 9.47204 39.597 9.95083 39.6067 10.4589L39.6361 11.3774H40.6627H41.6893V10.3515V9.32547L40.6822 9.29616C39.9098 9.27662 39.6654 9.29616 39.6263 9.40364Z" fill="#0073E6"/>
<path d="M2.01345 11.6216C1.03573 12.0027 0.302444 12.8626 0.0873457 13.869C0.00912807 14.2501 -0.0104263 16.3314 0.00912807 21.0998L0.0384597 27.7931L0.263335 28.2914C0.517543 28.8582 1.13351 29.4933 1.70058 29.7865C2.30677 30.0894 3.00095 30.1871 4.69241 30.1871H6.24698V31.9068V33.6266L6.57941 33.9588C6.85317 34.2324 6.98027 34.291 7.33225 34.291C7.7429 34.291 7.77223 34.2617 9.80589 32.2488L11.8689 30.1968L13.9416 30.1675L16.0242 30.1382L16.3273 29.8255C16.7673 29.3956 16.7673 28.8289 16.3273 28.3989L16.0242 28.0862L13.9416 28.0569C10.94 28.0081 11.2334 27.9201 9.71789 29.4151C9.01393 30.1089 8.40775 30.6756 8.36864 30.6756C8.32953 30.6756 8.3002 30.2457 8.3002 29.7083C8.3002 28.5944 8.16331 28.311 7.53757 28.1351C7.34203 28.0862 6.16877 28.0374 4.94662 28.0374H2.70764L2.43387 27.7638C2.24811 27.5781 2.14056 27.3436 2.09167 27.0505C2.06234 26.816 2.04279 23.826 2.06234 20.4158C2.09167 14.6116 2.10145 14.1915 2.26766 13.9472C2.36543 13.8104 2.58053 13.6443 2.74674 13.5857C2.95207 13.5173 5.11283 13.4782 9.37569 13.4782C13.6385 13.4782 15.7993 13.4391 16.0046 13.3707C16.6793 13.1362 16.8552 12.2372 16.3273 11.7096L16.0437 11.4262H9.25836C2.86407 11.436 2.45343 11.4458 2.01345 11.6216Z" fill="#0073E6"/>
<path d="M23.6993 11.4849C22.6532 11.651 21.3137 12.1885 20.4044 12.8041C18.2925 14.2307 16.9726 16.4487 16.738 18.9502C16.6206 20.2302 16.7575 22.7512 17.0019 23.8847C17.569 26.4643 18.5956 28.487 20.1209 30.0015C21.4017 31.2718 22.6434 31.9362 24.198 32.161C25.1072 32.288 26.3489 32.1707 27.0236 31.8874C27.4929 31.6919 27.6004 31.7408 27.7471 32.2391C27.8155 32.4639 27.8937 32.7082 27.9133 32.7766C27.9426 32.845 27.356 33.3531 26.4858 33.998L25.0192 35.0924L23.318 33.8221C22.3892 33.1283 21.4799 32.4736 21.3039 32.3857C20.7173 32.0828 20.424 32.2294 19.1627 33.4605L18.0285 34.5647L15.0465 36.0499C13.4039 36.8707 11.8005 37.6915 11.4778 37.8869C9.73748 38.9129 8.38822 40.4568 7.78204 42.1081C7.36162 43.2514 7.32251 43.6813 7.32251 47.4042V51H8.34912H9.37572V47.5996C9.37572 43.9354 9.42461 43.4859 9.92325 42.4404C10.3046 41.6391 10.9694 40.8183 11.6929 40.2516C12.1133 39.9291 13.3942 39.2256 15.1638 38.3364C16.7184 37.5645 17.9797 36.9489 17.9797 36.988C17.9797 37.3495 18.8009 41.8443 18.9085 42.0886C19.0845 42.4697 19.6125 42.7335 20.0035 42.6358C20.1404 42.5967 21.3235 42.1374 22.6336 41.6098L25.0192 40.662L27.3364 41.5903C28.6173 42.1081 29.8101 42.5576 29.9958 42.6065C30.4651 42.714 30.9442 42.499 31.13 42.0886C31.2375 41.8443 32.0588 37.3495 32.0588 36.988C32.0588 36.9489 33.3201 37.5645 34.8747 38.3364C36.6443 39.2256 37.9252 39.9291 38.3456 40.2516C39.0691 40.8183 39.7339 41.6391 40.1152 42.4404C40.6139 43.4859 40.6628 43.9354 40.6628 47.5996V51H41.6894H42.716V47.4042C42.716 43.6813 42.6769 43.2514 42.2565 42.1081C41.6503 40.4666 40.2912 38.9032 38.5607 37.8869C38.238 37.6915 36.615 36.8512 34.9431 36.0206L31.9122 34.5061L31.0127 33.5876C30.1229 32.6886 30.1034 32.6691 29.7416 31.6333L29.3799 30.5976L30.0447 29.8843C31.5309 28.3209 32.4793 26.4057 33.0561 23.8358C33.2614 22.9173 33.281 22.5656 33.281 20.5136C33.281 18.3737 33.2614 18.1685 33.0463 17.4845C32.4108 15.4521 31.306 13.9277 29.6634 12.8236C28.8617 12.2862 28.5781 12.1494 27.532 11.8074C26.74 11.5436 26.476 11.5045 25.3126 11.4752C24.589 11.4556 23.8655 11.4654 23.6993 11.4849ZM26.3294 13.6248C28.1186 14.0059 29.771 15.286 30.5727 16.908C31.1007 17.9828 31.2767 18.7938 31.2767 20.3182C31.2767 22.7805 30.9149 24.5003 29.9958 26.3471C29.5168 27.3242 29.2723 27.6857 28.6759 28.3306C27.5027 29.5618 26.3783 30.1188 25.0192 30.1188C23.6602 30.1188 22.5358 29.5618 21.3626 28.3306C20.0915 26.9626 19.1529 24.7641 18.8694 22.419C18.8107 21.9304 18.7618 21.3637 18.7618 21.139V20.7383L19.6125 20.4647C20.1306 20.2986 20.7368 19.9957 21.1768 19.7123L21.8905 19.2336L22.6043 19.7123C23.0443 20.0055 23.6602 20.2986 24.198 20.4745C25.029 20.7383 25.1561 20.7579 26.7987 20.7579H28.539L28.8421 20.4452C29.2821 20.0153 29.2821 19.4485 28.8421 19.0186L28.539 18.7059L26.7498 18.6571L24.9704 18.6082L24.2957 18.276C23.8753 18.0708 23.4158 17.7386 23.0638 17.377C22.1056 16.4097 21.695 16.3901 20.815 17.2891C20.248 17.8558 19.3387 18.4616 19.0356 18.4616C18.8987 18.4616 18.8889 18.4128 18.9769 18.0903C19.0258 17.8949 19.2507 17.3575 19.4756 16.8982C20.6879 14.4163 23.5722 13.0386 26.3294 13.6248ZM22.8976 36.1183C24.4326 37.2713 24.677 37.4179 25.0192 37.4179C25.3614 37.4179 25.6059 37.2616 27.2387 36.0499L29.067 34.682L29.6048 35.2194L30.1523 35.7568L29.7905 37.9163C29.595 39.0986 29.419 40.0952 29.3994 40.1148C29.3701 40.1343 28.4217 39.7728 27.2876 39.3233C26.1436 38.8641 25.1268 38.4928 25.0192 38.4928C24.9117 38.4928 23.8949 38.8641 22.7509 39.3233C21.6168 39.7728 20.6684 40.1343 20.6391 40.1148C20.6195 40.0952 20.4435 39.0986 20.248 37.9163L19.896 35.7568L20.4142 35.2291C20.7075 34.936 20.991 34.721 21.0497 34.7504C21.1084 34.7894 21.9394 35.405 22.8976 36.1183Z" fill="#0073E6"/>
<path d="M4.19373 16.6048V17.6797H9.37564H14.5576V16.6048V15.53H9.37564H4.19373V16.6048Z" fill="#0073E6"/>
<path d="M35.7839 17.9826C35.3733 18.393 35.3635 18.9109 35.7644 19.3604C36.0479 19.6828 36.0577 19.6828 37.1136 19.7121L38.1696 19.7414L40.1739 21.7446C41.484 23.0441 42.2858 23.7672 42.4715 23.8161C42.9115 23.9431 43.3808 23.777 43.6057 23.4154C43.7817 23.1223 43.7914 22.9562 43.7719 20.6795L43.7426 18.2464L43.4199 17.9631C42.9702 17.5624 42.452 17.5722 42.0413 17.9826C41.7382 18.2757 41.7382 18.2953 41.7382 19.3213V20.357L40.3792 19.0184L39.0202 17.6797H37.5536H36.087L35.7839 17.9826Z" fill="#0073E6"/>
<path d="M4.19373 20.7577V21.7837H9.37564H14.5576V20.7577V19.7317H9.37564H4.19373V20.7577Z" fill="#0073E6"/>
<path d="M4.19373 24.9594V25.9854H5.22033H6.24694V24.9594V23.9334H5.22033H4.19373V24.9594Z" fill="#0073E6"/>
<path d="M8.30017 24.9594V25.9854H9.37566H10.4512V24.9594V23.9334H9.37566H8.30017V24.9594Z" fill="#0073E6"/>
<path d="M13.5798 48.4106V51H14.6064H15.633V48.4106V45.8212H14.6064H13.5798V48.4106Z" fill="#0073E6"/>
<path d="M23.9437 46.8471V47.873H25.0192H26.0947V46.8471V45.8211H25.0192H23.9437V46.8471Z" fill="#0073E6"/>
<path d="M34.4053 48.4106V51H35.4319H36.4585V48.4106V45.8212H35.4319H34.4053V48.4106Z" fill="#0073E6"/>
</svg>
