<svg width="47" height="50" viewBox="0 0 47 50" fill="none" xmlns="http://www.w3.org/2000/svg">
<path d="M1.74621 0.204788C1.09466 0.595357 1.00842 0.94687 1.00842 3.07547C1.00842 4.80374 1.02759 4.94044 1.2288 5.30172C1.78453 6.29767 3.25052 6.25861 3.7296 5.2236C3.95956 4.73539 3.95956 1.29838 3.7296 0.810171C3.38466 0.0778532 2.43608 -0.215074 1.74621 0.204788Z" fill="#0073E6"/>
<path d="M23.3334 0.185102C23.1513 0.282744 22.2411 1.15176 21.3021 2.10865C19.8936 3.56353 19.6061 3.91504 19.5486 4.21773C19.3378 5.35038 20.1714 6.20963 21.2637 6.00458C21.465 5.96553 21.7907 5.76048 22.0782 5.49684L22.5668 5.04769V7.33252C22.5668 9.30489 22.586 9.6564 22.7393 9.94933C23.2471 10.9941 24.761 10.9941 25.2689 9.94933C25.4222 9.6564 25.4413 9.30489 25.4413 7.31299V5.02816L25.8054 5.37967C26.4666 6.02411 27.0319 6.1901 27.6834 5.90694C28.2871 5.65307 28.6033 4.96957 28.4595 4.21773C28.4021 3.91504 28.1146 3.56353 26.7061 2.10865C25.7671 1.15176 24.8473 0.282744 24.6556 0.175338C24.2149 -0.0590038 23.7645 -0.0590038 23.3334 0.185102Z" fill="#0073E6"/>
<path d="M44.9113 0.156052C44.7388 0.243927 44.4993 0.448978 44.3843 0.614967L44.1735 0.91766L44.1447 24.8888C44.1256 48.0984 44.1256 48.8698 44.298 49.2018C44.5184 49.6119 45.1029 49.9829 45.5437 49.9829C46.0611 49.9829 46.5689 49.6509 46.7988 49.1725L47.0001 48.7526V24.9865V1.22035L46.7988 0.800488C46.4539 0.0876999 45.6203 -0.205227 44.9113 0.156052Z" fill="#0073E6"/>
<path d="M2.03347 11.0727C1.5448 11.2485 1.21903 11.5707 1.09447 11.9905C1.03698 12.2054 1.00823 13.0841 1.0274 14.2168C1.05614 16.3552 1.09447 16.4528 1.88974 16.8629C2.42631 17.1363 2.88623 17.0875 3.32699 16.7067C3.82523 16.277 3.88272 16.0036 3.88272 14.002C3.88272 12.0589 3.82523 11.7464 3.39406 11.3559C3.19284 11.1703 3.02995 11.0922 2.54129 10.9751C2.46464 10.9555 2.23468 10.9946 2.03347 11.0727Z" fill="#0073E6"/>
<path d="M16.5113 17.4583C15.0932 17.927 13.9913 19.0498 13.5602 20.4852C13.3877 21.0515 13.3685 21.403 13.3685 24.6447V28.1892L12.2954 28.2184C11.0881 28.2575 10.7432 28.4137 10.427 29.0191C10.2162 29.439 10.2353 30.1225 10.4653 30.4349C10.8773 31.0013 11.1073 31.0891 12.2475 31.138L13.3206 31.1868L13.3685 38.8517C13.4164 45.9015 13.426 46.5557 13.5889 46.956C14.1542 48.3913 15.3232 49.4459 16.7892 49.8364C17.6036 50.0513 30.4046 50.0513 31.2191 49.8364C32.6851 49.4459 33.854 48.3913 34.4193 46.956C34.5822 46.5557 34.5918 45.9015 34.6397 38.8517L34.6876 31.1868L35.7608 31.138C36.6423 31.0989 36.8722 31.0501 37.0926 30.8841C37.543 30.5423 37.725 30.2299 37.725 29.7514C37.725 29.2046 37.5142 28.7848 37.1118 28.4821C36.8339 28.2868 36.6614 28.2575 35.7224 28.2184L34.6397 28.1892V24.6447C34.6397 21.403 34.6206 21.0515 34.4481 20.4852C34.0073 19.0303 32.915 17.9172 31.4874 17.468C30.9125 17.2825 30.5771 17.2727 23.9658 17.2825C17.5557 17.2825 17.0191 17.2923 16.5113 17.4583ZM18.006 20.5828C18.121 21.3542 19.0217 21.9108 19.7786 21.6764C20.2386 21.5397 20.7176 21.0124 20.8039 20.5438L20.8614 20.202H24.0041H27.1469L27.2044 20.5438C27.2906 21.0124 27.7697 21.5397 28.2296 21.6764C28.9866 21.9108 29.8872 21.3542 30.0022 20.5731L30.0693 20.1825L30.4526 20.2313C30.9029 20.2899 31.2478 20.534 31.5544 20.9832C31.7557 21.2858 31.7652 21.3933 31.7652 23.1899V25.0841H24.0041H16.243V23.2289C16.243 21.2468 16.2813 21.0613 16.7413 20.6219C17.0095 20.368 17.3545 20.2118 17.6898 20.2118C17.9102 20.202 17.9485 20.2508 18.006 20.5828ZM31.7652 33.6278V39.2423H24.0041H16.243V33.6278V28.0134H24.0041H31.7652V33.6278ZM31.7461 44.0951C31.7173 45.9601 31.7077 46.0382 31.4874 46.3604C31.3628 46.5361 31.0849 46.7705 30.8646 46.8681C30.4909 47.0439 30.1076 47.0536 24.0041 47.0536C17.9006 47.0536 17.5174 47.0439 17.1437 46.8681C16.9233 46.7705 16.6454 46.5361 16.5209 46.3604C16.3005 46.0382 16.2909 45.9601 16.2622 44.0951L16.2334 42.1715H24.0041H31.7748L31.7461 44.0951Z" fill="#0073E6"/>
<path d="M1.77495 22.1354C1.5929 22.2331 1.34378 22.4967 1.2288 22.7018C1.02759 23.063 1.00842 23.1997 1.00842 24.9671C1.00842 26.666 1.02759 26.8906 1.20006 27.2324C1.71746 28.2576 3.24094 28.2381 3.7296 27.1933C3.95956 26.7051 3.95956 23.2681 3.7296 22.7799C3.39425 22.0671 2.45525 21.7546 1.77495 22.1354Z" fill="#0073E6"/>
<path d="M2.11012 32.9637C1.77477 33.0516 1.27652 33.491 1.14238 33.8327C0.950749 34.2917 0.950749 37.6505 1.14238 38.1095C1.51606 39.0175 2.71377 39.2616 3.43239 38.5782C3.8444 38.1778 3.90189 37.8068 3.86356 35.7563C3.83482 34.0475 3.81565 33.862 3.6336 33.6179C3.25034 33.0809 2.63711 32.827 2.11012 32.9637Z" fill="#0073E6"/>
<path d="M1.77495 44.1051C1.5929 44.2027 1.34378 44.4663 1.2288 44.6714C1.02759 45.0327 1.00842 45.1694 1.00842 46.8976C1.00842 49.0458 1.09466 49.3875 1.76537 49.7683C2.23487 50.0417 2.68521 50.0417 3.15471 49.7586C3.81584 49.368 3.88291 49.1336 3.88291 46.9562C3.88291 44.8764 3.82542 44.603 3.27927 44.1832C2.92475 43.9098 2.18696 43.8707 1.77495 44.1051Z" fill="#0073E6"/>
</svg>
