<svg width="54" height="51" viewBox="0 0 54 51" fill="none" xmlns="http://www.w3.org/2000/svg">
<path d="M32.7954 4.61894C29.1135 6.60795 25.9803 8.3456 25.8326 8.4986C25.4739 8.85924 25.4739 9.53682 25.8326 9.89746C25.9803 10.0395 27.2357 10.7718 28.6283 11.5258L31.1602 12.8919L31.1918 14.0503L31.2235 15.1978L19.9565 15.2306L8.68952 15.2634L7.835 15.5585C5.71454 16.3126 4.0055 18.083 3.28813 20.2796L2.99274 21.1649L2.96109 31.9514L2.92944 42.7489H1.87448C0.218193 42.7489 -0.108844 43.0549 0.0283004 44.5193C0.281491 47.3498 2.10657 49.7104 4.82837 50.7049L5.63014 51H24.1447H42.6592L43.5032 50.694C45.6659 49.8962 47.2272 48.2788 47.934 46.0821C48.2611 45.0767 48.3771 43.8636 48.1978 43.4046C47.9868 42.88 47.6175 42.7489 46.4043 42.7489H45.3494L45.3705 32.3995L45.4021 22.0501L46.6681 21.4927C47.5121 21.1102 47.9973 20.8261 48.145 20.6294C48.3455 20.3452 48.356 20.1594 48.3877 16.5967L48.4193 12.8591L50.0545 11.9848C50.9618 11.504 51.7424 11.0887 51.7952 11.0778C51.8479 11.0559 51.8901 12.4438 51.8901 14.5421V18.0502L52.1961 18.3999C52.4493 18.695 52.5759 18.7606 52.9451 18.7606C53.3143 18.7606 53.4409 18.695 53.6941 18.3999L54.0001 18.0502V13.5039C54.0001 9.7991 53.9684 8.91389 53.8524 8.66253C53.7258 8.4221 52.4598 7.70081 47.28 4.91401C39.5366 0.739277 40.0324 1.00156 39.737 1.00156C39.5998 1.00156 36.4772 2.62993 32.7954 4.61894ZM45.4865 6.41123C48.2505 7.89753 50.5187 9.15432 50.5187 9.19803C50.5187 9.31824 39.8425 15.0558 39.7053 15.0121C39.4522 14.9246 28.9975 9.25267 28.9975 9.19803C28.9975 9.16525 31.4345 7.82102 34.3989 6.22544L39.8108 3.3075L40.1273 3.50422C40.2961 3.61351 42.712 4.92494 45.4865 6.41123ZM36.4772 15.7552C38.144 16.6513 39.6209 17.3945 39.7686 17.3945C39.9058 17.3945 41.3933 16.6513 43.0707 15.7552C44.7481 14.8481 46.1617 14.1159 46.2145 14.1159C46.2672 14.1159 46.2883 15.2853 46.2777 16.706L46.2461 19.2961L43.0812 20.6949C41.3405 21.4599 39.8636 22.0938 39.8003 22.0938C39.7264 22.0938 38.4921 21.5692 37.0574 20.9354C35.6121 20.3015 34.1774 19.6786 33.882 19.5584L33.3228 19.3289V16.7278C33.3228 15.2853 33.3439 14.1159 33.3861 14.1159C33.4178 14.1159 34.7998 14.8481 36.4772 15.7552ZM31.2129 18.9136C31.2129 20.3452 31.2235 20.4545 31.4556 20.7059C31.7404 21.0447 39.3256 24.3888 39.7897 24.3888C39.9585 24.3888 40.8025 24.0719 41.6676 23.6894L43.2395 22.9899V32.8694V42.7489H35.9602C30.5483 42.7489 28.6177 42.7817 28.4173 42.88C28.1113 43.0221 27.837 43.4811 27.837 43.8418C27.837 44.2024 28.1113 44.6614 28.4173 44.8035C28.6177 44.9018 30.8648 44.9346 37.3844 44.9346H46.0668L45.9613 45.3499C45.5604 46.9018 43.9041 48.4427 42.3005 48.7596C41.541 48.9017 6.7695 48.9126 6.00992 48.7596C4.36419 48.4427 2.71845 46.869 2.25427 45.186L2.19097 44.9346H10.8944C17.414 44.9346 19.6717 44.9018 19.8721 44.8035C20.178 44.6614 20.4523 44.2024 20.4523 43.8418C20.4523 43.4811 20.178 43.0221 19.8721 42.88C19.6717 42.7817 17.7411 42.7489 12.3291 42.7489H5.04991V32.4323C5.04991 25.9844 5.09211 21.908 5.15541 21.5364C5.39805 20.2141 6.30531 18.8699 7.43412 18.1595C8.68952 17.3726 8.17259 17.4054 20.3257 17.4054L31.2129 17.3945V18.9136Z" fill="#0073E6"/>
<path d="M39.0618 8.47686C38.8086 8.73915 38.7031 8.9468 38.7031 9.19815C38.7031 9.64623 39.2939 10.291 39.6948 10.291C40.8025 10.291 41.235 8.77194 40.275 8.25829C39.8003 8.00693 39.4521 8.07251 39.0618 8.47686Z" fill="#0073E6"/>
<path d="M11.0105 21.7005C10.2931 21.9409 9.9555 22.1704 9.39637 22.7934C8.45746 23.8644 8.47855 23.7223 8.47855 30.0718C8.47855 35.1427 8.4891 35.6345 8.66845 36.17C8.93219 36.935 9.74451 37.8421 10.5146 38.2355L11.116 38.5415H18.8172H26.5184L27.1197 38.2355C27.8687 37.853 28.5966 37.0334 28.8815 36.2356C29.0925 35.6563 29.103 35.4159 29.103 30.0718C29.103 24.7277 29.0925 24.4873 28.8815 23.9081C28.5966 23.1103 27.8687 22.2906 27.1197 21.9081L26.5184 21.6021L18.9754 21.5803C13.0887 21.5584 11.3375 21.5912 11.0105 21.7005ZM26.2019 23.8862C26.4023 23.9737 26.6661 24.2141 26.7821 24.4108C26.9826 24.7605 26.9931 24.9463 26.9931 30.0718C26.9931 35.1973 26.9826 35.3831 26.7821 35.7328C26.3707 36.4214 26.5711 36.4104 18.7433 36.4104C11.8966 36.4104 11.6329 36.3995 11.3058 36.1919C10.5568 35.7219 10.5885 35.9733 10.5885 30.0718C10.5885 24.1704 10.5568 24.4217 11.3058 23.9518C11.6329 23.7442 11.8966 23.7332 18.7433 23.7332C24.6827 23.7332 25.8959 23.7551 26.2019 23.8862Z" fill="#0073E6"/>
<path d="M16.8338 27.4599C16.4119 27.7112 16.338 28.1156 16.338 30.0718C16.338 32.0499 16.4224 32.4433 16.8549 32.6947C17.3086 32.946 17.72 32.8149 19.1759 31.9625C21.0326 30.8587 21.2225 30.6947 21.2225 30.0718C21.2225 29.4489 21.0326 29.2849 19.1759 28.1812C17.72 27.3287 17.2769 27.1976 16.8338 27.4599Z" fill="#0073E6"/>
<path d="M32.9114 31.3174C32.4155 31.6015 32.2467 32.2354 32.521 32.7927C32.7953 33.3173 32.9852 33.3501 36.3822 33.3501H39.5471L39.8847 33.0332C40.1695 32.7709 40.2328 32.6397 40.2328 32.2572C40.2328 31.8747 40.1695 31.7436 39.8847 31.4813L39.5471 31.1644H36.3505C33.9136 31.1753 33.1013 31.2081 32.9114 31.3174Z" fill="#0073E6"/>
<path d="M32.9114 36.5635C32.4155 36.8476 32.2467 37.4815 32.521 38.0388C32.7953 38.5634 32.9852 38.5962 36.3822 38.5962H39.5471L39.8847 38.2793C40.1695 38.017 40.2328 37.8858 40.2328 37.5033C40.2328 37.1208 40.1695 36.9897 39.8847 36.7274L39.5471 36.4105H36.3505C33.9136 36.4214 33.1013 36.4542 32.9114 36.5635Z" fill="#0073E6"/>
<path d="M23.6278 42.9018C22.71 43.4264 23.1003 44.9346 24.1447 44.9346C24.6828 44.9346 25.1997 44.3991 25.1997 43.8526C25.1997 43.033 24.3241 42.4975 23.6278 42.9018Z" fill="#0073E6"/>
</svg>
