<svg width="50" height="50" viewBox="0 0 50 50" fill="none" xmlns="http://www.w3.org/2000/svg">
<path d="M9.46571 0.0980034C8.21445 0.342274 6.95341 1.31936 6.42554 2.45277C6.06384 3.23444 5.93676 3.87931 5.93676 5.03227V5.95073H5.01787C4.51932 5.95073 3.87413 5.99959 3.58087 6.04844C1.76263 6.39042 0.354957 7.84628 0.0519168 9.70273C-0.251123 11.5103 0.785079 13.484 2.43714 14.2559C3.21918 14.6175 3.86436 14.7445 5.01787 14.7445H5.93676V17.6757V20.607H5.01787C3.30716 20.607 2.22208 20.988 1.28363 21.9163C-0.417307 23.6164 -0.417307 26.3913 1.28363 28.0914C2.22208 29.0197 3.30716 29.4007 5.01787 29.4007H5.93676V32.332V35.2632H5.01787C4.51932 35.2632 3.87413 35.3121 3.58087 35.3609C1.76263 35.7029 0.354957 37.1588 0.0519168 39.0152C-0.251123 40.8228 0.785079 42.7965 2.43714 43.5684C3.21918 43.93 3.86436 44.057 5.00809 44.057H5.90744L5.96609 45.2588C6.02474 46.5876 6.1225 46.9785 6.6015 47.7992C7.2369 48.8935 8.36108 49.7045 9.56347 49.9195C9.92516 49.9879 15.3994 50.0074 25.693 49.9976L41.2752 49.9683L42.2527 49.7045C45.6546 48.7763 48.3428 46.2652 49.467 42.9724C50.0829 41.1844 50.1709 39.0445 49.7016 37.2076C49.2715 35.5661 48.7045 34.4425 47.6195 33.1039L47.0916 32.459V18.2913C47.0916 9.05785 47.0525 3.93794 46.9938 3.59596C46.6615 1.83721 45.244 0.420441 43.4844 0.0882339C42.8295 -0.0290184 10.1011 -0.0290184 9.46571 0.0980034ZM43.3769 3.11719C43.6311 3.24421 43.8363 3.4494 43.9634 3.70344C44.1589 4.0845 44.1589 4.25061 44.1589 17.2458C44.1589 29.7329 44.1492 30.3974 43.9927 30.3192C43.895 30.2801 43.4453 30.114 42.9859 29.9577C37.5507 28.0621 31.529 31.2474 29.9063 36.8754C28.9385 40.2268 29.7792 43.9006 32.1155 46.529L32.5652 47.0371L21.47 47.0664C15.3701 47.0762 10.2478 47.0664 10.0718 47.0371C9.671 46.9687 9.17245 46.5485 9.00627 46.1382C8.91829 45.9427 8.86941 45.4444 8.86941 44.8191V43.8127L9.50482 43.4805C10.6388 42.8942 11.4892 41.6924 11.7239 40.3441C12.0269 38.5658 11.0884 36.6507 9.50482 35.8397L8.86941 35.5075V32.332V29.1565L9.50482 28.8242C11.0884 28.0133 12.0269 26.0982 11.7239 24.3199C11.4892 22.9715 10.6388 21.7697 9.50482 21.1835L8.86941 20.8512V17.6757V14.5002L9.50482 14.168C10.6388 13.5817 11.4892 12.3799 11.7239 11.0316C12.0269 9.25327 11.0884 7.33819 9.50482 6.52721L8.86941 6.195V5.13976C8.86941 3.88909 9.03559 3.42986 9.6319 3.12696C9.98382 2.93155 10.2575 2.93155 26.4946 2.92178C42.8392 2.92178 42.9956 2.92178 43.3769 3.11719ZM8.08737 9.0774C8.52727 9.30213 8.86941 9.85906 8.86941 10.3476C8.86941 10.8361 8.52727 11.3931 8.08737 11.6178C7.74523 11.7937 7.51062 11.8132 5.88788 11.8132C3.77638 11.8132 3.45379 11.7253 3.10187 11.0316C2.85748 10.543 2.85748 10.1522 3.10187 9.66365C3.45379 8.96992 3.74705 8.89175 5.86833 8.88198C7.52039 8.88198 7.74523 8.90152 8.08737 9.0774ZM8.08737 23.7336C8.52727 23.9584 8.86941 24.5153 8.86941 25.0039C8.86941 25.4924 8.52727 26.0493 8.08737 26.2741C7.74523 26.4499 7.51062 26.4695 5.88788 26.4695C3.77638 26.4695 3.45379 26.3815 3.10187 25.6878C2.85748 25.1993 2.85748 24.8084 3.10187 24.3199C3.45379 23.6262 3.74705 23.548 5.86833 23.5382C7.52039 23.5382 7.74523 23.5578 8.08737 23.7336ZM41.5684 32.5567C44.1492 33.27 46.1629 35.2828 46.8667 37.8525C47.1014 38.7123 47.1405 40.0998 46.9547 41.028C46.3877 43.7932 44.5499 45.8646 41.8617 46.7635C41.1676 46.9882 40.933 47.0175 39.76 47.0175C38.5869 47.0175 38.3523 46.9882 37.6582 46.7635C33.4352 45.3565 31.3237 40.8228 33.0149 36.8266C33.9044 34.7356 35.9964 32.9671 38.0981 32.5372C38.3914 32.4785 38.7238 32.4101 38.8313 32.3906C39.193 32.3027 41.0699 32.4199 41.5684 32.5567ZM8.08737 38.3899C8.52727 38.6146 8.86941 39.1716 8.86941 39.6601C8.86941 40.1486 8.52727 40.7056 8.08737 40.9303C7.74523 41.1062 7.51062 41.1257 5.88788 41.1257C3.77638 41.1257 3.45379 41.0378 3.10187 40.3441C2.85748 39.8555 2.85748 39.4647 3.10187 38.9761C3.45379 38.2824 3.74705 38.2042 5.86833 38.1945C7.52039 38.1945 7.74523 38.214 8.08737 38.3899Z" fill="#0073E6"/>
<path d="M24.3147 9.08722C24.129 9.1947 22.8875 10.377 21.558 11.696L19.1337 14.0997L17.8824 12.8685C17.1981 12.1846 16.5139 11.5788 16.3672 11.5299C15.1355 11.0609 13.982 12.2139 14.4512 13.445C14.5783 13.787 17.7651 17.0211 18.3419 17.3924C18.9186 17.7637 19.3487 17.7637 19.9255 17.3924C20.4827 17.0309 26.1036 11.3736 26.3089 10.9632C26.6413 10.2988 26.3675 9.46828 25.6833 9.08722C25.214 8.82341 24.7546 8.82341 24.3147 9.08722Z" fill="#0073E6"/>
<path d="M30.2582 12.0186C29.8379 12.2335 29.4957 12.81 29.4957 13.279C29.4957 13.7675 29.8379 14.3245 30.2778 14.5492C30.6492 14.7349 30.8447 14.7446 35.361 14.7446C39.8773 14.7446 40.0728 14.7349 40.4443 14.5492C40.8842 14.3245 41.2263 13.7675 41.2263 13.279C41.2263 12.7905 40.8842 12.2335 40.4443 12.0088C40.0728 11.8232 39.8871 11.8134 35.3415 11.8134C30.835 11.8232 30.6004 11.8329 30.2582 12.0186Z" fill="#0073E6"/>
<path d="M24.3147 20.8123C24.129 20.9198 22.8875 22.1021 21.558 23.4211L19.1337 25.8248L17.8824 24.5936C17.1981 23.9097 16.5139 23.3039 16.3672 23.255C15.1355 22.786 13.982 23.939 14.4512 25.1701C14.5783 25.5121 17.7651 28.7462 18.3419 29.1175C18.9186 29.4888 19.3487 29.4888 19.9255 29.1175C20.4827 28.756 26.1036 23.0987 26.3089 22.6883C26.6413 22.0239 26.3675 21.1934 25.6833 20.8123C25.214 20.5485 24.7546 20.5485 24.3147 20.8123Z" fill="#0073E6"/>
<path d="M30.2582 23.7432C29.8379 23.9581 29.4957 24.5346 29.4957 25.0036C29.4957 25.4922 29.8379 26.0491 30.2778 26.2738C30.6492 26.4595 30.8447 26.4692 35.361 26.4692C39.8773 26.4692 40.0728 26.4595 40.4443 26.2738C40.8842 26.0491 41.2263 25.4922 41.2263 25.0036C41.2263 24.5151 40.8842 23.9581 40.4443 23.7334C40.0728 23.5478 39.8871 23.538 35.3415 23.538C30.835 23.5478 30.6004 23.5575 30.2582 23.7432Z" fill="#0073E6"/>
<path d="M24.3147 32.5369C24.129 32.6444 22.8875 33.8267 21.558 35.1457L19.1337 37.5494L17.8824 36.3182C17.1981 35.6343 16.5139 35.0285 16.3672 34.9796C15.1355 34.5106 13.982 35.6636 14.4512 36.8947C14.5783 37.2367 17.7651 40.4708 18.3419 40.8421C18.9186 41.2134 19.3487 41.2134 19.9255 40.8421C20.4827 40.4806 26.1036 34.8233 26.3089 34.4129C26.6413 33.7485 26.3675 32.918 25.6833 32.5369C25.214 32.2731 24.7546 32.2731 24.3147 32.5369Z" fill="#0073E6"/>
<path d="M39.0561 35.4682C38.3913 35.8102 38.2936 36.1619 38.2936 38.1942C38.2936 40.2461 38.3913 40.5783 39.0756 40.9301C39.4178 41.1059 39.6524 41.1255 41.2262 41.1255C42.8001 41.1255 43.0347 41.1059 43.3768 40.9301C43.8167 40.7053 44.1589 40.1484 44.1589 39.6599C44.1589 39.1713 43.8167 38.6144 43.3768 38.3897C43.0738 38.2333 42.8001 38.1942 42.106 38.1942H41.2262V37.3149C41.2262 36.2205 41.0307 35.7613 40.4442 35.4584C39.9652 35.2141 39.5253 35.2141 39.0561 35.4682Z" fill="#0073E6"/>
</svg>
