<svg width="40" height="40" viewBox="0 0 40 40" fill="none" xmlns="http://www.w3.org/2000/svg">
<path fill-rule="evenodd" clip-rule="evenodd" d="M9.45504 0.210083L9.24293 0.420167L9.27794 5.68925C9.31091 10.6603 9.3232 11.0123 9.49492 11.9112C10.383 16.5591 12.8805 20.353 16.735 22.9101C17.6998 23.5502 19.7926 24.6667 20.0276 24.6667C20.2189 24.6667 22.1399 23.6713 23.0265 23.1128C26.4484 20.9571 29.1193 17.3814 30.1683 13.5517C30.7248 11.5201 30.7304 11.447 30.7686 5.68925L30.8036 0.420167L30.5915 0.210083C30.4732 0.0929167 30.2823 0 30.1598 0C30.0391 0 29.5292 0.228083 29.0266 0.506833C27.529 1.3375 26.3022 1.63833 24.7347 1.55925C23.5828 1.50108 22.6843 1.23608 21.2853 0.54175C20.685 0.24375 20.1171 0 20.0232 0C19.9293 0 19.3614 0.24375 18.7612 0.54175C17.3622 1.23608 16.4637 1.50108 15.3118 1.55925C13.7443 1.63833 12.5175 1.3375 11.0199 0.506833C10.5173 0.228083 10.0074 0 9.88664 0C9.76423 0 9.57333 0.0929167 9.45504 0.210083ZM20.8759 1.83892C22.5493 2.67067 23.8838 2.97092 25.565 2.89383C26.708 2.84142 27.8157 2.58233 28.7942 2.13858L29.4462 1.84283V5.84133C29.4462 8.0915 29.4073 10.1938 29.3571 10.6491C28.9678 14.1833 27.4274 17.3864 24.9107 19.8942C23.7559 21.045 22.5674 21.8953 20.7594 22.8642L20.0233 23.2587L18.844 22.6095C15.7159 20.8875 13.5669 18.6623 12.1161 15.6432C11.3412 14.0306 10.8865 12.439 10.6894 10.6491C10.6392 10.1939 10.6003 8.09283 10.6003 5.846V1.85217L11.3687 2.18025C12.6609 2.73208 13.3774 2.87017 14.9332 2.86708C16.1228 2.86475 16.3763 2.83858 17.1138 2.64183C17.5855 2.51592 18.3903 2.20417 18.9648 1.92475C19.5237 1.65283 19.9914 1.42733 20.0037 1.4235C20.0162 1.41975 20.4086 1.60667 20.8759 1.83892ZM19.1934 3.29642C17.1892 4.22042 15.0418 4.46942 12.7691 4.04133C12.4929 3.98925 12.4261 4.012 12.2012 4.23475L11.9464 4.48717V7.19767C11.9464 10.1553 12.0352 11.1916 12.412 12.6278C13.3742 16.2961 16.018 19.6329 19.3227 21.3502L20.0105 21.7076L20.5006 21.4713C21.2571 21.1068 22.5132 20.2515 23.3264 19.5473C25.3916 17.759 26.9634 15.2163 27.6417 12.5666C28.0203 11.0875 28.0966 10.1947 28.0984 7.22275L28.1001 4.48717L27.8452 4.23475C27.6204 4.012 27.5536 3.98925 27.2773 4.04133C25.0003 4.47025 22.8973 4.2255 20.8259 3.29058C20.4718 3.13075 20.0991 3.00242 19.9976 3.00542C19.896 3.00842 19.5342 3.13933 19.1934 3.29642ZM20.7349 4.70442C22.2378 5.34367 23.9089 5.63367 25.6791 5.56258L26.7714 5.51867L26.7295 8.1135C26.6944 10.2976 26.6606 10.8337 26.5168 11.5C25.9271 14.2316 24.7187 16.39 22.7292 18.2653C21.9391 19.01 20.2981 20.1667 20.0317 20.1667C19.7589 20.1667 18.1104 19.0128 17.3233 18.2708C15.3275 16.3897 14.1201 14.2347 13.5297 11.5C13.3859 10.8342 13.3521 10.2978 13.3171 8.125L13.2754 5.54167L14.8615 5.5385C16.2774 5.53567 16.5489 5.51167 17.3924 5.31425C17.912 5.19267 18.7071 4.94358 19.1592 4.76067C19.6112 4.57775 19.9985 4.42558 20.0198 4.42242C20.041 4.41925 20.3628 4.54617 20.7349 4.70442ZM21.3511 10.3943L18.6765 13.0387L17.6041 11.9818C17.0143 11.4006 16.4354 10.8895 16.3177 10.8461C15.7959 10.6538 15.2963 11.1991 15.5223 11.7142C15.5813 11.8485 16.2516 12.5677 17.0118 13.3125C18.2557 14.531 18.4229 14.6667 18.6816 14.6667C18.9473 14.6667 19.1965 14.4412 21.978 11.6862C24.7108 8.97942 24.9871 8.68067 24.9871 8.43242C24.9871 8.06642 24.6684 7.75 24.2999 7.75C24.0523 7.75 23.7659 8.00683 21.3511 10.3943ZM1.88106 12.6692C1.46687 12.7958 0.830234 13.2578 0.530213 13.6495C0.211178 14.066 -0.000838842 14.7037 2.4949e-06 15.2443C0.000254896 15.4742 0.617796 17.903 1.55841 21.3743C2.81899 26.0262 3.16814 27.2096 3.38782 27.5748C3.5963 27.9215 4.10068 28.4019 5.56242 29.6463C6.82518 30.7212 7.53123 31.3821 7.6608 31.6103C7.80778 31.8693 7.86508 32.1248 7.89259 32.6438L7.9291 33.3333H7.11545C6.36371 33.3333 6.28605 33.3489 6.09532 33.5379L5.88877 33.7424V36.6667V39.5909L6.09532 39.7954L6.30179 40H12.6195H18.9372L19.1436 39.7954L19.3502 39.5909V36.6667V33.7424L19.1436 33.5379C18.9535 33.3495 18.8742 33.3333 18.1397 33.3333H17.3422L17.3088 30.2708C17.2719 26.8699 17.2584 26.7712 16.6735 25.5993C16.2792 24.8096 15.6097 24.0101 14.9262 23.513C14.0285 22.8601 9.49197 20.2698 9.05557 20.1609C8.52258 20.028 7.69168 20.1025 7.25671 20.3223L6.90486 20.5001L6.80768 20.1459C6.75426 19.9511 6.37995 18.5729 5.97594 17.0833C5.57193 15.5938 5.15967 14.2166 5.05972 14.0231C4.62307 13.1772 3.77542 12.6543 2.77583 12.614C2.42878 12.6 2.02611 12.6248 1.88106 12.6692ZM36.6817 12.6563C35.8958 12.9123 35.2422 13.4663 34.9349 14.1369C34.833 14.3595 34.4063 15.8167 33.987 17.375C33.5676 18.9333 33.2062 20.2693 33.1839 20.3439C33.1478 20.4647 33.0908 20.4581 32.662 20.2834C32.0921 20.0513 31.3959 20.0238 30.8377 20.2115C30.3859 20.3634 25.6709 23.0962 25.0176 23.5848C24.1137 24.2607 23.2772 25.5065 22.9192 26.7098C22.7926 27.1355 22.7661 27.656 22.7376 30.2708L22.7043 33.3333H21.9068C21.1723 33.3333 21.093 33.3495 20.9029 33.5379L20.6963 33.7424V36.6667V39.5909L20.9029 39.7954L21.1093 40H27.427H33.7447L33.9512 39.7954L34.1577 39.5909V36.6667V33.7424L33.9512 33.5379C33.7604 33.3489 33.6828 33.3333 32.931 33.3333H32.1174L32.1539 32.6438C32.1814 32.1248 32.2387 31.8693 32.3857 31.6103C32.5153 31.3821 33.2213 30.7212 34.4841 29.6463C35.9451 28.4025 36.4503 27.9214 36.6585 27.5752C36.8767 27.2122 37.2288 26.0265 38.462 21.4996C39.8277 16.4865 39.9949 15.8025 39.9996 15.2083C40.0042 14.6415 39.97 14.471 39.7711 14.0699C39.512 13.5473 39.0643 13.1028 38.5154 12.8232C38.1247 12.6241 37.0742 12.5286 36.6817 12.6563ZM3.27693 14.0814C3.45622 14.1721 3.67926 14.3523 3.77248 14.4819C3.87386 14.623 4.32995 16.1474 4.90803 18.2773C5.76956 21.4515 5.86488 21.8703 5.78849 22.1443C5.57454 22.9118 5.91612 24.0383 6.54443 24.6379C6.93775 25.0133 10.9806 27.3333 11.2414 27.3333C11.339 27.3333 11.5187 27.2556 11.6406 27.1606C11.9344 26.9317 11.9509 26.4403 11.673 26.1959C11.5688 26.1043 10.6697 25.5667 9.67479 25.0011C7.44365 23.7327 7.43894 23.7294 7.22372 23.3116C6.88475 22.6536 7.1438 21.8471 7.79196 21.5425C8.41935 21.2476 8.63936 21.3328 11.4435 22.9571C13.6962 24.2618 14.0793 24.5141 14.5969 25.0336C15.2874 25.7267 15.5895 26.2457 15.8184 27.1321C15.9679 27.711 15.9848 28.0597 15.9848 30.555V33.3333H12.6195H9.25412V32.7675C9.25412 32.4563 9.19691 31.9842 9.127 31.7183C8.87224 30.7494 8.66544 30.5212 5.93513 28.1961C5.2433 27.607 4.60876 27.0083 4.52497 26.8658C4.44117 26.7233 3.68792 24.0795 2.85104 20.9908C1.23955 15.0434 1.22667 14.9778 1.57852 14.5073C2.00861 13.9319 2.65846 13.769 3.27693 14.0814ZM38.0287 14.1042C38.416 14.3653 38.6216 14.6668 38.6728 15.0489C38.7067 15.3011 38.3715 16.6486 37.195 20.9911C36.3582 24.0799 35.6051 26.7237 35.5214 26.8661C35.4376 27.0085 34.8032 27.607 34.1114 28.1961C31.381 30.5212 31.1742 30.7494 30.9195 31.7183C30.8496 31.9842 30.7924 32.4563 30.7924 32.7675V33.3333H27.427H24.0617V30.555C24.0617 28.0597 24.0786 27.711 24.2281 27.1321C24.4385 26.3173 24.7418 25.7615 25.3065 25.1558C25.8495 24.5732 26.0413 24.4468 28.8994 22.7887C30.8731 21.6437 31.2262 21.4668 31.5916 21.4403C32.6255 21.3651 33.2973 22.3905 32.8205 23.3158C32.7329 23.4858 32.5909 23.6848 32.505 23.758C32.4191 23.8312 31.5348 24.3524 30.54 24.9163C28.2077 26.2382 28.1842 26.2557 28.1842 26.6648C28.1842 26.9146 28.2345 27.0271 28.4059 27.1606C28.5278 27.2556 28.7093 27.3333 28.8092 27.3333C29.0065 27.3333 32.7029 25.2675 33.3106 24.8176C34.0549 24.2666 34.5006 23.014 34.2596 22.1499C34.1828 21.8745 34.2768 21.4612 35.1418 18.2758C35.7091 16.1866 36.1789 14.6143 36.2765 14.4786C36.6625 13.9415 37.5167 13.759 38.0287 14.1042ZM18.004 36.6667V38.6667H12.6195H7.23491V36.6667V34.6667H12.6195H18.004V36.6667ZM32.8116 36.6667V38.6667H27.427H22.0425V36.6667V34.6667H27.427H32.8116V36.6667Z" fill="white"/>
</svg>
