<svg width="40" height="40" viewBox="0 0 40 40" fill="none" xmlns="http://www.w3.org/2000/svg">
<path fill-rule="evenodd" clip-rule="evenodd" d="M2.75821 0.11789C1.79469 0.37736 0.858131 1.11155 0.441447 1.93402C0.0288257 2.74837 0.00335909 2.99339 0.00335909 6.14687V9.06019L19.0838 9.07987L38.1642 9.09956V18.4361V27.7726L37.9919 28.0949C37.797 28.4593 37.4252 28.8007 37.0535 28.9565C36.8489 29.0422 35.493 29.0618 29.769 29.0618H22.7358L22.7343 28.5735C22.725 25.6628 21.0499 22.7208 18.576 21.2702C18.243 21.0749 17.9706 20.9 17.9706 20.8814C17.9706 20.8629 18.0546 20.7358 18.1573 20.599C18.7286 19.8379 19.0643 18.7603 19.0643 17.6873C19.0643 15.0653 17.0046 12.8989 14.3772 12.7571C12.3251 12.6464 10.4989 13.7306 9.61521 15.5844C9.23118 16.39 9.13611 16.8075 9.13611 17.6891C9.13611 18.7541 9.38648 19.6399 9.90315 20.4028C10.0291 20.5887 10.1563 20.7825 10.1859 20.8333C10.2201 20.8922 10.0723 21.0149 9.7784 21.1715C9.52467 21.3068 9.03229 21.6454 8.68404 21.924C6.78646 23.4425 5.63 25.7126 5.49555 28.1828L5.44775 29.0618H4.32448C3.55845 29.0618 3.12122 29.0283 2.94983 28.9565C2.57814 28.8007 2.20638 28.4593 2.01147 28.0949L1.83914 27.7726L1.81789 19.3541L1.79672 10.9356H0.898362H0L0.0212482 19.5104L0.0424183 28.0852L0.225997 28.5402C0.63065 29.5435 1.4616 30.3386 2.49518 30.7117L3.01092 30.8978H20.0017H36.9924L37.5082 30.7117C38.5418 30.3386 39.3727 29.5435 39.7774 28.5402L39.9609 28.0852L39.982 15.7016C39.9962 7.26874 39.9767 3.19168 39.9208 2.92221C39.7167 1.93887 38.9805 0.928489 38.1424 0.481741C37.168 -0.0377453 38.4818 -0.00313366 19.9657 0.00256984C5.76756 0.00686699 3.10388 0.0247588 2.75821 0.11789ZM36.8599 1.88668C37.3689 2.01481 37.9829 2.62891 38.111 3.13801C38.1692 3.36912 38.2033 4.19808 38.2033 5.38393V7.26351H20.0017H1.80008V5.38393C1.80008 4.19808 1.83414 3.36912 1.89234 3.13801C2.01178 2.66344 2.63915 2.01184 3.09169 1.89238C3.56048 1.76854 36.3691 1.763 36.8599 1.88668ZM23.6732 4.56802V5.46652H24.5716H25.47V4.56802V3.66953H24.5716H23.6732V4.56802ZM27.2667 4.56802V5.46652H28.1651H29.0634V4.56802V3.66953H28.1651H27.2667V4.56802ZM30.9383 4.56802V5.46652H31.8366H32.735V4.56802V3.66953H31.8366H30.9383V4.56802ZM34.5317 4.56802V5.46652H35.4301H36.3284V4.56802V3.66953H35.4301H34.5317V4.56802ZM25.9202 12.8549C25.4598 13.1047 25.47 12.9829 25.47 18.2447V23.0614L25.7356 23.327C25.9844 23.5759 26.1439 23.6304 26.5246 23.5969C26.8069 23.5721 35.164 18.8882 35.3021 18.6774C35.3725 18.5699 35.4301 18.3317 35.4301 18.148C35.4301 17.8797 35.3841 17.7694 35.1957 17.5864C34.8152 17.2169 26.6589 12.7321 26.374 12.7357C26.242 12.7375 26.0377 12.7911 25.9202 12.8549ZM15.1666 14.7266C16.0551 15.0368 16.8255 15.8494 17.1127 16.7792C17.5837 18.3044 16.86 19.9297 15.4064 20.6112C15.0105 20.7968 14.8709 20.8191 14.1037 20.8191C13.3337 20.8191 13.1977 20.7972 12.795 20.6084C12.1664 20.3138 11.537 19.6938 11.2303 19.0669C10.9959 18.5878 10.979 18.4982 10.979 17.7329C10.979 16.9724 10.9972 16.8741 11.2284 16.3859C11.653 15.4896 12.5043 14.807 13.4432 14.6102C13.8901 14.5166 14.727 14.5731 15.1666 14.7266ZM30.0622 16.7268C31.4678 17.5071 32.6284 18.1541 32.6414 18.1646C32.6544 18.1751 31.4767 18.843 30.0244 19.6488C28.5721 20.4544 27.3575 21.1285 27.3253 21.1467C27.293 21.165 27.2667 19.838 27.2667 18.198C27.2667 15.5484 27.2801 15.2212 27.3867 15.2621C27.4527 15.2875 28.6567 15.9466 30.0622 16.7268ZM12.6585 22.48C13.1399 22.6409 13.3978 22.6762 14.1037 22.6777C14.865 22.6793 15.0433 22.6518 15.6661 22.4368L16.3692 22.1939L17.0722 22.5306C18.7686 23.3428 20.0555 24.8463 20.6201 26.6757C20.8014 27.2631 20.976 28.6663 20.8982 28.9112C20.8515 29.0584 20.6969 29.0618 14.0479 29.0618H7.24525L7.29001 28.3782C7.46765 25.6648 8.9644 23.4706 11.3696 22.3978C11.6274 22.2828 11.891 22.2102 11.9555 22.2364C12.0199 22.2628 12.3363 22.3724 12.6585 22.48ZM8.26032 32.8195C7.12753 33.0861 6.08113 34.0559 5.6339 35.2536L5.55367 35.4685H2.77852H0.00335909V36.367V37.2654H2.77852H5.55367L5.6339 37.4803C6.20284 39.004 7.58507 40 9.13064 40C9.90995 40 10.8467 39.6377 11.4799 39.0916C11.877 38.749 12.3852 37.9996 12.5156 37.5644L12.6052 37.2654H26.3026H40V36.367V35.4685H26.2902C15.3745 35.4685 12.5804 35.4485 12.5803 35.3708C12.5803 35.3171 12.4804 35.0622 12.3584 34.8044C11.9181 33.8744 10.9942 33.1142 9.97377 32.8425C9.52732 32.7237 8.71403 32.7127 8.26032 32.8195ZM9.57279 34.6172C10.3233 34.8061 10.8882 35.5574 10.8886 36.367C10.8895 37.9674 8.9569 38.7796 7.82989 37.6524C6.85403 36.6763 7.24009 35.0511 8.54483 34.643C8.95589 34.5144 9.14587 34.5096 9.57279 34.6172Z" fill="white"/>
</svg>
