<svg width="50" height="50" viewBox="0 0 50 50" fill="none" xmlns="http://www.w3.org/2000/svg">
<path d="M9.46617 0.096869C8.21493 0.341136 6.95391 1.3182 6.42604 2.4516C6.06435 3.23325 5.93727 3.87812 5.93727 5.03106V5.9495H5.01839C4.51985 5.9495 3.87468 5.99835 3.58142 6.04721C1.76321 6.38918 0.355561 7.84501 0.0525263 9.70144C-0.250509 11.509 0.785676 13.4827 2.43771 14.2546C3.21973 14.6161 3.8649 14.7431 5.01839 14.7431H5.93727V17.6743V20.6055H5.01839C3.30771 20.6055 2.22265 20.9866 1.28422 21.9148C-0.41669 23.6149 -0.41669 26.3897 1.28422 28.0898C2.22265 29.0181 3.30771 29.3991 5.01839 29.3991H5.93727V32.3303V35.2615H5.01839C4.51985 35.2615 3.87468 35.3104 3.58142 35.3592C1.76321 35.7012 0.355561 37.157 0.0525263 39.0135C-0.250509 40.821 0.785676 42.7947 2.43771 43.5666C3.21973 43.9281 3.8649 44.0551 5.00862 44.0551H5.90795L5.9666 45.2569C6.02525 46.5857 6.12301 46.9766 6.602 47.7973C7.23739 48.8916 8.36156 49.7026 9.56392 49.9175C9.92561 49.9859 15.3998 50.0055 25.6932 49.9957L41.2751 49.9664L42.2526 49.7026C45.6544 48.7744 48.3427 46.2633 49.4668 42.9706C50.0827 41.1825 50.1706 39.0428 49.7014 37.2059C49.2713 35.5644 48.7043 34.4408 47.6193 33.1022L47.0914 32.4573V18.2899C47.0914 9.05657 47.0523 3.93674 46.9937 3.59477C46.6613 1.83605 45.2439 0.419301 43.4843 0.0870983C42.8294 -0.0301497 10.1016 -0.0301497 9.46617 0.096869ZM43.3768 3.11601C43.6309 3.24303 43.8362 3.44821 43.9633 3.70225C44.1588 4.0833 44.1588 4.2494 44.1588 17.2444C44.1588 29.7313 44.149 30.3957 43.9926 30.3176C43.8949 30.2785 43.4452 30.1124 42.9858 29.956C37.5507 28.0605 31.5291 31.2458 29.9064 36.8737C28.9386 40.225 29.7793 43.8988 32.1156 46.5271L32.5653 47.0352L21.4703 47.0645C15.3705 47.0743 10.2482 47.0645 10.0722 47.0352C9.67145 46.9668 9.17291 46.5466 9.00673 46.1363C8.91875 45.9409 8.86987 45.4426 8.86987 44.8172V43.8109L9.50527 43.4786C10.6392 42.8924 11.4897 41.6906 11.7243 40.3423C12.0273 38.564 11.0889 36.6489 9.50527 35.838L8.86987 35.5058V32.3303V29.1548L9.50527 28.8226C11.0889 28.0117 12.0273 26.0966 11.7243 24.3184C11.4897 22.97 10.6392 21.7682 9.50527 21.182L8.86987 20.8498V17.6743V14.4988L9.50527 14.1666C10.6392 13.5804 11.4897 12.3786 11.7243 11.0302C12.0273 9.25199 11.0889 7.33694 9.50527 6.52597L8.86987 6.19377V5.13854C8.86987 3.88789 9.03605 3.42867 9.63235 3.12578C9.98426 2.93036 10.258 2.93036 26.4948 2.92059C42.8391 2.92059 42.9956 2.92059 43.3768 3.11601ZM8.08785 9.07612C8.52774 9.30084 8.86987 9.85777 8.86987 10.3463C8.86987 10.8348 8.52774 11.3918 8.08785 11.6165C7.74571 11.7924 7.5111 11.8119 5.8884 11.8119C3.77693 11.8119 3.45434 11.724 3.10243 11.0302C2.85805 10.5417 2.85805 10.1509 3.10243 9.66236C3.45434 8.96864 3.7476 8.89047 5.86885 8.8807C7.52088 8.8807 7.74571 8.90024 8.08785 9.07612ZM8.08785 23.7321C8.52774 23.9568 8.86987 24.5138 8.86987 25.0023C8.86987 25.4908 8.52774 26.0478 8.08785 26.2725C7.74571 26.4484 7.5111 26.4679 5.8884 26.4679C3.77693 26.4679 3.45434 26.38 3.10243 25.6863C2.85805 25.1977 2.85805 24.8069 3.10243 24.3184C3.45434 23.6246 3.7476 23.5465 5.86885 23.5367C7.52088 23.5367 7.74571 23.5562 8.08785 23.7321ZM41.5684 32.555C44.149 33.2683 46.1628 35.2811 46.8666 37.8507C47.1012 38.7106 47.1403 40.098 46.9546 41.0262C46.3876 43.7913 44.5498 45.8627 41.8616 46.7616C41.1676 46.9863 40.933 47.0156 39.7599 47.0156C38.5869 47.0156 38.3523 46.9863 37.6582 46.7616C33.4353 45.3546 31.3238 40.821 33.0149 36.8248C33.9045 34.7339 35.9964 32.9654 38.0981 32.5355C38.3914 32.4769 38.7237 32.4085 38.8313 32.3889C39.1929 32.301 41.0698 32.4182 41.5684 32.555ZM8.08785 38.3881C8.52774 38.6129 8.86987 39.1698 8.86987 39.6583C8.86987 40.1469 8.52774 40.7038 8.08785 40.9285C7.74571 41.1044 7.5111 41.1239 5.8884 41.1239C3.77693 41.1239 3.45434 41.036 3.10243 40.3423C2.85805 39.8537 2.85805 39.4629 3.10243 38.9744C3.45434 38.2807 3.7476 38.2025 5.86885 38.1927C7.52088 38.1927 7.74571 38.2123 8.08785 38.3881Z" fill="#0073E6"/>
<path d="M24.315 9.08639C24.1293 9.19386 22.8878 10.3761 21.5584 11.6952L19.1341 14.0987L17.8829 12.8676C17.1986 12.1837 16.5143 11.5779 16.3677 11.5291C15.136 11.0601 13.9825 12.213 14.4517 13.4441C14.5788 13.7861 17.7655 17.0202 18.3423 17.3915C18.919 17.7627 19.3492 17.7627 19.9259 17.3915C20.4831 17.0299 26.1039 11.3727 26.3092 10.9624C26.6415 10.2979 26.3678 9.46744 25.6836 9.08639C25.2144 8.82258 24.7549 8.82258 24.315 9.08639Z" fill="#0073E6"/>
<path d="M30.2581 12.0162C29.8377 12.2311 29.4956 12.8076 29.4956 13.2766C29.4956 13.7651 29.8377 14.322 30.2776 14.5468C30.6491 14.7324 30.8446 14.7422 35.3608 14.7422C39.877 14.7422 40.0725 14.7324 40.444 14.5468C40.8839 14.322 41.226 13.7651 41.226 13.2766C41.226 12.7881 40.8839 12.2311 40.444 12.0064C40.0725 11.8208 39.8868 11.811 35.3413 11.811C30.8348 11.8208 30.6002 11.8305 30.2581 12.0162Z" fill="#0073E6"/>
<path d="M24.315 20.811C24.1293 20.9185 22.8878 22.1007 21.5584 23.4198L19.1341 25.8234L17.8829 24.5922C17.1986 23.9083 16.5143 23.3025 16.3677 23.2537C15.136 22.7847 13.9825 23.9376 14.4517 25.1687C14.5788 25.5107 17.7655 28.7448 18.3423 29.1161C18.919 29.4874 19.3492 29.4874 19.9259 29.1161C20.4831 28.7546 26.1039 23.0973 26.3092 22.687C26.6415 22.0226 26.3678 21.1921 25.6836 20.811C25.2144 20.5472 24.7549 20.5472 24.315 20.811Z" fill="#0073E6"/>
<path d="M30.2581 23.7418C29.8377 23.9567 29.4956 24.5332 29.4956 25.0022C29.4956 25.4907 29.8377 26.0476 30.2776 26.2724C30.6491 26.458 30.8446 26.4678 35.3608 26.4678C39.877 26.4678 40.0725 26.458 40.444 26.2724C40.8839 26.0476 41.226 25.4907 41.226 25.0022C41.226 24.5136 40.8839 23.9567 40.444 23.732C40.0725 23.5463 39.8868 23.5366 35.3413 23.5366C30.8348 23.5463 30.6002 23.5561 30.2581 23.7418Z" fill="#0073E6"/>
<path d="M24.315 32.5356C24.1293 32.6431 22.8878 33.8253 21.5584 35.1444L19.1341 37.548L17.8829 36.3169C17.1986 35.6329 16.5143 35.0271 16.3677 34.9783C15.136 34.5093 13.9825 35.6622 14.4517 36.8933C14.5788 37.2353 17.7655 40.4694 18.3423 40.8407C18.919 41.212 19.3492 41.212 19.9259 40.8407C20.4831 40.4792 26.1039 34.8219 26.3092 34.4116C26.6415 33.7472 26.3678 32.9167 25.6836 32.5356C25.2144 32.2718 24.7549 32.2718 24.315 32.5356Z" fill="#0073E6"/>
<path d="M39.0564 35.4668C38.3917 35.8088 38.2939 36.1605 38.2939 38.1928C38.2939 40.2447 38.3917 40.5769 39.076 40.9286C39.4181 41.1045 39.6527 41.124 41.2265 41.124C42.8004 41.124 43.035 41.1045 43.3771 40.9286C43.817 40.7039 44.1591 40.147 44.1591 39.6584C44.1591 39.1699 43.817 38.613 43.3771 38.3882C43.0741 38.2319 42.8004 38.1928 42.1063 38.1928H41.2265V37.3135C41.2265 36.2191 41.031 35.7599 40.4445 35.457C39.9655 35.2128 39.5256 35.2128 39.0564 35.4668Z" fill="#0073E6"/>
</svg>
