<svg width="45" height="32" viewBox="0 0 45 32" fill="none" xmlns="http://www.w3.org/2000/svg">
<path d="M1.49414 0.18771C0.922852 0.446928 0.37793 1.02793 0.175781 1.59106C0 2.05587 0 2.30615 0 16C0 29.6939 0 29.9441 0.175781 30.4089C0.37793 30.9721 0.922852 31.5531 1.49414 31.8123C1.87207 31.9911 2.06543 32 5.64258 32H9.39551L9.57129 31.7676C9.7998 31.4726 9.80859 31.1866 9.58887 30.9184L9.42188 30.7039L5.68652 30.6592C2.10938 30.6145 1.94238 30.6056 1.75781 30.4358C1.29199 30.0067 1.31836 30.6503 1.31836 18.1453V6.52514H22.5H43.6816V18.1453C43.6816 30.6503 43.708 30.0067 43.2422 30.4358C43.0488 30.6145 42.8906 30.6145 27.4482 30.6592L11.8477 30.7039L11.6807 30.9184C11.4521 31.2045 11.4697 31.5709 11.7158 31.8034L11.918 32H27.5186C42.9961 32 43.1104 31.9911 43.5059 31.8123C44.0771 31.5531 44.6221 30.9721 44.8242 30.4089C45 29.9441 45 29.6939 45 16C45 2.30615 45 2.05587 44.8242 1.59106C44.6221 1.02793 44.0771 0.446928 43.5059 0.18771C43.1104 0.00893974 43.0049 0 26.4375 0H9.76465L9.58887 0.232403C9.36035 0.527376 9.35156 0.813408 9.57129 1.08157L9.73828 1.29609L26.3936 1.34078C42.8906 1.38548 43.0488 1.38548 43.2422 1.56425C43.6377 1.93073 43.6816 2.14525 43.6816 3.7095V5.18436H22.5H1.31836V3.7095C1.31836 2.14525 1.3623 1.93073 1.75781 1.56425C1.94238 1.39441 2.10938 1.38548 4.63184 1.34078L7.3125 1.29609L7.47949 1.08157C7.69922 0.813408 7.69043 0.527376 7.46191 0.232403L7.28613 0H4.58789C2.06543 0 1.86328 0.0178776 1.49414 0.18771Z" fill="white"/>
<path d="M3.55979 8.34782C3.19944 8.50871 2.83909 8.95564 2.72483 9.38469C2.6633 9.61709 2.63694 11.7445 2.65452 15.7489C2.68088 22.4707 2.64573 22.0685 3.3137 22.5869L3.6301 22.8372L8.54319 22.864C13.2981 22.8819 13.4563 22.8819 13.7903 22.7031C14.2297 22.4797 14.4758 22.1311 14.5901 21.5679C14.6516 21.2819 14.678 19.1277 14.6604 15.2305C14.634 8.65173 14.6692 9.03609 14.0012 8.51765L13.6848 8.26737L8.75412 8.2495C4.79026 8.23162 3.77073 8.2495 3.55979 8.34782ZM13.3069 9.70648C13.3772 9.89419 13.3772 18.3232 13.3069 18.3232C13.2717 18.3232 12.9817 18.073 12.6653 17.7601C12.3401 17.4562 11.8215 17.0629 11.5051 16.8931L10.925 16.5892L11.2942 16.035C11.7424 15.3735 11.9006 14.7568 11.8479 13.9434C11.76 12.7724 11.092 11.7713 10.0285 11.235C9.50998 10.9758 9.37815 10.9489 8.65744 10.9489C7.98948 10.9489 7.78733 10.9847 7.36545 11.1903C6.69748 11.5031 6.06467 12.1199 5.75705 12.7545C5.55491 13.1657 5.50217 13.4249 5.46702 14.0327C5.42307 14.9177 5.60764 15.5344 6.10862 16.2048L6.40745 16.5981L5.95041 16.8126C5.45823 17.045 4.23655 17.9836 4.15745 18.1981C4.13108 18.2607 4.07834 18.3232 4.0344 18.3232C3.94651 18.3232 3.92014 9.71542 4.01682 9.62603C4.04319 9.59028 6.13498 9.56346 8.66623 9.56346C12.7707 9.56346 13.2629 9.58134 13.3069 9.70648ZM9.23752 12.3434C10.2834 12.6651 10.8459 13.9434 10.3801 14.9713C9.53635 16.8573 6.75901 16.2763 6.7678 14.2026C6.77659 12.8618 7.9719 11.959 9.23752 12.3434ZM9.75608 17.6171C11.3996 18.0015 12.9026 19.5836 13.2102 21.2461L13.2717 21.5411H8.65744C6.11741 21.5411 4.04319 21.5054 4.04319 21.4696C4.04319 21.2551 4.35959 20.3612 4.58811 19.9054C4.90452 19.3065 5.82737 18.3858 6.46897 18.0372C6.71506 17.9031 7.12815 17.7333 7.39182 17.6618C7.94553 17.5098 9.19358 17.483 9.75608 17.6171Z" fill="white"/>
<path d="M17.5781 8.39305C17.4111 8.48243 17.1826 8.71483 17.0771 8.90254C16.9014 9.20645 16.875 9.37629 16.875 10.3327C16.875 11.5215 16.9629 11.7718 17.5166 12.1919L17.7627 12.3796H29.6191C41.4492 12.3796 41.4756 12.3796 41.7217 12.1919C41.8535 12.0936 42.0557 11.8344 42.1699 11.6109C42.3545 11.2534 42.3721 11.1193 42.3457 10.1718C42.3193 9.01874 42.2402 8.8221 41.6602 8.41986C41.3789 8.23215 41.3086 8.22321 39.1465 8.22321H36.9229L36.7471 8.45562C36.5361 8.72377 36.5186 8.83997 36.6592 9.14388C36.8262 9.5193 37.0635 9.564 39.1113 9.564H41.0449V10.3238V11.0835H29.6191H18.1934V10.3238V9.564L26.332 9.54612L34.4707 9.5193L34.6377 9.30478C34.8574 9.03662 34.8486 8.6612 34.6289 8.41986L34.4443 8.22321H26.165C18.2725 8.22321 17.8682 8.23215 17.5781 8.39305Z" fill="white"/>
<path d="M17.2525 13.8546C16.8482 14.0244 16.7515 14.5965 17.0767 14.9093C17.2701 15.097 17.358 15.106 18.9664 15.106C20.5396 15.106 20.6626 15.097 20.8296 14.9272C21.0494 14.7037 21.0582 14.2925 20.8384 14.0244C20.6714 13.8188 20.6363 13.8099 19.0542 13.792C18.1753 13.7831 17.358 13.8099 17.2525 13.8546Z" fill="white"/>
<path d="M22.8518 13.8277C22.3948 13.9976 22.2542 14.5875 22.5881 14.9272C22.7639 15.106 22.8782 15.106 30.1467 15.106C37.4153 15.106 37.5296 15.106 37.7053 14.9272C37.9251 14.7037 37.9338 14.2925 37.7141 14.0244L37.5471 13.8099L30.261 13.792C26.262 13.7831 22.9221 13.8009 22.8518 13.8277Z" fill="white"/>
<path d="M22.5882 16.8939C22.3509 17.1352 22.3597 17.6179 22.597 17.8414C22.764 17.9933 22.9573 18.0112 24.3196 18.038C25.9896 18.0738 26.2796 18.0201 26.4466 17.6447C26.5872 17.3319 26.5696 17.2157 26.3587 16.9475L26.1829 16.7151H24.4691C22.8782 16.7151 22.7552 16.724 22.5882 16.8939Z" fill="white"/>
<path d="M28.046 16.9475C27.835 17.2157 27.8174 17.3319 27.9581 17.6447C28.1251 18.0201 28.4151 18.0738 30.085 18.038C31.8516 18.0112 31.9922 17.9576 31.9922 17.3319C31.9922 16.7509 31.8604 16.7151 29.918 16.7151H28.2217L28.046 16.9475Z" fill="white"/>
<path d="M17.0947 19.7989C16.9717 19.9151 16.875 20.1207 16.875 20.2459C16.875 20.371 16.9717 20.5766 17.0947 20.6928C17.3057 20.9163 17.3232 20.9163 18.9229 20.9163C20.4258 20.9163 20.5576 20.9073 20.7773 20.7286C21.0937 20.4783 21.0937 20.0135 20.7773 19.7632C20.5576 19.5844 20.4258 19.5755 18.9229 19.5755C17.3232 19.5755 17.3057 19.5755 17.0947 19.7989Z" fill="white"/>
<path d="M22.6059 19.7542C22.3247 20.0224 22.3422 20.4872 22.6411 20.7286C22.8784 20.9163 22.9223 20.9163 30.1469 20.9163C37.3715 20.9163 37.4155 20.9163 37.6528 20.7286C37.9692 20.4783 37.9692 20.0135 37.6528 19.7632C37.4155 19.5755 37.3715 19.5755 30.1118 19.5755C22.8696 19.5755 22.7993 19.5755 22.6059 19.7542Z" fill="white"/>
<path d="M22.6411 22.6235C22.351 22.8559 22.3247 23.3297 22.5883 23.5978C22.7553 23.7677 22.8784 23.7766 24.4692 23.7766H26.1831L26.3588 23.5442C26.5698 23.2761 26.5874 23.1599 26.4467 22.8559C26.2797 22.4895 26.0249 22.4358 24.3989 22.4358C22.9926 22.4358 22.8608 22.4537 22.6411 22.6235Z" fill="white"/>
<path d="M27.8701 25.3494C27.6943 25.5729 27.6855 25.7069 27.6855 27.2354C27.6855 28.8622 27.6855 28.8801 27.9053 29.0947C28.0195 29.2198 28.2217 29.3181 28.3447 29.3181C28.4678 29.3181 28.6699 29.2198 28.7842 29.0947C29.0039 28.8801 29.0039 28.8622 29.0039 27.1729C29.0039 25.5907 28.9951 25.4656 28.8281 25.2958C28.5645 25.0276 28.0986 25.0544 27.8701 25.3494Z" fill="white"/>
<path d="M30.5332 25.3057C30.3838 25.4756 30.3662 25.6365 30.3662 26.7448V27.9962L30.6123 28.2108C30.9111 28.47 31.1045 28.4789 31.4121 28.2376L31.6406 28.0588V26.727C31.6406 25.4577 31.6318 25.3862 31.4473 25.261C31.166 25.0554 30.7354 25.0823 30.5332 25.3057Z" fill="white"/>
<path d="M33.2227 25.2953C33.0645 25.4562 33.0469 25.5902 33.0469 26.7254C33.0469 27.9411 33.0557 27.9947 33.2666 28.2003C33.5039 28.4506 33.6357 28.4685 33.9521 28.3254C34.2949 28.1645 34.3652 27.8785 34.3652 26.6897C34.3652 25.7064 34.3477 25.5634 34.1807 25.3489C33.9521 25.0539 33.4863 25.0271 33.2227 25.2953Z" fill="white"/>
<path d="M35.8682 25.3494C35.6924 25.5729 35.6836 25.7069 35.6836 27.2354C35.6836 28.8622 35.6836 28.8801 35.9033 29.0947C36.0176 29.2198 36.2197 29.3181 36.3428 29.3181C36.4658 29.3181 36.668 29.2198 36.7822 29.0947C37.002 28.8801 37.002 28.8622 37.002 27.1907C37.002 25.6176 36.9932 25.4924 36.8262 25.3136C36.5625 25.0276 36.1055 25.0455 35.8682 25.3494Z" fill="white"/>
<path d="M38.5312 25.3057C38.3818 25.4756 38.3643 25.6365 38.3643 26.7448V27.9962L38.6104 28.2108C38.9092 28.47 39.1025 28.4789 39.4102 28.2376C39.6387 28.0588 39.6387 28.0499 39.6387 26.7627C39.6387 25.5918 39.6211 25.4577 39.4629 25.2968C39.2256 25.0554 38.751 25.0644 38.5312 25.3057Z" fill="white"/>
<path d="M41.2207 25.2961C41.0537 25.4659 41.0449 25.5911 41.0449 27.2089V28.952L41.2734 29.1307C41.5723 29.3631 41.8711 29.3721 42.0996 29.1397C42.3545 28.8805 42.3809 28.6838 42.3457 27.0212C42.3193 25.6715 42.3018 25.4749 42.1523 25.305C41.9326 25.0637 41.458 25.0548 41.2207 25.2961Z" fill="white"/>
</svg>
