<svg width="50" height="50" viewBox="0 0 50 50" fill="none" xmlns="http://www.w3.org/2000/svg">
<path d="M25.2048 0.109884C24.276 0.373709 23.5133 1.08701 23.1516 2.02506C22.9854 2.46476 22.9658 2.78722 22.9658 5.09324V7.67286L23.2689 7.97577C23.6796 8.38616 24.1977 8.39593 24.6475 7.99531L24.9701 7.71194L25.019 5.23004C25.0484 3.608 25.107 2.6895 25.1852 2.56248C25.4688 2.05437 25.019 2.07391 36.5659 2.07391H47.3111L47.6239 2.39636L47.9466 2.70905V9.35352V15.9882L47.663 16.2814C47.4675 16.4866 47.2426 16.594 46.9297 16.6429C46.0498 16.7797 45.6392 17.6005 46.1085 18.304C46.4311 18.7926 47.3111 18.8317 48.2497 18.4017C48.895 18.0988 49.4229 17.5712 49.7456 16.8872L49.9998 16.34V9.35352V2.36705L49.7456 1.81986C49.4229 1.1261 48.895 0.59845 48.2008 0.275997L47.6533 0.021944L36.6539 0.00240135C27.962 -0.00737 25.5568 0.0121727 25.2048 0.109884Z" fill="#0073E6"/>
<path d="M31.2764 9.35387V10.4287H32.303H33.3296V9.35387V8.27903H32.303H31.2764V9.35387Z" fill="#0073E6"/>
<path d="M35.4805 9.35387V10.4287H36.5071H37.5337V9.35387V8.27903H36.5071H35.4805V9.35387Z" fill="#0073E6"/>
<path d="M39.6264 8.40511C39.6069 8.47351 39.5971 8.9523 39.6069 9.46041L39.6362 10.3789H40.6628H41.6894V9.35292V8.32694L40.6824 8.29762C39.91 8.27808 39.6655 8.29762 39.6264 8.40511Z" fill="#0073E6"/>
<path d="M2.01333 10.6236C1.03561 11.0047 0.302322 11.8645 0.0872236 12.871C0.009006 13.2521 -0.0105484 15.3333 0.009006 20.1017L0.0383376 26.7951L0.263213 27.2934C0.517421 27.8601 1.13338 28.4953 1.70046 28.7884C2.30665 29.0913 3.00083 29.189 4.69229 29.189H6.24686V30.9088V32.6285L6.57929 32.9607C6.85305 33.2343 6.98015 33.293 7.33213 33.293C7.74277 33.293 7.7721 33.2637 9.80576 31.2508L11.8688 29.1988L13.9415 29.1695L16.0241 29.1402L16.3272 28.8275C16.7671 28.3976 16.7671 27.8308 16.3272 27.4009L16.0241 27.0882L13.9415 27.0589C10.9399 27.01 11.2332 26.9221 9.71777 28.4171C9.01381 29.1109 8.40762 29.6776 8.36851 29.6776C8.3294 29.6776 8.30007 29.2477 8.30007 28.7102C8.30007 27.5963 8.16319 27.3129 7.53745 27.1371C7.34191 27.0882 6.16864 27.0393 4.94649 27.0393H2.70751L2.43375 26.7658C2.24799 26.5801 2.14044 26.3456 2.09155 26.0524C2.06222 25.8179 2.04266 22.8279 2.06222 19.4177C2.09155 13.6136 2.10133 13.1934 2.26754 12.9492C2.36531 12.8124 2.58041 12.6462 2.74662 12.5876C2.95194 12.5192 5.11271 12.4801 9.37557 12.4801C13.6384 12.4801 15.7992 12.441 16.0045 12.3726C16.6791 12.1381 16.8551 11.2392 16.3272 10.7115L16.0436 10.4282H9.25824C2.86395 10.4379 2.45331 10.4477 2.01333 10.6236Z" fill="#0073E6"/>
<path d="M23.6991 10.4869C22.6529 10.653 21.3134 11.1904 20.4042 11.806C18.2923 13.2326 16.9724 15.4507 16.7377 17.9521C16.6204 19.2322 16.7573 21.7532 17.0017 22.8866C17.5688 25.4663 18.5954 27.4889 20.1206 29.0035C21.4014 30.2737 22.6431 30.9382 24.1977 31.1629C25.107 31.2899 26.3487 31.1727 27.0233 30.8893C27.4926 30.6939 27.6002 30.7428 27.7468 31.2411C27.8153 31.4658 27.8935 31.7101 27.9131 31.7785C27.9424 31.8469 27.3558 32.355 26.4856 32.9999L25.019 34.0943L23.3178 32.824C22.3889 32.1303 21.4797 31.4756 21.3037 31.3877C20.717 31.0847 20.4237 31.2313 19.1625 32.4625L18.0283 33.5667L15.0463 35.0519C13.4037 35.8727 11.8002 36.6935 11.4776 36.8889C9.73723 37.9149 8.38798 39.4587 7.78179 41.1101C7.36137 42.2533 7.32227 42.6833 7.32227 46.4061V50.002H8.34887H9.37548V46.6015C9.37548 42.9373 9.42436 42.4878 9.923 41.4423C10.3043 40.6411 10.9692 39.8203 11.6927 39.2535C12.1131 38.9311 13.3939 38.2276 15.1636 37.3384C16.7182 36.5664 17.9794 35.9508 17.9794 35.9899C17.9794 36.3515 18.8007 40.8463 18.9082 41.0905C19.0842 41.4716 19.6122 41.7354 20.0033 41.6377C20.1402 41.5986 21.3232 41.1394 22.6334 40.6117L25.019 39.6639L27.3362 40.5922C28.617 41.1101 29.8098 41.5596 29.9956 41.6084C30.4649 41.7159 30.944 41.5009 31.1298 41.0905C31.2373 40.8463 32.0586 36.3515 32.0586 35.9899C32.0586 35.9508 33.3198 36.5664 34.8744 37.3384C36.6441 38.2276 37.9249 38.9311 38.3453 39.2535C39.0688 39.8203 39.7337 40.6411 40.115 41.4423C40.6136 42.4878 40.6625 42.9373 40.6625 46.6015V50.002H41.6891H42.7157V46.4061C42.7157 42.6833 42.6766 42.2533 42.2562 41.1101C41.65 39.4685 40.291 37.9051 38.5604 36.8889C38.2378 36.6935 36.6148 35.8531 34.9429 35.0226L31.9119 33.508L31.0124 32.5895C30.1227 31.6906 30.1031 31.671 29.7414 30.6353L29.3796 29.5995L30.0445 28.8862C31.5306 27.3228 32.479 25.4076 33.0559 22.8378C33.2612 21.9193 33.2807 21.5675 33.2807 19.5155C33.2807 17.3756 33.2612 17.1704 33.0461 16.4865C32.4106 14.454 31.3057 12.9297 29.6632 11.8255C28.8614 11.2881 28.5779 11.1513 27.5317 10.8093C26.7398 10.5455 26.4758 10.5064 25.3123 10.4771C24.5888 10.4576 23.8653 10.4673 23.6991 10.4869ZM26.3291 12.6268C28.1184 13.0079 29.7707 14.2879 30.5725 15.9099C31.1004 16.9848 31.2764 17.7958 31.2764 19.3201C31.2764 21.7825 30.9147 23.5022 29.9956 25.349C29.5165 26.3261 29.2721 26.6877 28.6757 27.3326C27.5024 28.5638 26.378 29.1207 25.019 29.1207C23.66 29.1207 22.5356 28.5638 21.3623 27.3326C20.0913 25.9646 19.1527 23.7661 18.8691 21.4209C18.8105 20.9324 18.7616 20.3657 18.7616 20.1409V19.7403L19.6122 19.4667C20.1304 19.3006 20.7366 18.9977 21.1766 18.7143L21.8903 18.2355L22.604 18.7143C23.044 19.0074 23.66 19.3006 24.1977 19.4765C25.0288 19.7403 25.1559 19.7598 26.7985 19.7598H28.5388L28.8419 19.4471C29.2819 19.0172 29.2819 18.4505 28.8419 18.0205L28.5388 17.7079L26.7496 17.659L24.9701 17.6101L24.2955 17.2779C23.8751 17.0727 23.4155 16.7405 23.0636 16.379C22.1054 15.4116 21.6948 15.3921 20.8148 16.291C20.2477 16.8578 19.3384 17.4636 19.0354 17.4636C18.8985 17.4636 18.8887 17.4147 18.9767 17.0923C19.0256 16.8968 19.2505 16.3594 19.4753 15.9002C20.6877 13.4183 23.572 12.0405 26.3291 12.6268ZM22.8973 35.1203C24.4324 36.2733 24.6768 36.4199 25.019 36.4199C25.3612 36.4199 25.6056 36.2635 27.2384 35.0519L29.0668 33.6839L29.6045 34.2213L30.152 34.7588L29.7903 36.9182C29.5947 38.1005 29.4187 39.0972 29.3992 39.1167C29.3699 39.1363 28.4215 38.7747 27.2873 38.3253C26.1434 37.866 25.1266 37.4947 25.019 37.4947C24.9115 37.4947 23.8946 37.866 22.7507 38.3253C21.6165 38.7747 20.6681 39.1363 20.6388 39.1167C20.6193 39.0972 20.4433 38.1005 20.2477 36.9182L19.8957 34.7588L20.4139 34.2311C20.7073 33.938 20.9908 33.723 21.0495 33.7523C21.1081 33.7914 21.9392 34.407 22.8973 35.1203Z" fill="#0073E6"/>
<path d="M4.19385 15.6068V16.6816H9.37576H14.5577V15.6068V14.532H9.37576H4.19385V15.6068Z" fill="#0073E6"/>
<path d="M35.7839 16.9846C35.3733 17.395 35.3635 17.9128 35.7644 18.3623C36.0479 18.6848 36.0577 18.6848 37.1136 18.7141L38.1696 18.7434L40.1739 20.7465C41.484 22.0461 42.2858 22.7692 42.4715 22.818C42.9115 22.945 43.3808 22.7789 43.6057 22.4174C43.7817 22.1243 43.7914 21.9581 43.7719 19.6814L43.7426 17.2484L43.4199 16.965C42.9702 16.5644 42.452 16.5742 42.0413 16.9846C41.7382 17.2777 41.7382 17.2972 41.7382 18.3232V19.359L40.3792 18.0203L39.0202 16.6816H37.5536H36.087L35.7839 16.9846Z" fill="#0073E6"/>
<path d="M4.19385 19.7601V20.7861H9.37576H14.5577V19.7601V18.7342H9.37576H4.19385V19.7601Z" fill="#0073E6"/>
<path d="M4.19385 23.9613V24.9873H5.22045H6.24706V23.9613V22.9353H5.22045H4.19385V23.9613Z" fill="#0073E6"/>
<path d="M8.30029 23.9613V24.9873H9.37579H10.4513V23.9613V22.9353H9.37579H8.30029V23.9613Z" fill="#0073E6"/>
<path d="M13.5796 47.4126V50.002H14.6062H15.6328V47.4126V44.8232H14.6062H13.5796V47.4126Z" fill="#0073E6"/>
<path d="M23.9434 45.849V46.875H25.0189H26.0943V45.849V44.823H25.0189H23.9434V45.849Z" fill="#0073E6"/>
<path d="M34.4053 47.4126V50.002H35.4319H36.4585V47.4126V44.8232H35.4319H34.4053V47.4126Z" fill="#0073E6"/>
</svg>
