<svg width="54" height="50" viewBox="0 0 54 50" fill="none" xmlns="http://www.w3.org/2000/svg">
<path d="M32.7951 3.62089C29.1133 5.6099 25.9801 7.34755 25.8324 7.50055C25.4737 7.86119 25.4737 8.53877 25.8324 8.89941C25.9801 9.04148 27.2355 9.7737 28.628 10.5278L31.1599 11.8939L31.1916 13.0523L31.2232 14.1998L19.9563 14.2326L8.68928 14.2654L7.83476 14.5604C5.71429 15.3145 4.00526 17.0849 3.28788 19.2816L2.99249 20.1668L2.96084 30.9534L2.9292 41.7508H1.87424C0.217949 41.7508 -0.109089 42.0568 0.0280563 43.5213C0.281247 46.3518 2.10633 48.7124 4.82812 49.7069L5.62989 50.002H24.1444H42.659L43.503 49.696C45.6656 48.8982 47.227 47.2807 47.9338 45.0841C48.2608 44.0786 48.3769 42.8656 48.1975 42.4066C47.9865 41.882 47.6173 41.7508 46.4041 41.7508H45.3491L45.3702 31.4014L45.4019 21.052L46.6678 20.4947C47.5118 20.1122 47.9971 19.828 48.1448 19.6313C48.3452 19.3472 48.3558 19.1614 48.3874 15.5987L48.4191 11.8611L50.0543 10.9868C50.9615 10.5059 51.7422 10.0906 51.7949 10.0797C51.8477 10.0578 51.8899 11.4458 51.8899 13.5441V17.0522L52.1958 17.4019C52.449 17.697 52.5756 17.7625 52.9449 17.7625C53.3141 17.7625 53.4407 17.697 53.6939 17.4019L53.9998 17.0522V12.5059C53.9998 8.80106 53.9682 7.91584 53.8521 7.66448C53.7255 7.42405 52.4596 6.70276 47.2797 3.91596C39.5363 -0.25877 40.0321 0.00351715 39.7368 0.00351715C39.5996 0.00351715 36.4769 1.63188 32.7951 3.62089ZM45.4863 5.41319C48.2503 6.89948 50.5184 8.15627 50.5184 8.19998C50.5184 8.3202 39.8422 14.0577 39.7051 14.014C39.4519 13.9266 28.9973 8.25463 28.9973 8.19998C28.9973 8.1672 31.4342 6.82298 34.3987 5.2274L39.8106 2.30946L40.1271 2.50617C40.2959 2.61546 42.7117 3.92689 45.4863 5.41319ZM36.4769 14.7572C38.1438 15.6533 39.6207 16.3964 39.7684 16.3964C39.9055 16.3964 41.393 15.6533 43.0704 14.7572C44.7478 13.8501 46.1615 13.1179 46.2142 13.1179C46.267 13.1179 46.2881 14.2872 46.2775 15.7079L46.2459 18.298L43.081 19.6969C41.3403 20.4619 39.8633 21.0958 39.8 21.0958C39.7262 21.0958 38.4919 20.5712 37.0572 19.9373C35.6119 19.3035 34.1771 18.6805 33.8817 18.5603L33.3226 18.3308V15.7298C33.3226 14.2872 33.3437 13.1179 33.3859 13.1179C33.4175 13.1179 34.7995 13.8501 36.4769 14.7572ZM31.2127 17.9155C31.2127 19.3472 31.2232 19.4565 31.4553 19.7078C31.7402 20.0466 39.3253 23.3908 39.7895 23.3908C39.9583 23.3908 40.8023 23.0738 41.6673 22.6913L43.2392 21.9919V31.8714V41.7508H35.96C30.548 41.7508 28.6175 41.7836 28.417 41.882C28.1111 42.0241 27.8368 42.4831 27.8368 42.8437C27.8368 43.2044 28.1111 43.6634 28.417 43.8054C28.6175 43.9038 30.8645 43.9366 37.3842 43.9366H46.0665L45.961 44.3519C45.5601 45.9037 43.9038 47.4447 42.3003 47.7616C41.5407 47.9037 6.76925 47.9146 6.00968 47.7616C4.36394 47.4447 2.7182 45.8709 2.25402 44.1879L2.19072 43.9366H10.8941C17.4138 43.9366 19.6714 43.9038 19.8719 43.8054C20.1778 43.6634 20.4521 43.2044 20.4521 42.8437C20.4521 42.4831 20.1778 42.0241 19.8719 41.882C19.6714 41.7836 17.7408 41.7508 12.3289 41.7508H5.04967V31.4342C5.04967 24.9863 5.09186 20.91 5.15516 20.5384C5.3978 19.216 6.30507 17.8718 7.43388 17.1614C8.68928 16.3746 8.17235 16.4074 20.3255 16.4074L31.2127 16.3964V17.9155Z" fill="#0073E6"/>
<path d="M39.0618 7.47882C38.8086 7.7411 38.7031 7.94875 38.7031 8.20011C38.7031 8.64818 39.2939 9.29297 39.6948 9.29297C40.8025 9.29297 41.235 7.77389 40.275 7.26025C39.8003 7.00889 39.4521 7.07446 39.0618 7.47882Z" fill="#0073E6"/>
<path d="M11.01 20.702C10.2926 20.9424 9.95501 21.1719 9.39588 21.7948C8.45697 22.8658 8.47807 22.7238 8.47807 29.0733C8.47807 34.1442 8.48862 34.636 8.66796 35.1715C8.9317 35.9365 9.74402 36.8435 10.5141 37.237L11.1155 37.543H18.8167H26.5179L27.1192 37.237C27.8682 36.8545 28.5962 36.0348 28.881 35.237C29.092 34.6578 29.1025 34.4174 29.1025 29.0733C29.1025 23.7292 29.092 23.4888 28.881 22.9095C28.5962 22.1118 27.8682 21.2921 27.1192 20.9096L26.5179 20.6036L18.9749 20.5818C13.0882 20.5599 11.337 20.5927 11.01 20.702ZM26.2014 22.8877C26.4018 22.9751 26.6656 23.2155 26.7816 23.4123C26.9821 23.762 26.9926 23.9478 26.9926 29.0733C26.9926 34.1988 26.9821 34.3846 26.7816 34.7343C26.3702 35.4228 26.5706 35.4119 18.7428 35.4119C11.8961 35.4119 11.6324 35.401 11.3054 35.1933C10.5563 34.7234 10.588 34.9747 10.588 29.0733C10.588 23.1718 10.5563 23.4232 11.3054 22.9533C11.6324 22.7456 11.8961 22.7347 18.7428 22.7347C24.6823 22.7347 25.8955 22.7565 26.2014 22.8877Z" fill="#0073E6"/>
<path d="M16.8337 26.4618C16.4117 26.7132 16.3379 27.1175 16.3379 29.0738C16.3379 31.0518 16.4223 31.4453 16.8548 31.6966C17.3085 31.948 17.7199 31.8168 19.1757 30.9644C21.0325 29.8606 21.2224 29.6967 21.2224 29.0738C21.2224 28.4508 21.0325 28.2869 19.1757 27.1831C17.7199 26.3307 17.2768 26.1995 16.8337 26.4618Z" fill="#0073E6"/>
<path d="M32.911 30.3198C32.4152 30.604 32.2464 31.2378 32.5207 31.7952C32.795 32.3198 32.9848 32.3525 36.3818 32.3525H39.5467L39.8843 32.0356C40.1691 31.7733 40.2324 31.6422 40.2324 31.2597C40.2324 30.8772 40.1691 30.746 39.8843 30.4837L39.5467 30.1668H36.3502C33.9132 30.1777 33.1009 30.2105 32.911 30.3198Z" fill="#0073E6"/>
<path d="M32.911 35.5649C32.4152 35.8491 32.2464 36.4829 32.5207 37.0403C32.795 37.5649 32.9848 37.5977 36.3818 37.5977H39.5467L39.8843 37.2807C40.1691 37.0184 40.2324 36.8873 40.2324 36.5048C40.2324 36.1223 40.1691 35.9911 39.8843 35.7289L39.5467 35.4119H36.3502C33.9132 35.4229 33.1009 35.4556 32.911 35.5649Z" fill="#0073E6"/>
<path d="M23.6276 41.9038C22.7097 42.4284 23.1001 43.9365 24.1445 43.9365C24.6825 43.9365 25.1994 43.401 25.1994 42.8546C25.1994 42.0349 24.3238 41.4994 23.6276 41.9038Z" fill="#0073E6"/>
</svg>
