<svg width="50" height="36" viewBox="0 0 50 36" fill="none" xmlns="http://www.w3.org/2000/svg">
<path d="M1.66016 0.211173C1.02539 0.502793 0.419922 1.15642 0.195312 1.78994C0 2.31285 0 2.59441 0 18C0 33.4056 0 33.6872 0.195312 34.2101C0.419922 34.8436 1.02539 35.4972 1.66016 35.7888C2.08008 35.9899 2.29492 36 6.26953 36H10.4395L10.6348 35.7385C10.8887 35.4067 10.8984 35.0849 10.6543 34.7832L10.4688 34.5419L6.31836 34.4916C2.34375 34.4413 2.1582 34.4313 1.95312 34.2402C1.43555 33.7575 1.46484 34.4816 1.46484 20.4134V7.34078H25H48.5352V20.4134C48.5352 34.4816 48.5645 33.7575 48.0469 34.2402C47.832 34.4413 47.6562 34.4413 30.498 34.4916L13.1641 34.5419L12.9785 34.7832C12.7246 35.105 12.7441 35.5173 13.0176 35.7788L13.2422 36H30.5762C47.7734 36 47.9004 35.9899 48.3398 35.7888C48.9746 35.4972 49.5801 34.8436 49.8047 34.2101C50 33.6872 50 33.4056 50 18C50 2.59441 50 2.31285 49.8047 1.78994C49.5801 1.15642 48.9746 0.502793 48.3398 0.211173C47.9004 0.0100553 47.7832 -6.10948e-07 29.375 -6.10948e-07H10.8496L10.6543 0.261452C10.4004 0.593295 10.3906 0.915083 10.6348 1.21676L10.8203 1.4581L29.3262 1.50838C47.6562 1.55866 47.832 1.55866 48.0469 1.75978C48.4863 2.17207 48.5352 2.41341 48.5352 4.17318V5.8324H25H1.46484V4.17318C1.46484 2.41341 1.51367 2.17207 1.95312 1.75978C2.1582 1.56871 2.34375 1.55866 5.14648 1.50838L8.125 1.4581L8.31055 1.21676C8.55469 0.915083 8.54492 0.593295 8.29102 0.261452L8.0957 -6.10948e-07H5.09766C2.29492 -6.10948e-07 2.07031 0.0201111 1.66016 0.211173Z" fill="#0073E6"/>
<path d="M3.95516 9.39222C3.55477 9.57322 3.15438 10.076 3.02742 10.5587C2.95906 10.8201 2.92977 13.2134 2.9493 17.7185C2.9786 25.2805 2.93953 24.828 3.68172 25.4112L4.03328 25.6928L9.49227 25.7229C14.7755 25.7431 14.9513 25.7431 15.3223 25.5419C15.8106 25.2905 16.0841 24.8984 16.211 24.2648C16.2794 23.9431 16.3087 21.5196 16.2891 17.1352C16.2598 9.73412 16.2989 10.1665 15.5567 9.58328L15.2052 9.30171L9.72664 9.2816C5.32235 9.26149 4.18953 9.2816 3.95516 9.39222ZM14.7852 10.9207C14.8634 11.1319 14.8634 20.6146 14.7852 20.6146C14.7462 20.6146 14.4239 20.333 14.0723 19.981C13.711 19.6391 13.1348 19.1967 12.7833 19.0056L12.1388 18.6637L12.5489 18.0403C13.047 17.2961 13.2227 16.6023 13.1641 15.6872C13.0665 14.3699 12.3243 13.2436 11.1427 12.6403C10.5665 12.3486 10.42 12.3185 9.61922 12.3185C8.87703 12.3185 8.65242 12.3587 8.18367 12.59C7.44149 12.9419 6.73836 13.6358 6.39656 14.3498C6.17196 14.8123 6.11336 15.1039 6.0743 15.7877C6.02547 16.7833 6.23055 17.4771 6.78719 18.2313L7.11922 18.6738L6.61141 18.9151C6.06453 19.1766 4.70711 20.2324 4.61922 20.4738C4.58992 20.5442 4.53133 20.6146 4.4825 20.6146C4.38485 20.6146 4.35555 10.9308 4.46297 10.8302C4.49227 10.79 6.81649 10.7598 9.62899 10.7598C14.1895 10.7598 14.7364 10.7799 14.7852 10.9207ZM10.2638 13.8872C11.4259 14.2492 12.0509 15.6872 11.5333 16.8436C10.5958 18.9654 7.50985 18.3118 7.51961 15.9788C7.52938 14.4704 8.8575 13.4548 10.2638 13.8872ZM10.8399 19.8201C12.6661 20.2526 14.336 22.0324 14.6778 23.9028L14.7462 24.2347H9.61922C6.79696 24.2347 4.49227 24.1945 4.49227 24.1542C4.49227 23.9129 4.84383 22.9073 5.09774 22.3945C5.4493 21.7207 6.47469 20.685 7.18758 20.2928C7.46102 20.1419 7.92 19.9509 8.21297 19.8704C8.82821 19.6995 10.2149 19.6693 10.8399 19.8201Z" fill="#0073E6"/>
<path d="M19.5312 9.44282C19.3457 9.54338 19.0918 9.80483 18.9746 10.016C18.7793 10.3579 18.75 10.549 18.75 11.6249C18.75 12.9624 18.8477 13.2439 19.4629 13.7166L19.7363 13.9277H32.9102C46.0547 13.9277 46.084 13.9277 46.3574 13.7166C46.5039 13.6059 46.7285 13.3143 46.8555 13.0629C47.0605 12.6607 47.0801 12.5099 47.0508 11.4439C47.0215 10.1467 46.9336 9.9255 46.2891 9.47299C45.9766 9.26181 45.8984 9.25176 43.4961 9.25176H41.0254L40.8301 9.51321C40.5957 9.81489 40.5762 9.94561 40.7324 10.2875C40.918 10.7099 41.1816 10.7601 43.457 10.7601H45.6055V11.6149V12.4696H32.9102H20.2148V11.6149V10.7601L29.2578 10.74L38.3008 10.7099L38.4863 10.4685C38.7305 10.1668 38.7207 9.74449 38.4766 9.47299L38.2715 9.25176H29.0723C20.3027 9.25176 19.8535 9.26181 19.5312 9.44282Z" fill="#0073E6"/>
<path d="M19.1699 15.5863C18.7207 15.7774 18.6133 16.421 18.9746 16.7729C19.1895 16.9841 19.2871 16.9941 21.0742 16.9941C22.8223 16.9941 22.959 16.9841 23.1445 16.793C23.3887 16.5416 23.3984 16.0791 23.1543 15.7774C22.9688 15.5461 22.9297 15.536 21.1719 15.5159C20.1953 15.5059 19.2871 15.536 19.1699 15.5863Z" fill="#0073E6"/>
<path d="M25.3908 15.5562C24.883 15.7472 24.7267 16.4109 25.0978 16.793C25.2931 16.9941 25.4201 16.9941 33.4963 16.9941C41.5724 16.9941 41.6994 16.9941 41.8947 16.793C42.1388 16.5416 42.1486 16.0791 41.9045 15.7774L41.7189 15.536L33.6232 15.5159C29.1799 15.5059 25.4689 15.526 25.3908 15.5562Z" fill="#0073E6"/>
<path d="M25.0977 19.006C24.8341 19.2775 24.8438 19.8206 25.1075 20.072C25.293 20.2429 25.5079 20.263 27.0216 20.2932C28.877 20.3334 29.1993 20.2731 29.3848 19.8507C29.5411 19.4988 29.5216 19.368 29.2872 19.0664L29.0919 18.8049H27.1876C25.42 18.8049 25.2833 18.815 25.0977 19.006Z" fill="#0073E6"/>
<path d="M31.162 19.0664C30.9276 19.368 30.9081 19.4988 31.0643 19.8507C31.2499 20.2731 31.5722 20.3334 33.4276 20.2932C35.3905 20.263 35.5468 20.2027 35.5468 19.4988C35.5468 18.8451 35.4003 18.8049 33.2421 18.8049H31.3573L31.162 19.0664Z" fill="#0073E6"/>
<path d="M18.9941 22.2733C18.8574 22.404 18.75 22.6353 18.75 22.7761C18.75 22.9169 18.8574 23.1482 18.9941 23.2789C19.2285 23.5303 19.248 23.5303 21.0254 23.5303C22.6953 23.5303 22.8418 23.5202 23.0859 23.3191C23.4375 23.0375 23.4375 22.5146 23.0859 22.2331C22.8418 22.0319 22.6953 22.0219 21.0254 22.0219C19.248 22.0219 19.2285 22.0219 18.9941 22.2733Z" fill="#0073E6"/>
<path d="M25.1172 22.223C24.8047 22.5247 24.8242 23.0476 25.1563 23.3191C25.4199 23.5303 25.4688 23.5303 33.4961 23.5303C41.5234 23.5303 41.5723 23.5303 41.8359 23.3191C42.1875 23.0375 42.1875 22.5146 41.8359 22.2331C41.5723 22.0219 41.5234 22.0219 33.457 22.0219C25.4102 22.0219 25.332 22.0219 25.1172 22.223Z" fill="#0073E6"/>
<path d="M25.1562 25.4518C24.8339 25.7133 24.8046 26.2462 25.0976 26.5479C25.2832 26.739 25.4199 26.749 27.1875 26.749H29.0918L29.2871 26.4876C29.5214 26.1859 29.541 26.0552 29.3847 25.7133C29.1992 25.301 28.916 25.2406 27.1093 25.2406C25.5468 25.2406 25.4003 25.2608 25.1562 25.4518Z" fill="#0073E6"/>
<path d="M30.9668 28.5184C30.7715 28.7697 30.7617 28.9206 30.7617 30.6401C30.7617 32.4703 30.7617 32.4904 31.0059 32.7318C31.1328 32.8725 31.3574 32.9832 31.4941 32.9832C31.6309 32.9832 31.8555 32.8725 31.9824 32.7318C32.2266 32.4904 32.2266 32.4703 32.2266 30.5697C32.2266 28.7899 32.2168 28.6491 32.0312 28.458C31.7383 28.1563 31.2207 28.1865 30.9668 28.5184Z" fill="#0073E6"/>
<path d="M33.9258 28.4682C33.7598 28.6593 33.7402 28.8403 33.7402 30.0872V31.495L34.0137 31.7364C34.3457 32.028 34.5605 32.038 34.9023 31.7665L35.1562 31.5654V30.0671C35.1562 28.6392 35.1465 28.5587 34.9414 28.4179C34.6289 28.1866 34.1504 28.2168 33.9258 28.4682Z" fill="#0073E6"/>
<path d="M36.9141 28.4578C36.7383 28.6388 36.7188 28.7896 36.7188 30.0667C36.7188 31.4343 36.7285 31.4946 36.9629 31.7259C37.2266 32.0075 37.373 32.0276 37.7246 31.8667C38.1055 31.6857 38.1836 31.3639 38.1836 30.0265C38.1836 28.9203 38.1641 28.7594 37.9785 28.5181C37.7246 28.1862 37.207 28.1561 36.9141 28.4578Z" fill="#0073E6"/>
<path d="M39.8535 28.5183C39.6582 28.7697 39.6484 28.9206 39.6484 30.6401C39.6484 32.4703 39.6484 32.4904 39.8926 32.7318C40.0195 32.8725 40.2441 32.9832 40.3809 32.9832C40.5176 32.9832 40.7422 32.8725 40.8691 32.7318C41.1133 32.4904 41.1133 32.4703 41.1133 30.5899C41.1133 28.82 41.1035 28.6792 40.918 28.4781C40.625 28.1563 40.1172 28.1765 39.8535 28.5183Z" fill="#0073E6"/>
<path d="M42.8125 28.4682C42.6465 28.6593 42.627 28.8403 42.627 30.0872V31.495L42.9004 31.7364C43.2324 32.028 43.4473 32.038 43.7891 31.7665C44.043 31.5654 44.043 31.5554 44.043 30.1073C44.043 28.79 44.0234 28.6392 43.8477 28.4582C43.584 28.1866 43.0566 28.1967 42.8125 28.4682Z" fill="#0073E6"/>
<path d="M45.8008 28.4585C45.6152 28.6495 45.6055 28.7903 45.6055 30.6104V32.5713L45.8594 32.7724C46.1914 33.0339 46.5234 33.044 46.7773 32.7825C47.0605 32.4909 47.0898 32.2696 47.0508 30.3993C47.0215 28.8808 47.002 28.6596 46.8359 28.4685C46.5918 28.197 46.0645 28.187 45.8008 28.4585Z" fill="#0073E6"/>
</svg>
