<svg width="62" height="38" viewBox="0 0 62 38" fill="none" xmlns="http://www.w3.org/2000/svg">
<path fill-rule="evenodd" clip-rule="evenodd" d="M18.6119 0.758289C17.3247 0.95929 16.2708 1.31411 14.888 2.012C12.63 3.15141 11.8198 4.0314 10.134 7.17514C9.03713 9.22043 8.43566 10.1065 7.53371 11.0061C6.302 12.2344 4.28404 13.2047 2.04638 13.6443C0.874122 13.8745 0.441895 14.1363 0.441895 14.6156C0.441895 14.9229 9.11932 30.3742 9.45318 30.6614C9.66981 30.8477 9.85228 30.8792 10.3175 30.8103C11.6831 30.6081 13.4302 30.0441 14.7684 29.3732C17.1616 28.1735 18.4017 26.769 20.3572 23.0426C21.3489 21.1529 22.4363 19.8685 23.622 19.1862C25.4103 18.157 27.7181 17.5609 29.2202 17.7403C29.6363 17.79 30.0057 17.8792 30.0413 17.9384C30.0768 17.9976 27.7928 22.1695 24.9655 27.2091C22.1054 32.3071 19.8406 36.4833 19.8604 36.623C19.8799 36.7609 20.0532 36.9943 20.2454 37.1414C20.5243 37.355 20.6541 37.3811 20.8885 37.2713C21.0908 37.1763 22.6925 34.4398 26.0455 28.4603C28.7204 23.6899 30.9514 19.787 31.0034 19.787C31.0554 19.787 33.2864 23.6899 35.9613 28.4603C39.3144 34.4398 40.916 37.1763 41.1184 37.2713C41.3527 37.3811 41.4826 37.355 41.7615 37.1414C41.9537 36.9943 42.1269 36.7609 42.1464 36.623C42.1662 36.4833 39.9015 32.3071 37.0414 27.2091C34.2141 22.1695 31.93 17.9976 31.9656 17.9384C32.0012 17.8792 32.3706 17.79 32.7867 17.7403C34.2867 17.5611 36.5966 18.157 38.3792 19.1829C39.495 19.8251 40.5886 21.0758 41.4711 22.7195C43.2944 26.1154 44.1453 27.2876 45.5776 28.3765C46.9469 29.4176 48.935 30.2474 51.1353 30.6963C52.0754 30.888 52.2314 30.8905 52.4836 30.7185C52.7545 30.5336 61.3956 15.2854 61.5307 14.7539C61.6718 14.1982 61.2836 13.9183 60.0093 13.6567C57.5472 13.1515 55.6726 12.2244 54.3261 10.8459C53.3871 9.88449 53.1123 9.47284 51.8761 7.17514C50.1823 4.02691 49.3755 3.15101 47.1189 2.01147C44.9224 0.9022 42.799 0.46412 41.0068 0.750227C40.4843 0.833746 39.9359 0.983474 39.7882 1.08312C39.6404 1.18276 37.6178 4.65819 35.2936 8.80628C32.9693 12.9545 31.0387 16.3484 31.0034 16.3484C30.9681 16.3484 29.0376 12.9545 26.7133 8.80628C24.389 4.65819 22.3666 1.18329 22.2189 1.0843C21.6585 0.708599 19.9305 0.552398 18.6119 0.758289ZM21.3163 2.37344C21.3353 2.39313 22.0502 3.65794 22.9051 5.18428L24.4594 7.95945L23.2692 8.04971C21.8798 8.1549 20.3446 8.61796 18.8876 9.37109C18.3328 9.65772 17.8582 9.87088 17.8328 9.84472C17.7427 9.75195 14.567 4.06986 14.567 4.0014C14.567 3.86634 16.5838 2.89028 17.3146 2.6717C18.5207 2.3108 19.1954 2.22159 20.268 2.28133C20.8257 2.31238 21.2974 2.35388 21.3163 2.37344ZM44.4627 2.60893C45.3333 2.85764 47.4399 3.84295 47.4399 4.0014C47.4399 4.06986 44.2642 9.75195 44.174 9.84472C44.1486 9.87088 43.674 9.65772 43.1193 9.37109C41.6627 8.61822 40.1271 8.1549 38.7386 8.04971L37.5491 7.95945L39.1158 5.15772C40.5555 2.58342 40.7146 2.35123 41.0758 2.29626C41.818 2.18314 43.5242 2.34079 44.4627 2.60893ZM15.0058 8.02236L16.598 10.8598L15.99 11.6561C15.3736 12.4635 14.8732 13.2907 13.9894 14.9634C13.7205 15.4722 13.2988 16.2049 13.0523 16.5915C12.6881 17.1627 12.5742 17.2619 12.4458 17.1201C12.3588 17.0242 11.6088 15.7302 10.7789 14.2445C9.79565 12.4844 9.30911 11.4891 9.38243 11.3872C10.0728 10.4276 10.7029 9.39989 11.3697 8.14592C12.3369 6.32726 13.1311 5.08821 13.2938 5.14398C13.3595 5.16658 14.13 6.46179 15.0058 8.02236ZM49.3389 5.87808C49.6119 6.29594 50.1961 7.31654 50.6372 8.14592C51.304 9.39989 51.9341 10.4276 52.6244 11.3872C52.6978 11.4891 52.2112 12.4844 51.228 14.2445C50.3981 15.7302 49.648 17.0242 49.5611 17.1201C49.371 17.33 48.8945 16.6385 47.7758 14.5296C46.8691 12.8201 46.7526 12.6303 46.0115 11.6539L45.4052 10.855L47.0178 7.98667C47.9046 6.40906 48.6781 5.11821 48.7366 5.11821C48.795 5.11821 49.0661 5.46021 49.3389 5.87808ZM25.379 9.77652C25.5826 9.94211 29.0002 15.954 28.9247 16.0139C28.9028 16.0315 28.324 16.1146 27.6387 16.1987C26.1545 16.3806 24.7526 16.8177 23.3972 17.5208L22.4041 18.0362L20.6096 14.8396C19.6225 13.0815 18.7837 11.5577 18.7454 11.4531C18.6286 11.1333 20.1635 10.3576 21.8863 9.86559C22.89 9.57896 25.0678 9.52346 25.379 9.77652ZM39.8637 9.81366C40.8829 10.0559 41.2082 10.1784 42.4065 10.7714C43.1054 11.1173 43.3246 11.2873 43.268 11.4392C43.2261 11.5513 42.3827 13.0845 41.3936 14.8462L39.5952 18.0494L38.6059 17.5273C37.2711 16.8227 35.8666 16.3823 34.3682 16.1987C33.6828 16.1146 33.1041 16.0315 33.0821 16.0139C33.0066 15.954 36.4243 9.94211 36.6279 9.77652C36.9112 9.54605 38.8309 9.56812 39.8637 9.81366ZM19.3143 15.7016C20.6108 18.0245 21.1287 19.0673 21.0441 19.1853C20.9776 19.278 20.6632 19.6859 20.3454 20.0917C20.0276 20.4975 19.3969 21.5316 18.9437 22.3897C18.1477 23.8971 17.1479 25.5354 17.0783 25.4466C17.0251 25.3789 13.7269 19.4924 13.5546 19.1576C13.418 18.8926 13.4652 18.7652 13.9703 18.0344C14.2836 17.581 14.9247 16.4964 15.395 15.6242C16.2608 14.0179 17.2686 12.3865 17.3947 12.3865C17.4327 12.3865 18.2965 13.8784 19.3143 15.7016ZM45.219 13.2124C45.5149 13.6668 46.1418 14.752 46.6119 15.6242C47.0821 16.4964 47.7261 17.5851 48.043 18.0436L48.6191 18.8771L47.4916 20.8849C46.8715 21.989 46.0428 23.4722 45.65 24.181L44.9359 25.4693L44.5978 25.0472C44.4117 24.815 43.805 23.7716 43.2495 22.7284C42.6939 21.6852 41.9793 20.4991 41.6614 20.0927C41.3436 19.6864 41.0293 19.278 40.9628 19.1853C40.8781 19.0673 41.396 18.0245 42.6926 15.7016C43.7104 13.8784 44.5742 12.3865 44.6122 12.3865C44.6501 12.3865 44.9232 12.7582 45.219 13.2124ZM9.79642 15.635C10.6546 17.1673 11.3567 18.4779 11.3567 18.5474C11.3567 18.6169 10.9667 18.9379 10.49 19.2607C9.54371 19.9015 7.92806 20.5713 6.58155 20.881L5.72275 21.0785L4.09682 18.1772C3.20258 16.5816 2.49119 15.257 2.51584 15.2338C2.5405 15.2106 3.01908 15.0631 3.5792 14.9061C5.01585 14.5036 6.27671 13.938 7.24761 13.2605C7.70668 12.9402 8.11682 12.7166 8.1592 12.7637C8.20144 12.8106 8.93826 14.1027 9.79642 15.635ZM56.787 14.3496C57.3314 14.5654 58.1525 14.8416 58.6115 14.9636C59.0706 15.0854 59.4664 15.2057 59.491 15.2307C59.5157 15.2556 58.8043 16.5816 57.91 18.1772L56.2841 21.0785L55.4253 20.881C54.0788 20.5713 52.4632 19.9015 51.5169 19.2607C51.0402 18.9379 50.6501 18.6178 50.6501 18.5496C50.6501 18.4813 51.3774 17.1307 52.2666 15.5483L53.883 12.6713L54.84 13.3143C55.3665 13.668 56.2426 14.1338 56.787 14.3496ZM14.1547 23.4211L15.9928 26.704L15.633 27.0143C14.9974 27.5623 12.7407 28.6113 11.5242 28.9243C10.8747 29.0913 10.3171 29.2001 10.2851 29.1658C10.1755 29.0486 6.60557 22.6515 6.60646 22.5736C6.60698 22.5309 6.99696 22.3989 7.47323 22.2802C8.82038 21.9446 10.3138 21.3022 11.2283 20.6651C11.6874 20.3453 12.12 20.0959 12.1897 20.1109C12.2596 20.1259 13.1437 21.6155 14.1547 23.4211ZM50.7241 20.6478C51.6944 21.3036 53.1952 21.9467 54.5336 22.2802C55.0099 22.3989 55.3999 22.5309 55.4004 22.5736C55.4012 22.6433 51.8387 29.0399 51.7389 29.1481C51.6691 29.2238 50.2417 28.8915 49.4302 28.6105C48.5162 28.2942 46.8816 27.4362 46.3697 27.0042L46.0058 26.6972L47.7015 23.6715C49.5513 20.3709 49.7365 20.0513 49.7994 20.0513C49.8227 20.0513 50.2387 20.3197 50.7241 20.6478Z" fill="white"/>
</svg>
