<svg width="50" height="50" viewBox="0 0 50 50" fill="none" xmlns="http://www.w3.org/2000/svg">
<path d="M22.9334 0.0318336C19.9293 0.324341 17.5906 0.848835 15.9576 1.59523L15.3225 1.87765V2.68456V3.50156L13.7096 4.30848L12.0967 5.11539V8.04046V10.9655L13.7096 11.7724L15.3225 12.5793V13.6889V14.7984L13.7096 15.6053L12.0967 16.4122V19.3373V22.2623L13.7096 23.0692L15.3225 23.8762V24.9857V26.0952L13.7096 26.9021L12.0967 27.709V30.6341V33.5591L13.7096 34.366L15.3225 35.173V35.99V36.7969L15.9878 37.0995C16.8245 37.4827 18.7096 38.0173 19.9898 38.2493L20.9676 38.4208V41.7796V45.1383L19.2842 45.1787C17.631 45.2089 17.5806 45.219 16.9152 45.5317C15.9878 45.9654 15.3931 46.5504 14.9596 47.438C14.6471 48.0735 14.5866 48.2954 14.5362 49.0821L14.4858 50H24.9999H35.514L35.4636 49.0821C35.4132 48.2954 35.3527 48.0735 35.0402 47.438C34.6068 46.5504 34.012 45.9654 33.0846 45.5317C32.4193 45.219 32.3689 45.2089 30.7257 45.1787L29.0322 45.1383V41.7796V38.4208L30.0201 38.2493C31.2902 38.0173 33.1753 37.4827 34.012 37.0995L34.6773 36.7969V35.99V35.173L36.2902 34.366L37.9031 33.5591V30.6341V27.709L36.2902 26.9021L34.6773 26.0952V24.9857V23.8762L36.2902 23.0692L37.9031 22.2623V19.3373V16.4122L36.2902 15.6053L34.6773 14.7984V13.6889V12.5793L36.2902 11.7724L37.9031 10.9655V8.04046V5.11539L36.2902 4.30848L34.6773 3.50156V2.69465V1.88774L34.3043 1.69609C33.1955 1.14134 30.8568 0.515984 28.8305 0.223476C27.7318 0.0620918 23.8608 -0.0589447 22.9334 0.0318336ZM27.3689 1.69609C28.8709 1.82722 30.9072 2.2105 32.137 2.60387L33.0644 2.90647V19.3373V35.758L32.2882 36.0202C28.0846 37.4021 22.3185 37.4323 17.9233 36.0706L16.9354 35.768V19.3373V2.90647L17.9233 2.59379C20.6652 1.73644 24.1027 1.40359 27.3689 1.69609ZM15.3225 8.04046V10.7638L14.516 10.3603L13.7096 9.95688V8.04046V6.12403L14.4959 5.73067C14.9193 5.50877 15.2822 5.32721 15.3023 5.31712C15.3124 5.31712 15.3225 6.54767 15.3225 8.04046ZM36.2902 8.04046V9.95688L35.4838 10.3603L34.6773 10.7638V8.04046V5.31712L35.4838 5.72058L36.2902 6.12403V8.04046ZM15.3225 19.3373V22.0606L14.516 21.6571L13.7096 21.2537V19.3373V17.4208L14.4959 17.0275C14.9193 16.8056 15.2822 16.624 15.3023 16.6139C15.3124 16.6139 15.3225 17.8445 15.3225 19.3373ZM36.2902 19.3373V21.2537L35.4838 21.6571L34.6773 22.0606V19.3373V16.6139L35.4838 17.0174L36.2902 17.4208V19.3373ZM15.3225 30.6341V33.3574L14.516 32.9539L13.7096 32.5505V30.6341V28.7176L14.4959 28.3243C14.9193 28.1024 15.2822 27.9208 15.3023 27.9107C15.3124 27.9107 15.3225 29.1413 15.3225 30.6341ZM36.2902 30.6341V32.5505L35.4838 32.9539L34.6773 33.3574V30.6341V27.9107L35.4838 28.3142L36.2902 28.7176V30.6341ZM27.4193 41.9006V45.1585H24.9999H22.5806V41.9006V38.6528H24.9999H27.4193V41.9006ZM32.1975 46.8934C32.6511 47.0245 33.6693 47.9525 33.6693 48.2248C33.6693 48.366 32.8023 48.3862 24.9999 48.3862C17.1975 48.3862 16.3306 48.366 16.3306 48.2248C16.3306 47.9827 17.3487 47.0245 17.7418 46.9035C18.266 46.7421 31.633 46.732 32.1975 46.8934Z" fill="#3D72FC"/>
<path d="M23.8006 3.36078C21.2502 4.04665 19.6675 6.69939 20.3127 9.20082C20.9881 11.7829 23.6292 13.3867 26.1594 12.7311C28.7401 12.0553 30.3429 9.41263 29.6877 6.90111C29.0123 4.28873 26.3308 2.6749 23.8006 3.36078ZM26.5223 5.22677C27.1977 5.58988 27.5102 5.91264 27.9034 6.66913C28.1252 7.10284 28.1655 7.31466 28.1655 8.04088C28.1756 8.82762 28.1453 8.94866 27.8328 9.53367C27.4498 10.2397 27.1272 10.5423 26.3711 10.9458C25.9377 11.1677 25.726 11.208 25.0002 11.208C24.2744 11.208 24.0627 11.1677 23.6292 10.9458C22.8731 10.5423 22.5506 10.2397 22.1675 9.53367C21.855 8.94866 21.8248 8.82762 21.8348 8.04088C21.8348 7.03224 22.0768 6.42705 22.732 5.77143C23.7401 4.76279 25.2421 4.55098 26.5223 5.22677Z" fill="#3D72FC"/>
<path d="M23.8006 14.6567C21.2502 15.3426 19.6675 17.9953 20.3127 20.4967C20.9881 23.0788 23.6292 24.6826 26.1594 24.027C28.7401 23.3512 30.3429 20.7085 29.6877 18.197C29.0123 15.5846 26.3308 13.9708 23.8006 14.6567ZM26.5223 16.5227C27.1977 16.8858 27.5102 17.2085 27.9034 17.965C28.1252 18.3987 28.1655 18.6106 28.1655 19.3368C28.1756 20.1235 28.1453 20.2446 27.8328 20.8296C27.4498 21.5356 27.1272 21.8382 26.3711 22.2417C25.9377 22.4636 25.726 22.5039 25.0002 22.5039C24.2744 22.5039 24.0627 22.4636 23.6292 22.2417C22.8731 21.8382 22.5506 21.5356 22.1675 20.8296C21.855 20.2446 21.8248 20.1235 21.8348 19.3368C21.8348 18.3281 22.0768 17.7229 22.732 17.0673C23.7401 16.0587 25.2421 15.8469 26.5223 16.5227Z" fill="#3D72FC"/>
<path d="M23.8006 25.9536C21.2502 26.6394 19.6675 29.2922 20.3127 31.7936C20.9881 34.3757 23.6292 35.9795 26.1594 35.3238C28.7401 34.6481 30.3429 32.0054 29.6877 29.4939C29.0123 26.8815 26.3308 25.2677 23.8006 25.9536ZM26.5223 27.8195C27.1977 28.1827 27.5102 28.5054 27.9034 29.2619C28.1252 29.6956 28.1655 29.9074 28.1655 30.6337C28.1756 31.4204 28.1453 31.5414 27.8328 32.1264C27.4498 32.8325 27.1272 33.1351 26.3711 33.5385C25.9377 33.7604 25.726 33.8008 25.0002 33.8008C24.2744 33.8008 24.0627 33.7604 23.6292 33.5385C22.8731 33.1351 22.5506 32.8325 22.1675 32.1264C21.855 31.5414 21.8248 31.4204 21.8348 30.6337C21.8348 29.625 22.0768 29.0198 22.732 28.3642C23.7401 27.3556 25.2421 27.1437 26.5223 27.8195Z" fill="#3D72FC"/>
<path d="M1.97579 9.58371C1.84474 9.88631 1.70361 10.2192 1.67337 10.3301C1.62297 10.4915 2.1774 10.7537 6.33063 12.4684C8.92136 13.5477 11.0988 14.4252 11.1794 14.4353C11.2601 14.4454 11.4415 14.163 11.6028 13.7494C11.7641 13.3661 11.8851 13.0434 11.875 13.0232C11.8447 13.003 2.74192 9.23069 2.37902 9.08948C2.26813 9.04913 2.15724 9.18026 1.97579 9.58371Z" fill="#3D72FC"/>
<path d="M42.9436 11.0156C40.3629 12.0949 38.2258 12.9926 38.1956 13.0026C38.125 13.0329 38.5988 14.324 38.7198 14.445C38.7702 14.4853 48.246 10.6222 48.3771 10.5113C48.4476 10.4407 47.8327 9.04876 47.7319 9.05885C47.6815 9.05885 45.5242 9.94645 42.9436 11.0156Z" fill="#3D72FC"/>
<path d="M0 19.3376V20.1445H5.24194H10.4839V19.3376V18.5307H5.24194H0V19.3376Z" fill="#3D72FC"/>
<path d="M39.5161 19.3376V20.1445H44.758H50V19.3376V18.5307H44.758H39.5161V19.3376Z" fill="#3D72FC"/>
<path d="M6.40114 26.1657C3.79026 27.255 1.65316 28.1527 1.64308 28.1628C1.60275 28.193 2.12695 29.4639 2.20759 29.5547C2.26808 29.6152 11.7237 25.7925 11.8749 25.6513C11.9253 25.5907 11.3205 24.2392 11.2298 24.219C11.1794 24.2089 9.01203 25.0864 6.40114 26.1657Z" fill="#3D72FC"/>
<path d="M38.4274 24.9045L38.125 25.6307L38.4375 25.772C39.8891 26.3872 47.5605 29.5544 47.6815 29.5947C47.7923 29.625 47.9133 29.4232 48.125 28.9189C48.2863 28.5256 48.3972 28.1927 48.377 28.1725C48.3266 28.1221 38.8306 24.1783 38.7702 24.1783C38.75 24.1783 38.5887 24.5112 38.4274 24.9045Z" fill="#3D72FC"/>
</svg>
