<svg width="40" height="40" viewBox="0 0 40 40" fill="none" xmlns="http://www.w3.org/2000/svg">
<path d="M12.2977 0.0554619C11.572 0.168438 10.5236 0.51543 9.79786 0.878563C7.74959 1.9034 6.22547 3.70292 5.54003 5.90593C5.24972 6.83393 5.16102 7.61668 5.16102 9.20639C5.16102 10.3039 5.13682 10.6266 5.04812 10.6993C4.98361 10.7477 4.85458 10.9817 4.74975 11.2157C4.47557 11.8371 4.48363 12.6925 4.76588 13.2977C5.14489 14.1046 5.9513 14.6937 6.83028 14.7986C7.21736 14.839 7.23349 14.8551 7.32219 15.186C7.62863 16.3238 8.23343 17.3486 9.11242 18.204L9.6769 18.7527V19.358V19.9712L8.08828 20.0116C6.33837 20.0519 5.79808 20.1488 4.66911 20.633C2.81437 21.4238 1.16929 23.1587 0.483845 25.047C0.00806409 26.3704 0 26.4996 0 33.3587V39.6046L0.201602 39.7983L0.39514 40H11.1688H21.9343V39.3544V38.7089H19.3216C16.8943 38.7089 16.7007 38.7008 16.6604 38.5636C16.6362 38.491 16.2169 36.0378 15.725 33.1247L14.8379 27.823L15.2089 27.0725C15.4105 26.6609 15.5959 26.314 15.604 26.2978C15.6201 26.2817 15.9911 26.4592 16.4427 26.6771C16.8862 26.903 17.3378 27.0886 17.4426 27.0886C17.87 27.0886 17.9345 26.9515 18.87 24.1271C19.3699 22.6261 19.8054 21.3673 19.8377 21.3269C19.9264 21.2301 21.1279 21.4883 21.7488 21.7385C22.0311 21.8515 22.4746 22.0855 22.7407 22.2549L23.2246 22.5697V31.0831V39.6046L23.4262 39.7983L23.6197 40H31.6112H39.6027L39.7963 39.7983L39.9979 39.6046V29.0253V18.4461L39.7963 18.2524L39.6027 18.0507H31.6112H23.6197L23.4262 18.2524C23.2326 18.4461 23.2246 18.4784 23.2246 19.7372V21.0203L22.6843 20.754C21.5392 20.1972 20.4425 19.9874 18.6361 19.9874H17.4184V19.3499V18.7043L17.7894 18.4057C18.5877 17.7521 19.3619 16.5578 19.7248 15.4361L19.9022 14.8713L20.3779 14.7744C21.3134 14.5807 21.9424 14.1046 22.3295 13.2896C22.6036 12.6925 22.6117 11.829 22.3456 11.2157C22.2408 10.9817 22.1117 10.7477 22.0472 10.6993C21.9585 10.6266 21.9343 10.3039 21.9343 9.18218C21.9343 7.60054 21.8134 6.64833 21.4908 5.70419C20.5554 2.94438 18.3861 0.951187 15.5234 0.208786C14.7815 0.0231819 13.0719 -0.0655823 12.2977 0.0554619ZM14.7976 1.38695C17.6845 1.89533 20.0151 4.22745 20.5231 7.11636C20.5876 7.5037 20.6441 8.26225 20.6441 8.78677C20.6441 9.75513 20.6441 9.75513 20.4667 9.70671C20.3618 9.6825 20.2247 9.65829 20.1522 9.65829C20.0715 9.65829 19.9909 9.56952 19.9667 9.45655C19.8941 9.17411 19.6361 9.03693 19.0393 8.98044C18.4426 8.92396 17.7813 8.64152 17.2894 8.24611C17.1039 8.09279 16.7088 7.64089 16.4104 7.23741C15.604 6.14801 15.3621 6.14801 14.5557 7.22934C13.9025 8.11699 13.588 8.39943 12.9025 8.72222L12.3784 8.97237L9.89463 9.01272L7.40283 9.05307L7.24961 9.24674C7.16897 9.35164 7.0964 9.48076 7.0964 9.54531C7.0964 9.60987 7.03188 9.65829 6.95931 9.65829C6.87867 9.65829 6.73351 9.6825 6.63674 9.70671C6.45127 9.75513 6.45127 9.75513 6.45127 8.78677C6.45127 6.47887 7.12059 4.76004 8.58019 3.32365C10.2253 1.69359 12.4993 0.991535 14.7976 1.38695ZM15.8137 8.57696C16.3378 9.28709 17.37 9.9488 18.2893 10.1586L18.7087 10.2635V12.1599C18.7087 14.3871 18.628 14.8713 18.1281 15.8719C16.8217 18.4864 13.5073 19.4709 10.9672 17.9942C10.1607 17.5262 9.3624 16.6708 8.9592 15.8638C8.46729 14.8632 8.38665 14.3709 8.38665 12.1841V10.32L10.4672 10.2877C12.3139 10.2554 12.588 10.2312 12.9912 10.086C13.9347 9.73092 14.6444 9.24674 15.1363 8.60117C15.2976 8.38329 15.4589 8.20576 15.483 8.20576C15.5153 8.20576 15.6605 8.37522 15.8137 8.57696ZM7.0964 12.2406C7.0964 13.6689 7.10446 13.6366 6.58836 13.4187C5.58035 12.9991 5.57228 11.4982 6.57223 11.0624C7.10446 10.8284 7.0964 10.8122 7.0964 12.2406ZM20.7166 11.1754C21.1118 11.4659 21.2489 11.7402 21.2489 12.2406C21.2489 12.5956 21.2085 12.7732 21.0795 12.9345C20.8537 13.2493 20.5715 13.4429 20.265 13.4994L19.9989 13.5478V12.2406V10.9252L20.265 10.9817C20.4021 11.0059 20.6118 11.0947 20.7166 11.1754ZM27.0953 20.4312C27.0953 21.4883 27.1034 21.5367 27.2969 21.7223L27.4905 21.9241H31.6112H35.732L35.9255 21.7223C36.119 21.5367 36.1271 21.4883 36.1271 20.4312V19.3418H37.4174H38.7076V29.0253V38.7089H31.6112H24.5148V29.0253V19.3418H25.8051H27.0953V20.4312ZM34.8369 19.9874V20.633H31.6112H28.3856V19.9874V19.3418H31.6112H34.8369V19.9874ZM12.4026 19.8744C13.4751 20.0761 14.717 19.9793 15.7088 19.6L16.1282 19.4387V19.9228V20.407L14.8621 21.9322C14.1605 22.7714 13.5719 23.4573 13.5477 23.4573C13.5235 23.4573 12.9348 22.7714 12.2332 21.9322L10.9672 20.407V19.9228V19.4387L11.3946 19.6C11.6203 19.6888 12.08 19.8099 12.4026 19.8744ZM8.20118 24.0625C9.14467 26.903 9.23338 27.0886 9.64465 27.0886C9.75754 27.0886 10.2011 26.9111 10.6365 26.6852L11.4429 26.2897L11.8461 27.0564L12.2574 27.823L11.3704 33.0843C10.8865 35.9813 10.4672 38.4264 10.443 38.5233L10.4027 38.7089H7.78184H5.16102V34.1899V29.6709H4.51589H3.87076V34.1899V38.7089H2.58051H1.28219L1.31445 32.6325C1.33864 25.8621 1.30638 26.2736 1.92732 24.9502C2.78211 23.1345 4.41106 21.8515 6.45127 21.3915C7.31413 21.1978 7.16897 20.9719 8.20118 24.0625ZM11.2494 22.7472C11.9187 23.5541 12.4671 24.232 12.4832 24.2562C12.5074 24.3208 10.0962 25.5231 10.0559 25.4747C10.0398 25.4505 9.70916 24.4983 9.33015 23.3524L8.6447 21.2785L9.33821 21.2866H10.0398L11.2494 22.7472ZM17.7732 23.3121C17.3942 24.4337 17.0555 25.3859 17.0152 25.4182C16.9507 25.4909 14.5799 24.3369 14.6121 24.2481C14.6283 24.2159 15.1847 23.538 15.8459 22.7391L17.0555 21.2866L17.7571 21.2785H18.4587L17.7732 23.3121ZM13.9912 25.4505C14.2331 25.5715 14.4347 25.7007 14.4347 25.7329C14.4347 25.7733 14.2896 26.088 14.1122 26.4431C13.8138 27.0321 13.7654 27.0886 13.5477 27.0886C13.3299 27.0886 13.2816 27.0321 12.9832 26.4431C12.8058 26.088 12.6606 25.7733 12.6606 25.7329C12.6606 25.6845 13.3703 25.281 13.5235 25.2407C13.5396 25.2326 13.7412 25.3295 13.9912 25.4505ZM13.6686 28.5573C13.7412 28.8882 15.3218 38.4587 15.3218 38.5878C15.3218 38.6927 15.0879 38.7089 13.5477 38.7089C12.0074 38.7089 11.7736 38.6927 11.7736 38.5878C11.7736 38.4587 13.3541 28.8882 13.4267 28.5573C13.4509 28.4605 13.5073 28.3798 13.5477 28.3798C13.588 28.3798 13.6444 28.4605 13.6686 28.5573Z" fill="white"/>
<path d="M26.0067 23.417C25.8051 23.6107 25.8051 23.6268 25.8051 25.152C25.8051 27.2259 25.668 27.0887 27.7405 27.0887C29.8129 27.0887 29.6759 27.2259 29.6759 25.152C29.6759 23.0781 29.8129 23.2153 27.7405 23.2153C26.2164 23.2153 26.2002 23.2153 26.0067 23.417ZM28.3856 25.152V25.7976H27.7405H27.0953V25.152V24.5064H27.7405H28.3856V25.152Z" fill="white"/>
<path d="M30.9661 23.861V24.5066H34.1917H37.4173V23.861V23.2155H34.1917H30.9661V23.861Z" fill="white"/>
<path d="M30.9661 26.4431V27.0886H34.1917H37.4173V26.4431V25.7975H34.1917H30.9661V26.4431Z" fill="white"/>
<path d="M26.0067 28.5816C25.8051 28.7753 25.8051 28.7914 25.8051 30.3165C25.8051 32.3904 25.668 32.2533 27.7405 32.2533C29.8129 32.2533 29.6759 32.3904 29.6759 30.3165C29.6759 28.2427 29.8129 28.3798 27.7405 28.3798C26.2164 28.3798 26.2002 28.3798 26.0067 28.5816ZM28.3856 30.3165V30.9621H27.7405H27.0953V30.3165V29.671H27.7405H28.3856V30.3165Z" fill="white"/>
<path d="M30.9661 29.0256V29.6711H34.1917H37.4173V29.0256V28.38H34.1917H30.9661V29.0256Z" fill="white"/>
<path d="M30.9661 31.6074V32.2529H34.1917H37.4173V31.6074V30.9618H34.1917H30.9661V31.6074Z" fill="white"/>
<path d="M26.0067 33.7459C25.8051 33.9396 25.8051 33.9557 25.8051 35.4809C25.8051 37.5547 25.668 37.4176 27.7405 37.4176C29.8129 37.4176 29.6759 37.5547 29.6759 35.4809C29.6759 33.407 29.8129 33.5442 27.7405 33.5442C26.2164 33.5442 26.2002 33.5442 26.0067 33.7459ZM28.3856 35.4809V36.1264H27.7405H27.0953V35.4809V34.8353H27.7405H28.3856V35.4809Z" fill="white"/>
<path d="M30.9661 34.1899V34.8354H34.1917H37.4173V34.1899V33.5443H34.1917H30.9661V34.1899Z" fill="white"/>
<path d="M30.9661 36.7719V37.4175H34.1917H37.4173V36.7719V36.1263H34.1917H30.9661V36.7719Z" fill="white"/>
</svg>
