<svg width="40" height="50" viewBox="0 0 40 50" fill="none" xmlns="http://www.w3.org/2000/svg">
<path d="M11.5973 3.74463C4.34847 6.71444 2.42298 7.54481 2.17758 7.77927L1.87554 8.08211V11.0617V14.0413L1.58294 14.1585C1.1582 14.3441 0.478621 15.0768 0.242655 15.6043C0.0444437 16.0342 0.0350051 16.2296 0.00668916 18.6425C-0.0121881 20.4889 0.00668916 21.2997 0.091637 21.5049C0.299287 22.0226 0.525815 22.0715 2.81941 22.0715C5.113 22.0715 5.33952 22.0226 5.54717 21.5049C5.63212 21.2997 5.651 20.4889 5.63212 18.6425L5.60381 16.0635L5.33008 15.4969C5.0658 14.94 4.38622 14.2562 3.95204 14.1097C3.77271 14.051 3.76327 13.9631 3.76327 11.9409C3.76327 10.7882 3.80102 9.86009 3.84822 9.87963C3.88597 9.8894 5.41503 10.5244 7.24613 11.2668L10.5591 12.6345V15.2722V17.9196L10.04 18.3495C9.24712 19.004 7.5576 20.8601 6.96297 21.7296C5.41503 23.9862 4.41454 26.4676 3.9426 29.2518C3.68776 30.7562 3.66888 33.3646 3.89541 34.8202C4.1125 36.1976 4.48061 37.5848 4.9431 38.7767C5.26401 39.607 5.39615 39.8415 5.66044 40.0271C6.0663 40.3202 6.45328 40.2616 6.80251 39.8513C7.12343 39.4898 7.1423 39.1577 6.86858 38.5129C4.36734 32.5831 5.68875 25.4125 10.1249 20.909L10.6346 20.3814L10.88 20.5866C11.0121 20.694 11.5313 20.948 12.0221 21.1434L12.9188 21.5049L12.0221 22.3841C10.0117 24.3575 8.73743 26.7509 8.13336 29.6914C7.87852 30.9418 7.90683 33.5013 8.18999 34.869C9.28488 40.1541 13.1925 44.2181 18.2988 45.3708C19.3748 45.6151 21.7344 45.6737 22.8765 45.4881C27.426 44.7358 31.2675 41.6195 32.9759 37.3015C34.184 34.234 34.2784 31.0493 33.259 27.8646C32.5983 25.8228 31.6733 24.2891 30.0876 22.6381L28.9928 21.4853L29.8706 21.1336C30.3614 20.9383 30.8711 20.694 31.0032 20.5866L31.2486 20.3814L31.7583 20.909C33.797 22.98 35.3167 25.8521 35.9396 28.8415C36.5531 31.7624 36.3455 34.8495 35.3355 37.6532C32.8532 44.5991 26.0102 48.8877 18.9595 47.9206C16.4582 47.5689 14.344 46.719 12.1448 45.1657C11.5502 44.7456 11.0121 44.4428 10.88 44.4428C10.3326 44.4428 9.89839 44.9019 9.89839 45.4881C9.89839 46.0351 11.3803 47.1683 13.4379 48.2039C21.3758 52.2092 30.9466 49.3175 35.6187 41.5023C37.0345 39.1381 37.8934 36.3832 38.1294 33.472C38.4597 29.2518 37.1761 24.7775 34.6276 21.329C33.9858 20.4596 32.4473 18.8184 31.7772 18.2811L31.3241 17.9294V15.2819V12.6443L35.1279 11.091C37.2138 10.2313 39.1016 9.44979 39.3281 9.34233C40.0171 9.01995 40.2059 8.32634 39.7528 7.81835C39.5452 7.58389 38.7051 7.20289 35.7792 6.00129C33.4856 5.07322 31.9376 4.48708 31.73 4.48708C31.2769 4.48708 30.8522 4.92669 30.8522 5.40538C30.8522 6.05014 31.1353 6.22598 33.731 7.27127C35.0335 7.79881 36.1756 8.26773 36.27 8.32634C36.421 8.40449 35.798 8.6878 32.9664 9.86009C25.0285 13.1425 21.0737 14.7446 20.951 14.7446C20.7151 14.7446 5.47166 8.44357 5.53773 8.37519C5.57549 8.34588 9.05835 6.90005 13.2774 5.17092L20.951 2.02526L22.7916 2.77748C24.8114 3.60786 25.0946 3.64693 25.4722 3.14871C25.7364 2.80679 25.727 2.23041 25.4533 1.90803C25.2173 1.64426 21.2814 -0.00671387 20.9133 0.00305557C20.8 0.00305557 16.6093 1.68334 11.5973 3.74463ZM16.6376 15.1354C18.8557 16.0439 20.7906 16.7962 20.9416 16.7962C21.0926 16.7962 23.0275 16.0439 25.2456 15.1354C27.4731 14.2171 29.3231 13.4747 29.3609 13.4747C29.4081 13.4747 29.4364 14.7642 29.4364 16.3468V19.2287L28.2377 19.7074C27.5675 19.9809 25.6892 20.7527 24.0469 21.4267C22.414 22.1008 21.0171 22.6576 20.951 22.6576C20.885 22.6576 19.0161 21.9152 16.8075 21.0067C14.5894 20.0884 12.7017 19.3166 12.6167 19.2775C12.4563 19.2189 12.4468 18.9942 12.4468 16.3468C12.4468 14.7642 12.4846 13.4747 12.5223 13.4747C12.5695 13.4747 14.4195 14.2171 16.6376 15.1354ZM3.44236 16.1514L3.76327 16.4836V18.3006V20.1177H2.81941H1.87554V18.3006V16.4836L2.19645 16.1514C2.43242 15.9072 2.60232 15.8193 2.81941 15.8193C3.03649 15.8193 3.21583 15.9072 3.44236 16.1514ZM18.3082 23.7225C19.6296 24.2598 20.8189 24.7091 20.9416 24.7091C21.1304 24.7091 22.4046 24.2109 26.4255 22.5599L26.8691 22.3743L27.4354 22.8042C28.804 23.8397 29.9366 25.1781 30.7106 26.6923C31.107 27.464 31.5506 28.5191 31.4751 28.5191C31.4563 28.5191 29.8517 28.1283 27.9168 27.6496C23.3013 26.5067 23.3485 26.5164 20.9416 26.5164C18.5347 26.5164 18.5819 26.5067 13.9853 27.6496C12.0598 28.1283 10.4553 28.5191 10.427 28.5191C10.3986 28.5191 10.4553 28.3042 10.5591 28.0306C11.3236 26.028 12.6167 24.25 14.2213 22.9995L15.0236 22.3743L15.4578 22.5599C15.6937 22.6576 16.9774 23.1754 18.3082 23.7225ZM23.1597 28.5679C24.1035 28.7047 31.8527 30.5999 31.9659 30.7172C32.0037 30.7562 32.032 31.3424 32.032 32.0164V33.2571L28.6341 33.3157C26.6331 33.345 25.1229 33.4134 24.953 33.472C23.7354 33.9117 22.7821 34.8104 22.3291 35.9436C22.1309 36.4614 22.1214 36.6372 22.0742 40.0467L22.027 43.6124H20.9416H19.8562L19.809 39.9978L19.7618 36.3832L19.4597 35.7385C18.9595 34.6932 18.0534 33.8726 16.9302 33.472C16.7603 33.4134 15.2407 33.345 13.2491 33.3157L9.8512 33.2571V32.0164C9.8512 31.3424 9.87951 30.7465 9.91727 30.7172C9.95502 30.6781 10.6535 30.4827 11.4746 30.2775C12.2958 30.0822 14.0703 29.6328 15.42 29.3006C16.7697 28.9587 18.2327 28.6363 18.6763 28.5679C19.7806 28.3921 22.027 28.3921 23.1597 28.5679ZM16.4205 35.377C16.9113 35.5236 17.5248 36.0902 17.7419 36.5689C17.9024 36.9303 17.9212 37.2722 17.9212 40.115V43.2607L17.2605 43.0262C14.7499 42.147 12.3524 40.0076 11.0971 37.536C10.7196 36.7838 10.2759 35.6408 10.2759 35.4063C10.2759 35.2793 10.6818 35.2598 13.1642 35.2598C15.0896 35.2598 16.1845 35.2989 16.4205 35.377ZM31.4563 35.9632C30.6917 38.1808 29.1249 40.3007 27.3127 41.6097C26.5482 42.147 25.104 42.8992 24.415 43.1142L23.962 43.2509V40.115C23.962 36.5591 23.9808 36.4614 24.6982 35.8362C25.3306 35.2891 25.4344 35.2793 28.7002 35.2696L31.7017 35.2598L31.4563 35.9632Z" fill="#3D72FC"/>
<path d="M19.8561 29.6327C19.0349 30.0235 18.4969 30.8148 18.4214 31.7526C18.3176 32.8468 18.8084 33.8042 19.724 34.3317C20.1581 34.5857 20.328 34.6248 20.9415 34.6248C21.5551 34.6248 21.725 34.5857 22.1591 34.3317C23.6599 33.472 23.943 31.3228 22.716 30.1114C21.9798 29.3787 20.7905 29.1834 19.8561 29.6327ZM21.4512 31.567C21.6589 31.8699 21.64 32.2313 21.3946 32.4951C21.1398 32.7784 20.7811 32.7784 20.4979 32.5049C20.0449 32.0652 20.3469 31.3521 20.9793 31.3521C21.2153 31.3521 21.3474 31.4205 21.4512 31.567Z" fill="#3D72FC"/>
<path d="M28.0582 3.10968C27.945 3.15852 27.7656 3.3246 27.6429 3.4809C27.4825 3.69582 27.4447 3.83259 27.4825 4.1452C27.6335 5.26865 29.1626 5.26865 29.3136 4.13543C29.3513 3.79352 29.323 3.68605 29.0965 3.42229C28.8039 3.09991 28.3792 2.97291 28.0582 3.10968Z" fill="#3D72FC"/>
<path d="M7.75562 41.7565C7.38751 41.9129 7.25537 42.1669 7.25537 42.6553C7.25537 43.7104 8.7278 43.9448 9.04871 42.9386C9.19973 42.4599 8.98264 41.9422 8.53903 41.7565C8.1426 41.5807 8.13316 41.5807 7.75562 41.7565Z" fill="#3D72FC"/>
</svg>
