<svg width="40" height="40" viewBox="0 0 40 40" fill="none" xmlns="http://www.w3.org/2000/svg">
<path d="M18.347 0.0249023C15.9437 0.258911 14.0727 0.678513 12.7662 1.27564L12.2582 1.50158V2.14712V2.80073L10.9678 3.44627L9.67749 4.09181V6.43189V8.77198L10.9678 9.41752L12.2582 10.0631V10.9507V11.8383L10.9678 12.4838L9.67749 13.1294V15.4695V17.8095L10.9678 18.4551L12.2582 19.1006V19.9882V20.8759L10.9678 21.5214L9.67749 22.1669V24.507V26.8471L10.9678 27.4927L12.2582 28.1382V28.7918V29.4373L12.7904 29.6794C13.4598 29.9861 14.9679 30.4137 15.9921 30.5993L16.7744 30.7365V33.4236V36.1106L15.4276 36.1429C14.105 36.1671 14.0646 36.1752 13.5324 36.4253C12.7904 36.7723 12.3146 37.2403 11.9678 37.9504C11.7178 38.4588 11.6695 38.6363 11.6291 39.2657L11.5888 40H20.0002H28.4116L28.3713 39.2657C28.331 38.6363 28.2826 38.4588 28.0326 37.9504C27.6858 37.2403 27.21 36.7723 26.468 36.4253C25.9358 36.1752 25.8955 36.1671 24.5809 36.1429L23.2261 36.1106V33.4236V30.7365L24.0164 30.5993C25.0325 30.4137 26.5406 29.9861 27.21 29.6794L27.7423 29.4373V28.7918V28.1382L29.0326 27.4927L30.3229 26.8471V24.507V22.1669L29.0326 21.5214L27.7423 20.8759V19.9882V19.1006L29.0326 18.4551L30.3229 17.8095V15.4695V13.1294L29.0326 12.4838L27.7423 11.8383V10.9507V10.0631L29.0326 9.41752L30.3229 8.77198V6.43189V4.09181L29.0326 3.44627L27.7423 2.80073V2.15519V1.50965L27.4439 1.35633C26.5568 0.912521 24.6858 0.412228 23.0648 0.178219C22.1857 0.0491104 19.0889 -0.047718 18.347 0.0249023ZM21.8954 1.35633C23.097 1.46123 24.7261 1.76786 25.71 2.08257L26.4519 2.32464V15.4695V28.6062L25.8309 28.816C22.468 29.9215 17.855 29.9457 14.3388 28.8564L13.5485 28.6143V15.4695V2.32464L14.3388 2.07449C16.5324 1.38861 19.2825 1.12232 21.8954 1.35633ZM12.2582 6.43189V8.61059L11.613 8.28782L10.9678 7.96505V6.43189V4.89874L11.5969 4.58403C11.9356 4.40651 12.2259 4.26126 12.242 4.25319C12.2501 4.25319 12.2582 5.23764 12.2582 6.43189ZM29.0326 6.43189V7.96505L28.3874 8.28782L27.7423 8.61059V6.43189V4.25319L28.3874 4.57597L29.0326 4.89874V6.43189ZM12.2582 15.4695V17.6482L11.613 17.3254L10.9678 17.0026V15.4695V13.9363L11.5969 13.6216C11.9356 13.4441 12.2259 13.2988 12.242 13.2908C12.2501 13.2908 12.2582 14.2752 12.2582 15.4695ZM29.0326 15.4695V17.0026L28.3874 17.3254L27.7423 17.6482V15.4695V13.2908L28.3874 13.6135L29.0326 13.9363V15.4695ZM12.2582 24.507V26.6857L11.613 26.363L10.9678 26.0402V24.507V22.9739L11.5969 22.6592C11.9356 22.4816 12.2259 22.3364 12.242 22.3283C12.2501 22.3283 12.2582 23.3128 12.2582 24.507ZM29.0326 24.507V26.0402L28.3874 26.363L27.7423 26.6857V24.507V22.3283L28.3874 22.6511L29.0326 22.9739V24.507ZM21.9357 33.5204V36.1268H20.0002H18.0647V33.5204V30.9221H20.0002H21.9357V33.5204ZM25.7584 37.5147C26.1213 37.6196 26.9358 38.3619 26.9358 38.5798C26.9358 38.6928 26.2422 38.7089 20.0002 38.7089C13.7582 38.7089 13.0646 38.6928 13.0646 38.5798C13.0646 38.3861 13.8792 37.6196 14.1937 37.5227C14.613 37.3936 25.3067 37.3856 25.7584 37.5147Z" fill="white"/>
<path d="M19.0405 2.68768C17.0001 3.23639 15.734 5.35861 16.2501 7.35978C16.7905 9.42551 18.9034 10.7085 20.9276 10.184C22.9922 9.64338 24.2744 7.52924 23.7502 5.51999C23.2099 3.43006 21.0647 2.13898 19.0405 2.68768ZM21.2179 4.1805C21.7583 4.47099 22.0083 4.72921 22.3228 5.3344C22.5002 5.68138 22.5325 5.85083 22.5325 6.43182C22.5405 7.06122 22.5164 7.15805 22.2663 7.62607C21.9599 8.19092 21.7018 8.43299 21.097 8.75577C20.7502 8.93329 20.5808 8.96557 20.0002 8.96557C19.4195 8.96557 19.2502 8.93329 18.9034 8.75577C18.2985 8.43299 18.0405 8.19092 17.734 7.62607C17.484 7.15805 17.4598 7.06122 17.4679 6.43182C17.4679 5.62489 17.6614 5.14074 18.1856 4.61624C18.9921 3.80931 20.1937 3.63986 21.2179 4.1805Z" fill="white"/>
<path d="M19.0405 11.7253C17.0001 12.274 15.734 14.3962 16.2501 16.3974C16.7905 18.4631 18.9034 19.7461 20.9276 19.2216C22.9922 18.681 24.2744 16.5668 23.7502 14.5576C23.2099 12.4677 21.0647 11.1766 19.0405 11.7253ZM21.2179 13.2181C21.7583 13.5086 22.0083 13.7668 22.3228 14.372C22.5002 14.719 22.5325 14.8884 22.5325 15.4694C22.5405 16.0988 22.5164 16.1957 22.2663 16.6637C21.9599 17.2285 21.7018 17.4706 21.097 17.7934C20.7502 17.9709 20.5808 18.0032 20.0002 18.0032C19.4195 18.0032 19.2502 17.9709 18.9034 17.7934C18.2985 17.4706 18.0405 17.2285 17.734 16.6637C17.484 16.1957 17.4598 16.0988 17.4679 15.4694C17.4679 14.6625 17.6614 14.1783 18.1856 13.6538C18.9921 12.8469 20.1937 12.6775 21.2179 13.2181Z" fill="white"/>
<path d="M19.0405 20.7629C17.0001 21.3116 15.734 23.4338 16.2501 25.435C16.7905 27.5007 18.9034 28.7837 20.9276 28.2592C22.9922 27.7186 24.2744 25.6044 23.7502 23.5952C23.2099 21.5053 21.0647 20.2142 19.0405 20.7629ZM21.2179 22.2557C21.7583 22.5462 22.0083 22.8044 22.3228 23.4096C22.5002 23.7566 22.5325 23.926 22.5325 24.507C22.5405 25.1364 22.5164 25.2332 22.2663 25.7013C21.9599 26.2661 21.7018 26.5082 21.097 26.831C20.7502 27.0085 20.5808 27.0408 20.0002 27.0408C19.4195 27.0408 19.2502 27.0085 18.9034 26.831C18.2985 26.5082 18.0405 26.2661 17.734 25.7013C17.484 25.2332 17.4598 25.1364 17.4679 24.507C17.4679 23.7001 17.6614 23.2159 18.1856 22.6914C18.9921 21.8845 20.1937 21.7151 21.2179 22.2557Z" fill="white"/>
<path d="M1.58073 7.66657C1.47589 7.90865 1.36299 8.17494 1.3388 8.2637C1.29847 8.39281 1.74203 8.60261 5.06465 9.97438C7.13726 10.8378 8.87922 11.5398 8.94374 11.5479C9.00826 11.556 9.15342 11.33 9.28245 10.9992C9.41149 10.6925 9.50826 10.4343 9.5002 10.4182C9.47601 10.4021 2.19365 7.38415 1.90332 7.27118C1.81461 7.2389 1.7259 7.3438 1.58073 7.66657Z" fill="white"/>
<path d="M34.3554 8.81235C32.2909 9.67576 30.5812 10.3939 30.557 10.402C30.5005 10.4262 30.8796 11.4591 30.9763 11.5559C31.0167 11.5882 38.5974 8.49765 38.7022 8.40889C38.7587 8.35241 38.2668 7.23885 38.1861 7.24692C38.1458 7.24692 36.42 7.95701 34.3554 8.81235Z" fill="white"/>
<path d="M0 15.4694V16.115H4.19361H8.38721V15.4694V14.8239H4.19361H0V15.4694Z" fill="white"/>
<path d="M31.6133 15.4694V16.115H35.8069H40.0005V15.4694V14.8239H35.8069H31.6133V15.4694Z" fill="white"/>
<path d="M5.12102 20.9324C3.03228 21.8039 1.32258 22.5221 1.31451 22.5302C1.28225 22.5544 1.70161 23.5711 1.76613 23.6437C1.81452 23.6921 9.37914 20.6339 9.50011 20.5209C9.54043 20.4725 9.05656 19.3912 8.98397 19.3751C8.94365 19.367 7.20975 20.069 5.12102 20.9324Z" fill="white"/>
<path d="M30.7424 19.9237L30.5005 20.5047L30.7505 20.6176C31.9118 21.1098 38.049 23.6436 38.1458 23.6759C38.2345 23.7001 38.3312 23.5387 38.5006 23.1352C38.6296 22.8205 38.7183 22.5542 38.7022 22.5381C38.6619 22.4978 31.065 19.3427 31.0166 19.3427C31.0005 19.3427 30.8715 19.609 30.7424 19.9237Z" fill="white"/>
</svg>
