<svg width="46" height="50" viewBox="0 0 46 50" fill="none" xmlns="http://www.w3.org/2000/svg">
<path d="M0.746085 0.205276C0.0945354 0.595846 0.00830078 0.947358 0.00830078 3.07596C0.00830078 4.80423 0.027464 4.94093 0.228678 5.3022C0.784412 6.29816 2.2504 6.2591 2.72948 5.22409C2.95944 4.73588 2.95944 1.29887 2.72948 0.810659C2.38454 0.0783415 1.43596 -0.214585 0.746085 0.205276Z" fill="#0073E6"/>
<path d="M22.3331 0.18559C22.1511 0.283233 21.2408 1.15225 20.3018 2.10914C18.8933 3.56401 18.6059 3.91553 18.5484 4.21822C18.3376 5.35087 19.1712 6.21012 20.2635 6.00507C20.4647 5.96601 20.7905 5.76096 21.0779 5.49733L21.5666 5.04818V7.33301C21.5666 9.30538 21.5858 9.65689 21.7391 9.94982C22.2469 10.9946 23.7608 10.9946 24.2686 9.94982C24.4219 9.65689 24.4411 9.30538 24.4411 7.31348V5.02865L24.8052 5.38016C25.4663 6.0246 26.0316 6.19059 26.6832 5.90743C27.2868 5.65356 27.603 4.97006 27.4593 4.21822C27.4018 3.91553 27.1144 3.56401 25.7059 2.10914C24.7669 1.15225 23.847 0.283233 23.6554 0.175826C23.2146 -0.0585155 22.7643 -0.0585155 22.3331 0.18559Z" fill="#0073E6"/>
<path d="M43.9111 0.15654C43.7387 0.244415 43.4991 0.449467 43.3842 0.615456L43.1734 0.918148L43.1446 24.8893C43.1255 48.0989 43.1255 48.8703 43.2979 49.2023C43.5183 49.6124 44.1028 49.9834 44.5435 49.9834C45.0609 49.9834 45.5688 49.6514 45.7987 49.173L45.9999 48.7531V24.987V1.22084L45.7987 0.800976C45.4538 0.0881882 44.6202 -0.204739 43.9111 0.15654Z" fill="#0073E6"/>
<path d="M1.03347 11.0737C0.544804 11.2494 0.219029 11.5717 0.094468 11.9915C0.0369783 12.2063 0.00823343 13.0851 0.0273967 14.2178C0.0561415 16.3561 0.094468 16.4538 0.889742 16.8639C1.42631 17.1373 1.88623 17.0884 2.32699 16.7076C2.82523 16.278 2.88272 16.0046 2.88272 14.0029C2.88272 12.0599 2.82523 11.7474 2.39406 11.3568C2.19284 11.1713 2.02995 11.0932 1.54129 10.976C1.46464 10.9565 1.23468 10.9956 1.03347 11.0737Z" fill="#0073E6"/>
<path d="M15.5114 17.4588C14.0933 17.9274 12.9915 19.0503 12.5603 20.4857C12.3878 21.052 12.3687 21.4035 12.3687 24.6452V28.1896L11.2955 28.2189C10.0882 28.258 9.74329 28.4142 9.4271 29.0196C9.2163 29.4395 9.23546 30.123 9.46542 30.4354C9.87743 31.0017 10.1074 31.0896 11.2476 31.1384L12.3207 31.1873L12.3687 38.8522C12.4166 45.902 12.4261 46.5562 12.589 46.9565C13.1543 48.3918 14.3233 49.4464 15.7893 49.8369C16.6037 50.0518 29.4048 50.0518 30.2192 49.8369C31.6852 49.4464 32.8542 48.3918 33.4195 46.9565C33.5824 46.5562 33.5919 45.902 33.6398 38.8522L33.6878 31.1873L34.7609 31.1384C35.6424 31.0994 35.8724 31.0506 36.0927 30.8846C36.5431 30.5428 36.7251 30.2304 36.7251 29.7519C36.7251 29.2051 36.5143 28.7853 36.1119 28.4826C35.834 28.2873 35.6616 28.258 34.7226 28.2189L33.6398 28.1896V24.6452C33.6398 21.4035 33.6207 21.052 33.4482 20.4857C33.0075 19.0308 31.9152 17.9177 30.4875 17.4685C29.9126 17.283 29.5772 17.2732 22.9659 17.283C16.5558 17.283 16.0192 17.2928 15.5114 17.4588ZM17.0062 20.5833C17.1211 21.3547 18.0218 21.9112 18.7788 21.6769C19.2387 21.5402 19.7178 21.0129 19.804 20.5443L19.8615 20.2025H23.0042H26.147L26.2045 20.5443C26.2907 21.0129 26.7698 21.5402 27.2297 21.6769C27.9867 21.9112 28.8874 21.3547 29.0023 20.5735L29.0694 20.183L29.4527 20.2318C29.903 20.2904 30.248 20.5345 30.5546 20.9836C30.7558 21.2863 30.7654 21.3937 30.7654 23.1904V25.0846H23.0042H15.2431V23.2294C15.2431 21.2473 15.2815 21.0618 15.7414 20.6224C16.0097 20.3685 16.3546 20.2123 16.69 20.2123C16.9103 20.2025 16.9487 20.2513 17.0062 20.5833ZM30.7654 33.6283V39.2428H23.0042H15.2431V33.6283V28.0139H23.0042H30.7654V33.6283ZM30.7462 44.0956C30.7174 45.9605 30.7079 46.0387 30.4875 46.3609C30.3629 46.5366 30.0851 46.771 29.8647 46.8686C29.491 47.0444 29.1077 47.0541 23.0042 47.0541C16.9008 47.0541 16.5175 47.0444 16.1438 46.8686C15.9234 46.771 15.6456 46.5366 15.521 46.3609C15.3006 46.0387 15.291 45.9605 15.2623 44.0956L15.2336 42.172H23.0042H30.7749L30.7462 44.0956Z" fill="#0073E6"/>
<path d="M0.77483 22.1354C0.59278 22.2331 0.343657 22.4967 0.228678 22.7018C0.027464 23.063 0.00830078 23.1997 0.00830078 24.9671C0.00830078 26.666 0.027464 26.8906 0.199933 27.2324C0.717341 28.2576 2.24082 28.2381 2.72948 27.1933C2.95944 26.7051 2.95944 23.2681 2.72948 22.7799C2.39412 22.0671 1.45513 21.7546 0.77483 22.1354Z" fill="#0073E6"/>
<path d="M1.11 32.9642C0.774646 33.0521 0.276402 33.4915 0.142259 33.8332C-0.0493729 34.2921 -0.0493729 37.651 0.142259 38.11C0.515943 39.018 1.71364 39.2621 2.43227 38.5786C2.84428 38.1783 2.90177 37.8073 2.86344 35.7568C2.83469 34.048 2.81553 33.8625 2.63348 33.6184C2.25022 33.0814 1.63699 32.8275 1.11 32.9642Z" fill="#0073E6"/>
<path d="M0.77483 44.1056C0.592779 44.2032 0.343657 44.4668 0.228678 44.6719C0.027464 45.0332 0.00830078 45.1699 0.00830078 46.8981C0.00830078 49.0463 0.0945353 49.388 0.765249 49.7688C1.23475 50.0422 1.68508 50.0422 2.15458 49.759C2.81571 49.3685 2.88279 49.1341 2.88279 46.9567C2.88279 44.8769 2.8253 44.6035 2.27914 44.1837C1.92462 43.9103 1.18684 43.8712 0.77483 44.1056Z" fill="#0073E6"/>
</svg>
