<svg width="50" height="50" viewBox="0 0 50 50" fill="none" xmlns="http://www.w3.org/2000/svg">
<path d="M15.373 0.0666618C14.4657 0.207886 13.1552 0.641651 12.248 1.09559C9.6875 2.37671 7.78226 4.62623 6.9254 7.38013C6.5625 8.5402 6.45161 9.51869 6.45161 11.5059C6.45161 12.8778 6.42137 13.2813 6.31048 13.3721C6.22984 13.4327 6.06855 13.7252 5.9375 14.0177C5.59476 14.7945 5.60484 15.8638 5.95766 16.6203C6.43145 17.6291 7.43952 18.3655 8.53831 18.4966C9.02218 18.547 9.04234 18.5672 9.15323 18.9808C9.53629 20.4031 10.2923 21.6843 11.3911 22.7535L12.0968 23.4395V24.1961V24.9627L10.1109 25.0132C7.92339 25.0636 7.24798 25.1846 5.83669 25.7899C3.51815 26.7785 1.46169 28.9473 0.604839 31.3078C0.0100806 32.9621 0 33.1235 0 41.698V49.5057L0.252016 49.7478L0.493952 50H13.9617H27.4194V49.193V48.386H24.1532C21.119 48.386 20.877 48.3759 20.8266 48.2044C20.7964 48.1136 20.2722 45.047 19.6573 41.4054L18.5484 34.7779L19.0121 33.8398C19.2641 33.3253 19.496 32.8915 19.5061 32.8714C19.5262 32.8512 19.9899 33.0731 20.5544 33.3455C21.1089 33.6279 21.6734 33.8599 21.8044 33.8599C22.3387 33.8599 22.4194 33.6884 23.5887 30.1578C24.2137 28.2815 24.7581 26.7079 24.7984 26.6574C24.9093 26.5364 26.4113 26.8592 27.1875 27.1719C27.5403 27.3131 28.0948 27.6057 28.4274 27.8175L29.0323 28.2109V38.8533V49.5057L29.2843 49.7478L29.5262 50H39.5161H49.5061L49.748 49.7478L50 49.5057V36.2809V23.0562L49.748 22.8141L49.5061 22.5619H39.5161H29.5262L29.2843 22.8141C29.0423 23.0562 29.0323 23.0965 29.0323 24.6702V26.2741L28.3569 25.9412C26.9254 25.2452 25.5544 24.9829 23.2964 24.9829H21.7742V24.186V23.379L22.2379 23.0057C23.2359 22.1886 24.2036 20.6957 24.6573 19.2935L24.879 18.5874L25.4738 18.4663C26.6431 18.2242 27.4294 17.6291 27.9133 16.6102C28.2561 15.8638 28.2661 14.7844 27.9335 14.0177C27.8024 13.7252 27.6411 13.4327 27.5605 13.3721C27.4496 13.2813 27.4194 12.8778 27.4194 11.4757C27.4194 9.49852 27.2681 8.30819 26.8649 7.12794C25.6956 3.678 22.9839 1.18638 19.4052 0.258324C18.4778 0.02631 16.3407 -0.0846519 15.373 0.0666618ZM18.498 1.73111C22.1069 2.36662 25.0202 5.28192 25.6552 8.89326C25.7359 9.37746 25.8065 10.3257 25.8065 10.9814C25.8065 12.1919 25.8065 12.1919 25.5847 12.1314C25.4536 12.1011 25.2823 12.0708 25.1915 12.0708C25.0907 12.0708 24.9899 11.9599 24.9597 11.8186C24.869 11.4656 24.5464 11.2941 23.8004 11.2235C23.0544 11.1529 22.2278 10.7998 21.6129 10.3055C21.3811 10.1139 20.8871 9.54895 20.5141 9.04457C19.5061 7.68275 19.2036 7.68275 18.1956 9.03449C17.379 10.1441 16.9859 10.4972 16.129 10.9007L15.4738 11.2134L12.369 11.2638L9.25403 11.3143L9.0625 11.5564C8.96169 11.6875 8.87097 11.8489 8.87097 11.9296C8.87097 12.0103 8.79032 12.0708 8.6996 12.0708C8.59879 12.0708 8.41734 12.1011 8.29637 12.1314C8.06452 12.1919 8.06452 12.1919 8.06452 10.9814C8.06452 8.09634 8.90121 5.9477 10.7258 4.15211C12.7823 2.11443 15.625 1.23682 18.498 1.73111ZM19.7681 10.7191C20.4234 11.6068 21.7137 12.434 22.8629 12.6963L23.3871 12.8274V15.198C23.3871 17.9821 23.2863 18.5874 22.6613 19.8382C21.0282 23.1066 16.8851 24.3373 13.7097 22.4913C12.7016 21.9062 11.7036 20.8369 11.1996 19.8282C10.5847 18.5773 10.4839 17.962 10.4839 15.2282V12.898L13.0847 12.8577C15.3931 12.8173 15.7359 12.7871 16.2399 12.6055C17.4194 12.1616 18.3065 11.5564 18.9214 10.7494C19.123 10.477 19.3246 10.2551 19.3548 10.2551C19.3952 10.2551 19.5766 10.4669 19.7681 10.7191ZM8.87097 15.2989C8.87097 17.0843 8.88105 17.044 8.23589 16.7716C6.97581 16.2471 6.96573 14.3708 8.21573 13.8261C8.88105 13.5335 8.87097 13.5134 8.87097 15.2989ZM25.8972 13.9673C26.3911 14.3304 26.5625 14.6734 26.5625 15.2989C26.5625 15.7427 26.5121 15.9646 26.3508 16.1664C26.0686 16.5598 25.7157 16.8019 25.3327 16.8725L25 16.933V15.2989V13.6546L25.3327 13.7252C25.504 13.7555 25.7661 13.8664 25.8972 13.9673ZM33.871 25.5377C33.871 26.8592 33.8811 26.9197 34.123 27.1517L34.3649 27.4039H39.5161H44.6673L44.9093 27.1517C45.1512 26.9197 45.1613 26.8592 45.1613 25.5377V24.1759H46.7742H48.3871V36.2809V48.386H39.5161H30.6452V36.2809V24.1759H32.2581H33.871V25.5377ZM43.5484 24.9829V25.7899H39.5161H35.4839V24.9829V24.1759H39.5161H43.5484V24.9829ZM15.504 24.8417C16.8448 25.0939 18.3972 24.9728 19.6371 24.4987L20.1613 24.2969V24.9022V25.5074L18.5786 27.414C17.7016 28.4631 16.9657 29.3205 16.9355 29.3205C16.9052 29.3205 16.1694 28.4631 15.2923 27.414L13.7097 25.5074V24.9022V24.2969L14.244 24.4987C14.5262 24.6097 15.1008 24.761 15.504 24.8417ZM10.252 30.0771C11.4315 33.6279 11.5423 33.8599 12.0565 33.8599C12.1976 33.8599 12.752 33.638 13.2964 33.3556L14.3044 32.8613L14.8085 33.8196L15.3226 34.7779L14.2137 41.355C13.6089 44.9764 13.0847 48.0329 13.0544 48.154L13.004 48.386H9.72782H6.45161V42.737V37.0879H5.64516H4.83871V42.737V48.386H3.22581H1.60282L1.64315 40.7901C1.67339 32.3266 1.63306 32.8411 2.40927 31.1867C3.47782 28.917 5.51411 27.3131 8.06452 26.7381C9.14315 26.496 8.96169 26.2136 10.252 30.0771ZM14.0625 28.4328C14.8992 29.4416 15.5847 30.2889 15.6048 30.3192C15.6351 30.3999 12.621 31.9029 12.5706 31.8424C12.5504 31.8122 12.1371 30.6218 11.6633 29.1894L10.8065 26.5969L11.6734 26.607H12.5504L14.0625 28.4328ZM22.2177 29.139C21.744 30.5411 21.3206 31.7315 21.2702 31.7718C21.1895 31.8626 18.2258 30.4201 18.2661 30.3091C18.2863 30.2688 18.9819 29.4214 19.8085 28.4227L21.3206 26.607L22.1976 26.5969H23.0746L22.2177 29.139ZM17.4899 31.8122C17.7923 31.9635 18.0444 32.1249 18.0444 32.1652C18.0444 32.2157 17.8629 32.6091 17.6411 33.0529C17.2681 33.7893 17.2077 33.8599 16.9355 33.8599C16.6633 33.8599 16.6028 33.7893 16.2298 33.0529C16.0081 32.6091 15.8266 32.2157 15.8266 32.1652C15.8266 32.1047 16.7137 31.6003 16.9052 31.5499C16.9254 31.5398 17.1774 31.6608 17.4899 31.8122ZM17.0867 35.6959C17.1774 36.1095 19.1532 48.0733 19.1532 48.2347C19.1532 48.3658 18.8609 48.386 16.9355 48.386C15.0101 48.386 14.7177 48.3658 14.7177 48.2347C14.7177 48.0733 16.6936 36.1095 16.7843 35.6959C16.8145 35.5748 16.8851 35.4739 16.9355 35.4739C16.9859 35.4739 17.0565 35.5748 17.0867 35.6959Z" fill="#3D72FC"/>
<path d="M32.5102 29.2701C32.2582 29.5122 32.2582 29.5324 32.2582 31.439C32.2582 34.0315 32.0868 33.86 34.6776 33.86C37.2683 33.86 37.0969 34.0315 37.0969 31.439C37.0969 28.8465 37.2683 29.0179 34.6776 29.0179C32.7723 29.0179 32.7522 29.0179 32.5102 29.2701ZM35.484 31.439V32.246H34.6776H33.8711V31.439V30.6319H34.6776H35.484V31.439Z" fill="#3D72FC"/>
<path d="M38.7095 29.8248V30.6318H42.7417H46.774V29.8248V29.0178H42.7417H38.7095V29.8248Z" fill="#3D72FC"/>
<path d="M38.7095 33.0533V33.8604H42.7417H46.774V33.0533V32.2463H42.7417H38.7095V33.0533Z" fill="#3D72FC"/>
<path d="M32.5102 35.7262C32.2582 35.9683 32.2582 35.9885 32.2582 37.895C32.2582 40.4875 32.0868 40.316 34.6776 40.316C37.2683 40.316 37.0969 40.4875 37.0969 37.895C37.0969 35.3025 37.2683 35.474 34.6776 35.474C32.7723 35.474 32.7522 35.474 32.5102 35.7262ZM35.484 37.895V38.702H34.6776H33.8711V37.895V37.088H34.6776H35.484V37.895Z" fill="#3D72FC"/>
<path d="M38.7095 36.2809V37.0879H42.7417H46.774V36.2809V35.4739H42.7417H38.7095V36.2809Z" fill="#3D72FC"/>
<path d="M38.7095 39.5094V40.3164H42.7417H46.774V39.5094V38.7024H42.7417H38.7095V39.5094Z" fill="#3D72FC"/>
<path d="M32.5102 42.1822C32.2582 42.4243 32.2582 42.4445 32.2582 44.3511C32.2582 46.9436 32.0868 46.7721 34.6776 46.7721C37.2683 46.7721 37.0969 46.9436 37.0969 44.3511C37.0969 41.7586 37.2683 41.9301 34.6776 41.9301C32.7723 41.9301 32.7522 41.9301 32.5102 42.1822ZM35.484 44.3511V45.1581H34.6776H33.8711V44.3511V43.5441H34.6776H35.484V44.3511Z" fill="#3D72FC"/>
<path d="M38.7095 42.7369V43.5439H42.7417H46.774V42.7369V41.9299H42.7417H38.7095V42.7369Z" fill="#3D72FC"/>
<path d="M38.7095 45.9655V46.7725H42.7417H46.774V45.9655V45.1585H42.7417H38.7095V45.9655Z" fill="#3D72FC"/>
</svg>
